%TF.GenerationSoftware,KiCad,Pcbnew,7.0.2-0*%
%TF.CreationDate,2024-01-11T21:21:20+00:00*%
%TF.ProjectId,magnum-drum-synth,6d61676e-756d-42d6-9472-756d2d73796e,r06*%
%TF.SameCoordinates,Original*%
%TF.FileFunction,Profile,NP*%
%FSLAX46Y46*%
G04 Gerber Fmt 4.6, Leading zero omitted, Abs format (unit mm)*
G04 Created by KiCad (PCBNEW 7.0.2-0) date 2024-01-11 21:21:20*
%MOMM*%
%LPD*%
G01*
G04 APERTURE LIST*
%TA.AperFunction,Profile*%
%ADD10C,0.050000*%
%TD*%
G04 APERTURE END LIST*
D10*
X132000000Y-92000000D02*
X132000000Y-103000000D01*
X130000000Y-62000000D02*
X130000000Y-73000000D01*
X232000000Y-134500000D02*
X232000000Y-30500000D01*
X132000000Y-62000000D02*
X132000000Y-73000000D01*
X130000000Y-122000000D02*
X130000000Y-134500000D01*
X132000000Y-77000000D02*
X132000000Y-88000000D01*
X132000000Y-107000000D02*
X132000000Y-118000000D01*
X132500000Y-135000000D02*
X231500000Y-135000000D01*
X199800000Y-123000000D02*
G75*
G03*
X199800000Y-123000000I-2700000J0D01*
G01*
X30000000Y-134500000D02*
G75*
G03*
X30500000Y-135000000I500000J0D01*
G01*
X132000000Y-134500000D02*
G75*
G03*
X132500000Y-135000000I500000J0D01*
G01*
X132500000Y-30000000D02*
G75*
G03*
X132000000Y-30500000I0J-500000D01*
G01*
X130000000Y-92000000D02*
X130000000Y-103000000D01*
X30000000Y-30500000D02*
X30000000Y-134500000D01*
X30500000Y-135000000D02*
X129500000Y-135000000D01*
X132000000Y-122000000D02*
X132000000Y-134500000D01*
X231500000Y-30000000D02*
X132500000Y-30000000D01*
X132000000Y-30500000D02*
X132000000Y-43000000D01*
X130000000Y-43000000D02*
X130000000Y-30500000D01*
X232000000Y-30500000D02*
G75*
G03*
X231500000Y-30000000I-500000J0D01*
G01*
X132000000Y-47000000D02*
X132000000Y-58000000D01*
X130000000Y-47000000D02*
X130000000Y-58000000D01*
X130000000Y-107000000D02*
X130000000Y-118000000D01*
X130000000Y-77000000D02*
X130000000Y-88000000D01*
X129500000Y-135000000D02*
G75*
G03*
X130000000Y-134500000I0J500000D01*
G01*
X231500000Y-135000000D02*
G75*
G03*
X232000000Y-134500000I0J500000D01*
G01*
X30500000Y-30000000D02*
G75*
G03*
X30000000Y-30500000I0J-500000D01*
G01*
X129500000Y-30000000D02*
X30500000Y-30000000D01*
X130000000Y-30500000D02*
G75*
G03*
X129500000Y-30000000I-500000J0D01*
G01*
%TO.C,H5*%
X132000000Y-77000000D02*
G75*
G03*
X130000000Y-77000000I-1000000J0D01*
G01*
X130000000Y-73000000D02*
G75*
G03*
X132000000Y-73000000I1000000J0D01*
G01*
%TO.C,H6*%
X132000000Y-92000000D02*
G75*
G03*
X130000000Y-92000000I-1000000J0D01*
G01*
X130000000Y-88000000D02*
G75*
G03*
X132000000Y-88000000I1000000J0D01*
G01*
%TO.C,H8*%
X131999992Y-121999989D02*
G75*
G03*
X129999992Y-121999989I-1000000J0D01*
G01*
X129999992Y-117999989D02*
G75*
G03*
X131999992Y-117999989I1000000J0D01*
G01*
%TO.C,H4*%
X132000000Y-62000000D02*
G75*
G03*
X130000000Y-62000000I-1000000J0D01*
G01*
X130000000Y-58000000D02*
G75*
G03*
X132000000Y-58000000I1000000J0D01*
G01*
%TO.C,H7*%
X132000000Y-107000000D02*
G75*
G03*
X130000000Y-107000000I-1000000J0D01*
G01*
X130000000Y-103000000D02*
G75*
G03*
X132000000Y-103000000I1000000J0D01*
G01*
%TO.C,H3*%
X131999992Y-47000012D02*
G75*
G03*
X129999992Y-47000012I-1000000J0D01*
G01*
X129999992Y-43000012D02*
G75*
G03*
X131999992Y-43000012I1000000J0D01*
G01*
%TD*%
M02*
