M48
; DRILL file {KiCad 7.0.2-0} date 2023 July 15, Saturday 16:58:01
; FORMAT={-:-/ absolute / inch / decimal}
; #@! TF.CreationDate,2023-07-15T16:58:01+01:00
; #@! TF.GenerationSoftware,Kicad,Pcbnew,7.0.2-0
; #@! TF.FileFunction,NonPlated,1,2,NPTH
FMAT,2
INCH
; #@! TA.AperFunction,NonPlated,NPTH,ComponentDrill
T1C0.0197
%
G90
G05
T1
X5.128Y-1.7421
X5.128Y-1.7717
X5.128Y-1.8012
X5.128Y-4.6949
X5.128Y-4.7244
X5.128Y-4.7539
X5.128Y-2.3327
X5.128Y-2.3622
X5.128Y-2.3917
X5.128Y-2.9232
X5.128Y-2.9528
X5.128Y-2.9823
X5.128Y-3.5138
X5.128Y-3.5433
X5.128Y-3.5728
X5.128Y-4.1043
X5.128Y-4.1339
X5.128Y-4.1634
X5.187Y-1.7421
X5.187Y-1.7717
X5.187Y-1.8012
X5.187Y-4.6949
X5.187Y-4.7244
X5.187Y-4.7539
X5.187Y-2.3327
X5.187Y-2.3622
X5.187Y-2.3917
X5.187Y-2.9232
X5.187Y-2.9528
X5.187Y-2.9823
X5.187Y-3.5138
X5.187Y-3.5433
X5.187Y-3.5728
X5.187Y-4.1043
X5.187Y-4.1339
X5.187Y-4.1634
T0
M30
