M48
; DRILL file {KiCad (6.0.6-0)} date Wednesday, 29 June 2022 at 09:24:36
; FORMAT={-:-/ absolute / metric / decimal}
; #@! TF.CreationDate,2022-06-29T09:24:36+01:00
; #@! TF.GenerationSoftware,Kicad,Pcbnew,(6.0.6-0)
; #@! TF.FileFunction,MixedPlating,1,2
FMAT,2
METRIC
; #@! TA.AperFunction,Plated,PTH,ViaDrill
T1C0.381
; #@! TA.AperFunction,Plated,PTH,ComponentDrill
T2C0.600
; #@! TA.AperFunction,Plated,PTH,ComponentDrill
T3C0.800
; #@! TA.AperFunction,Plated,PTH,ComponentDrill
T4C1.000
; #@! TA.AperFunction,Plated,PTH,ComponentDrill
T5C1.100
; #@! TA.AperFunction,Plated,PTH,ComponentDrill
T6C1.200
; #@! TA.AperFunction,Plated,PTH,ComponentDrill
T7C3.200
; #@! TA.AperFunction,NonPlated,NPTH,ComponentDrill
T8C0.500
%
G90
G05
T1
X50.165Y-70.358
X109.22Y-60.452
X148.082Y-67.056
X157.734Y-58.039
X163.83Y-70.104
X167.513Y-58.039
X187.579Y-58.547
X189.484Y-80.01
T2
X155.956Y-117.221
X155.956Y-119.221
T3
X39.537Y-67.993
X39.537Y-73.993
X42.037Y-67.993
X42.037Y-73.993
X44.537Y-67.993
X44.537Y-73.993
X50.038Y-106.934
X54.356Y-114.34
X54.356Y-119.34
X57.785Y-112.268
X57.785Y-115.316
X57.785Y-118.364
X60.198Y-106.934
X62.23Y-127.381
X64.77Y-130.556
X65.866Y-108.458
X65.866Y-123.698
X67.945Y-112.268
X67.945Y-115.316
X67.945Y-118.364
X70.866Y-108.458
X70.866Y-112.268
X70.866Y-114.808
X70.866Y-117.348
X70.866Y-119.888
X70.866Y-123.698
X72.39Y-127.381
X72.39Y-130.556
X73.486Y-108.458
X78.486Y-108.458
X78.486Y-112.268
X78.486Y-114.808
X78.486Y-117.348
X78.486Y-119.888
X79.731Y-122.987
X79.731Y-130.607
X82.042Y-107.188
X82.042Y-117.348
X85.979Y-112.348
X85.979Y-117.348
X90.297Y-103.886
X90.297Y-114.046
X93.345Y-103.886
X93.345Y-114.046
X96.393Y-103.886
X96.393Y-114.046
X99.441Y-103.886
X99.441Y-114.046
X102.362Y-114.046
X111.84Y-82.0
X112.522Y-114.046
X122.0Y-82.0
X135.255Y-34.29
X135.255Y-37.338
X135.255Y-40.386
X135.255Y-43.434
X135.255Y-46.482
X135.255Y-113.157
X135.255Y-123.317
X136.525Y-70.819
X136.525Y-75.819
X138.303Y-113.157
X138.303Y-123.317
X139.065Y-56.293
X139.065Y-58.293
X139.065Y-78.867
X139.065Y-86.487
X139.065Y-89.281
X139.065Y-99.441
X139.065Y-102.108
X139.065Y-109.728
X140.589Y-70.819
X140.589Y-75.819
X141.351Y-113.157
X141.351Y-123.317
X141.605Y-78.867
X141.605Y-86.487
X142.113Y-89.281
X142.113Y-99.441
X142.875Y-102.489
X142.875Y-110.109
X144.145Y-65.913
X144.145Y-76.073
X144.145Y-78.867
X144.145Y-86.487
X145.415Y-34.29
X145.415Y-37.338
X145.415Y-40.386
X145.415Y-43.434
X145.415Y-46.482
X145.415Y-99.06
X145.415Y-102.489
X145.415Y-110.109
X145.415Y-113.411
X145.415Y-116.459
X145.415Y-121.459
X145.542Y-56.293
X145.542Y-58.293
X146.685Y-78.867
X146.685Y-86.487
X147.955Y-90.583
X147.955Y-92.583
X147.955Y-102.489
X147.955Y-110.109
X148.844Y-33.782
X148.844Y-36.322
X148.844Y-38.862
X148.844Y-41.482
X148.844Y-46.482
X149.225Y-78.867
X149.225Y-86.487
X150.495Y-102.489
X150.495Y-110.109
X150.495Y-116.459
X150.495Y-121.459
X150.876Y-124.714
X151.765Y-65.913
X151.765Y-76.073
X151.765Y-78.867
X151.765Y-86.487
X152.019Y-56.293
X152.019Y-58.293
X153.035Y-99.06
X153.035Y-102.489
X153.035Y-110.109
X153.924Y-33.862
X153.924Y-38.862
X154.178Y-41.402
X154.178Y-43.942
X154.178Y-46.482
X154.305Y-78.867
X154.305Y-86.487
X155.448Y-70.866
X155.448Y-75.866
X155.575Y-102.489
X155.575Y-110.109
X155.575Y-113.411
X155.702Y-99.06
X156.845Y-93.428
X156.845Y-95.428
X158.115Y-79.121
X158.115Y-89.281
X158.115Y-102.489
X158.115Y-110.109
X161.036Y-124.714
X161.29Y-73.914
X161.29Y-81.534
X162.052Y-84.201
X162.052Y-86.741
X162.052Y-89.281
X162.306Y-102.362
X162.306Y-107.362
X163.322Y-33.909
X163.322Y-44.069
X163.83Y-73.914
X163.83Y-81.534
X165.862Y-99.06
X166.37Y-33.909
X166.37Y-44.069
X167.386Y-103.251
X171.069Y-71.12
X171.069Y-74.041
X171.069Y-76.581
X171.069Y-79.121
X171.323Y-33.909
X171.323Y-44.069
X172.847Y-113.03
X174.498Y-88.773
X174.498Y-98.933
X175.387Y-113.03
X176.149Y-33.909
X176.149Y-36.449
X176.149Y-38.989
X176.149Y-41.529
X176.149Y-45.339
X176.657Y-74.041
X176.657Y-76.581
X176.657Y-79.121
X177.546Y-99.314
X177.546Y-103.251
X177.927Y-113.03
X178.054Y-48.641
X178.054Y-58.801
X179.959Y-76.073
X180.086Y-99.314
X180.467Y-83.947
X180.975Y-103.759
X180.975Y-111.379
X181.102Y-48.641
X181.102Y-58.801
X181.149Y-45.339
X181.229Y-71.12
X182.626Y-99.314
X183.515Y-103.759
X183.515Y-111.379
X183.769Y-33.909
X183.769Y-36.449
X183.769Y-38.989
X183.769Y-41.529
X183.896Y-114.173
X183.896Y-124.333
X184.15Y-48.641
X184.15Y-58.801
X185.547Y-90.551
X185.547Y-100.711
X186.055Y-103.759
X186.055Y-111.379
X186.944Y-114.173
X186.944Y-124.333
X187.198Y-33.909
X187.198Y-38.481
X187.198Y-48.641
X188.595Y-90.551
X188.595Y-100.711
X188.595Y-103.759
X188.595Y-111.379
X189.992Y-114.173
X189.992Y-124.333
X190.119Y-76.073
X190.627Y-83.947
X190.881Y-43.641
X190.881Y-48.641
X191.135Y-103.759
X191.135Y-111.379
X192.198Y-33.909
X192.913Y-74.803
X192.913Y-78.867
X193.675Y-99.822
X193.675Y-103.759
X193.675Y-111.379
X193.675Y-115.269
X193.675Y-120.269
X195.072Y-83.947
X195.072Y-94.107
X195.453Y-74.803
X195.453Y-78.867
X196.215Y-59.944
X196.215Y-70.104
X196.215Y-103.759
X196.215Y-111.379
X197.993Y-74.803
X197.993Y-78.867
X198.12Y-83.947
X198.12Y-94.107
X198.675Y-99.822
X198.755Y-103.759
X198.755Y-111.379
X200.406Y-57.404
X200.406Y-67.564
X201.422Y-73.533
X201.422Y-83.693
X201.803Y-125.095
X202.057Y-86.487
X202.057Y-94.107
X202.057Y-96.901
X202.057Y-107.061
X203.327Y-46.99
X203.327Y-54.61
X203.454Y-57.404
X203.454Y-67.564
X203.803Y-125.095
X203.835Y-34.036
X203.835Y-44.196
X204.47Y-73.533
X204.47Y-83.693
X204.597Y-86.487
X204.597Y-94.107
X205.105Y-96.901
X205.105Y-107.061
X205.867Y-46.99
X205.867Y-54.61
X206.502Y-57.404
X206.502Y-67.564
X206.883Y-34.036
X206.883Y-44.196
X207.137Y-86.487
X207.137Y-94.107
X207.518Y-73.533
X207.518Y-83.693
X208.153Y-96.901
X208.153Y-107.061
X208.407Y-46.99
X208.407Y-54.61
X209.55Y-57.404
X209.55Y-67.564
X209.677Y-86.487
X209.677Y-94.107
X209.931Y-34.036
X209.931Y-44.196
X210.185Y-123.857
X210.185Y-125.857
X210.566Y-73.533
X210.566Y-83.693
X210.947Y-46.99
X210.947Y-54.61
X211.201Y-96.901
X211.201Y-107.061
X212.217Y-86.487
X212.217Y-94.107
X212.598Y-57.404
X212.598Y-67.564
X212.979Y-34.036
X212.979Y-44.196
X213.487Y-46.99
X213.487Y-54.61
X213.614Y-73.533
X213.614Y-83.693
X214.757Y-86.487
X214.757Y-94.107
X214.757Y-97.155
X214.757Y-102.155
X216.027Y-46.99
X216.027Y-54.61
X216.154Y-57.658
X216.154Y-62.658
X216.535Y-38.942
X216.535Y-43.942
X217.17Y-78.439
X217.17Y-83.439
X217.297Y-86.487
X217.297Y-94.107
X218.567Y-46.99
X218.567Y-54.61
X218.821Y-97.155
X218.821Y-102.155
X219.837Y-86.487
X219.837Y-94.107
X220.218Y-57.658
X220.218Y-62.658
X220.599Y-38.942
X220.599Y-43.942
X221.107Y-46.99
X221.107Y-54.61
X221.234Y-78.439
X221.234Y-83.439
X223.266Y-86.106
X223.266Y-96.266
X223.774Y-57.404
X223.774Y-67.564
X224.155Y-101.981
X224.155Y-103.981
X225.679Y-43.688
X225.679Y-53.848
X226.314Y-86.106
X226.314Y-96.266
X228.854Y-43.688
X228.854Y-53.848
X228.854Y-56.388
X228.854Y-66.548
X229.362Y-81.153
X229.362Y-91.313
X229.362Y-93.599
X229.362Y-103.759
T4
X32.766Y-106.172
X32.766Y-108.712
X37.084Y-62.484
X39.5Y-58.5
X39.624Y-62.484
X42.0Y-58.5
X42.164Y-62.484
X44.5Y-58.5
X44.704Y-62.484
X47.244Y-62.484
X47.5Y-103.5
X49.784Y-62.484
X50.0Y-103.5
X52.5Y-103.5
X58.5Y-58.5
X59.69Y-62.484
X61.0Y-58.5
X62.23Y-62.484
X63.5Y-58.5
X64.77Y-62.484
X64.8Y-78.5
X65.786Y-84.328
X67.3Y-78.5
X67.31Y-62.484
X68.326Y-84.328
X69.8Y-78.5
X70.866Y-84.328
X72.644Y-62.484
X73.406Y-84.328
X75.184Y-62.484
X77.5Y-58.5
X77.5Y-103.5
X77.724Y-62.484
X80.0Y-58.5
X80.0Y-103.5
X80.264Y-62.484
X82.5Y-58.5
X82.5Y-103.5
X82.804Y-62.484
X83.571Y-130.683
X85.344Y-62.484
X86.111Y-130.683
X90.25Y-78.5
X92.75Y-78.5
X95.25Y-78.5
X96.5Y-58.5
X99.0Y-58.5
X100.584Y-118.364
X101.5Y-58.5
X103.124Y-118.364
X105.664Y-118.364
X107.5Y-103.5
X108.204Y-118.364
X110.0Y-103.5
X112.5Y-103.5
X115.5Y-58.5
X115.5Y-78.5
X118.0Y-58.5
X118.0Y-78.5
X120.5Y-58.5
X120.5Y-78.5
X127.127Y-72.009
X127.127Y-74.549
X134.747Y-106.172
X134.747Y-108.712
X139.065Y-62.484
X141.605Y-62.484
X144.145Y-62.484
X145.415Y-124.714
X145.542Y-52.197
X146.685Y-62.484
X149.225Y-62.484
X151.765Y-62.484
X151.892Y-95.504
X152.019Y-52.197
X157.099Y-52.197
X160.909Y-48.26
X161.671Y-62.484
X162.56Y-93.98
X164.211Y-62.484
X165.735Y-48.387
X166.751Y-62.484
X166.751Y-67.31
X166.751Y-93.98
X167.767Y-84.328
X168.275Y-48.387
X169.291Y-62.484
X169.291Y-67.31
X170.307Y-84.328
X170.307Y-99.06
X170.815Y-48.387
X171.831Y-67.31
X172.847Y-84.328
X174.625Y-62.484
X175.387Y-84.328
X177.165Y-62.484
X179.705Y-62.484
X180.467Y-88.138
X182.245Y-62.484
X184.785Y-62.484
X187.325Y-62.484
X197.46Y-34.036
X202.565Y-118.364
X205.105Y-118.364
X205.994Y-112.014
X207.645Y-118.364
X210.185Y-118.364
X221.996Y-116.84
X221.996Y-119.38
X221.996Y-121.92
X221.996Y-124.46
X221.996Y-127.0
X224.536Y-116.84
X224.536Y-119.38
X224.536Y-121.92
X224.536Y-124.46
X224.536Y-127.0
X229.108Y-72.009
X229.108Y-74.549
T5
X43.581Y-126.532
X43.581Y-131.532
X46.081Y-129.032
X197.358Y-130.81
X207.518Y-130.81
X216.154Y-114.554
X216.154Y-124.714
T7
X34.163Y-131.191
X126.746Y-33.274
X136.144Y-131.191
X228.727Y-33.274
T8
X130.25Y-44.25
X130.25Y-45.0
X130.25Y-45.75
X130.25Y-119.25
X130.25Y-120.0
X130.25Y-120.75
X130.25Y-59.25
X130.25Y-60.0
X130.25Y-60.75
X130.25Y-74.25
X130.25Y-75.0
X130.25Y-75.75
X130.25Y-89.25
X130.25Y-90.0
X130.25Y-90.75
X130.25Y-104.25
X130.25Y-105.0
X130.25Y-105.75
X131.75Y-44.25
X131.75Y-45.0
X131.75Y-45.75
X131.75Y-119.25
X131.75Y-120.0
X131.75Y-120.75
X131.75Y-59.25
X131.75Y-60.0
X131.75Y-60.75
X131.75Y-74.25
X131.75Y-75.0
X131.75Y-75.75
X131.75Y-89.25
X131.75Y-90.0
X131.75Y-90.75
X131.75Y-104.25
X131.75Y-105.0
X131.75Y-105.75
T2
G00X35.52Y-38.5
M15
G01X35.52Y-37.5
M16
G05
G00X38.62Y-38.5
M15
G01X38.62Y-37.5
M16
G05
G00X46.92Y-38.5
M15
G01X46.92Y-37.5
M16
G05
G00X62.33Y-37.5
M15
G01X62.33Y-38.5
M16
G05
G00X70.63Y-37.5
M15
G01X70.63Y-38.5
M16
G05
G00X73.73Y-37.5
M15
G01X73.73Y-38.5
M16
G05
G00X86.27Y-38.5
M15
G01X86.27Y-37.5
M16
G05
G00X89.37Y-38.5
M15
G01X89.37Y-37.5
M16
G05
G00X97.67Y-38.5
M15
G01X97.67Y-37.5
M16
G05
G00X113.08Y-37.5
M15
G01X113.08Y-38.5
M16
G05
G00X121.38Y-37.5
M15
G01X121.38Y-38.5
M16
G05
G00X124.48Y-37.5
M15
G01X124.48Y-38.5
M16
G05
T5
G00X45.2Y-95.65
M15
G01X45.2Y-96.35
M16
G05
G00X54.8Y-95.65
M15
G01X54.8Y-96.35
M16
G05
G00X62.5Y-70.65
M15
G01X62.5Y-71.35
M16
G05
G00X72.1Y-70.65
M15
G01X72.1Y-71.35
M16
G05
G00X75.2Y-95.65
M15
G01X75.2Y-96.35
M16
G05
G00X84.8Y-95.65
M15
G01X84.8Y-96.35
M16
G05
G00X87.95Y-70.65
M15
G01X87.95Y-71.35
M16
G05
G00X97.55Y-70.65
M15
G01X97.55Y-71.35
M16
G05
G00X105.2Y-95.65
M15
G01X105.2Y-96.35
M16
G05
G00X113.2Y-70.65
M15
G01X113.2Y-71.35
M16
G05
G00X114.8Y-95.65
M15
G01X114.8Y-96.35
M16
G05
G00X122.8Y-70.65
M15
G01X122.8Y-71.35
M16
G05
T6
G00X37.2Y-50.5
M15
G01X37.2Y-51.5
M16
G05
G00X46.8Y-50.5
M15
G01X46.8Y-51.5
M16
G05
G00X56.2Y-50.5
M15
G01X56.2Y-51.5
M16
G05
G00X65.8Y-50.5
M15
G01X65.8Y-51.5
M16
G05
G00X75.2Y-50.5
M15
G01X75.2Y-51.5
M16
G05
G00X84.8Y-50.5
M15
G01X84.8Y-51.5
M16
G05
G00X94.2Y-50.5
M15
G01X94.2Y-51.5
M16
G05
G00X103.8Y-50.5
M15
G01X103.8Y-51.5
M16
G05
G00X113.2Y-50.5
M15
G01X113.2Y-51.5
M16
G05
G00X122.8Y-50.5
M15
G01X122.8Y-51.5
M16
G05
T0
M30
