M48
; DRILL file {KiCad 7.0.2-0} date 2023 July 19, Wednesday 19:35:05
; FORMAT={-:-/ absolute / inch / decimal}
; #@! TF.CreationDate,2023-07-19T19:35:05+01:00
; #@! TF.GenerationSoftware,Kicad,Pcbnew,7.0.2-0
; #@! TF.FileFunction,Plated,1,2,PTH
FMAT,2
INCH
; #@! TA.AperFunction,Plated,PTH,ViaDrill
T1C0.0150
; #@! TA.AperFunction,Plated,PTH,ComponentDrill
T2C0.0236
; #@! TA.AperFunction,Plated,PTH,ComponentDrill
T3C0.0315
; #@! TA.AperFunction,Plated,PTH,ComponentDrill
T4C0.0394
; #@! TA.AperFunction,Plated,PTH,ComponentDrill
T5C0.0433
; #@! TA.AperFunction,Plated,PTH,ComponentDrill
T6C0.0472
; #@! TA.AperFunction,Plated,PTH,ComponentDrill
T7C0.0709
; #@! TA.AperFunction,Plated,PTH,ComponentDrill
T8C0.1260
%
G90
G05
T1
X3.555Y-2.94
X7.35Y-2.91
X8.09Y-3.07
T2
X5.85Y-3.94
X5.85Y-4.0187
T3
X1.5369Y-2.6966
X1.5369Y-2.795
X1.5369Y-2.8934
X1.7731Y-2.6966
X1.7731Y-2.795
X1.7731Y-2.8934
X1.82Y-4.83
X1.82Y-4.95
X1.82Y-5.07
X2.22Y-4.83
X2.22Y-4.95
X2.22Y-5.07
X2.32Y-4.43
X2.32Y-5.07
X2.39Y-3.92
X2.39Y-4.32
X2.51Y-3.92
X2.51Y-4.32
X2.5131Y-4.57
X2.5131Y-4.77
X2.5131Y-4.93
X2.71Y-4.57
X2.71Y-4.77
X2.71Y-4.93
X2.71Y-5.2
X2.72Y-4.43
X2.72Y-5.07
X2.725Y-3.92
X2.725Y-4.32
X2.8404Y-4.4698
X2.8404Y-4.5698
X2.8404Y-4.6698
X2.8404Y-4.7698
X2.8404Y-4.8698
X2.8404Y-4.9698
X2.8404Y-5.0698
X2.89Y-4.21
X2.89Y-4.33
X3.11Y-5.2
X3.1404Y-4.4698
X3.1404Y-4.5698
X3.1404Y-4.6698
X3.1404Y-4.7698
X3.1404Y-4.8698
X3.1404Y-4.9698
X3.1404Y-5.0698
X3.26Y-4.45
X3.26Y-5.07
X3.26Y-5.19
X3.27Y-4.59
X3.27Y-4.77
X3.27Y-4.93
X3.29Y-4.21
X3.29Y-4.33
X3.4669Y-4.59
X3.4669Y-4.77
X3.4669Y-4.93
X3.66Y-3.79
X3.66Y-4.19
X3.66Y-4.45
X3.66Y-5.07
X3.66Y-5.19
X3.78Y-3.79
X3.78Y-4.19
X3.81Y-5.08
X3.9Y-3.79
X3.9Y-4.19
X4.05Y-4.44
X4.05Y-4.84
X4.19Y-4.6431
X4.19Y-4.84
X4.21Y-5.08
X4.38Y-4.3
X4.38Y-4.6
X4.4031Y-3.2283
X4.48Y-4.3
X4.48Y-4.6
X4.8031Y-3.2283
X5.38Y-3.08
X5.38Y-3.38
X5.44Y-2.59
X5.44Y-2.99
X5.56Y-2.59
X5.56Y-2.99
X5.575Y-3.105
X5.575Y-3.405
X5.675Y-3.105
X5.675Y-3.405
X5.775Y-3.105
X5.775Y-3.405
X5.83Y-2.7831
X5.83Y-2.98
X5.875Y-3.105
X5.875Y-3.405
X5.875Y-3.525
X5.875Y-3.7219
X5.97Y-2.69
X5.97Y-2.99
X5.975Y-3.105
X5.975Y-3.405
X5.98Y-1.4824
X5.98Y-1.5611
X5.98Y-1.7237
X5.98Y-1.8024
X6.075Y-3.105
X6.075Y-3.405
X6.105Y-2.5
X6.12Y-3.52
X6.12Y-3.92
X6.1363Y-2.01
X6.175Y-3.105
X6.175Y-3.405
X6.2Y-4.49
X6.2002Y-4.6103
X6.2002Y-4.7303
X6.2002Y-4.8503
X6.215Y-2.01
X6.24Y-3.52
X6.24Y-3.92
X6.2631Y-2.355
X6.335Y-1.425
X6.335Y-1.825
X6.35Y-3.46
X6.39Y-5.01
X6.405Y-2.02
X6.405Y-2.12
X6.405Y-2.22
X6.455Y-1.425
X6.455Y-1.825
X6.46Y-2.355
X6.505Y-2.5
X6.505Y-3.34
X6.575Y-3.12
X6.575Y-3.1987
X6.58Y-1.4298
X6.58Y-1.5298
X6.58Y-1.6298
X6.58Y-1.7298
X6.58Y-1.8298
X6.58Y-1.9298
X6.58Y-2.0298
X6.5869Y-5.01
X6.6Y-4.49
X6.6002Y-4.6103
X6.6002Y-4.7303
X6.6002Y-4.8503
X6.615Y-2.605
X6.615Y-2.725
X6.74Y-4.51
X6.74Y-4.61
X6.74Y-4.71
X6.74Y-4.81
X6.74Y-4.91
X6.74Y-5.01
X6.74Y-5.11
X6.74Y-5.21
X6.75Y-3.46
X6.77Y-4.165
X6.77Y-4.265
X6.77Y-4.365
X6.775Y-2.21
X6.8537Y-2.21
X6.88Y-1.4298
X6.88Y-1.5298
X6.88Y-1.6298
X6.88Y-1.7298
X6.88Y-1.8298
X6.88Y-1.9298
X6.88Y-2.0298
X6.905Y-3.34
X6.9189Y-3.0
X6.985Y-2.345
X6.995Y-2.05
X6.9976Y-3.0
X7.0Y-1.43
X7.0Y-1.61
X7.0Y-1.91
X7.0058Y-4.165
X7.0058Y-4.265
X7.0058Y-4.365
X7.015Y-2.605
X7.015Y-2.725
X7.04Y-4.51
X7.04Y-4.61
X7.04Y-4.71
X7.04Y-4.81
X7.04Y-4.91
X7.04Y-5.01
X7.04Y-5.11
X7.04Y-5.21
X7.06Y-3.66
X7.06Y-4.06
X7.1602Y-4.6503
X7.1602Y-4.7703
X7.1602Y-4.8903
X7.1819Y-2.345
X7.195Y-5.01
X7.195Y-5.2069
X7.1969Y-1.43
X7.1969Y-1.61
X7.1969Y-1.91
X7.31Y-3.7842
X7.31Y-3.95
X7.37Y-4.12
X7.37Y-4.52
X7.385Y-2.185
X7.395Y-2.05
X7.41Y-3.7842
X7.41Y-3.95
X7.425Y-2.29
X7.425Y-2.59
X7.44Y-1.87
X7.49Y-4.12
X7.49Y-4.52
X7.51Y-3.7842
X7.51Y-3.95
X7.5187Y-1.87
X7.525Y-2.29
X7.525Y-2.59
X7.5602Y-4.6503
X7.5602Y-4.7703
X7.5602Y-4.8903
X7.66Y-1.44
X7.6604Y-1.5896
X7.6604Y-1.8896
X7.6889Y-5.1669
X7.69Y-2.475
X7.69Y-2.5537
X7.7604Y-1.5896
X7.7604Y-1.8896
X7.7676Y-5.1669
X7.785Y-2.185
X7.84Y-3.8469
X7.84Y-4.2469
X7.8569Y-1.44
X7.8604Y-1.5896
X7.8604Y-1.8896
X7.9Y-3.34
X7.9Y-3.74
X7.96Y-3.8469
X7.96Y-4.2469
X7.9604Y-1.5896
X7.9604Y-1.8896
X7.97Y-2.42
X7.97Y-2.82
X7.98Y-4.7669
X7.98Y-5.1669
X7.985Y-4.3569
X7.985Y-4.6569
X8.02Y-2.93
X8.02Y-3.23
X8.02Y-3.34
X8.02Y-3.74
X8.08Y-3.8469
X8.08Y-4.2469
X8.085Y-4.3569
X8.085Y-4.6569
X8.09Y-2.42
X8.09Y-2.82
X8.105Y-4.7669
X8.105Y-5.1669
X8.12Y-1.7
X8.12Y-1.8969
X8.12Y-2.93
X8.12Y-3.23
X8.14Y-3.34
X8.14Y-3.74
X8.185Y-4.3569
X8.185Y-4.6569
X8.2Y-3.8469
X8.2Y-4.2469
X8.21Y-2.42
X8.21Y-2.82
X8.22Y-2.93
X8.22Y-3.23
X8.225Y-4.7669
X8.225Y-5.1669
X8.25Y-1.72
X8.25Y-1.84
X8.25Y-1.96
X8.26Y-3.34
X8.26Y-3.74
X8.285Y-4.3569
X8.285Y-4.6569
X8.32Y-2.93
X8.32Y-3.23
X8.32Y-3.8469
X8.32Y-4.2469
X8.33Y-2.42
X8.33Y-2.82
X8.345Y-4.7669
X8.345Y-5.1669
X8.38Y-3.34
X8.38Y-3.74
X8.385Y-4.3569
X8.385Y-4.6569
X8.42Y-2.93
X8.42Y-3.23
X8.44Y-3.8469
X8.44Y-4.2469
X8.45Y-1.44
X8.45Y-2.15
X8.45Y-2.42
X8.45Y-2.82
X8.4631Y-1.58
X8.485Y-4.3569
X8.485Y-4.6569
X8.485Y-4.7769
X8.485Y-4.9737
X8.5Y-3.34
X8.5Y-3.74
X8.51Y-5.1469
X8.52Y-2.93
X8.52Y-3.23
X8.55Y-2.15
X8.58Y-4.04
X8.58Y-4.2369
X8.585Y-4.3569
X8.585Y-4.6569
X8.59Y-2.6131
X8.59Y-2.81
X8.62Y-2.93
X8.62Y-3.23
X8.64Y-3.35
X8.64Y-3.5469
X8.64Y-3.65
X8.64Y-3.8469
X8.645Y-4.7769
X8.645Y-4.9737
X8.65Y-1.72
X8.65Y-1.84
X8.65Y-1.96
X8.65Y-2.15
X8.66Y-1.58
X8.685Y-4.3569
X8.685Y-4.6569
X8.72Y-2.93
X8.72Y-3.23
X8.74Y-4.04
X8.74Y-4.2369
X8.75Y-2.6131
X8.75Y-2.81
X8.76Y-1.59
X8.78Y-1.75
X8.78Y-1.9469
X8.82Y-4.3419
X8.82Y-4.7419
X8.85Y-1.44
X8.86Y-1.59
X8.88Y-3.18
X8.88Y-3.58
X8.89Y-2.69
X8.89Y-3.09
X8.91Y-5.1469
X8.92Y-1.75
X8.92Y-2.15
X8.94Y-4.3419
X8.94Y-4.7419
X8.96Y-1.59
X9.04Y-1.75
X9.04Y-2.15
T4
X1.5551Y-2.3031
X1.6535Y-2.3031
X1.752Y-2.3031
X1.8031Y-4.2874
X1.8031Y-4.3874
X1.8031Y-4.4874
X1.8031Y-4.5874
X1.8701Y-4.0748
X1.9685Y-4.0748
X2.0669Y-4.0748
X2.3031Y-2.3031
X2.4016Y-2.3031
X2.5Y-2.3031
X2.5512Y-3.0906
X2.6496Y-3.0906
X2.748Y-3.0906
X3.0512Y-2.3031
X3.0512Y-4.0748
X3.1392Y-2.5039
X3.1392Y-2.6039
X3.1392Y-2.7039
X3.1392Y-2.8039
X3.1392Y-2.9039
X3.1392Y-3.0039
X3.1392Y-3.1039
X3.1392Y-3.2039
X3.1392Y-3.3039
X3.1392Y-3.4039
X3.1496Y-2.3031
X3.1496Y-4.0748
X3.2392Y-2.5039
X3.2392Y-2.6039
X3.2392Y-2.7039
X3.2392Y-2.8039
X3.2392Y-2.9039
X3.2392Y-3.0039
X3.2392Y-3.1039
X3.2392Y-3.2039
X3.2392Y-3.3039
X3.2392Y-3.4039
X3.248Y-2.3031
X3.248Y-4.0748
X3.5531Y-3.0906
X3.6516Y-3.0906
X3.75Y-3.0906
X3.7992Y-2.3031
X3.8976Y-2.3031
X3.9961Y-2.3031
X4.07Y-5.22
X4.17Y-5.22
X4.2323Y-4.0748
X4.3307Y-4.0748
X4.4291Y-4.0748
X4.5472Y-2.3031
X4.5472Y-3.0906
X4.6457Y-2.3031
X4.6457Y-3.0906
X4.7441Y-2.3031
X4.7441Y-3.0906
X5.42Y-1.4424
X5.42Y-1.5424
X5.42Y-1.6424
X5.42Y-1.7424
X5.42Y-1.8424
X5.52Y-1.4424
X5.52Y-1.5424
X5.52Y-1.6424
X5.52Y-1.7424
X5.52Y-1.8424
X5.77Y-2.52
X5.8189Y-4.2874
X5.8189Y-4.3874
X5.8189Y-4.4874
X5.8189Y-4.5874
X6.02Y-4.52
X6.14Y-4.06
X6.24Y-4.06
X6.34Y-4.06
X6.78Y-3.14
X6.9Y-3.66
X6.98Y-3.215
X7.1549Y-2.5039
X7.1549Y-2.6039
X7.1549Y-2.7039
X7.1549Y-2.8039
X7.1549Y-2.9039
X7.1549Y-3.0039
X7.1549Y-3.1039
X7.1549Y-3.2039
X7.1549Y-3.3039
X7.1549Y-3.4039
X7.2549Y-2.5039
X7.2549Y-2.6039
X7.2549Y-2.7039
X7.2549Y-2.8039
X7.2549Y-2.9039
X7.2549Y-3.0039
X7.2549Y-3.1039
X7.2549Y-3.2039
X7.2549Y-3.3039
X7.2549Y-3.4039
X7.36Y-3.56
X7.39Y-1.58
X7.405Y-2.705
X7.42Y-3.165
X7.425Y-2.855
X7.425Y-3.005
X7.48Y-5.18
X7.505Y-2.705
X7.605Y-2.705
X7.665Y-2.325
T5
X3.6949Y-4.8425
X3.7933Y-4.7441
X3.7933Y-4.9409
X5.74Y-1.3224
X5.765Y-1.525
X5.765Y-1.925
X6.14Y-1.3224
X8.1216Y-1.49
X8.22Y-1.3916
X8.22Y-1.5884
T7
X1.7795Y-3.7795
X2.1575Y-3.7795
X2.4606Y-2.7953
X2.8386Y-2.7953
X2.9606Y-3.7795
X3.3386Y-3.7795
X3.4626Y-2.7953
X3.8406Y-2.7953
X4.1417Y-3.7795
X4.4567Y-2.7953
X4.5197Y-3.7795
X4.8346Y-2.7953
T8
X1.3071Y-5.189
X4.9921Y-1.3071
X5.3228Y-5.189
X9.0079Y-1.3071
T2
G00X1.3984Y-1.5157
M15
G01X1.3984Y-1.4764
M16
G05
G00X1.5205Y-1.5157
M15
G01X1.5205Y-1.4764
M16
G05
G00X1.8472Y-1.5157
M15
G01X1.8472Y-1.4764
M16
G05
G00X2.4539Y-1.4764
M15
G01X2.4539Y-1.5157
M16
G05
G00X2.7807Y-1.4764
M15
G01X2.7807Y-1.5157
M16
G05
G00X2.9028Y-1.4764
M15
G01X2.9028Y-1.5157
M16
G05
G00X3.4579Y-1.4764
M15
G01X3.4579Y-1.5157
M16
G05
G00X3.7846Y-1.4764
M15
G01X3.7846Y-1.5157
M16
G05
G00X3.9067Y-1.4764
M15
G01X3.9067Y-1.5157
M16
G05
G00X4.452Y-1.4764
M15
G01X4.452Y-1.5157
M16
G05
G00X4.7787Y-1.4764
M15
G01X4.7787Y-1.5157
M16
G05
G00X4.9008Y-1.4764
M15
G01X4.9008Y-1.5157
M16
G05
T6
G00X1.4646Y-1.9882
M15
G01X1.4646Y-2.0276
M16
G05
G00X1.8425Y-1.9882
M15
G01X1.8425Y-2.0276
M16
G05
G00X2.2126Y-1.9882
M15
G01X2.2126Y-2.0276
M16
G05
G00X2.5906Y-1.9882
M15
G01X2.5906Y-2.0276
M16
G05
G00X2.9606Y-1.9882
M15
G01X2.9606Y-2.0276
M16
G05
G00X3.3386Y-1.9882
M15
G01X3.3386Y-2.0276
M16
G05
G00X3.7087Y-1.9882
M15
G01X3.7087Y-2.0276
M16
G05
G00X4.0866Y-1.9882
M15
G01X4.0866Y-2.0276
M16
G05
G00X4.4567Y-1.9882
M15
G01X4.4567Y-2.0276
M16
G05
G00X4.8346Y-1.9882
M15
G01X4.8346Y-2.0276
M16
G05
T0
M30
