%TF.GenerationSoftware,KiCad,Pcbnew,(6.0.6-0)*%
%TF.CreationDate,2023-05-09T21:30:29+01:00*%
%TF.ProjectId,magnum-drum-synth,6d61676e-756d-42d6-9472-756d2d73796e,r05*%
%TF.SameCoordinates,Original*%
%TF.FileFunction,Legend,Bot*%
%TF.FilePolarity,Positive*%
%FSLAX46Y46*%
G04 Gerber Fmt 4.6, Leading zero omitted, Abs format (unit mm)*
G04 Created by KiCad (PCBNEW (6.0.6-0)) date 2023-05-09 21:30:29*
%MOMM*%
%LPD*%
G01*
G04 APERTURE LIST*
%ADD10C,0.150000*%
%ADD11C,0.200000*%
%ADD12C,0.120000*%
G04 APERTURE END LIST*
D10*
X105751380Y-47196952D02*
X105751380Y-47387428D01*
X105799000Y-47482666D01*
X105894238Y-47577904D01*
X106084714Y-47625523D01*
X106418047Y-47625523D01*
X106608523Y-47577904D01*
X106703761Y-47482666D01*
X106751380Y-47387428D01*
X106751380Y-47196952D01*
X106703761Y-47101714D01*
X106608523Y-47006476D01*
X106418047Y-46958857D01*
X106084714Y-46958857D01*
X105894238Y-47006476D01*
X105799000Y-47101714D01*
X105751380Y-47196952D01*
X106703761Y-48006476D02*
X106751380Y-48149333D01*
X106751380Y-48387428D01*
X106703761Y-48482666D01*
X106656142Y-48530285D01*
X106560904Y-48577904D01*
X106465666Y-48577904D01*
X106370428Y-48530285D01*
X106322809Y-48482666D01*
X106275190Y-48387428D01*
X106227571Y-48196952D01*
X106179952Y-48101714D01*
X106132333Y-48054095D01*
X106037095Y-48006476D01*
X105941857Y-48006476D01*
X105846619Y-48054095D01*
X105799000Y-48101714D01*
X105751380Y-48196952D01*
X105751380Y-48435047D01*
X105799000Y-48577904D01*
X106656142Y-49577904D02*
X106703761Y-49530285D01*
X106751380Y-49387428D01*
X106751380Y-49292190D01*
X106703761Y-49149333D01*
X106608523Y-49054095D01*
X106513285Y-49006476D01*
X106322809Y-48958857D01*
X106179952Y-48958857D01*
X105989476Y-49006476D01*
X105894238Y-49054095D01*
X105799000Y-49149333D01*
X105751380Y-49292190D01*
X105751380Y-49387428D01*
X105799000Y-49530285D01*
X105846619Y-49577904D01*
X105846619Y-49958857D02*
X105799000Y-50006476D01*
X105751380Y-50101714D01*
X105751380Y-50339809D01*
X105799000Y-50435047D01*
X105846619Y-50482666D01*
X105941857Y-50530285D01*
X106037095Y-50530285D01*
X106179952Y-50482666D01*
X106751380Y-49911238D01*
X106751380Y-50530285D01*
X105751380Y-51577904D02*
X106751380Y-51911238D01*
X105751380Y-52244571D01*
X106751380Y-52720761D02*
X106703761Y-52625523D01*
X106656142Y-52577904D01*
X106560904Y-52530285D01*
X106275190Y-52530285D01*
X106179952Y-52577904D01*
X106132333Y-52625523D01*
X106084714Y-52720761D01*
X106084714Y-52863619D01*
X106132333Y-52958857D01*
X106179952Y-53006476D01*
X106275190Y-53054095D01*
X106560904Y-53054095D01*
X106656142Y-53006476D01*
X106703761Y-52958857D01*
X106751380Y-52863619D01*
X106751380Y-52720761D01*
X106751380Y-53625523D02*
X106703761Y-53530285D01*
X106608523Y-53482666D01*
X105751380Y-53482666D01*
X106084714Y-54435047D02*
X106751380Y-54435047D01*
X106084714Y-54006476D02*
X106608523Y-54006476D01*
X106703761Y-54054095D01*
X106751380Y-54149333D01*
X106751380Y-54292190D01*
X106703761Y-54387428D01*
X106656142Y-54435047D01*
X106751380Y-54911238D02*
X106084714Y-54911238D01*
X106179952Y-54911238D02*
X106132333Y-54958857D01*
X106084714Y-55054095D01*
X106084714Y-55196952D01*
X106132333Y-55292190D01*
X106227571Y-55339809D01*
X106751380Y-55339809D01*
X106227571Y-55339809D02*
X106132333Y-55387428D01*
X106084714Y-55482666D01*
X106084714Y-55625523D01*
X106132333Y-55720761D01*
X106227571Y-55768380D01*
X106751380Y-55768380D01*
X106703761Y-56625523D02*
X106751380Y-56530285D01*
X106751380Y-56339809D01*
X106703761Y-56244571D01*
X106608523Y-56196952D01*
X106227571Y-56196952D01*
X106132333Y-56244571D01*
X106084714Y-56339809D01*
X106084714Y-56530285D01*
X106132333Y-56625523D01*
X106227571Y-56673142D01*
X106322809Y-56673142D01*
X106418047Y-56196952D01*
X111513714Y-133802380D02*
X111513714Y-132802380D01*
X111132761Y-132802380D01*
X111037523Y-132850000D01*
X110989904Y-132897619D01*
X110942285Y-132992857D01*
X110942285Y-133135714D01*
X110989904Y-133230952D01*
X111037523Y-133278571D01*
X111132761Y-133326190D01*
X111513714Y-133326190D01*
X110513714Y-133802380D02*
X110513714Y-133135714D01*
X110513714Y-132802380D02*
X110561333Y-132850000D01*
X110513714Y-132897619D01*
X110466095Y-132850000D01*
X110513714Y-132802380D01*
X110513714Y-132897619D01*
X109656571Y-133754761D02*
X109751809Y-133802380D01*
X109942285Y-133802380D01*
X110037523Y-133754761D01*
X110085142Y-133659523D01*
X110085142Y-133278571D01*
X110037523Y-133183333D01*
X109942285Y-133135714D01*
X109751809Y-133135714D01*
X109656571Y-133183333D01*
X109608952Y-133278571D01*
X109608952Y-133373809D01*
X110085142Y-133469047D01*
X109275619Y-133135714D02*
X108751809Y-133135714D01*
X109275619Y-133802380D01*
X108751809Y-133802380D01*
X108228000Y-133802380D02*
X108323238Y-133754761D01*
X108370857Y-133707142D01*
X108418476Y-133611904D01*
X108418476Y-133326190D01*
X108370857Y-133230952D01*
X108323238Y-133183333D01*
X108228000Y-133135714D01*
X108085142Y-133135714D01*
X107989904Y-133183333D01*
X107942285Y-133230952D01*
X107894666Y-133326190D01*
X107894666Y-133611904D01*
X107942285Y-133707142D01*
X107989904Y-133754761D01*
X108085142Y-133802380D01*
X108228000Y-133802380D01*
X72087761Y-80446571D02*
X72421095Y-80446571D01*
X72421095Y-80970380D02*
X72421095Y-79970380D01*
X71944904Y-79970380D01*
X71563952Y-80970380D02*
X71563952Y-80303714D01*
X71563952Y-79970380D02*
X71611571Y-80018000D01*
X71563952Y-80065619D01*
X71516333Y-80018000D01*
X71563952Y-79970380D01*
X71563952Y-80065619D01*
X70944904Y-80970380D02*
X71040142Y-80922761D01*
X71087761Y-80827523D01*
X71087761Y-79970380D01*
X70706809Y-80303714D02*
X70325857Y-80303714D01*
X70563952Y-79970380D02*
X70563952Y-80827523D01*
X70516333Y-80922761D01*
X70421095Y-80970380D01*
X70325857Y-80970380D01*
X69611571Y-80922761D02*
X69706809Y-80970380D01*
X69897285Y-80970380D01*
X69992523Y-80922761D01*
X70040142Y-80827523D01*
X70040142Y-80446571D01*
X69992523Y-80351333D01*
X69897285Y-80303714D01*
X69706809Y-80303714D01*
X69611571Y-80351333D01*
X69563952Y-80446571D01*
X69563952Y-80541809D01*
X70040142Y-80637047D01*
X69135380Y-80970380D02*
X69135380Y-80303714D01*
X69135380Y-80494190D02*
X69087761Y-80398952D01*
X69040142Y-80351333D01*
X68944904Y-80303714D01*
X68849666Y-80303714D01*
X67754428Y-80446571D02*
X67421095Y-80446571D01*
X67278238Y-80970380D02*
X67754428Y-80970380D01*
X67754428Y-79970380D01*
X67278238Y-79970380D01*
X66849666Y-80303714D02*
X66849666Y-80970380D01*
X66849666Y-80398952D02*
X66802047Y-80351333D01*
X66706809Y-80303714D01*
X66563952Y-80303714D01*
X66468714Y-80351333D01*
X66421095Y-80446571D01*
X66421095Y-80970380D01*
X66040142Y-80303714D02*
X65802047Y-80970380D01*
X65563952Y-80303714D01*
X64421095Y-80970380D02*
X64421095Y-79970380D01*
X64087761Y-80684666D01*
X63754428Y-79970380D01*
X63754428Y-80970380D01*
X63135380Y-80970380D02*
X63230619Y-80922761D01*
X63278238Y-80875142D01*
X63325857Y-80779904D01*
X63325857Y-80494190D01*
X63278238Y-80398952D01*
X63230619Y-80351333D01*
X63135380Y-80303714D01*
X62992523Y-80303714D01*
X62897285Y-80351333D01*
X62849666Y-80398952D01*
X62802047Y-80494190D01*
X62802047Y-80779904D01*
X62849666Y-80875142D01*
X62897285Y-80922761D01*
X62992523Y-80970380D01*
X63135380Y-80970380D01*
X61944904Y-80970380D02*
X61944904Y-79970380D01*
X61944904Y-80922761D02*
X62040142Y-80970380D01*
X62230619Y-80970380D01*
X62325857Y-80922761D01*
X62373476Y-80875142D01*
X62421095Y-80779904D01*
X62421095Y-80494190D01*
X62373476Y-80398952D01*
X62325857Y-80351333D01*
X62230619Y-80303714D01*
X62040142Y-80303714D01*
X61944904Y-80351333D01*
X121330380Y-84629761D02*
X120187523Y-84629761D01*
X120758952Y-86629761D02*
X120758952Y-84629761D01*
X119520857Y-86629761D02*
X119520857Y-84629761D01*
X118663714Y-86629761D02*
X118663714Y-85582142D01*
X118758952Y-85391666D01*
X118949428Y-85296428D01*
X119235142Y-85296428D01*
X119425619Y-85391666D01*
X119520857Y-85486904D01*
X117711333Y-86629761D02*
X117711333Y-85296428D01*
X117711333Y-84629761D02*
X117806571Y-84725000D01*
X117711333Y-84820238D01*
X117616095Y-84725000D01*
X117711333Y-84629761D01*
X117711333Y-84820238D01*
X116854190Y-86534523D02*
X116663714Y-86629761D01*
X116282761Y-86629761D01*
X116092285Y-86534523D01*
X115997047Y-86344047D01*
X115997047Y-86248809D01*
X116092285Y-86058333D01*
X116282761Y-85963095D01*
X116568476Y-85963095D01*
X116758952Y-85867857D01*
X116854190Y-85677380D01*
X116854190Y-85582142D01*
X116758952Y-85391666D01*
X116568476Y-85296428D01*
X116282761Y-85296428D01*
X116092285Y-85391666D01*
X113711333Y-86534523D02*
X113520857Y-86629761D01*
X113139904Y-86629761D01*
X112949428Y-86534523D01*
X112854190Y-86344047D01*
X112854190Y-86248809D01*
X112949428Y-86058333D01*
X113139904Y-85963095D01*
X113425619Y-85963095D01*
X113616095Y-85867857D01*
X113711333Y-85677380D01*
X113711333Y-85582142D01*
X113616095Y-85391666D01*
X113425619Y-85296428D01*
X113139904Y-85296428D01*
X112949428Y-85391666D01*
X111997047Y-86629761D02*
X111997047Y-85296428D01*
X111997047Y-84629761D02*
X112092285Y-84725000D01*
X111997047Y-84820238D01*
X111901809Y-84725000D01*
X111997047Y-84629761D01*
X111997047Y-84820238D01*
X110187523Y-86629761D02*
X110187523Y-84629761D01*
X110187523Y-86534523D02*
X110378000Y-86629761D01*
X110758952Y-86629761D01*
X110949428Y-86534523D01*
X111044666Y-86439285D01*
X111139904Y-86248809D01*
X111139904Y-85677380D01*
X111044666Y-85486904D01*
X110949428Y-85391666D01*
X110758952Y-85296428D01*
X110378000Y-85296428D01*
X110187523Y-85391666D01*
X108473238Y-86534523D02*
X108663714Y-86629761D01*
X109044666Y-86629761D01*
X109235142Y-86534523D01*
X109330380Y-86344047D01*
X109330380Y-85582142D01*
X109235142Y-85391666D01*
X109044666Y-85296428D01*
X108663714Y-85296428D01*
X108473238Y-85391666D01*
X108378000Y-85582142D01*
X108378000Y-85772619D01*
X109330380Y-85963095D01*
X106282761Y-85296428D02*
X105520857Y-85296428D01*
X105997047Y-84629761D02*
X105997047Y-86344047D01*
X105901809Y-86534523D01*
X105711333Y-86629761D01*
X105520857Y-86629761D01*
X104568476Y-86629761D02*
X104758952Y-86534523D01*
X104854190Y-86439285D01*
X104949428Y-86248809D01*
X104949428Y-85677380D01*
X104854190Y-85486904D01*
X104758952Y-85391666D01*
X104568476Y-85296428D01*
X104282761Y-85296428D01*
X104092285Y-85391666D01*
X103997047Y-85486904D01*
X103901809Y-85677380D01*
X103901809Y-86248809D01*
X103997047Y-86439285D01*
X104092285Y-86534523D01*
X104282761Y-86629761D01*
X104568476Y-86629761D01*
X103235142Y-85296428D02*
X102854190Y-86629761D01*
X102473238Y-85677380D01*
X102092285Y-86629761D01*
X101711333Y-85296428D01*
X100092285Y-86629761D02*
X100092285Y-85582142D01*
X100187523Y-85391666D01*
X100378000Y-85296428D01*
X100758952Y-85296428D01*
X100949428Y-85391666D01*
X100092285Y-86534523D02*
X100282761Y-86629761D01*
X100758952Y-86629761D01*
X100949428Y-86534523D01*
X101044666Y-86344047D01*
X101044666Y-86153571D01*
X100949428Y-85963095D01*
X100758952Y-85867857D01*
X100282761Y-85867857D01*
X100092285Y-85772619D01*
X99139904Y-86629761D02*
X99139904Y-85296428D01*
X99139904Y-85677380D02*
X99044666Y-85486904D01*
X98949428Y-85391666D01*
X98758952Y-85296428D01*
X98568476Y-85296428D01*
X97044666Y-86629761D02*
X97044666Y-84629761D01*
X97044666Y-86534523D02*
X97235142Y-86629761D01*
X97616095Y-86629761D01*
X97806571Y-86534523D01*
X97901809Y-86439285D01*
X97997047Y-86248809D01*
X97997047Y-85677380D01*
X97901809Y-85486904D01*
X97806571Y-85391666D01*
X97616095Y-85296428D01*
X97235142Y-85296428D01*
X97044666Y-85391666D01*
X96187523Y-86534523D02*
X95997047Y-86629761D01*
X95616095Y-86629761D01*
X95425619Y-86534523D01*
X95330380Y-86344047D01*
X95330380Y-86248809D01*
X95425619Y-86058333D01*
X95616095Y-85963095D01*
X95901809Y-85963095D01*
X96092285Y-85867857D01*
X96187523Y-85677380D01*
X96187523Y-85582142D01*
X96092285Y-85391666D01*
X95901809Y-85296428D01*
X95616095Y-85296428D01*
X95425619Y-85391666D01*
X92949428Y-85296428D02*
X92949428Y-87296428D01*
X92949428Y-85391666D02*
X92758952Y-85296428D01*
X92378000Y-85296428D01*
X92187523Y-85391666D01*
X92092285Y-85486904D01*
X91997047Y-85677380D01*
X91997047Y-86248809D01*
X92092285Y-86439285D01*
X92187523Y-86534523D01*
X92378000Y-86629761D01*
X92758952Y-86629761D01*
X92949428Y-86534523D01*
X90282761Y-86629761D02*
X90282761Y-85582142D01*
X90378000Y-85391666D01*
X90568476Y-85296428D01*
X90949428Y-85296428D01*
X91139904Y-85391666D01*
X90282761Y-86534523D02*
X90473238Y-86629761D01*
X90949428Y-86629761D01*
X91139904Y-86534523D01*
X91235142Y-86344047D01*
X91235142Y-86153571D01*
X91139904Y-85963095D01*
X90949428Y-85867857D01*
X90473238Y-85867857D01*
X90282761Y-85772619D01*
X89330380Y-85296428D02*
X89330380Y-86629761D01*
X89330380Y-85486904D02*
X89235142Y-85391666D01*
X89044666Y-85296428D01*
X88758952Y-85296428D01*
X88568476Y-85391666D01*
X88473238Y-85582142D01*
X88473238Y-86629761D01*
X86758952Y-86534523D02*
X86949428Y-86629761D01*
X87330380Y-86629761D01*
X87520857Y-86534523D01*
X87616095Y-86344047D01*
X87616095Y-85582142D01*
X87520857Y-85391666D01*
X87330380Y-85296428D01*
X86949428Y-85296428D01*
X86758952Y-85391666D01*
X86663714Y-85582142D01*
X86663714Y-85772619D01*
X87616095Y-85963095D01*
X85520857Y-86629761D02*
X85711333Y-86534523D01*
X85806571Y-86344047D01*
X85806571Y-84629761D01*
X72294095Y-43981666D02*
X71817904Y-43981666D01*
X72389333Y-44267380D02*
X72056000Y-43267380D01*
X71722666Y-44267380D01*
X71389333Y-44267380D02*
X71389333Y-43600714D01*
X71389333Y-43695952D02*
X71341714Y-43648333D01*
X71246476Y-43600714D01*
X71103619Y-43600714D01*
X71008380Y-43648333D01*
X70960761Y-43743571D01*
X70960761Y-44267380D01*
X70960761Y-43743571D02*
X70913142Y-43648333D01*
X70817904Y-43600714D01*
X70675047Y-43600714D01*
X70579809Y-43648333D01*
X70532190Y-43743571D01*
X70532190Y-44267380D01*
X70056000Y-43600714D02*
X70056000Y-44600714D01*
X70056000Y-43648333D02*
X69960761Y-43600714D01*
X69770285Y-43600714D01*
X69675047Y-43648333D01*
X69627428Y-43695952D01*
X69579809Y-43791190D01*
X69579809Y-44076904D01*
X69627428Y-44172142D01*
X69675047Y-44219761D01*
X69770285Y-44267380D01*
X69960761Y-44267380D01*
X70056000Y-44219761D01*
X68389333Y-44267380D02*
X68389333Y-43267380D01*
X68151238Y-43267380D01*
X68008380Y-43315000D01*
X67913142Y-43410238D01*
X67865523Y-43505476D01*
X67817904Y-43695952D01*
X67817904Y-43838809D01*
X67865523Y-44029285D01*
X67913142Y-44124523D01*
X68008380Y-44219761D01*
X68151238Y-44267380D01*
X68389333Y-44267380D01*
X67008380Y-44219761D02*
X67103619Y-44267380D01*
X67294095Y-44267380D01*
X67389333Y-44219761D01*
X67436952Y-44124523D01*
X67436952Y-43743571D01*
X67389333Y-43648333D01*
X67294095Y-43600714D01*
X67103619Y-43600714D01*
X67008380Y-43648333D01*
X66960761Y-43743571D01*
X66960761Y-43838809D01*
X67436952Y-43934047D01*
X66103619Y-44219761D02*
X66198857Y-44267380D01*
X66389333Y-44267380D01*
X66484571Y-44219761D01*
X66532190Y-44172142D01*
X66579809Y-44076904D01*
X66579809Y-43791190D01*
X66532190Y-43695952D01*
X66484571Y-43648333D01*
X66389333Y-43600714D01*
X66198857Y-43600714D01*
X66103619Y-43648333D01*
X65246476Y-44267380D02*
X65246476Y-43743571D01*
X65294095Y-43648333D01*
X65389333Y-43600714D01*
X65579809Y-43600714D01*
X65675047Y-43648333D01*
X65246476Y-44219761D02*
X65341714Y-44267380D01*
X65579809Y-44267380D01*
X65675047Y-44219761D01*
X65722666Y-44124523D01*
X65722666Y-44029285D01*
X65675047Y-43934047D01*
X65579809Y-43886428D01*
X65341714Y-43886428D01*
X65246476Y-43838809D01*
X64865523Y-43600714D02*
X64627428Y-44267380D01*
X64389333Y-43600714D02*
X64627428Y-44267380D01*
X64722666Y-44505476D01*
X64770285Y-44553095D01*
X64865523Y-44600714D01*
X62675047Y-44172142D02*
X62722666Y-44219761D01*
X62865523Y-44267380D01*
X62960761Y-44267380D01*
X63103619Y-44219761D01*
X63198857Y-44124523D01*
X63246476Y-44029285D01*
X63294095Y-43838809D01*
X63294095Y-43695952D01*
X63246476Y-43505476D01*
X63198857Y-43410238D01*
X63103619Y-43315000D01*
X62960761Y-43267380D01*
X62865523Y-43267380D01*
X62722666Y-43315000D01*
X62675047Y-43362619D01*
X62389333Y-43267380D02*
X62055999Y-44267380D01*
X61722666Y-43267380D01*
X42870333Y-43267380D02*
X42679857Y-43267380D01*
X42584619Y-43315000D01*
X42489380Y-43410238D01*
X42441761Y-43600714D01*
X42441761Y-43934047D01*
X42489380Y-44124523D01*
X42584619Y-44219761D01*
X42679857Y-44267380D01*
X42870333Y-44267380D01*
X42965571Y-44219761D01*
X43060809Y-44124523D01*
X43108428Y-43934047D01*
X43108428Y-43600714D01*
X43060809Y-43410238D01*
X42965571Y-43315000D01*
X42870333Y-43267380D01*
X41584619Y-43600714D02*
X41584619Y-44267380D01*
X42013190Y-43600714D02*
X42013190Y-44124523D01*
X41965571Y-44219761D01*
X41870333Y-44267380D01*
X41727476Y-44267380D01*
X41632238Y-44219761D01*
X41584619Y-44172142D01*
X41251285Y-43600714D02*
X40870333Y-43600714D01*
X41108428Y-43267380D02*
X41108428Y-44124523D01*
X41060809Y-44219761D01*
X40965571Y-44267380D01*
X40870333Y-44267380D01*
X110815380Y-68691523D02*
X110339190Y-68358190D01*
X110815380Y-68120095D02*
X109815380Y-68120095D01*
X109815380Y-68501047D01*
X109863000Y-68596285D01*
X109910619Y-68643904D01*
X110005857Y-68691523D01*
X110148714Y-68691523D01*
X110243952Y-68643904D01*
X110291571Y-68596285D01*
X110339190Y-68501047D01*
X110339190Y-68120095D01*
X110767761Y-69501047D02*
X110815380Y-69405809D01*
X110815380Y-69215333D01*
X110767761Y-69120095D01*
X110672523Y-69072476D01*
X110291571Y-69072476D01*
X110196333Y-69120095D01*
X110148714Y-69215333D01*
X110148714Y-69405809D01*
X110196333Y-69501047D01*
X110291571Y-69548666D01*
X110386809Y-69548666D01*
X110482047Y-69072476D01*
X110767761Y-69929619D02*
X110815380Y-70024857D01*
X110815380Y-70215333D01*
X110767761Y-70310571D01*
X110672523Y-70358190D01*
X110624904Y-70358190D01*
X110529666Y-70310571D01*
X110482047Y-70215333D01*
X110482047Y-70072476D01*
X110434428Y-69977238D01*
X110339190Y-69929619D01*
X110291571Y-69929619D01*
X110196333Y-69977238D01*
X110148714Y-70072476D01*
X110148714Y-70215333D01*
X110196333Y-70310571D01*
X110815380Y-70929619D02*
X110767761Y-70834380D01*
X110720142Y-70786761D01*
X110624904Y-70739142D01*
X110339190Y-70739142D01*
X110243952Y-70786761D01*
X110196333Y-70834380D01*
X110148714Y-70929619D01*
X110148714Y-71072476D01*
X110196333Y-71167714D01*
X110243952Y-71215333D01*
X110339190Y-71262952D01*
X110624904Y-71262952D01*
X110720142Y-71215333D01*
X110767761Y-71167714D01*
X110815380Y-71072476D01*
X110815380Y-70929619D01*
X110148714Y-71691523D02*
X110815380Y-71691523D01*
X110243952Y-71691523D02*
X110196333Y-71739142D01*
X110148714Y-71834380D01*
X110148714Y-71977238D01*
X110196333Y-72072476D01*
X110291571Y-72120095D01*
X110815380Y-72120095D01*
X110815380Y-73024857D02*
X110291571Y-73024857D01*
X110196333Y-72977238D01*
X110148714Y-72882000D01*
X110148714Y-72691523D01*
X110196333Y-72596285D01*
X110767761Y-73024857D02*
X110815380Y-72929619D01*
X110815380Y-72691523D01*
X110767761Y-72596285D01*
X110672523Y-72548666D01*
X110577285Y-72548666D01*
X110482047Y-72596285D01*
X110434428Y-72691523D01*
X110434428Y-72929619D01*
X110386809Y-73024857D01*
X110148714Y-73501047D02*
X110815380Y-73501047D01*
X110243952Y-73501047D02*
X110196333Y-73548666D01*
X110148714Y-73643904D01*
X110148714Y-73786761D01*
X110196333Y-73882000D01*
X110291571Y-73929619D01*
X110815380Y-73929619D01*
X110767761Y-74834380D02*
X110815380Y-74739142D01*
X110815380Y-74548666D01*
X110767761Y-74453428D01*
X110720142Y-74405809D01*
X110624904Y-74358190D01*
X110339190Y-74358190D01*
X110243952Y-74405809D01*
X110196333Y-74453428D01*
X110148714Y-74548666D01*
X110148714Y-74739142D01*
X110196333Y-74834380D01*
X110767761Y-75643904D02*
X110815380Y-75548666D01*
X110815380Y-75358190D01*
X110767761Y-75262952D01*
X110672523Y-75215333D01*
X110291571Y-75215333D01*
X110196333Y-75262952D01*
X110148714Y-75358190D01*
X110148714Y-75548666D01*
X110196333Y-75643904D01*
X110291571Y-75691523D01*
X110386809Y-75691523D01*
X110482047Y-75215333D01*
X120459190Y-43267380D02*
X119887761Y-43267380D01*
X120173476Y-44267380D02*
X120173476Y-43267380D01*
X119554428Y-44267380D02*
X119554428Y-43600714D01*
X119554428Y-43791190D02*
X119506809Y-43695952D01*
X119459190Y-43648333D01*
X119363952Y-43600714D01*
X119268714Y-43600714D01*
X118935380Y-44267380D02*
X118935380Y-43600714D01*
X118935380Y-43267380D02*
X118983000Y-43315000D01*
X118935380Y-43362619D01*
X118887761Y-43315000D01*
X118935380Y-43267380D01*
X118935380Y-43362619D01*
X118030619Y-43600714D02*
X118030619Y-44410238D01*
X118078238Y-44505476D01*
X118125857Y-44553095D01*
X118221095Y-44600714D01*
X118363952Y-44600714D01*
X118459190Y-44553095D01*
X118030619Y-44219761D02*
X118125857Y-44267380D01*
X118316333Y-44267380D01*
X118411571Y-44219761D01*
X118459190Y-44172142D01*
X118506809Y-44076904D01*
X118506809Y-43791190D01*
X118459190Y-43695952D01*
X118411571Y-43648333D01*
X118316333Y-43600714D01*
X118125857Y-43600714D01*
X118030619Y-43648333D01*
X117125857Y-43600714D02*
X117125857Y-44410238D01*
X117173476Y-44505476D01*
X117221095Y-44553095D01*
X117316333Y-44600714D01*
X117459190Y-44600714D01*
X117554428Y-44553095D01*
X117125857Y-44219761D02*
X117221095Y-44267380D01*
X117411571Y-44267380D01*
X117506809Y-44219761D01*
X117554428Y-44172142D01*
X117602047Y-44076904D01*
X117602047Y-43791190D01*
X117554428Y-43695952D01*
X117506809Y-43648333D01*
X117411571Y-43600714D01*
X117221095Y-43600714D01*
X117125857Y-43648333D01*
X116268714Y-44219761D02*
X116363952Y-44267380D01*
X116554428Y-44267380D01*
X116649666Y-44219761D01*
X116697285Y-44124523D01*
X116697285Y-43743571D01*
X116649666Y-43648333D01*
X116554428Y-43600714D01*
X116363952Y-43600714D01*
X116268714Y-43648333D01*
X116221095Y-43743571D01*
X116221095Y-43838809D01*
X116697285Y-43934047D01*
X115792523Y-44267380D02*
X115792523Y-43600714D01*
X115792523Y-43791190D02*
X115744904Y-43695952D01*
X115697285Y-43648333D01*
X115602047Y-43600714D01*
X115506809Y-43600714D01*
X97400476Y-43743571D02*
X97733809Y-43743571D01*
X97733809Y-44267380D02*
X97733809Y-43267380D01*
X97257619Y-43267380D01*
X96876666Y-44267380D02*
X96876666Y-43600714D01*
X96876666Y-43267380D02*
X96924285Y-43315000D01*
X96876666Y-43362619D01*
X96829047Y-43315000D01*
X96876666Y-43267380D01*
X96876666Y-43362619D01*
X96257619Y-44267380D02*
X96352857Y-44219761D01*
X96400476Y-44124523D01*
X96400476Y-43267380D01*
X96019523Y-43600714D02*
X95638571Y-43600714D01*
X95876666Y-43267380D02*
X95876666Y-44124523D01*
X95829047Y-44219761D01*
X95733809Y-44267380D01*
X95638571Y-44267380D01*
X94924285Y-44219761D02*
X95019523Y-44267380D01*
X95210000Y-44267380D01*
X95305238Y-44219761D01*
X95352857Y-44124523D01*
X95352857Y-43743571D01*
X95305238Y-43648333D01*
X95210000Y-43600714D01*
X95019523Y-43600714D01*
X94924285Y-43648333D01*
X94876666Y-43743571D01*
X94876666Y-43838809D01*
X95352857Y-43934047D01*
X94448095Y-44267380D02*
X94448095Y-43600714D01*
X94448095Y-43791190D02*
X94400476Y-43695952D01*
X94352857Y-43648333D01*
X94257619Y-43600714D01*
X94162380Y-43600714D01*
X92733809Y-43743571D02*
X93067142Y-43743571D01*
X93067142Y-44267380D02*
X93067142Y-43267380D01*
X92590952Y-43267380D01*
X92210000Y-44267380D02*
X92210000Y-43600714D01*
X92210000Y-43791190D02*
X92162380Y-43695952D01*
X92114761Y-43648333D01*
X92019523Y-43600714D01*
X91924285Y-43600714D01*
X91210000Y-44219761D02*
X91305238Y-44267380D01*
X91495714Y-44267380D01*
X91590952Y-44219761D01*
X91638571Y-44124523D01*
X91638571Y-43743571D01*
X91590952Y-43648333D01*
X91495714Y-43600714D01*
X91305238Y-43600714D01*
X91210000Y-43648333D01*
X91162380Y-43743571D01*
X91162380Y-43838809D01*
X91638571Y-43934047D01*
X90305238Y-43600714D02*
X90305238Y-44600714D01*
X90305238Y-44219761D02*
X90400476Y-44267380D01*
X90590952Y-44267380D01*
X90686190Y-44219761D01*
X90733809Y-44172142D01*
X90781428Y-44076904D01*
X90781428Y-43791190D01*
X90733809Y-43695952D01*
X90686190Y-43648333D01*
X90590952Y-43600714D01*
X90400476Y-43600714D01*
X90305238Y-43648333D01*
X88495714Y-44172142D02*
X88543333Y-44219761D01*
X88686190Y-44267380D01*
X88781428Y-44267380D01*
X88924285Y-44219761D01*
X89019523Y-44124523D01*
X89067142Y-44029285D01*
X89114761Y-43838809D01*
X89114761Y-43695952D01*
X89067142Y-43505476D01*
X89019523Y-43410238D01*
X88924285Y-43315000D01*
X88781428Y-43267380D01*
X88686190Y-43267380D01*
X88543333Y-43315000D01*
X88495714Y-43362619D01*
X88210000Y-43267380D02*
X87876666Y-44267380D01*
X87543333Y-43267380D01*
X115902952Y-89717571D02*
X116236285Y-89717571D01*
X116236285Y-90241380D02*
X116236285Y-89241380D01*
X115760095Y-89241380D01*
X115379142Y-90241380D02*
X115379142Y-89574714D01*
X115379142Y-89241380D02*
X115426761Y-89289000D01*
X115379142Y-89336619D01*
X115331523Y-89289000D01*
X115379142Y-89241380D01*
X115379142Y-89336619D01*
X114760095Y-90241380D02*
X114855333Y-90193761D01*
X114902952Y-90098523D01*
X114902952Y-89241380D01*
X114522000Y-89574714D02*
X114141047Y-89574714D01*
X114379142Y-89241380D02*
X114379142Y-90098523D01*
X114331523Y-90193761D01*
X114236285Y-90241380D01*
X114141047Y-90241380D01*
X113426761Y-90193761D02*
X113522000Y-90241380D01*
X113712476Y-90241380D01*
X113807714Y-90193761D01*
X113855333Y-90098523D01*
X113855333Y-89717571D01*
X113807714Y-89622333D01*
X113712476Y-89574714D01*
X113522000Y-89574714D01*
X113426761Y-89622333D01*
X113379142Y-89717571D01*
X113379142Y-89812809D01*
X113855333Y-89908047D01*
X112950571Y-90241380D02*
X112950571Y-89574714D01*
X112950571Y-89765190D02*
X112902952Y-89669952D01*
X112855333Y-89622333D01*
X112760095Y-89574714D01*
X112664857Y-89574714D01*
X111236285Y-89717571D02*
X111569619Y-89717571D01*
X111569619Y-90241380D02*
X111569619Y-89241380D01*
X111093428Y-89241380D01*
X110712476Y-90241380D02*
X110712476Y-89574714D01*
X110712476Y-89765190D02*
X110664857Y-89669952D01*
X110617238Y-89622333D01*
X110522000Y-89574714D01*
X110426761Y-89574714D01*
X109712476Y-90193761D02*
X109807714Y-90241380D01*
X109998190Y-90241380D01*
X110093428Y-90193761D01*
X110141047Y-90098523D01*
X110141047Y-89717571D01*
X110093428Y-89622333D01*
X109998190Y-89574714D01*
X109807714Y-89574714D01*
X109712476Y-89622333D01*
X109664857Y-89717571D01*
X109664857Y-89812809D01*
X110141047Y-89908047D01*
X108807714Y-89574714D02*
X108807714Y-90574714D01*
X108807714Y-90193761D02*
X108902952Y-90241380D01*
X109093428Y-90241380D01*
X109188666Y-90193761D01*
X109236285Y-90146142D01*
X109283904Y-90050904D01*
X109283904Y-89765190D01*
X109236285Y-89669952D01*
X109188666Y-89622333D01*
X109093428Y-89574714D01*
X108902952Y-89574714D01*
X108807714Y-89622333D01*
X67651380Y-49538380D02*
X67651380Y-49728857D01*
X67699000Y-49824095D01*
X67794238Y-49919333D01*
X67984714Y-49966952D01*
X68318047Y-49966952D01*
X68508523Y-49919333D01*
X68603761Y-49824095D01*
X68651380Y-49728857D01*
X68651380Y-49538380D01*
X68603761Y-49443142D01*
X68508523Y-49347904D01*
X68318047Y-49300285D01*
X67984714Y-49300285D01*
X67794238Y-49347904D01*
X67699000Y-49443142D01*
X67651380Y-49538380D01*
X68603761Y-50347904D02*
X68651380Y-50490761D01*
X68651380Y-50728857D01*
X68603761Y-50824095D01*
X68556142Y-50871714D01*
X68460904Y-50919333D01*
X68365666Y-50919333D01*
X68270428Y-50871714D01*
X68222809Y-50824095D01*
X68175190Y-50728857D01*
X68127571Y-50538380D01*
X68079952Y-50443142D01*
X68032333Y-50395523D01*
X67937095Y-50347904D01*
X67841857Y-50347904D01*
X67746619Y-50395523D01*
X67699000Y-50443142D01*
X67651380Y-50538380D01*
X67651380Y-50776476D01*
X67699000Y-50919333D01*
X68556142Y-51919333D02*
X68603761Y-51871714D01*
X68651380Y-51728857D01*
X68651380Y-51633619D01*
X68603761Y-51490761D01*
X68508523Y-51395523D01*
X68413285Y-51347904D01*
X68222809Y-51300285D01*
X68079952Y-51300285D01*
X67889476Y-51347904D01*
X67794238Y-51395523D01*
X67699000Y-51490761D01*
X67651380Y-51633619D01*
X67651380Y-51728857D01*
X67699000Y-51871714D01*
X67746619Y-51919333D01*
X68651380Y-52871714D02*
X68651380Y-52300285D01*
X68651380Y-52586000D02*
X67651380Y-52586000D01*
X67794238Y-52490761D01*
X67889476Y-52395523D01*
X67937095Y-52300285D01*
X68127571Y-54395523D02*
X68127571Y-54062190D01*
X68651380Y-54062190D02*
X67651380Y-54062190D01*
X67651380Y-54538380D01*
X68651380Y-54919333D02*
X67984714Y-54919333D01*
X68175190Y-54919333D02*
X68079952Y-54966952D01*
X68032333Y-55014571D01*
X67984714Y-55109809D01*
X67984714Y-55205047D01*
X68603761Y-55919333D02*
X68651380Y-55824095D01*
X68651380Y-55633619D01*
X68603761Y-55538380D01*
X68508523Y-55490761D01*
X68127571Y-55490761D01*
X68032333Y-55538380D01*
X67984714Y-55633619D01*
X67984714Y-55824095D01*
X68032333Y-55919333D01*
X68127571Y-55966952D01*
X68222809Y-55966952D01*
X68318047Y-55490761D01*
X67984714Y-56824095D02*
X68984714Y-56824095D01*
X68603761Y-56824095D02*
X68651380Y-56728857D01*
X68651380Y-56538380D01*
X68603761Y-56443142D01*
X68556142Y-56395523D01*
X68460904Y-56347904D01*
X68175190Y-56347904D01*
X68079952Y-56395523D01*
X68032333Y-56443142D01*
X67984714Y-56538380D01*
X67984714Y-56728857D01*
X68032333Y-56824095D01*
X124674380Y-47323952D02*
X124674380Y-47514428D01*
X124722000Y-47609666D01*
X124817238Y-47704904D01*
X125007714Y-47752523D01*
X125341047Y-47752523D01*
X125531523Y-47704904D01*
X125626761Y-47609666D01*
X125674380Y-47514428D01*
X125674380Y-47323952D01*
X125626761Y-47228714D01*
X125531523Y-47133476D01*
X125341047Y-47085857D01*
X125007714Y-47085857D01*
X124817238Y-47133476D01*
X124722000Y-47228714D01*
X124674380Y-47323952D01*
X125626761Y-48133476D02*
X125674380Y-48276333D01*
X125674380Y-48514428D01*
X125626761Y-48609666D01*
X125579142Y-48657285D01*
X125483904Y-48704904D01*
X125388666Y-48704904D01*
X125293428Y-48657285D01*
X125245809Y-48609666D01*
X125198190Y-48514428D01*
X125150571Y-48323952D01*
X125102952Y-48228714D01*
X125055333Y-48181095D01*
X124960095Y-48133476D01*
X124864857Y-48133476D01*
X124769619Y-48181095D01*
X124722000Y-48228714D01*
X124674380Y-48323952D01*
X124674380Y-48562047D01*
X124722000Y-48704904D01*
X125579142Y-49704904D02*
X125626761Y-49657285D01*
X125674380Y-49514428D01*
X125674380Y-49419190D01*
X125626761Y-49276333D01*
X125531523Y-49181095D01*
X125436285Y-49133476D01*
X125245809Y-49085857D01*
X125102952Y-49085857D01*
X124912476Y-49133476D01*
X124817238Y-49181095D01*
X124722000Y-49276333D01*
X124674380Y-49419190D01*
X124674380Y-49514428D01*
X124722000Y-49657285D01*
X124769619Y-49704904D01*
X125674380Y-50657285D02*
X125674380Y-50085857D01*
X125674380Y-50371571D02*
X124674380Y-50371571D01*
X124817238Y-50276333D01*
X124912476Y-50181095D01*
X124960095Y-50085857D01*
X124674380Y-51704904D02*
X125674380Y-52038238D01*
X124674380Y-52371571D01*
X125674380Y-52847761D02*
X125626761Y-52752523D01*
X125579142Y-52704904D01*
X125483904Y-52657285D01*
X125198190Y-52657285D01*
X125102952Y-52704904D01*
X125055333Y-52752523D01*
X125007714Y-52847761D01*
X125007714Y-52990619D01*
X125055333Y-53085857D01*
X125102952Y-53133476D01*
X125198190Y-53181095D01*
X125483904Y-53181095D01*
X125579142Y-53133476D01*
X125626761Y-53085857D01*
X125674380Y-52990619D01*
X125674380Y-52847761D01*
X125674380Y-53752523D02*
X125626761Y-53657285D01*
X125531523Y-53609666D01*
X124674380Y-53609666D01*
X125007714Y-54562047D02*
X125674380Y-54562047D01*
X125007714Y-54133476D02*
X125531523Y-54133476D01*
X125626761Y-54181095D01*
X125674380Y-54276333D01*
X125674380Y-54419190D01*
X125626761Y-54514428D01*
X125579142Y-54562047D01*
X125674380Y-55038238D02*
X125007714Y-55038238D01*
X125102952Y-55038238D02*
X125055333Y-55085857D01*
X125007714Y-55181095D01*
X125007714Y-55323952D01*
X125055333Y-55419190D01*
X125150571Y-55466809D01*
X125674380Y-55466809D01*
X125150571Y-55466809D02*
X125055333Y-55514428D01*
X125007714Y-55609666D01*
X125007714Y-55752523D01*
X125055333Y-55847761D01*
X125150571Y-55895380D01*
X125674380Y-55895380D01*
X125626761Y-56752523D02*
X125674380Y-56657285D01*
X125674380Y-56466809D01*
X125626761Y-56371571D01*
X125531523Y-56323952D01*
X125150571Y-56323952D01*
X125055333Y-56371571D01*
X125007714Y-56466809D01*
X125007714Y-56657285D01*
X125055333Y-56752523D01*
X125150571Y-56800142D01*
X125245809Y-56800142D01*
X125341047Y-56323952D01*
X89947047Y-89844571D02*
X90280380Y-89844571D01*
X90280380Y-90368380D02*
X90280380Y-89368380D01*
X89804190Y-89368380D01*
X89423238Y-90368380D02*
X89423238Y-89701714D01*
X89423238Y-89368380D02*
X89470857Y-89416000D01*
X89423238Y-89463619D01*
X89375619Y-89416000D01*
X89423238Y-89368380D01*
X89423238Y-89463619D01*
X88804190Y-90368380D02*
X88899428Y-90320761D01*
X88947047Y-90225523D01*
X88947047Y-89368380D01*
X88566095Y-89701714D02*
X88185142Y-89701714D01*
X88423238Y-89368380D02*
X88423238Y-90225523D01*
X88375619Y-90320761D01*
X88280380Y-90368380D01*
X88185142Y-90368380D01*
X87470857Y-90320761D02*
X87566095Y-90368380D01*
X87756571Y-90368380D01*
X87851809Y-90320761D01*
X87899428Y-90225523D01*
X87899428Y-89844571D01*
X87851809Y-89749333D01*
X87756571Y-89701714D01*
X87566095Y-89701714D01*
X87470857Y-89749333D01*
X87423238Y-89844571D01*
X87423238Y-89939809D01*
X87899428Y-90035047D01*
X86994666Y-90368380D02*
X86994666Y-89701714D01*
X86994666Y-89892190D02*
X86947047Y-89796952D01*
X86899428Y-89749333D01*
X86804190Y-89701714D01*
X86708952Y-89701714D01*
X85613714Y-89844571D02*
X85280380Y-89844571D01*
X85137523Y-90368380D02*
X85613714Y-90368380D01*
X85613714Y-89368380D01*
X85137523Y-89368380D01*
X84708952Y-89701714D02*
X84708952Y-90368380D01*
X84708952Y-89796952D02*
X84661333Y-89749333D01*
X84566095Y-89701714D01*
X84423238Y-89701714D01*
X84328000Y-89749333D01*
X84280380Y-89844571D01*
X84280380Y-90368380D01*
X83899428Y-89701714D02*
X83661333Y-90368380D01*
X83423238Y-89701714D01*
X82280380Y-90368380D02*
X82280380Y-89368380D01*
X82042285Y-89368380D01*
X81899428Y-89416000D01*
X81804190Y-89511238D01*
X81756571Y-89606476D01*
X81708952Y-89796952D01*
X81708952Y-89939809D01*
X81756571Y-90130285D01*
X81804190Y-90225523D01*
X81899428Y-90320761D01*
X82042285Y-90368380D01*
X82280380Y-90368380D01*
X80899428Y-90320761D02*
X80994666Y-90368380D01*
X81185142Y-90368380D01*
X81280380Y-90320761D01*
X81328000Y-90225523D01*
X81328000Y-89844571D01*
X81280380Y-89749333D01*
X81185142Y-89701714D01*
X80994666Y-89701714D01*
X80899428Y-89749333D01*
X80851809Y-89844571D01*
X80851809Y-89939809D01*
X81328000Y-90035047D01*
X79994666Y-90320761D02*
X80089904Y-90368380D01*
X80280380Y-90368380D01*
X80375619Y-90320761D01*
X80423238Y-90273142D01*
X80470857Y-90177904D01*
X80470857Y-89892190D01*
X80423238Y-89796952D01*
X80375619Y-89749333D01*
X80280380Y-89701714D01*
X80089904Y-89701714D01*
X79994666Y-89749333D01*
X79137523Y-90368380D02*
X79137523Y-89844571D01*
X79185142Y-89749333D01*
X79280380Y-89701714D01*
X79470857Y-89701714D01*
X79566095Y-89749333D01*
X79137523Y-90320761D02*
X79232761Y-90368380D01*
X79470857Y-90368380D01*
X79566095Y-90320761D01*
X79613714Y-90225523D01*
X79613714Y-90130285D01*
X79566095Y-90035047D01*
X79470857Y-89987428D01*
X79232761Y-89987428D01*
X79137523Y-89939809D01*
X78756571Y-89701714D02*
X78518476Y-90368380D01*
X78280380Y-89701714D02*
X78518476Y-90368380D01*
X78613714Y-90606476D01*
X78661333Y-90654095D01*
X78756571Y-90701714D01*
X48855380Y-50046380D02*
X48855380Y-50236857D01*
X48903000Y-50332095D01*
X48998238Y-50427333D01*
X49188714Y-50474952D01*
X49522047Y-50474952D01*
X49712523Y-50427333D01*
X49807761Y-50332095D01*
X49855380Y-50236857D01*
X49855380Y-50046380D01*
X49807761Y-49951142D01*
X49712523Y-49855904D01*
X49522047Y-49808285D01*
X49188714Y-49808285D01*
X48998238Y-49855904D01*
X48903000Y-49951142D01*
X48855380Y-50046380D01*
X49807761Y-50855904D02*
X49855380Y-50998761D01*
X49855380Y-51236857D01*
X49807761Y-51332095D01*
X49760142Y-51379714D01*
X49664904Y-51427333D01*
X49569666Y-51427333D01*
X49474428Y-51379714D01*
X49426809Y-51332095D01*
X49379190Y-51236857D01*
X49331571Y-51046380D01*
X49283952Y-50951142D01*
X49236333Y-50903523D01*
X49141095Y-50855904D01*
X49045857Y-50855904D01*
X48950619Y-50903523D01*
X48903000Y-50951142D01*
X48855380Y-51046380D01*
X48855380Y-51284476D01*
X48903000Y-51427333D01*
X49760142Y-52427333D02*
X49807761Y-52379714D01*
X49855380Y-52236857D01*
X49855380Y-52141619D01*
X49807761Y-51998761D01*
X49712523Y-51903523D01*
X49617285Y-51855904D01*
X49426809Y-51808285D01*
X49283952Y-51808285D01*
X49093476Y-51855904D01*
X48998238Y-51903523D01*
X48903000Y-51998761D01*
X48855380Y-52141619D01*
X48855380Y-52236857D01*
X48903000Y-52379714D01*
X48950619Y-52427333D01*
X48950619Y-52808285D02*
X48903000Y-52855904D01*
X48855380Y-52951142D01*
X48855380Y-53189238D01*
X48903000Y-53284476D01*
X48950619Y-53332095D01*
X49045857Y-53379714D01*
X49141095Y-53379714D01*
X49283952Y-53332095D01*
X49855380Y-52760666D01*
X49855380Y-53379714D01*
X49331571Y-54903523D02*
X49331571Y-54570190D01*
X49855380Y-54570190D02*
X48855380Y-54570190D01*
X48855380Y-55046380D01*
X49855380Y-55427333D02*
X49188714Y-55427333D01*
X49379190Y-55427333D02*
X49283952Y-55474952D01*
X49236333Y-55522571D01*
X49188714Y-55617809D01*
X49188714Y-55713047D01*
X49807761Y-56427333D02*
X49855380Y-56332095D01*
X49855380Y-56141619D01*
X49807761Y-56046380D01*
X49712523Y-55998761D01*
X49331571Y-55998761D01*
X49236333Y-56046380D01*
X49188714Y-56141619D01*
X49188714Y-56332095D01*
X49236333Y-56427333D01*
X49331571Y-56474952D01*
X49426809Y-56474952D01*
X49522047Y-55998761D01*
X49188714Y-57332095D02*
X50188714Y-57332095D01*
X49807761Y-57332095D02*
X49855380Y-57236857D01*
X49855380Y-57046380D01*
X49807761Y-56951142D01*
X49760142Y-56903523D01*
X49664904Y-56855904D01*
X49379190Y-56855904D01*
X49283952Y-56903523D01*
X49236333Y-56951142D01*
X49188714Y-57046380D01*
X49188714Y-57236857D01*
X49236333Y-57332095D01*
X87701380Y-47570047D02*
X86701380Y-47570047D01*
X87701380Y-48141476D01*
X86701380Y-48141476D01*
X87701380Y-48760523D02*
X87653761Y-48665285D01*
X87606142Y-48617666D01*
X87510904Y-48570047D01*
X87225190Y-48570047D01*
X87129952Y-48617666D01*
X87082333Y-48665285D01*
X87034714Y-48760523D01*
X87034714Y-48903380D01*
X87082333Y-48998619D01*
X87129952Y-49046238D01*
X87225190Y-49093857D01*
X87510904Y-49093857D01*
X87606142Y-49046238D01*
X87653761Y-48998619D01*
X87701380Y-48903380D01*
X87701380Y-48760523D01*
X87701380Y-49522428D02*
X87034714Y-49522428D01*
X86701380Y-49522428D02*
X86749000Y-49474809D01*
X86796619Y-49522428D01*
X86749000Y-49570047D01*
X86701380Y-49522428D01*
X86796619Y-49522428D01*
X87653761Y-49950999D02*
X87701380Y-50046238D01*
X87701380Y-50236714D01*
X87653761Y-50331952D01*
X87558523Y-50379571D01*
X87510904Y-50379571D01*
X87415666Y-50331952D01*
X87368047Y-50236714D01*
X87368047Y-50093857D01*
X87320428Y-49998619D01*
X87225190Y-49950999D01*
X87177571Y-49950999D01*
X87082333Y-49998619D01*
X87034714Y-50093857D01*
X87034714Y-50236714D01*
X87082333Y-50331952D01*
X87653761Y-51189095D02*
X87701380Y-51093857D01*
X87701380Y-50903380D01*
X87653761Y-50808142D01*
X87558523Y-50760523D01*
X87177571Y-50760523D01*
X87082333Y-50808142D01*
X87034714Y-50903380D01*
X87034714Y-51093857D01*
X87082333Y-51189095D01*
X87177571Y-51236714D01*
X87272809Y-51236714D01*
X87368047Y-50760523D01*
X86701380Y-52284333D02*
X87701380Y-52617666D01*
X86701380Y-52950999D01*
X87701380Y-53427190D02*
X87653761Y-53331952D01*
X87606142Y-53284333D01*
X87510904Y-53236714D01*
X87225190Y-53236714D01*
X87129952Y-53284333D01*
X87082333Y-53331952D01*
X87034714Y-53427190D01*
X87034714Y-53570047D01*
X87082333Y-53665285D01*
X87129952Y-53712904D01*
X87225190Y-53760523D01*
X87510904Y-53760523D01*
X87606142Y-53712904D01*
X87653761Y-53665285D01*
X87701380Y-53570047D01*
X87701380Y-53427190D01*
X87701380Y-54331952D02*
X87653761Y-54236714D01*
X87558523Y-54189095D01*
X86701380Y-54189095D01*
X87034714Y-55141476D02*
X87701380Y-55141476D01*
X87034714Y-54712904D02*
X87558523Y-54712904D01*
X87653761Y-54760523D01*
X87701380Y-54855761D01*
X87701380Y-54998619D01*
X87653761Y-55093857D01*
X87606142Y-55141476D01*
X87701380Y-55617666D02*
X87034714Y-55617666D01*
X87129952Y-55617666D02*
X87082333Y-55665285D01*
X87034714Y-55760523D01*
X87034714Y-55903380D01*
X87082333Y-55998619D01*
X87177571Y-56046238D01*
X87701380Y-56046238D01*
X87177571Y-56046238D02*
X87082333Y-56093857D01*
X87034714Y-56189095D01*
X87034714Y-56331952D01*
X87082333Y-56427190D01*
X87177571Y-56474809D01*
X87701380Y-56474809D01*
X87653761Y-57331952D02*
X87701380Y-57236714D01*
X87701380Y-57046238D01*
X87653761Y-56950999D01*
X87558523Y-56903380D01*
X87177571Y-56903380D01*
X87082333Y-56950999D01*
X87034714Y-57046238D01*
X87034714Y-57236714D01*
X87082333Y-57331952D01*
X87177571Y-57379571D01*
X87272809Y-57379571D01*
X87368047Y-56903380D01*
X98948095Y-80573571D02*
X99281428Y-80573571D01*
X99281428Y-81097380D02*
X99281428Y-80097380D01*
X98805238Y-80097380D01*
X98424285Y-81097380D02*
X98424285Y-80430714D01*
X98424285Y-80097380D02*
X98471904Y-80145000D01*
X98424285Y-80192619D01*
X98376666Y-80145000D01*
X98424285Y-80097380D01*
X98424285Y-80192619D01*
X97805238Y-81097380D02*
X97900476Y-81049761D01*
X97948095Y-80954523D01*
X97948095Y-80097380D01*
X97567142Y-80430714D02*
X97186190Y-80430714D01*
X97424285Y-80097380D02*
X97424285Y-80954523D01*
X97376666Y-81049761D01*
X97281428Y-81097380D01*
X97186190Y-81097380D01*
X96471904Y-81049761D02*
X96567142Y-81097380D01*
X96757619Y-81097380D01*
X96852857Y-81049761D01*
X96900476Y-80954523D01*
X96900476Y-80573571D01*
X96852857Y-80478333D01*
X96757619Y-80430714D01*
X96567142Y-80430714D01*
X96471904Y-80478333D01*
X96424285Y-80573571D01*
X96424285Y-80668809D01*
X96900476Y-80764047D01*
X95995714Y-81097380D02*
X95995714Y-80430714D01*
X95995714Y-80621190D02*
X95948095Y-80525952D01*
X95900476Y-80478333D01*
X95805238Y-80430714D01*
X95710000Y-80430714D01*
X94138571Y-81097380D02*
X94614761Y-81097380D01*
X94614761Y-80097380D01*
X93471904Y-80573571D02*
X93805238Y-80573571D01*
X93805238Y-81097380D02*
X93805238Y-80097380D01*
X93329047Y-80097380D01*
X92757619Y-80097380D02*
X92567142Y-80097380D01*
X92471904Y-80145000D01*
X92376666Y-80240238D01*
X92329047Y-80430714D01*
X92329047Y-80764047D01*
X92376666Y-80954523D01*
X92471904Y-81049761D01*
X92567142Y-81097380D01*
X92757619Y-81097380D01*
X92852857Y-81049761D01*
X92948095Y-80954523D01*
X92995714Y-80764047D01*
X92995714Y-80430714D01*
X92948095Y-80240238D01*
X92852857Y-80145000D01*
X92757619Y-80097380D01*
X91186190Y-80811666D02*
X90710000Y-80811666D01*
X91281428Y-81097380D02*
X90948095Y-80097380D01*
X90614761Y-81097380D01*
X90281428Y-81097380D02*
X90281428Y-80430714D01*
X90281428Y-80525952D02*
X90233809Y-80478333D01*
X90138571Y-80430714D01*
X89995714Y-80430714D01*
X89900476Y-80478333D01*
X89852857Y-80573571D01*
X89852857Y-81097380D01*
X89852857Y-80573571D02*
X89805238Y-80478333D01*
X89710000Y-80430714D01*
X89567142Y-80430714D01*
X89471904Y-80478333D01*
X89424285Y-80573571D01*
X89424285Y-81097380D01*
X88805238Y-81097380D02*
X88900476Y-81049761D01*
X88948095Y-81002142D01*
X88995714Y-80906904D01*
X88995714Y-80621190D01*
X88948095Y-80525952D01*
X88900476Y-80478333D01*
X88805238Y-80430714D01*
X88662380Y-80430714D01*
X88567142Y-80478333D01*
X88519523Y-80525952D01*
X88471904Y-80621190D01*
X88471904Y-80906904D01*
X88519523Y-81002142D01*
X88567142Y-81049761D01*
X88662380Y-81097380D01*
X88805238Y-81097380D01*
X87614761Y-80430714D02*
X87614761Y-81097380D01*
X88043333Y-80430714D02*
X88043333Y-80954523D01*
X87995714Y-81049761D01*
X87900476Y-81097380D01*
X87757619Y-81097380D01*
X87662380Y-81049761D01*
X87614761Y-81002142D01*
X87138571Y-80430714D02*
X87138571Y-81097380D01*
X87138571Y-80525952D02*
X87090952Y-80478333D01*
X86995714Y-80430714D01*
X86852857Y-80430714D01*
X86757619Y-80478333D01*
X86710000Y-80573571D01*
X86710000Y-81097380D01*
X86376666Y-80430714D02*
X85995714Y-80430714D01*
X86233809Y-80097380D02*
X86233809Y-80954523D01*
X86186190Y-81049761D01*
X86090952Y-81097380D01*
X85995714Y-81097380D01*
X45092571Y-76906380D02*
X45568761Y-76906380D01*
X45568761Y-75906380D01*
X44425904Y-76382571D02*
X44759238Y-76382571D01*
X44759238Y-76906380D02*
X44759238Y-75906380D01*
X44283047Y-75906380D01*
X43711619Y-75906380D02*
X43521142Y-75906380D01*
X43425904Y-75954000D01*
X43330666Y-76049238D01*
X43283047Y-76239714D01*
X43283047Y-76573047D01*
X43330666Y-76763523D01*
X43425904Y-76858761D01*
X43521142Y-76906380D01*
X43711619Y-76906380D01*
X43806857Y-76858761D01*
X43902095Y-76763523D01*
X43949714Y-76573047D01*
X43949714Y-76239714D01*
X43902095Y-76049238D01*
X43806857Y-75954000D01*
X43711619Y-75906380D01*
X42092571Y-76906380D02*
X42092571Y-75906380D01*
X41759238Y-76620666D01*
X41425904Y-75906380D01*
X41425904Y-76906380D01*
X40806857Y-76906380D02*
X40902095Y-76858761D01*
X40949714Y-76811142D01*
X40997333Y-76715904D01*
X40997333Y-76430190D01*
X40949714Y-76334952D01*
X40902095Y-76287333D01*
X40806857Y-76239714D01*
X40664000Y-76239714D01*
X40568761Y-76287333D01*
X40521142Y-76334952D01*
X40473523Y-76430190D01*
X40473523Y-76715904D01*
X40521142Y-76811142D01*
X40568761Y-76858761D01*
X40664000Y-76906380D01*
X40806857Y-76906380D01*
X39616380Y-76906380D02*
X39616380Y-75906380D01*
X39616380Y-76858761D02*
X39711619Y-76906380D01*
X39902095Y-76906380D01*
X39997333Y-76858761D01*
X40044952Y-76811142D01*
X40092571Y-76715904D01*
X40092571Y-76430190D01*
X40044952Y-76334952D01*
X39997333Y-76287333D01*
X39902095Y-76239714D01*
X39711619Y-76239714D01*
X39616380Y-76287333D01*
X38759238Y-76858761D02*
X38854476Y-76906380D01*
X39044952Y-76906380D01*
X39140190Y-76858761D01*
X39187809Y-76763523D01*
X39187809Y-76382571D01*
X39140190Y-76287333D01*
X39044952Y-76239714D01*
X38854476Y-76239714D01*
X38759238Y-76287333D01*
X38711619Y-76382571D01*
X38711619Y-76477809D01*
X39187809Y-76573047D01*
X57998666Y-89241380D02*
X57665333Y-90241380D01*
X57332000Y-89241380D01*
X56855809Y-90241380D02*
X56951047Y-90193761D01*
X56998666Y-90146142D01*
X57046285Y-90050904D01*
X57046285Y-89765190D01*
X56998666Y-89669952D01*
X56951047Y-89622333D01*
X56855809Y-89574714D01*
X56712952Y-89574714D01*
X56617714Y-89622333D01*
X56570095Y-89669952D01*
X56522476Y-89765190D01*
X56522476Y-90050904D01*
X56570095Y-90146142D01*
X56617714Y-90193761D01*
X56712952Y-90241380D01*
X56855809Y-90241380D01*
X55951047Y-90241380D02*
X56046285Y-90193761D01*
X56093904Y-90098523D01*
X56093904Y-89241380D01*
X55141523Y-89574714D02*
X55141523Y-90241380D01*
X55570095Y-89574714D02*
X55570095Y-90098523D01*
X55522476Y-90193761D01*
X55427238Y-90241380D01*
X55284380Y-90241380D01*
X55189142Y-90193761D01*
X55141523Y-90146142D01*
X54665333Y-90241380D02*
X54665333Y-89574714D01*
X54665333Y-89669952D02*
X54617714Y-89622333D01*
X54522476Y-89574714D01*
X54379619Y-89574714D01*
X54284380Y-89622333D01*
X54236761Y-89717571D01*
X54236761Y-90241380D01*
X54236761Y-89717571D02*
X54189142Y-89622333D01*
X54093904Y-89574714D01*
X53951047Y-89574714D01*
X53855809Y-89622333D01*
X53808190Y-89717571D01*
X53808190Y-90241380D01*
X52951047Y-90193761D02*
X53046285Y-90241380D01*
X53236761Y-90241380D01*
X53332000Y-90193761D01*
X53379619Y-90098523D01*
X53379619Y-89717571D01*
X53332000Y-89622333D01*
X53236761Y-89574714D01*
X53046285Y-89574714D01*
X52951047Y-89622333D01*
X52903428Y-89717571D01*
X52903428Y-89812809D01*
X53379619Y-89908047D01*
X51712952Y-90241380D02*
X51712952Y-89241380D01*
X51474857Y-89241380D01*
X51332000Y-89289000D01*
X51236761Y-89384238D01*
X51189142Y-89479476D01*
X51141523Y-89669952D01*
X51141523Y-89812809D01*
X51189142Y-90003285D01*
X51236761Y-90098523D01*
X51332000Y-90193761D01*
X51474857Y-90241380D01*
X51712952Y-90241380D01*
X50332000Y-90193761D02*
X50427238Y-90241380D01*
X50617714Y-90241380D01*
X50712952Y-90193761D01*
X50760571Y-90098523D01*
X50760571Y-89717571D01*
X50712952Y-89622333D01*
X50617714Y-89574714D01*
X50427238Y-89574714D01*
X50332000Y-89622333D01*
X50284380Y-89717571D01*
X50284380Y-89812809D01*
X50760571Y-89908047D01*
X49427238Y-90193761D02*
X49522476Y-90241380D01*
X49712952Y-90241380D01*
X49808190Y-90193761D01*
X49855809Y-90146142D01*
X49903428Y-90050904D01*
X49903428Y-89765190D01*
X49855809Y-89669952D01*
X49808190Y-89622333D01*
X49712952Y-89574714D01*
X49522476Y-89574714D01*
X49427238Y-89622333D01*
X48570095Y-90241380D02*
X48570095Y-89717571D01*
X48617714Y-89622333D01*
X48712952Y-89574714D01*
X48903428Y-89574714D01*
X48998666Y-89622333D01*
X48570095Y-90193761D02*
X48665333Y-90241380D01*
X48903428Y-90241380D01*
X48998666Y-90193761D01*
X49046285Y-90098523D01*
X49046285Y-90003285D01*
X48998666Y-89908047D01*
X48903428Y-89860428D01*
X48665333Y-89860428D01*
X48570095Y-89812809D01*
X48189142Y-89574714D02*
X47951047Y-90241380D01*
X47712952Y-89574714D02*
X47951047Y-90241380D01*
X48046285Y-90479476D01*
X48093904Y-90527095D01*
X48189142Y-90574714D01*
%TO.C,J10*%
X59902385Y-34690476D02*
X60616671Y-34690476D01*
X60759528Y-34642857D01*
X60854766Y-34547619D01*
X60902385Y-34404761D01*
X60902385Y-34309523D01*
X60902385Y-35690476D02*
X60902385Y-35119047D01*
X60902385Y-35404761D02*
X59902385Y-35404761D01*
X60045243Y-35309523D01*
X60140481Y-35214285D01*
X60188100Y-35119047D01*
X59902385Y-36309523D02*
X59902385Y-36404761D01*
X59950005Y-36500000D01*
X59997624Y-36547619D01*
X60092862Y-36595238D01*
X60283338Y-36642857D01*
X60521433Y-36642857D01*
X60711909Y-36595238D01*
X60807147Y-36547619D01*
X60854766Y-36500000D01*
X60902385Y-36404761D01*
X60902385Y-36309523D01*
X60854766Y-36214285D01*
X60807147Y-36166666D01*
X60711909Y-36119047D01*
X60521433Y-36071428D01*
X60283338Y-36071428D01*
X60092862Y-36119047D01*
X59997624Y-36166666D01*
X59950005Y-36214285D01*
X59902385Y-36309523D01*
%TO.C,RV11*%
X106626428Y-90737380D02*
X106959761Y-90261190D01*
X107197857Y-90737380D02*
X107197857Y-89737380D01*
X106816904Y-89737380D01*
X106721666Y-89785000D01*
X106674047Y-89832619D01*
X106626428Y-89927857D01*
X106626428Y-90070714D01*
X106674047Y-90165952D01*
X106721666Y-90213571D01*
X106816904Y-90261190D01*
X107197857Y-90261190D01*
X106340714Y-89737380D02*
X106007380Y-90737380D01*
X105674047Y-89737380D01*
X104816904Y-90737380D02*
X105388333Y-90737380D01*
X105102619Y-90737380D02*
X105102619Y-89737380D01*
X105197857Y-89880238D01*
X105293095Y-89975476D01*
X105388333Y-90023095D01*
X103864523Y-90737380D02*
X104435952Y-90737380D01*
X104150238Y-90737380D02*
X104150238Y-89737380D01*
X104245476Y-89880238D01*
X104340714Y-89975476D01*
X104435952Y-90023095D01*
%TO.C,RV4*%
X95150238Y-45737380D02*
X95483571Y-45261190D01*
X95721666Y-45737380D02*
X95721666Y-44737380D01*
X95340714Y-44737380D01*
X95245476Y-44785000D01*
X95197857Y-44832619D01*
X95150238Y-44927857D01*
X95150238Y-45070714D01*
X95197857Y-45165952D01*
X95245476Y-45213571D01*
X95340714Y-45261190D01*
X95721666Y-45261190D01*
X94864523Y-44737380D02*
X94531190Y-45737380D01*
X94197857Y-44737380D01*
X93435952Y-45070714D02*
X93435952Y-45737380D01*
X93674047Y-44689761D02*
X93912142Y-45404047D01*
X93293095Y-45404047D01*
%TO.C,RV13*%
X46626428Y-90737380D02*
X46959761Y-90261190D01*
X47197857Y-90737380D02*
X47197857Y-89737380D01*
X46816904Y-89737380D01*
X46721666Y-89785000D01*
X46674047Y-89832619D01*
X46626428Y-89927857D01*
X46626428Y-90070714D01*
X46674047Y-90165952D01*
X46721666Y-90213571D01*
X46816904Y-90261190D01*
X47197857Y-90261190D01*
X46340714Y-89737380D02*
X46007380Y-90737380D01*
X45674047Y-89737380D01*
X44816904Y-90737380D02*
X45388333Y-90737380D01*
X45102619Y-90737380D02*
X45102619Y-89737380D01*
X45197857Y-89880238D01*
X45293095Y-89975476D01*
X45388333Y-90023095D01*
X44483571Y-89737380D02*
X43864523Y-89737380D01*
X44197857Y-90118333D01*
X44055000Y-90118333D01*
X43959761Y-90165952D01*
X43912142Y-90213571D01*
X43864523Y-90308809D01*
X43864523Y-90546904D01*
X43912142Y-90642142D01*
X43959761Y-90689761D01*
X44055000Y-90737380D01*
X44340714Y-90737380D01*
X44435952Y-90689761D01*
X44483571Y-90642142D01*
%TO.C,RV10*%
X63926428Y-65737380D02*
X64259761Y-65261190D01*
X64497857Y-65737380D02*
X64497857Y-64737380D01*
X64116904Y-64737380D01*
X64021666Y-64785000D01*
X63974047Y-64832619D01*
X63926428Y-64927857D01*
X63926428Y-65070714D01*
X63974047Y-65165952D01*
X64021666Y-65213571D01*
X64116904Y-65261190D01*
X64497857Y-65261190D01*
X63640714Y-64737380D02*
X63307380Y-65737380D01*
X62974047Y-64737380D01*
X62116904Y-65737380D02*
X62688333Y-65737380D01*
X62402619Y-65737380D02*
X62402619Y-64737380D01*
X62497857Y-64880238D01*
X62593095Y-64975476D01*
X62688333Y-65023095D01*
X61497857Y-64737380D02*
X61402619Y-64737380D01*
X61307380Y-64785000D01*
X61259761Y-64832619D01*
X61212142Y-64927857D01*
X61164523Y-65118333D01*
X61164523Y-65356428D01*
X61212142Y-65546904D01*
X61259761Y-65642142D01*
X61307380Y-65689761D01*
X61402619Y-65737380D01*
X61497857Y-65737380D01*
X61593095Y-65689761D01*
X61640714Y-65642142D01*
X61688333Y-65546904D01*
X61735952Y-65356428D01*
X61735952Y-65118333D01*
X61688333Y-64927857D01*
X61640714Y-64832619D01*
X61593095Y-64785000D01*
X61497857Y-64737380D01*
%TO.C,SW1*%
X43370333Y-66397761D02*
X43227476Y-66445380D01*
X42989380Y-66445380D01*
X42894142Y-66397761D01*
X42846523Y-66350142D01*
X42798904Y-66254904D01*
X42798904Y-66159666D01*
X42846523Y-66064428D01*
X42894142Y-66016809D01*
X42989380Y-65969190D01*
X43179857Y-65921571D01*
X43275095Y-65873952D01*
X43322714Y-65826333D01*
X43370333Y-65731095D01*
X43370333Y-65635857D01*
X43322714Y-65540619D01*
X43275095Y-65493000D01*
X43179857Y-65445380D01*
X42941761Y-65445380D01*
X42798904Y-65493000D01*
X42465571Y-65445380D02*
X42227476Y-66445380D01*
X42037000Y-65731095D01*
X41846523Y-66445380D01*
X41608428Y-65445380D01*
X40703666Y-66445380D02*
X41275095Y-66445380D01*
X40989380Y-66445380D02*
X40989380Y-65445380D01*
X41084619Y-65588238D01*
X41179857Y-65683476D01*
X41275095Y-65731095D01*
%TO.C,J7*%
X183338333Y-60722380D02*
X183338333Y-61436666D01*
X183385952Y-61579523D01*
X183481190Y-61674761D01*
X183624047Y-61722380D01*
X183719285Y-61722380D01*
X182957380Y-60722380D02*
X182290714Y-60722380D01*
X182719285Y-61722380D01*
%TO.C,RV3*%
X114150238Y-45737380D02*
X114483571Y-45261190D01*
X114721666Y-45737380D02*
X114721666Y-44737380D01*
X114340714Y-44737380D01*
X114245476Y-44785000D01*
X114197857Y-44832619D01*
X114150238Y-44927857D01*
X114150238Y-45070714D01*
X114197857Y-45165952D01*
X114245476Y-45213571D01*
X114340714Y-45261190D01*
X114721666Y-45261190D01*
X113864523Y-44737380D02*
X113531190Y-45737380D01*
X113197857Y-44737380D01*
X112959761Y-44737380D02*
X112340714Y-44737380D01*
X112674047Y-45118333D01*
X112531190Y-45118333D01*
X112435952Y-45165952D01*
X112388333Y-45213571D01*
X112340714Y-45308809D01*
X112340714Y-45546904D01*
X112388333Y-45642142D01*
X112435952Y-45689761D01*
X112531190Y-45737380D01*
X112816904Y-45737380D01*
X112912142Y-45689761D01*
X112959761Y-45642142D01*
%TO.C,RV9*%
X88900238Y-65737380D02*
X89233571Y-65261190D01*
X89471666Y-65737380D02*
X89471666Y-64737380D01*
X89090714Y-64737380D01*
X88995476Y-64785000D01*
X88947857Y-64832619D01*
X88900238Y-64927857D01*
X88900238Y-65070714D01*
X88947857Y-65165952D01*
X88995476Y-65213571D01*
X89090714Y-65261190D01*
X89471666Y-65261190D01*
X88614523Y-64737380D02*
X88281190Y-65737380D01*
X87947857Y-64737380D01*
X87566904Y-65737380D02*
X87376428Y-65737380D01*
X87281190Y-65689761D01*
X87233571Y-65642142D01*
X87138333Y-65499285D01*
X87090714Y-65308809D01*
X87090714Y-64927857D01*
X87138333Y-64832619D01*
X87185952Y-64785000D01*
X87281190Y-64737380D01*
X87471666Y-64737380D01*
X87566904Y-64785000D01*
X87614523Y-64832619D01*
X87662142Y-64927857D01*
X87662142Y-65165952D01*
X87614523Y-65261190D01*
X87566904Y-65308809D01*
X87471666Y-65356428D01*
X87281190Y-65356428D01*
X87185952Y-65308809D01*
X87138333Y-65261190D01*
X87090714Y-65165952D01*
%TO.C,J11*%
X48252372Y-39690476D02*
X48966658Y-39690476D01*
X49109515Y-39642857D01*
X49204753Y-39547619D01*
X49252372Y-39404761D01*
X49252372Y-39309523D01*
X49252372Y-40690476D02*
X49252372Y-40119047D01*
X49252372Y-40404761D02*
X48252372Y-40404761D01*
X48395230Y-40309523D01*
X48490468Y-40214285D01*
X48538087Y-40119047D01*
X49252372Y-41642857D02*
X49252372Y-41071428D01*
X49252372Y-41357142D02*
X48252372Y-41357142D01*
X48395230Y-41261904D01*
X48490468Y-41166666D01*
X48538087Y-41071428D01*
%TO.C,J8*%
X110652373Y-35166666D02*
X111366659Y-35166666D01*
X111509516Y-35119047D01*
X111604754Y-35023809D01*
X111652373Y-34880952D01*
X111652373Y-34785714D01*
X111080945Y-35785714D02*
X111033326Y-35690476D01*
X110985707Y-35642857D01*
X110890469Y-35595238D01*
X110842850Y-35595238D01*
X110747612Y-35642857D01*
X110699993Y-35690476D01*
X110652373Y-35785714D01*
X110652373Y-35976190D01*
X110699993Y-36071428D01*
X110747612Y-36119047D01*
X110842850Y-36166666D01*
X110890469Y-36166666D01*
X110985707Y-36119047D01*
X111033326Y-36071428D01*
X111080945Y-35976190D01*
X111080945Y-35785714D01*
X111128564Y-35690476D01*
X111176183Y-35642857D01*
X111271421Y-35595238D01*
X111461897Y-35595238D01*
X111557135Y-35642857D01*
X111604754Y-35690476D01*
X111652373Y-35785714D01*
X111652373Y-35976190D01*
X111604754Y-36071428D01*
X111557135Y-36119047D01*
X111461897Y-36166666D01*
X111271421Y-36166666D01*
X111176183Y-36119047D01*
X111128564Y-36071428D01*
X111080945Y-35976190D01*
%TO.C,J6*%
X148233333Y-105752380D02*
X148233333Y-106466666D01*
X148280952Y-106609523D01*
X148376190Y-106704761D01*
X148519047Y-106752380D01*
X148614285Y-106752380D01*
X147328571Y-105752380D02*
X147519047Y-105752380D01*
X147614285Y-105800000D01*
X147661904Y-105847619D01*
X147757142Y-105990476D01*
X147804761Y-106180952D01*
X147804761Y-106561904D01*
X147757142Y-106657142D01*
X147709523Y-106704761D01*
X147614285Y-106752380D01*
X147423809Y-106752380D01*
X147328571Y-106704761D01*
X147280952Y-106657142D01*
X147233333Y-106561904D01*
X147233333Y-106323809D01*
X147280952Y-106228571D01*
X147328571Y-106180952D01*
X147423809Y-106133333D01*
X147614285Y-106133333D01*
X147709523Y-106180952D01*
X147757142Y-106228571D01*
X147804761Y-106323809D01*
%TO.C,RV8*%
X114150238Y-65737380D02*
X114483571Y-65261190D01*
X114721666Y-65737380D02*
X114721666Y-64737380D01*
X114340714Y-64737380D01*
X114245476Y-64785000D01*
X114197857Y-64832619D01*
X114150238Y-64927857D01*
X114150238Y-65070714D01*
X114197857Y-65165952D01*
X114245476Y-65213571D01*
X114340714Y-65261190D01*
X114721666Y-65261190D01*
X113864523Y-64737380D02*
X113531190Y-65737380D01*
X113197857Y-64737380D01*
X112721666Y-65165952D02*
X112816904Y-65118333D01*
X112864523Y-65070714D01*
X112912142Y-64975476D01*
X112912142Y-64927857D01*
X112864523Y-64832619D01*
X112816904Y-64785000D01*
X112721666Y-64737380D01*
X112531190Y-64737380D01*
X112435952Y-64785000D01*
X112388333Y-64832619D01*
X112340714Y-64927857D01*
X112340714Y-64975476D01*
X112388333Y-65070714D01*
X112435952Y-65118333D01*
X112531190Y-65165952D01*
X112721666Y-65165952D01*
X112816904Y-65213571D01*
X112864523Y-65261190D01*
X112912142Y-65356428D01*
X112912142Y-65546904D01*
X112864523Y-65642142D01*
X112816904Y-65689761D01*
X112721666Y-65737380D01*
X112531190Y-65737380D01*
X112435952Y-65689761D01*
X112388333Y-65642142D01*
X112340714Y-65546904D01*
X112340714Y-65356428D01*
X112388333Y-65261190D01*
X112435952Y-65213571D01*
X112531190Y-65165952D01*
%TO.C,RV5*%
X76150238Y-45737380D02*
X76483571Y-45261190D01*
X76721666Y-45737380D02*
X76721666Y-44737380D01*
X76340714Y-44737380D01*
X76245476Y-44785000D01*
X76197857Y-44832619D01*
X76150238Y-44927857D01*
X76150238Y-45070714D01*
X76197857Y-45165952D01*
X76245476Y-45213571D01*
X76340714Y-45261190D01*
X76721666Y-45261190D01*
X75864523Y-44737380D02*
X75531190Y-45737380D01*
X75197857Y-44737380D01*
X74388333Y-44737380D02*
X74864523Y-44737380D01*
X74912142Y-45213571D01*
X74864523Y-45165952D01*
X74769285Y-45118333D01*
X74531190Y-45118333D01*
X74435952Y-45165952D01*
X74388333Y-45213571D01*
X74340714Y-45308809D01*
X74340714Y-45546904D01*
X74388333Y-45642142D01*
X74435952Y-45689761D01*
X74531190Y-45737380D01*
X74769285Y-45737380D01*
X74864523Y-45689761D01*
X74912142Y-45642142D01*
%TO.C,RV12*%
X76626428Y-90737380D02*
X76959761Y-90261190D01*
X77197857Y-90737380D02*
X77197857Y-89737380D01*
X76816904Y-89737380D01*
X76721666Y-89785000D01*
X76674047Y-89832619D01*
X76626428Y-89927857D01*
X76626428Y-90070714D01*
X76674047Y-90165952D01*
X76721666Y-90213571D01*
X76816904Y-90261190D01*
X77197857Y-90261190D01*
X76340714Y-89737380D02*
X76007380Y-90737380D01*
X75674047Y-89737380D01*
X74816904Y-90737380D02*
X75388333Y-90737380D01*
X75102619Y-90737380D02*
X75102619Y-89737380D01*
X75197857Y-89880238D01*
X75293095Y-89975476D01*
X75388333Y-90023095D01*
X74435952Y-89832619D02*
X74388333Y-89785000D01*
X74293095Y-89737380D01*
X74055000Y-89737380D01*
X73959761Y-89785000D01*
X73912142Y-89832619D01*
X73864523Y-89927857D01*
X73864523Y-90023095D01*
X73912142Y-90165952D01*
X74483571Y-90737380D01*
X73864523Y-90737380D01*
%TO.C,RV7*%
X38150238Y-45737380D02*
X38483571Y-45261190D01*
X38721666Y-45737380D02*
X38721666Y-44737380D01*
X38340714Y-44737380D01*
X38245476Y-44785000D01*
X38197857Y-44832619D01*
X38150238Y-44927857D01*
X38150238Y-45070714D01*
X38197857Y-45165952D01*
X38245476Y-45213571D01*
X38340714Y-45261190D01*
X38721666Y-45261190D01*
X37864523Y-44737380D02*
X37531190Y-45737380D01*
X37197857Y-44737380D01*
X36959761Y-44737380D02*
X36293095Y-44737380D01*
X36721666Y-45737380D01*
%TO.C,RV6*%
X57150238Y-45737380D02*
X57483571Y-45261190D01*
X57721666Y-45737380D02*
X57721666Y-44737380D01*
X57340714Y-44737380D01*
X57245476Y-44785000D01*
X57197857Y-44832619D01*
X57150238Y-44927857D01*
X57150238Y-45070714D01*
X57197857Y-45165952D01*
X57245476Y-45213571D01*
X57340714Y-45261190D01*
X57721666Y-45261190D01*
X56864523Y-44737380D02*
X56531190Y-45737380D01*
X56197857Y-44737380D01*
X55435952Y-44737380D02*
X55626428Y-44737380D01*
X55721666Y-44785000D01*
X55769285Y-44832619D01*
X55864523Y-44975476D01*
X55912142Y-45165952D01*
X55912142Y-45546904D01*
X55864523Y-45642142D01*
X55816904Y-45689761D01*
X55721666Y-45737380D01*
X55531190Y-45737380D01*
X55435952Y-45689761D01*
X55388333Y-45642142D01*
X55340714Y-45546904D01*
X55340714Y-45308809D01*
X55388333Y-45213571D01*
X55435952Y-45165952D01*
X55531190Y-45118333D01*
X55721666Y-45118333D01*
X55816904Y-45165952D01*
X55864523Y-45213571D01*
X55912142Y-45308809D01*
%TO.C,J9*%
X85402385Y-35166666D02*
X86116671Y-35166666D01*
X86259528Y-35119047D01*
X86354766Y-35023809D01*
X86402385Y-34880952D01*
X86402385Y-34785714D01*
X86402385Y-35690476D02*
X86402385Y-35880952D01*
X86354766Y-35976190D01*
X86307147Y-36023809D01*
X86164290Y-36119047D01*
X85973814Y-36166666D01*
X85592862Y-36166666D01*
X85497624Y-36119047D01*
X85450005Y-36071428D01*
X85402385Y-35976190D01*
X85402385Y-35785714D01*
X85450005Y-35690476D01*
X85497624Y-35642857D01*
X85592862Y-35595238D01*
X85830957Y-35595238D01*
X85926195Y-35642857D01*
X85973814Y-35690476D01*
X86021433Y-35785714D01*
X86021433Y-35976190D01*
X85973814Y-36071428D01*
X85926195Y-36119047D01*
X85830957Y-36166666D01*
D11*
%TO.C,J10*%
X71750005Y-42500000D02*
X61250005Y-42500000D01*
X71750005Y-39500000D02*
X71750005Y-42500000D01*
X71750005Y-33500000D02*
X71750005Y-36500000D01*
X61250005Y-33500000D02*
X61250005Y-36400000D01*
X61250005Y-39600000D02*
X61250005Y-42500000D01*
X71750005Y-33500000D02*
X61250005Y-33500000D01*
D12*
X69790004Y-36603000D02*
G75*
G03*
X69790004Y-39397000I-2539999J-1397000D01*
G01*
X69050005Y-38000000D02*
G75*
G03*
X69050005Y-38000000I-1800000J0D01*
G01*
%TO.C,RV11*%
X110790000Y-102620000D02*
X111320000Y-102620000D01*
X113690000Y-102620000D02*
X114870000Y-102620000D01*
X108340000Y-102620000D02*
X109170000Y-102620000D01*
X105130000Y-94090000D02*
X105130000Y-91030000D01*
X110000000Y-95500000D02*
X110000000Y-96500000D01*
X105130000Y-102620000D02*
X105130000Y-97900000D01*
X105130000Y-102620000D02*
X106620000Y-102620000D01*
X114870000Y-94090000D02*
X114870000Y-91030000D01*
X110500000Y-96000000D02*
X109500000Y-96000000D01*
X114880000Y-102620000D02*
X114880000Y-97900000D01*
X105130000Y-91030000D02*
X114870000Y-91030000D01*
%TO.C,RV4*%
X99500000Y-51000000D02*
X98500000Y-51000000D01*
X99790000Y-57620000D02*
X100320000Y-57620000D01*
X94130000Y-57620000D02*
X95620000Y-57620000D01*
X94130000Y-46030000D02*
X103870000Y-46030000D01*
X97340000Y-57620000D02*
X98170000Y-57620000D01*
X102690000Y-57620000D02*
X103870000Y-57620000D01*
X94130000Y-49090000D02*
X94130000Y-46030000D01*
X103880000Y-57620000D02*
X103880000Y-52900000D01*
X99000000Y-50500000D02*
X99000000Y-51500000D01*
X94130000Y-57620000D02*
X94130000Y-52900000D01*
X103870000Y-49090000D02*
X103870000Y-46030000D01*
%TO.C,RV13*%
X53690000Y-102620000D02*
X54870000Y-102620000D01*
X50500000Y-96000000D02*
X49500000Y-96000000D01*
X48340000Y-102620000D02*
X49170000Y-102620000D01*
X45130000Y-102620000D02*
X46620000Y-102620000D01*
X54880000Y-102620000D02*
X54880000Y-97900000D01*
X45130000Y-94090000D02*
X45130000Y-91030000D01*
X45130000Y-91030000D02*
X54870000Y-91030000D01*
X45130000Y-102620000D02*
X45130000Y-97900000D01*
X50790000Y-102620000D02*
X51320000Y-102620000D01*
X54870000Y-94090000D02*
X54870000Y-91030000D01*
X50000000Y-95500000D02*
X50000000Y-96500000D01*
%TO.C,RV10*%
X67300000Y-70500000D02*
X67300000Y-71500000D01*
X70990000Y-77620000D02*
X72170000Y-77620000D01*
X62430000Y-66030000D02*
X72170000Y-66030000D01*
X62430000Y-77620000D02*
X63920000Y-77620000D01*
X68090000Y-77620000D02*
X68620000Y-77620000D01*
X72170000Y-69090000D02*
X72170000Y-66030000D01*
X72180000Y-77620000D02*
X72180000Y-72900000D01*
X65640000Y-77620000D02*
X66470000Y-77620000D01*
X62430000Y-77620000D02*
X62430000Y-72900000D01*
X62430000Y-69090000D02*
X62430000Y-66030000D01*
X67800000Y-71000000D02*
X66800000Y-71000000D01*
%TO.C,SW1*%
X46137000Y-75093000D02*
X37937000Y-75093000D01*
X46137000Y-66893000D02*
X46137000Y-75093000D01*
X42037000Y-70493000D02*
X42037000Y-71493000D01*
X41537000Y-70993000D02*
X42537000Y-70993000D01*
X37937000Y-75093000D02*
X37937000Y-66893000D01*
X37937000Y-66893000D02*
X46137000Y-66893000D01*
X42537000Y-70993000D02*
G75*
G03*
X42537000Y-70993000I-500000J0D01*
G01*
%TO.C,J7*%
X185605000Y-64870000D02*
X185605000Y-87790000D01*
X185605000Y-64870000D02*
X183005000Y-64870000D01*
X185605000Y-87790000D02*
X180405000Y-87790000D01*
X183005000Y-62270000D02*
X180405000Y-62270000D01*
X185605000Y-62270000D02*
X184275000Y-62270000D01*
X183005000Y-64870000D02*
X183005000Y-62270000D01*
X180405000Y-62270000D02*
X180405000Y-87790000D01*
X185605000Y-63600000D02*
X185605000Y-62270000D01*
%TO.C,RV3*%
X121690000Y-57620000D02*
X122870000Y-57620000D01*
X118000000Y-50500000D02*
X118000000Y-51500000D01*
X113130000Y-49090000D02*
X113130000Y-46030000D01*
X113130000Y-57620000D02*
X114620000Y-57620000D01*
X122870000Y-49090000D02*
X122870000Y-46030000D01*
X118500000Y-51000000D02*
X117500000Y-51000000D01*
X122880000Y-57620000D02*
X122880000Y-52900000D01*
X113130000Y-46030000D02*
X122870000Y-46030000D01*
X113130000Y-57620000D02*
X113130000Y-52900000D01*
X118790000Y-57620000D02*
X119320000Y-57620000D01*
X116340000Y-57620000D02*
X117170000Y-57620000D01*
%TO.C,RV9*%
X97630000Y-77620000D02*
X97630000Y-72900000D01*
X93540000Y-77620000D02*
X94070000Y-77620000D01*
X87880000Y-66030000D02*
X97620000Y-66030000D01*
X87880000Y-77620000D02*
X87880000Y-72900000D01*
X91090000Y-77620000D02*
X91920000Y-77620000D01*
X92750000Y-70500000D02*
X92750000Y-71500000D01*
X87880000Y-69090000D02*
X87880000Y-66030000D01*
X97620000Y-69090000D02*
X97620000Y-66030000D01*
X96440000Y-77620000D02*
X97620000Y-77620000D01*
X93250000Y-71000000D02*
X92250000Y-71000000D01*
X87880000Y-77620000D02*
X89370000Y-77620000D01*
D11*
%TO.C,J11*%
X37499992Y-42500000D02*
X47999992Y-42500000D01*
X37499992Y-33500000D02*
X47999992Y-33500000D01*
X37499992Y-36500000D02*
X37499992Y-33500000D01*
X47999992Y-42500000D02*
X47999992Y-39600000D01*
X37499992Y-42500000D02*
X37499992Y-39500000D01*
X47999992Y-36400000D02*
X47999992Y-33500000D01*
D12*
X39459993Y-39397000D02*
G75*
G03*
X39459993Y-36603000I2539999J1397000D01*
G01*
X43799992Y-38000000D02*
G75*
G03*
X43799992Y-38000000I-1800000J0D01*
G01*
D11*
%TO.C,J8*%
X122499993Y-42500000D02*
X111999993Y-42500000D01*
X111999993Y-33500000D02*
X111999993Y-36400000D01*
X122499993Y-39500000D02*
X122499993Y-42500000D01*
X122499993Y-33500000D02*
X111999993Y-33500000D01*
X122499993Y-33500000D02*
X122499993Y-36500000D01*
X111999993Y-39600000D02*
X111999993Y-42500000D01*
D12*
X120539992Y-36603000D02*
G75*
G03*
X120539992Y-39397000I-2539999J-1397000D01*
G01*
X119799993Y-38000000D02*
G75*
G03*
X119799993Y-38000000I-1800000J0D01*
G01*
%TO.C,J6*%
X149130000Y-110170000D02*
X149130000Y-117850000D01*
X149130000Y-108900000D02*
X149130000Y-107570000D01*
X149130000Y-107570000D02*
X147800000Y-107570000D01*
X146470000Y-110170000D02*
X146470000Y-117850000D01*
X149130000Y-117850000D02*
X146470000Y-117850000D01*
X149130000Y-110170000D02*
X146470000Y-110170000D01*
%TO.C,RV8*%
X118500000Y-71000000D02*
X117500000Y-71000000D01*
X116340000Y-77620000D02*
X117170000Y-77620000D01*
X122870000Y-69090000D02*
X122870000Y-66030000D01*
X118000000Y-70500000D02*
X118000000Y-71500000D01*
X113130000Y-77620000D02*
X113130000Y-72900000D01*
X118790000Y-77620000D02*
X119320000Y-77620000D01*
X113130000Y-69090000D02*
X113130000Y-66030000D01*
X121690000Y-77620000D02*
X122870000Y-77620000D01*
X113130000Y-66030000D02*
X122870000Y-66030000D01*
X113130000Y-77620000D02*
X114620000Y-77620000D01*
X122880000Y-77620000D02*
X122880000Y-72900000D01*
%TO.C,RV5*%
X84870000Y-49090000D02*
X84870000Y-46030000D01*
X84880000Y-57620000D02*
X84880000Y-52900000D01*
X78340000Y-57620000D02*
X79170000Y-57620000D01*
X80000000Y-50500000D02*
X80000000Y-51500000D01*
X75130000Y-46030000D02*
X84870000Y-46030000D01*
X75130000Y-57620000D02*
X75130000Y-52900000D01*
X75130000Y-57620000D02*
X76620000Y-57620000D01*
X83690000Y-57620000D02*
X84870000Y-57620000D01*
X80790000Y-57620000D02*
X81320000Y-57620000D01*
X80500000Y-51000000D02*
X79500000Y-51000000D01*
X75130000Y-49090000D02*
X75130000Y-46030000D01*
%TO.C,RV12*%
X75130000Y-91030000D02*
X84870000Y-91030000D01*
X80500000Y-96000000D02*
X79500000Y-96000000D01*
X84870000Y-94090000D02*
X84870000Y-91030000D01*
X75130000Y-102620000D02*
X76620000Y-102620000D01*
X80000000Y-95500000D02*
X80000000Y-96500000D01*
X83690000Y-102620000D02*
X84870000Y-102620000D01*
X75130000Y-102620000D02*
X75130000Y-97900000D01*
X78340000Y-102620000D02*
X79170000Y-102620000D01*
X80790000Y-102620000D02*
X81320000Y-102620000D01*
X75130000Y-94090000D02*
X75130000Y-91030000D01*
X84880000Y-102620000D02*
X84880000Y-97900000D01*
%TO.C,RV7*%
X37130000Y-57620000D02*
X38620000Y-57620000D01*
X42500000Y-51000000D02*
X41500000Y-51000000D01*
X46870000Y-49090000D02*
X46870000Y-46030000D01*
X37130000Y-57620000D02*
X37130000Y-52900000D01*
X42790000Y-57620000D02*
X43320000Y-57620000D01*
X46880000Y-57620000D02*
X46880000Y-52900000D01*
X37130000Y-46030000D02*
X46870000Y-46030000D01*
X37130000Y-49090000D02*
X37130000Y-46030000D01*
X42000000Y-50500000D02*
X42000000Y-51500000D01*
X45690000Y-57620000D02*
X46870000Y-57620000D01*
X40340000Y-57620000D02*
X41170000Y-57620000D01*
%TO.C,RV6*%
X56130000Y-57620000D02*
X56130000Y-52900000D01*
X64690000Y-57620000D02*
X65870000Y-57620000D01*
X65880000Y-57620000D02*
X65880000Y-52900000D01*
X65870000Y-49090000D02*
X65870000Y-46030000D01*
X59340000Y-57620000D02*
X60170000Y-57620000D01*
X61500000Y-51000000D02*
X60500000Y-51000000D01*
X61790000Y-57620000D02*
X62320000Y-57620000D01*
X56130000Y-49090000D02*
X56130000Y-46030000D01*
X56130000Y-46030000D02*
X65870000Y-46030000D01*
X56130000Y-57620000D02*
X57620000Y-57620000D01*
X61000000Y-50500000D02*
X61000000Y-51500000D01*
D11*
%TO.C,J9*%
X86750005Y-33500000D02*
X86750005Y-36400000D01*
X97250005Y-39500000D02*
X97250005Y-42500000D01*
X97250005Y-33500000D02*
X97250005Y-36500000D01*
X97250005Y-33500000D02*
X86750005Y-33500000D01*
X97250005Y-42500000D02*
X86750005Y-42500000D01*
X86750005Y-39600000D02*
X86750005Y-42500000D01*
D12*
X95290004Y-36603000D02*
G75*
G03*
X95290004Y-39397000I-2539999J-1397000D01*
G01*
X94550005Y-38000000D02*
G75*
G03*
X94550005Y-38000000I-1800000J0D01*
G01*
%TD*%
M02*
