M48
; DRILL file {KiCad (6.0.6-0)} date Tuesday, 09 May 2023 at 21:30:31
; FORMAT={-:-/ absolute / metric / decimal}
; #@! TF.CreationDate,2023-05-09T21:30:31+01:00
; #@! TF.GenerationSoftware,Kicad,Pcbnew,(6.0.6-0)
; #@! TF.FileFunction,MixedPlating,1,2
FMAT,2
METRIC
; #@! TA.AperFunction,Plated,PTH,ViaDrill
T1C0.381
; #@! TA.AperFunction,Plated,PTH,ComponentDrill
T2C0.600
; #@! TA.AperFunction,Plated,PTH,ComponentDrill
T3C0.800
; #@! TA.AperFunction,Plated,PTH,ComponentDrill
T4C1.000
; #@! TA.AperFunction,Plated,PTH,ComponentDrill
T5C1.100
; #@! TA.AperFunction,Plated,PTH,ComponentDrill
T6C1.200
; #@! TA.AperFunction,Plated,PTH,ComponentDrill
T7C1.800
; #@! TA.AperFunction,Plated,PTH,ComponentDrill
T8C3.200
; #@! TA.AperFunction,NonPlated,NPTH,ComponentDrill
T9C0.500
%
G90
G05
T1
X84.5Y-88.7
X92.7Y-69.5
X98.2Y-64.3
X108.204Y-62.738
X170.0Y-80.2
X173.8Y-64.0
X177.2Y-53.9
X177.7Y-64.8
X181.356Y-45.212
X185.928Y-59.944
X188.6Y-57.8
X188.6Y-80.2
X189.738Y-64.516
X193.1Y-71.9
X196.0Y-54.0
X200.1Y-72.3
X207.5Y-78.9
T2
X148.59Y-100.076
X148.59Y-102.076
T3
X39.037Y-68.493
X39.037Y-70.993
X39.037Y-73.493
X45.037Y-68.493
X45.037Y-70.993
X45.037Y-73.493
X46.228Y-122.682
X46.228Y-125.73
X46.228Y-128.778
X56.388Y-122.682
X56.388Y-125.73
X56.388Y-128.778
X58.928Y-112.522
X58.928Y-128.778
X60.706Y-99.568
X60.706Y-109.728
X63.754Y-99.568
X63.754Y-109.728
X63.834Y-116.078
X63.834Y-121.158
X63.834Y-125.222
X68.326Y-99.568
X68.326Y-109.728
X68.834Y-116.078
X68.834Y-121.158
X68.834Y-125.222
X68.834Y-132.08
X69.088Y-112.522
X69.088Y-128.778
X72.146Y-113.533
X72.146Y-116.073
X72.146Y-118.613
X72.146Y-121.153
X72.146Y-123.693
X72.146Y-126.233
X72.146Y-128.773
X73.406Y-106.934
X73.406Y-109.982
X78.994Y-132.08
X79.766Y-113.533
X79.766Y-116.073
X79.766Y-118.613
X79.766Y-121.153
X79.766Y-123.693
X79.766Y-126.233
X79.766Y-128.773
X82.804Y-113.03
X82.804Y-128.778
X82.804Y-131.826
X83.058Y-116.586
X83.058Y-121.158
X83.058Y-125.222
X83.566Y-106.934
X83.566Y-109.982
X88.058Y-116.586
X88.058Y-121.158
X88.058Y-125.222
X92.964Y-96.266
X92.964Y-106.426
X92.964Y-113.03
X92.964Y-128.778
X92.964Y-131.826
X96.012Y-96.266
X96.012Y-106.426
X96.774Y-129.032
X99.06Y-96.266
X99.06Y-106.426
X102.87Y-112.776
X102.87Y-122.936
X106.426Y-117.936
X106.426Y-122.936
X106.934Y-129.032
X111.252Y-109.22
X111.252Y-116.84
X111.84Y-82.0
X113.792Y-109.22
X113.792Y-116.84
X122.0Y-82.0
X137.668Y-78.994
X137.668Y-86.614
X138.176Y-65.786
X138.176Y-75.946
X141.224Y-65.786
X141.224Y-75.946
X141.605Y-78.867
X141.605Y-86.487
X144.145Y-78.867
X144.145Y-86.487
X146.685Y-78.867
X146.685Y-86.487
X148.082Y-70.692
X148.082Y-75.692
X148.844Y-89.662
X148.844Y-94.662
X149.225Y-78.867
X149.225Y-86.487
X151.638Y-68.326
X151.638Y-75.946
X151.765Y-78.867
X151.765Y-86.487
X151.892Y-37.653
X151.892Y-39.653
X151.892Y-43.781
X151.892Y-45.781
X154.305Y-78.867
X154.305Y-86.487
X155.448Y-89.408
X155.448Y-99.568
X155.956Y-51.054
X155.956Y-61.214
X156.845Y-78.867
X156.845Y-86.487
X157.48Y-114.046
X157.486Y-117.102
X157.486Y-120.15
X157.486Y-123.198
X158.496Y-69.313
X158.496Y-71.313
X158.496Y-89.408
X158.496Y-99.568
X159.991Y-51.308
X161.544Y-89.408
X161.544Y-99.568
X161.991Y-51.308
X162.306Y-127.254
X162.56Y-35.052
X162.56Y-45.212
X164.592Y-56.642
X164.672Y-61.468
X164.846Y-86.868
X167.132Y-36.317
X167.132Y-38.857
X167.132Y-41.397
X167.132Y-43.937
X167.132Y-46.477
X167.132Y-49.017
X167.132Y-51.557
X167.132Y-56.642
X167.306Y-127.254
X167.64Y-114.046
X167.646Y-117.102
X167.646Y-120.15
X167.646Y-123.198
X169.672Y-56.642
X169.672Y-61.468
X171.196Y-104.14
X171.196Y-106.68
X171.196Y-109.22
X171.196Y-114.554
X171.196Y-117.094
X171.196Y-119.634
X171.196Y-122.174
X171.196Y-124.714
X171.196Y-127.254
X171.196Y-129.794
X171.196Y-132.334
X171.99Y-71.628
X173.99Y-71.628
X174.752Y-36.317
X174.752Y-38.857
X174.752Y-41.397
X174.752Y-43.937
X174.752Y-46.477
X174.752Y-49.017
X174.752Y-51.557
X175.006Y-86.868
X175.514Y-60.706
X175.768Y-108.966
X177.514Y-60.706
X177.546Y-37.846
X177.546Y-67.564
X177.546Y-77.724
X177.8Y-34.29
X177.8Y-41.402
X177.8Y-49.022
X178.308Y-108.966
X178.816Y-114.554
X178.816Y-117.094
X178.816Y-119.634
X178.816Y-122.174
X178.816Y-124.714
X178.816Y-127.254
X178.816Y-129.794
X178.816Y-132.334
X179.324Y-92.964
X179.324Y-103.124
X180.594Y-53.34
X180.594Y-56.388
X180.848Y-108.966
X181.87Y-118.118
X181.87Y-121.166
X181.87Y-124.214
X182.372Y-92.964
X182.372Y-103.124
X182.753Y-127.254
X182.753Y-132.254
X182.8Y-34.29
X182.8Y-41.402
X182.8Y-49.022
X185.674Y-96.118
X185.674Y-101.092
X187.198Y-104.648
X187.198Y-114.808
X187.706Y-37.846
X188.021Y-45.212
X188.214Y-59.944
X188.214Y-67.564
X188.214Y-96.118
X188.214Y-101.092
X190.021Y-45.212
X190.5Y-104.648
X190.5Y-114.808
X190.754Y-53.34
X190.754Y-56.388
X190.754Y-59.944
X190.754Y-67.564
X190.754Y-96.118
X190.754Y-101.092
X192.03Y-118.118
X192.03Y-121.166
X192.03Y-124.214
X194.564Y-36.576
X194.574Y-40.376
X194.574Y-47.996
X195.297Y-131.238
X195.58Y-64.008
X195.58Y-66.008
X197.114Y-40.376
X197.114Y-47.996
X197.297Y-131.238
X199.136Y-97.71
X199.136Y-107.87
X199.5Y-69.5
X199.5Y-79.66
X199.564Y-36.576
X199.654Y-40.376
X199.654Y-47.996
X200.66Y-84.836
X200.66Y-94.996
X202.184Y-97.71
X202.184Y-107.87
X202.194Y-40.376
X202.194Y-47.996
X202.692Y-121.078
X202.692Y-131.238
X202.819Y-110.664
X202.819Y-118.284
X203.708Y-61.468
X203.708Y-71.628
X203.708Y-74.422
X203.708Y-82.042
X203.708Y-84.836
X203.708Y-94.996
X205.232Y-97.71
X205.232Y-107.87
X205.359Y-110.664
X205.359Y-118.284
X205.867Y-121.078
X205.867Y-131.238
X206.248Y-74.422
X206.248Y-82.042
X206.756Y-43.006
X206.756Y-48.006
X206.756Y-61.468
X206.756Y-71.628
X206.756Y-84.836
X206.756Y-94.996
X207.899Y-110.664
X207.899Y-118.284
X208.28Y-97.71
X208.28Y-107.87
X208.788Y-74.422
X208.788Y-82.042
X208.915Y-121.078
X208.915Y-131.238
X209.804Y-61.468
X209.804Y-71.628
X209.804Y-84.836
X209.804Y-94.996
X210.439Y-110.664
X210.439Y-118.284
X211.328Y-74.422
X211.328Y-82.042
X211.328Y-97.71
X211.328Y-107.87
X211.582Y-33.274
X211.836Y-46.228
X211.963Y-121.078
X211.963Y-131.238
X212.852Y-61.468
X212.852Y-71.628
X212.852Y-84.836
X212.852Y-94.996
X212.979Y-110.664
X212.979Y-118.284
X213.868Y-74.422
X213.868Y-82.042
X214.376Y-97.71
X214.376Y-107.87
X215.519Y-110.664
X215.519Y-118.284
X215.519Y-121.332
X215.519Y-126.332
X215.9Y-84.836
X215.9Y-94.996
X216.154Y-130.73
X216.408Y-66.374
X216.408Y-71.374
X216.408Y-74.422
X216.408Y-82.042
X217.932Y-102.616
X217.932Y-107.616
X218.059Y-110.664
X218.059Y-118.284
X218.948Y-74.422
X218.948Y-82.042
X219.456Y-85.09
X219.456Y-90.09
X219.456Y-92.71
X219.456Y-97.71
X219.583Y-121.332
X219.583Y-126.332
X220.599Y-110.664
X220.599Y-118.284
X221.234Y-66.374
X221.234Y-71.374
X221.488Y-74.422
X221.488Y-82.042
X221.742Y-33.274
X221.742Y-36.83
X221.742Y-39.37
X221.742Y-41.91
X221.996Y-46.228
X221.996Y-102.616
X221.996Y-107.616
X224.028Y-110.283
X224.028Y-120.443
X225.552Y-68.326
X225.552Y-78.486
X225.552Y-80.772
X225.552Y-90.932
X226.314Y-130.73
X227.076Y-110.283
X227.076Y-120.443
X227.33Y-40.132
X227.33Y-45.132
T4
X39.5Y-58.5
X42.0Y-58.5
X44.5Y-58.5
X45.8Y-108.9
X45.8Y-111.44
X45.8Y-113.98
X45.8Y-116.52
X47.5Y-103.5
X50.0Y-103.5
X52.5Y-103.5
X58.5Y-58.5
X61.0Y-58.5
X63.5Y-58.5
X64.8Y-78.5
X67.3Y-78.5
X69.8Y-78.5
X77.5Y-58.5
X77.5Y-103.5
X79.735Y-63.6
X79.735Y-66.14
X79.735Y-68.68
X79.735Y-71.22
X79.735Y-73.76
X79.735Y-76.3
X79.735Y-78.84
X79.735Y-81.38
X79.735Y-83.92
X79.735Y-86.46
X80.0Y-58.5
X80.0Y-103.5
X82.275Y-63.6
X82.275Y-66.14
X82.275Y-68.68
X82.275Y-71.22
X82.275Y-73.76
X82.275Y-76.3
X82.275Y-78.84
X82.275Y-81.38
X82.275Y-83.92
X82.275Y-86.46
X82.5Y-58.5
X82.5Y-103.5
X90.25Y-78.5
X92.75Y-78.5
X95.25Y-78.5
X96.5Y-58.5
X99.0Y-58.5
X101.5Y-58.5
X103.378Y-132.588
X105.918Y-132.588
X107.5Y-103.5
X110.0Y-103.5
X112.5Y-103.5
X115.5Y-58.5
X115.5Y-78.5
X118.0Y-58.5
X118.0Y-78.5
X120.5Y-58.5
X120.5Y-78.5
X137.668Y-36.637
X137.668Y-39.177
X137.668Y-41.717
X137.668Y-44.257
X137.668Y-46.797
X140.208Y-36.637
X140.208Y-39.177
X140.208Y-41.717
X140.208Y-44.257
X140.208Y-46.797
X146.558Y-64.008
X147.8Y-108.9
X147.8Y-111.44
X147.8Y-113.98
X147.8Y-116.52
X152.908Y-114.808
X155.956Y-103.124
X158.496Y-103.124
X161.036Y-103.124
X172.466Y-77.216
X172.72Y-82.296
X175.26Y-92.964
X181.735Y-63.6
X181.735Y-66.14
X181.735Y-68.68
X181.735Y-71.22
X181.735Y-73.76
X181.735Y-76.3
X181.735Y-78.84
X181.735Y-81.38
X181.735Y-83.92
X181.735Y-86.46
X184.275Y-63.6
X184.275Y-66.14
X184.275Y-68.68
X184.275Y-71.22
X184.275Y-73.76
X184.275Y-76.3
X184.275Y-78.84
X184.275Y-81.38
X184.275Y-83.92
X184.275Y-86.46
X186.944Y-90.424
X188.468Y-83.82
X188.722Y-70.866
X188.722Y-74.676
X189.992Y-131.572
X195.8Y-56.4
X195.834Y-74.422
X195.834Y-76.962
X195.834Y-79.502
X204.47Y-36.322
T5
X93.85Y-123.0
X96.35Y-120.5
X96.35Y-125.5
X145.796Y-33.589
X146.304Y-49.022
X146.304Y-59.182
X155.956Y-33.589
X210.86Y-39.116
X213.36Y-36.616
X213.36Y-41.616
T7
X45.2Y-96.0
X54.8Y-96.0
X62.5Y-71.0
X72.1Y-71.0
X75.2Y-96.0
X84.8Y-96.0
X87.95Y-71.0
X97.55Y-71.0
X105.2Y-96.0
X113.2Y-71.0
X114.8Y-96.0
X122.8Y-71.0
T8
X33.2Y-131.8
X126.8Y-33.2
X135.2Y-131.8
X228.8Y-33.2
T9
X130.25Y-44.25
X130.25Y-45.0
X130.25Y-45.75
X130.25Y-119.25
X130.25Y-120.0
X130.25Y-120.75
X130.25Y-59.25
X130.25Y-60.0
X130.25Y-60.75
X130.25Y-74.25
X130.25Y-75.0
X130.25Y-75.75
X130.25Y-89.25
X130.25Y-90.0
X130.25Y-90.75
X130.25Y-104.25
X130.25Y-105.0
X130.25Y-105.75
X131.75Y-44.25
X131.75Y-45.0
X131.75Y-45.75
X131.75Y-119.25
X131.75Y-120.0
X131.75Y-120.75
X131.75Y-59.25
X131.75Y-60.0
X131.75Y-60.75
X131.75Y-74.25
X131.75Y-75.0
X131.75Y-75.75
X131.75Y-89.25
X131.75Y-90.0
X131.75Y-90.75
X131.75Y-104.25
X131.75Y-105.0
X131.75Y-105.75
T2
G00X35.52Y-38.5
M15
G01X35.52Y-37.5
M16
G05
G00X38.62Y-38.5
M15
G01X38.62Y-37.5
M16
G05
G00X46.92Y-38.5
M15
G01X46.92Y-37.5
M16
G05
G00X62.33Y-37.5
M15
G01X62.33Y-38.5
M16
G05
G00X70.63Y-37.5
M15
G01X70.63Y-38.5
M16
G05
G00X73.73Y-37.5
M15
G01X73.73Y-38.5
M16
G05
G00X87.83Y-37.5
M15
G01X87.83Y-38.5
M16
G05
G00X96.13Y-37.5
M15
G01X96.13Y-38.5
M16
G05
G00X99.23Y-37.5
M15
G01X99.23Y-38.5
M16
G05
G00X113.08Y-37.5
M15
G01X113.08Y-38.5
M16
G05
G00X121.38Y-37.5
M15
G01X121.38Y-38.5
M16
G05
G00X124.48Y-37.5
M15
G01X124.48Y-38.5
M16
G05
T6
G00X37.2Y-50.5
M15
G01X37.2Y-51.5
M16
G05
G00X46.8Y-50.5
M15
G01X46.8Y-51.5
M16
G05
G00X56.2Y-50.5
M15
G01X56.2Y-51.5
M16
G05
G00X65.8Y-50.5
M15
G01X65.8Y-51.5
M16
G05
G00X75.2Y-50.5
M15
G01X75.2Y-51.5
M16
G05
G00X84.8Y-50.5
M15
G01X84.8Y-51.5
M16
G05
G00X94.2Y-50.5
M15
G01X94.2Y-51.5
M16
G05
G00X103.8Y-50.5
M15
G01X103.8Y-51.5
M16
G05
G00X113.2Y-50.5
M15
G01X113.2Y-51.5
M16
G05
G00X122.8Y-50.5
M15
G01X122.8Y-51.5
M16
G05
T0
M30
