%TF.GenerationSoftware,KiCad,Pcbnew,(6.0.6-0)*%
%TF.CreationDate,2022-06-29T09:24:31+01:00*%
%TF.ProjectId,magnum-drum-synth,6d61676e-756d-42d6-9472-756d2d73796e,r03*%
%TF.SameCoordinates,Original*%
%TF.FileFunction,Legend,Bot*%
%TF.FilePolarity,Positive*%
%FSLAX46Y46*%
G04 Gerber Fmt 4.6, Leading zero omitted, Abs format (unit mm)*
G04 Created by KiCad (PCBNEW (6.0.6-0)) date 2022-06-29 09:24:31*
%MOMM*%
%LPD*%
G01*
G04 APERTURE LIST*
%ADD10C,0.150000*%
%ADD11C,0.200000*%
%ADD12C,0.120000*%
G04 APERTURE END LIST*
D10*
X105751380Y-47196952D02*
X105751380Y-47387428D01*
X105799000Y-47482666D01*
X105894238Y-47577904D01*
X106084714Y-47625523D01*
X106418047Y-47625523D01*
X106608523Y-47577904D01*
X106703761Y-47482666D01*
X106751380Y-47387428D01*
X106751380Y-47196952D01*
X106703761Y-47101714D01*
X106608523Y-47006476D01*
X106418047Y-46958857D01*
X106084714Y-46958857D01*
X105894238Y-47006476D01*
X105799000Y-47101714D01*
X105751380Y-47196952D01*
X106703761Y-48006476D02*
X106751380Y-48149333D01*
X106751380Y-48387428D01*
X106703761Y-48482666D01*
X106656142Y-48530285D01*
X106560904Y-48577904D01*
X106465666Y-48577904D01*
X106370428Y-48530285D01*
X106322809Y-48482666D01*
X106275190Y-48387428D01*
X106227571Y-48196952D01*
X106179952Y-48101714D01*
X106132333Y-48054095D01*
X106037095Y-48006476D01*
X105941857Y-48006476D01*
X105846619Y-48054095D01*
X105799000Y-48101714D01*
X105751380Y-48196952D01*
X105751380Y-48435047D01*
X105799000Y-48577904D01*
X106656142Y-49577904D02*
X106703761Y-49530285D01*
X106751380Y-49387428D01*
X106751380Y-49292190D01*
X106703761Y-49149333D01*
X106608523Y-49054095D01*
X106513285Y-49006476D01*
X106322809Y-48958857D01*
X106179952Y-48958857D01*
X105989476Y-49006476D01*
X105894238Y-49054095D01*
X105799000Y-49149333D01*
X105751380Y-49292190D01*
X105751380Y-49387428D01*
X105799000Y-49530285D01*
X105846619Y-49577904D01*
X105846619Y-49958857D02*
X105799000Y-50006476D01*
X105751380Y-50101714D01*
X105751380Y-50339809D01*
X105799000Y-50435047D01*
X105846619Y-50482666D01*
X105941857Y-50530285D01*
X106037095Y-50530285D01*
X106179952Y-50482666D01*
X106751380Y-49911238D01*
X106751380Y-50530285D01*
X105751380Y-51577904D02*
X106751380Y-51911238D01*
X105751380Y-52244571D01*
X106751380Y-52720761D02*
X106703761Y-52625523D01*
X106656142Y-52577904D01*
X106560904Y-52530285D01*
X106275190Y-52530285D01*
X106179952Y-52577904D01*
X106132333Y-52625523D01*
X106084714Y-52720761D01*
X106084714Y-52863619D01*
X106132333Y-52958857D01*
X106179952Y-53006476D01*
X106275190Y-53054095D01*
X106560904Y-53054095D01*
X106656142Y-53006476D01*
X106703761Y-52958857D01*
X106751380Y-52863619D01*
X106751380Y-52720761D01*
X106751380Y-53625523D02*
X106703761Y-53530285D01*
X106608523Y-53482666D01*
X105751380Y-53482666D01*
X106084714Y-54435047D02*
X106751380Y-54435047D01*
X106084714Y-54006476D02*
X106608523Y-54006476D01*
X106703761Y-54054095D01*
X106751380Y-54149333D01*
X106751380Y-54292190D01*
X106703761Y-54387428D01*
X106656142Y-54435047D01*
X106751380Y-54911238D02*
X106084714Y-54911238D01*
X106179952Y-54911238D02*
X106132333Y-54958857D01*
X106084714Y-55054095D01*
X106084714Y-55196952D01*
X106132333Y-55292190D01*
X106227571Y-55339809D01*
X106751380Y-55339809D01*
X106227571Y-55339809D02*
X106132333Y-55387428D01*
X106084714Y-55482666D01*
X106084714Y-55625523D01*
X106132333Y-55720761D01*
X106227571Y-55768380D01*
X106751380Y-55768380D01*
X106703761Y-56625523D02*
X106751380Y-56530285D01*
X106751380Y-56339809D01*
X106703761Y-56244571D01*
X106608523Y-56196952D01*
X106227571Y-56196952D01*
X106132333Y-56244571D01*
X106084714Y-56339809D01*
X106084714Y-56530285D01*
X106132333Y-56625523D01*
X106227571Y-56673142D01*
X106322809Y-56673142D01*
X106418047Y-56196952D01*
X92336714Y-131262380D02*
X92336714Y-130262380D01*
X91955761Y-130262380D01*
X91860523Y-130310000D01*
X91812904Y-130357619D01*
X91765285Y-130452857D01*
X91765285Y-130595714D01*
X91812904Y-130690952D01*
X91860523Y-130738571D01*
X91955761Y-130786190D01*
X92336714Y-130786190D01*
X91336714Y-131262380D02*
X91336714Y-130595714D01*
X91336714Y-130262380D02*
X91384333Y-130310000D01*
X91336714Y-130357619D01*
X91289095Y-130310000D01*
X91336714Y-130262380D01*
X91336714Y-130357619D01*
X90479571Y-131214761D02*
X90574809Y-131262380D01*
X90765285Y-131262380D01*
X90860523Y-131214761D01*
X90908142Y-131119523D01*
X90908142Y-130738571D01*
X90860523Y-130643333D01*
X90765285Y-130595714D01*
X90574809Y-130595714D01*
X90479571Y-130643333D01*
X90431952Y-130738571D01*
X90431952Y-130833809D01*
X90908142Y-130929047D01*
X90098619Y-130595714D02*
X89574809Y-130595714D01*
X90098619Y-131262380D01*
X89574809Y-131262380D01*
X89051000Y-131262380D02*
X89146238Y-131214761D01*
X89193857Y-131167142D01*
X89241476Y-131071904D01*
X89241476Y-130786190D01*
X89193857Y-130690952D01*
X89146238Y-130643333D01*
X89051000Y-130595714D01*
X88908142Y-130595714D01*
X88812904Y-130643333D01*
X88765285Y-130690952D01*
X88717666Y-130786190D01*
X88717666Y-131071904D01*
X88765285Y-131167142D01*
X88812904Y-131214761D01*
X88908142Y-131262380D01*
X89051000Y-131262380D01*
X72087761Y-80446571D02*
X72421095Y-80446571D01*
X72421095Y-80970380D02*
X72421095Y-79970380D01*
X71944904Y-79970380D01*
X71563952Y-80970380D02*
X71563952Y-80303714D01*
X71563952Y-79970380D02*
X71611571Y-80018000D01*
X71563952Y-80065619D01*
X71516333Y-80018000D01*
X71563952Y-79970380D01*
X71563952Y-80065619D01*
X70944904Y-80970380D02*
X71040142Y-80922761D01*
X71087761Y-80827523D01*
X71087761Y-79970380D01*
X70706809Y-80303714D02*
X70325857Y-80303714D01*
X70563952Y-79970380D02*
X70563952Y-80827523D01*
X70516333Y-80922761D01*
X70421095Y-80970380D01*
X70325857Y-80970380D01*
X69611571Y-80922761D02*
X69706809Y-80970380D01*
X69897285Y-80970380D01*
X69992523Y-80922761D01*
X70040142Y-80827523D01*
X70040142Y-80446571D01*
X69992523Y-80351333D01*
X69897285Y-80303714D01*
X69706809Y-80303714D01*
X69611571Y-80351333D01*
X69563952Y-80446571D01*
X69563952Y-80541809D01*
X70040142Y-80637047D01*
X69135380Y-80970380D02*
X69135380Y-80303714D01*
X69135380Y-80494190D02*
X69087761Y-80398952D01*
X69040142Y-80351333D01*
X68944904Y-80303714D01*
X68849666Y-80303714D01*
X67754428Y-80446571D02*
X67421095Y-80446571D01*
X67278238Y-80970380D02*
X67754428Y-80970380D01*
X67754428Y-79970380D01*
X67278238Y-79970380D01*
X66849666Y-80303714D02*
X66849666Y-80970380D01*
X66849666Y-80398952D02*
X66802047Y-80351333D01*
X66706809Y-80303714D01*
X66563952Y-80303714D01*
X66468714Y-80351333D01*
X66421095Y-80446571D01*
X66421095Y-80970380D01*
X66040142Y-80303714D02*
X65802047Y-80970380D01*
X65563952Y-80303714D01*
X64421095Y-80970380D02*
X64421095Y-79970380D01*
X64087761Y-80684666D01*
X63754428Y-79970380D01*
X63754428Y-80970380D01*
X63135380Y-80970380D02*
X63230619Y-80922761D01*
X63278238Y-80875142D01*
X63325857Y-80779904D01*
X63325857Y-80494190D01*
X63278238Y-80398952D01*
X63230619Y-80351333D01*
X63135380Y-80303714D01*
X62992523Y-80303714D01*
X62897285Y-80351333D01*
X62849666Y-80398952D01*
X62802047Y-80494190D01*
X62802047Y-80779904D01*
X62849666Y-80875142D01*
X62897285Y-80922761D01*
X62992523Y-80970380D01*
X63135380Y-80970380D01*
X61944904Y-80970380D02*
X61944904Y-79970380D01*
X61944904Y-80922761D02*
X62040142Y-80970380D01*
X62230619Y-80970380D01*
X62325857Y-80922761D01*
X62373476Y-80875142D01*
X62421095Y-80779904D01*
X62421095Y-80494190D01*
X62373476Y-80398952D01*
X62325857Y-80351333D01*
X62230619Y-80303714D01*
X62040142Y-80303714D01*
X61944904Y-80351333D01*
X113202380Y-84883761D02*
X112059523Y-84883761D01*
X112630952Y-86883761D02*
X112630952Y-84883761D01*
X111392857Y-86883761D02*
X111392857Y-84883761D01*
X110535714Y-86883761D02*
X110535714Y-85836142D01*
X110630952Y-85645666D01*
X110821428Y-85550428D01*
X111107142Y-85550428D01*
X111297619Y-85645666D01*
X111392857Y-85740904D01*
X109583333Y-86883761D02*
X109583333Y-85550428D01*
X109583333Y-84883761D02*
X109678571Y-84979000D01*
X109583333Y-85074238D01*
X109488095Y-84979000D01*
X109583333Y-84883761D01*
X109583333Y-85074238D01*
X108726190Y-86788523D02*
X108535714Y-86883761D01*
X108154761Y-86883761D01*
X107964285Y-86788523D01*
X107869047Y-86598047D01*
X107869047Y-86502809D01*
X107964285Y-86312333D01*
X108154761Y-86217095D01*
X108440476Y-86217095D01*
X108630952Y-86121857D01*
X108726190Y-85931380D01*
X108726190Y-85836142D01*
X108630952Y-85645666D01*
X108440476Y-85550428D01*
X108154761Y-85550428D01*
X107964285Y-85645666D01*
X105583333Y-86788523D02*
X105392857Y-86883761D01*
X105011904Y-86883761D01*
X104821428Y-86788523D01*
X104726190Y-86598047D01*
X104726190Y-86502809D01*
X104821428Y-86312333D01*
X105011904Y-86217095D01*
X105297619Y-86217095D01*
X105488095Y-86121857D01*
X105583333Y-85931380D01*
X105583333Y-85836142D01*
X105488095Y-85645666D01*
X105297619Y-85550428D01*
X105011904Y-85550428D01*
X104821428Y-85645666D01*
X103869047Y-86883761D02*
X103869047Y-85550428D01*
X103869047Y-84883761D02*
X103964285Y-84979000D01*
X103869047Y-85074238D01*
X103773809Y-84979000D01*
X103869047Y-84883761D01*
X103869047Y-85074238D01*
X102059523Y-86883761D02*
X102059523Y-84883761D01*
X102059523Y-86788523D02*
X102250000Y-86883761D01*
X102630952Y-86883761D01*
X102821428Y-86788523D01*
X102916666Y-86693285D01*
X103011904Y-86502809D01*
X103011904Y-85931380D01*
X102916666Y-85740904D01*
X102821428Y-85645666D01*
X102630952Y-85550428D01*
X102250000Y-85550428D01*
X102059523Y-85645666D01*
X100345238Y-86788523D02*
X100535714Y-86883761D01*
X100916666Y-86883761D01*
X101107142Y-86788523D01*
X101202380Y-86598047D01*
X101202380Y-85836142D01*
X101107142Y-85645666D01*
X100916666Y-85550428D01*
X100535714Y-85550428D01*
X100345238Y-85645666D01*
X100250000Y-85836142D01*
X100250000Y-86026619D01*
X101202380Y-86217095D01*
X98154761Y-85550428D02*
X97392857Y-85550428D01*
X97869047Y-84883761D02*
X97869047Y-86598047D01*
X97773809Y-86788523D01*
X97583333Y-86883761D01*
X97392857Y-86883761D01*
X96440476Y-86883761D02*
X96630952Y-86788523D01*
X96726190Y-86693285D01*
X96821428Y-86502809D01*
X96821428Y-85931380D01*
X96726190Y-85740904D01*
X96630952Y-85645666D01*
X96440476Y-85550428D01*
X96154761Y-85550428D01*
X95964285Y-85645666D01*
X95869047Y-85740904D01*
X95773809Y-85931380D01*
X95773809Y-86502809D01*
X95869047Y-86693285D01*
X95964285Y-86788523D01*
X96154761Y-86883761D01*
X96440476Y-86883761D01*
X95107142Y-85550428D02*
X94726190Y-86883761D01*
X94345238Y-85931380D01*
X93964285Y-86883761D01*
X93583333Y-85550428D01*
X91964285Y-86883761D02*
X91964285Y-85836142D01*
X92059523Y-85645666D01*
X92250000Y-85550428D01*
X92630952Y-85550428D01*
X92821428Y-85645666D01*
X91964285Y-86788523D02*
X92154761Y-86883761D01*
X92630952Y-86883761D01*
X92821428Y-86788523D01*
X92916666Y-86598047D01*
X92916666Y-86407571D01*
X92821428Y-86217095D01*
X92630952Y-86121857D01*
X92154761Y-86121857D01*
X91964285Y-86026619D01*
X91011904Y-86883761D02*
X91011904Y-85550428D01*
X91011904Y-85931380D02*
X90916666Y-85740904D01*
X90821428Y-85645666D01*
X90630952Y-85550428D01*
X90440476Y-85550428D01*
X88916666Y-86883761D02*
X88916666Y-84883761D01*
X88916666Y-86788523D02*
X89107142Y-86883761D01*
X89488095Y-86883761D01*
X89678571Y-86788523D01*
X89773809Y-86693285D01*
X89869047Y-86502809D01*
X89869047Y-85931380D01*
X89773809Y-85740904D01*
X89678571Y-85645666D01*
X89488095Y-85550428D01*
X89107142Y-85550428D01*
X88916666Y-85645666D01*
X88059523Y-86788523D02*
X87869047Y-86883761D01*
X87488095Y-86883761D01*
X87297619Y-86788523D01*
X87202380Y-86598047D01*
X87202380Y-86502809D01*
X87297619Y-86312333D01*
X87488095Y-86217095D01*
X87773809Y-86217095D01*
X87964285Y-86121857D01*
X88059523Y-85931380D01*
X88059523Y-85836142D01*
X87964285Y-85645666D01*
X87773809Y-85550428D01*
X87488095Y-85550428D01*
X87297619Y-85645666D01*
X84821428Y-85550428D02*
X84821428Y-87550428D01*
X84821428Y-85645666D02*
X84630952Y-85550428D01*
X84250000Y-85550428D01*
X84059523Y-85645666D01*
X83964285Y-85740904D01*
X83869047Y-85931380D01*
X83869047Y-86502809D01*
X83964285Y-86693285D01*
X84059523Y-86788523D01*
X84250000Y-86883761D01*
X84630952Y-86883761D01*
X84821428Y-86788523D01*
X82154761Y-86883761D02*
X82154761Y-85836142D01*
X82250000Y-85645666D01*
X82440476Y-85550428D01*
X82821428Y-85550428D01*
X83011904Y-85645666D01*
X82154761Y-86788523D02*
X82345238Y-86883761D01*
X82821428Y-86883761D01*
X83011904Y-86788523D01*
X83107142Y-86598047D01*
X83107142Y-86407571D01*
X83011904Y-86217095D01*
X82821428Y-86121857D01*
X82345238Y-86121857D01*
X82154761Y-86026619D01*
X81202380Y-85550428D02*
X81202380Y-86883761D01*
X81202380Y-85740904D02*
X81107142Y-85645666D01*
X80916666Y-85550428D01*
X80630952Y-85550428D01*
X80440476Y-85645666D01*
X80345238Y-85836142D01*
X80345238Y-86883761D01*
X78630952Y-86788523D02*
X78821428Y-86883761D01*
X79202380Y-86883761D01*
X79392857Y-86788523D01*
X79488095Y-86598047D01*
X79488095Y-85836142D01*
X79392857Y-85645666D01*
X79202380Y-85550428D01*
X78821428Y-85550428D01*
X78630952Y-85645666D01*
X78535714Y-85836142D01*
X78535714Y-86026619D01*
X79488095Y-86217095D01*
X77392857Y-86883761D02*
X77583333Y-86788523D01*
X77678571Y-86598047D01*
X77678571Y-84883761D01*
X72294095Y-43981666D02*
X71817904Y-43981666D01*
X72389333Y-44267380D02*
X72056000Y-43267380D01*
X71722666Y-44267380D01*
X71389333Y-44267380D02*
X71389333Y-43600714D01*
X71389333Y-43695952D02*
X71341714Y-43648333D01*
X71246476Y-43600714D01*
X71103619Y-43600714D01*
X71008380Y-43648333D01*
X70960761Y-43743571D01*
X70960761Y-44267380D01*
X70960761Y-43743571D02*
X70913142Y-43648333D01*
X70817904Y-43600714D01*
X70675047Y-43600714D01*
X70579809Y-43648333D01*
X70532190Y-43743571D01*
X70532190Y-44267380D01*
X70056000Y-43600714D02*
X70056000Y-44600714D01*
X70056000Y-43648333D02*
X69960761Y-43600714D01*
X69770285Y-43600714D01*
X69675047Y-43648333D01*
X69627428Y-43695952D01*
X69579809Y-43791190D01*
X69579809Y-44076904D01*
X69627428Y-44172142D01*
X69675047Y-44219761D01*
X69770285Y-44267380D01*
X69960761Y-44267380D01*
X70056000Y-44219761D01*
X68389333Y-44267380D02*
X68389333Y-43267380D01*
X68151238Y-43267380D01*
X68008380Y-43315000D01*
X67913142Y-43410238D01*
X67865523Y-43505476D01*
X67817904Y-43695952D01*
X67817904Y-43838809D01*
X67865523Y-44029285D01*
X67913142Y-44124523D01*
X68008380Y-44219761D01*
X68151238Y-44267380D01*
X68389333Y-44267380D01*
X67008380Y-44219761D02*
X67103619Y-44267380D01*
X67294095Y-44267380D01*
X67389333Y-44219761D01*
X67436952Y-44124523D01*
X67436952Y-43743571D01*
X67389333Y-43648333D01*
X67294095Y-43600714D01*
X67103619Y-43600714D01*
X67008380Y-43648333D01*
X66960761Y-43743571D01*
X66960761Y-43838809D01*
X67436952Y-43934047D01*
X66103619Y-44219761D02*
X66198857Y-44267380D01*
X66389333Y-44267380D01*
X66484571Y-44219761D01*
X66532190Y-44172142D01*
X66579809Y-44076904D01*
X66579809Y-43791190D01*
X66532190Y-43695952D01*
X66484571Y-43648333D01*
X66389333Y-43600714D01*
X66198857Y-43600714D01*
X66103619Y-43648333D01*
X65246476Y-44267380D02*
X65246476Y-43743571D01*
X65294095Y-43648333D01*
X65389333Y-43600714D01*
X65579809Y-43600714D01*
X65675047Y-43648333D01*
X65246476Y-44219761D02*
X65341714Y-44267380D01*
X65579809Y-44267380D01*
X65675047Y-44219761D01*
X65722666Y-44124523D01*
X65722666Y-44029285D01*
X65675047Y-43934047D01*
X65579809Y-43886428D01*
X65341714Y-43886428D01*
X65246476Y-43838809D01*
X64865523Y-43600714D02*
X64627428Y-44267380D01*
X64389333Y-43600714D02*
X64627428Y-44267380D01*
X64722666Y-44505476D01*
X64770285Y-44553095D01*
X64865523Y-44600714D01*
X62675047Y-44172142D02*
X62722666Y-44219761D01*
X62865523Y-44267380D01*
X62960761Y-44267380D01*
X63103619Y-44219761D01*
X63198857Y-44124523D01*
X63246476Y-44029285D01*
X63294095Y-43838809D01*
X63294095Y-43695952D01*
X63246476Y-43505476D01*
X63198857Y-43410238D01*
X63103619Y-43315000D01*
X62960761Y-43267380D01*
X62865523Y-43267380D01*
X62722666Y-43315000D01*
X62675047Y-43362619D01*
X62389333Y-43267380D02*
X62055999Y-44267380D01*
X61722666Y-43267380D01*
X42870333Y-43267380D02*
X42679857Y-43267380D01*
X42584619Y-43315000D01*
X42489380Y-43410238D01*
X42441761Y-43600714D01*
X42441761Y-43934047D01*
X42489380Y-44124523D01*
X42584619Y-44219761D01*
X42679857Y-44267380D01*
X42870333Y-44267380D01*
X42965571Y-44219761D01*
X43060809Y-44124523D01*
X43108428Y-43934047D01*
X43108428Y-43600714D01*
X43060809Y-43410238D01*
X42965571Y-43315000D01*
X42870333Y-43267380D01*
X41584619Y-43600714D02*
X41584619Y-44267380D01*
X42013190Y-43600714D02*
X42013190Y-44124523D01*
X41965571Y-44219761D01*
X41870333Y-44267380D01*
X41727476Y-44267380D01*
X41632238Y-44219761D01*
X41584619Y-44172142D01*
X41251285Y-43600714D02*
X40870333Y-43600714D01*
X41108428Y-43267380D02*
X41108428Y-44124523D01*
X41060809Y-44219761D01*
X40965571Y-44267380D01*
X40870333Y-44267380D01*
X110815380Y-68691523D02*
X110339190Y-68358190D01*
X110815380Y-68120095D02*
X109815380Y-68120095D01*
X109815380Y-68501047D01*
X109863000Y-68596285D01*
X109910619Y-68643904D01*
X110005857Y-68691523D01*
X110148714Y-68691523D01*
X110243952Y-68643904D01*
X110291571Y-68596285D01*
X110339190Y-68501047D01*
X110339190Y-68120095D01*
X110767761Y-69501047D02*
X110815380Y-69405809D01*
X110815380Y-69215333D01*
X110767761Y-69120095D01*
X110672523Y-69072476D01*
X110291571Y-69072476D01*
X110196333Y-69120095D01*
X110148714Y-69215333D01*
X110148714Y-69405809D01*
X110196333Y-69501047D01*
X110291571Y-69548666D01*
X110386809Y-69548666D01*
X110482047Y-69072476D01*
X110767761Y-69929619D02*
X110815380Y-70024857D01*
X110815380Y-70215333D01*
X110767761Y-70310571D01*
X110672523Y-70358190D01*
X110624904Y-70358190D01*
X110529666Y-70310571D01*
X110482047Y-70215333D01*
X110482047Y-70072476D01*
X110434428Y-69977238D01*
X110339190Y-69929619D01*
X110291571Y-69929619D01*
X110196333Y-69977238D01*
X110148714Y-70072476D01*
X110148714Y-70215333D01*
X110196333Y-70310571D01*
X110815380Y-70929619D02*
X110767761Y-70834380D01*
X110720142Y-70786761D01*
X110624904Y-70739142D01*
X110339190Y-70739142D01*
X110243952Y-70786761D01*
X110196333Y-70834380D01*
X110148714Y-70929619D01*
X110148714Y-71072476D01*
X110196333Y-71167714D01*
X110243952Y-71215333D01*
X110339190Y-71262952D01*
X110624904Y-71262952D01*
X110720142Y-71215333D01*
X110767761Y-71167714D01*
X110815380Y-71072476D01*
X110815380Y-70929619D01*
X110148714Y-71691523D02*
X110815380Y-71691523D01*
X110243952Y-71691523D02*
X110196333Y-71739142D01*
X110148714Y-71834380D01*
X110148714Y-71977238D01*
X110196333Y-72072476D01*
X110291571Y-72120095D01*
X110815380Y-72120095D01*
X110815380Y-73024857D02*
X110291571Y-73024857D01*
X110196333Y-72977238D01*
X110148714Y-72882000D01*
X110148714Y-72691523D01*
X110196333Y-72596285D01*
X110767761Y-73024857D02*
X110815380Y-72929619D01*
X110815380Y-72691523D01*
X110767761Y-72596285D01*
X110672523Y-72548666D01*
X110577285Y-72548666D01*
X110482047Y-72596285D01*
X110434428Y-72691523D01*
X110434428Y-72929619D01*
X110386809Y-73024857D01*
X110148714Y-73501047D02*
X110815380Y-73501047D01*
X110243952Y-73501047D02*
X110196333Y-73548666D01*
X110148714Y-73643904D01*
X110148714Y-73786761D01*
X110196333Y-73882000D01*
X110291571Y-73929619D01*
X110815380Y-73929619D01*
X110767761Y-74834380D02*
X110815380Y-74739142D01*
X110815380Y-74548666D01*
X110767761Y-74453428D01*
X110720142Y-74405809D01*
X110624904Y-74358190D01*
X110339190Y-74358190D01*
X110243952Y-74405809D01*
X110196333Y-74453428D01*
X110148714Y-74548666D01*
X110148714Y-74739142D01*
X110196333Y-74834380D01*
X110767761Y-75643904D02*
X110815380Y-75548666D01*
X110815380Y-75358190D01*
X110767761Y-75262952D01*
X110672523Y-75215333D01*
X110291571Y-75215333D01*
X110196333Y-75262952D01*
X110148714Y-75358190D01*
X110148714Y-75548666D01*
X110196333Y-75643904D01*
X110291571Y-75691523D01*
X110386809Y-75691523D01*
X110482047Y-75215333D01*
X120459190Y-43267380D02*
X119887761Y-43267380D01*
X120173476Y-44267380D02*
X120173476Y-43267380D01*
X119554428Y-44267380D02*
X119554428Y-43600714D01*
X119554428Y-43791190D02*
X119506809Y-43695952D01*
X119459190Y-43648333D01*
X119363952Y-43600714D01*
X119268714Y-43600714D01*
X118935380Y-44267380D02*
X118935380Y-43600714D01*
X118935380Y-43267380D02*
X118983000Y-43315000D01*
X118935380Y-43362619D01*
X118887761Y-43315000D01*
X118935380Y-43267380D01*
X118935380Y-43362619D01*
X118030619Y-43600714D02*
X118030619Y-44410238D01*
X118078238Y-44505476D01*
X118125857Y-44553095D01*
X118221095Y-44600714D01*
X118363952Y-44600714D01*
X118459190Y-44553095D01*
X118030619Y-44219761D02*
X118125857Y-44267380D01*
X118316333Y-44267380D01*
X118411571Y-44219761D01*
X118459190Y-44172142D01*
X118506809Y-44076904D01*
X118506809Y-43791190D01*
X118459190Y-43695952D01*
X118411571Y-43648333D01*
X118316333Y-43600714D01*
X118125857Y-43600714D01*
X118030619Y-43648333D01*
X117125857Y-43600714D02*
X117125857Y-44410238D01*
X117173476Y-44505476D01*
X117221095Y-44553095D01*
X117316333Y-44600714D01*
X117459190Y-44600714D01*
X117554428Y-44553095D01*
X117125857Y-44219761D02*
X117221095Y-44267380D01*
X117411571Y-44267380D01*
X117506809Y-44219761D01*
X117554428Y-44172142D01*
X117602047Y-44076904D01*
X117602047Y-43791190D01*
X117554428Y-43695952D01*
X117506809Y-43648333D01*
X117411571Y-43600714D01*
X117221095Y-43600714D01*
X117125857Y-43648333D01*
X116268714Y-44219761D02*
X116363952Y-44267380D01*
X116554428Y-44267380D01*
X116649666Y-44219761D01*
X116697285Y-44124523D01*
X116697285Y-43743571D01*
X116649666Y-43648333D01*
X116554428Y-43600714D01*
X116363952Y-43600714D01*
X116268714Y-43648333D01*
X116221095Y-43743571D01*
X116221095Y-43838809D01*
X116697285Y-43934047D01*
X115792523Y-44267380D02*
X115792523Y-43600714D01*
X115792523Y-43791190D02*
X115744904Y-43695952D01*
X115697285Y-43648333D01*
X115602047Y-43600714D01*
X115506809Y-43600714D01*
X97400476Y-43743571D02*
X97733809Y-43743571D01*
X97733809Y-44267380D02*
X97733809Y-43267380D01*
X97257619Y-43267380D01*
X96876666Y-44267380D02*
X96876666Y-43600714D01*
X96876666Y-43267380D02*
X96924285Y-43315000D01*
X96876666Y-43362619D01*
X96829047Y-43315000D01*
X96876666Y-43267380D01*
X96876666Y-43362619D01*
X96257619Y-44267380D02*
X96352857Y-44219761D01*
X96400476Y-44124523D01*
X96400476Y-43267380D01*
X96019523Y-43600714D02*
X95638571Y-43600714D01*
X95876666Y-43267380D02*
X95876666Y-44124523D01*
X95829047Y-44219761D01*
X95733809Y-44267380D01*
X95638571Y-44267380D01*
X94924285Y-44219761D02*
X95019523Y-44267380D01*
X95210000Y-44267380D01*
X95305238Y-44219761D01*
X95352857Y-44124523D01*
X95352857Y-43743571D01*
X95305238Y-43648333D01*
X95210000Y-43600714D01*
X95019523Y-43600714D01*
X94924285Y-43648333D01*
X94876666Y-43743571D01*
X94876666Y-43838809D01*
X95352857Y-43934047D01*
X94448095Y-44267380D02*
X94448095Y-43600714D01*
X94448095Y-43791190D02*
X94400476Y-43695952D01*
X94352857Y-43648333D01*
X94257619Y-43600714D01*
X94162380Y-43600714D01*
X92733809Y-43743571D02*
X93067142Y-43743571D01*
X93067142Y-44267380D02*
X93067142Y-43267380D01*
X92590952Y-43267380D01*
X92210000Y-44267380D02*
X92210000Y-43600714D01*
X92210000Y-43791190D02*
X92162380Y-43695952D01*
X92114761Y-43648333D01*
X92019523Y-43600714D01*
X91924285Y-43600714D01*
X91210000Y-44219761D02*
X91305238Y-44267380D01*
X91495714Y-44267380D01*
X91590952Y-44219761D01*
X91638571Y-44124523D01*
X91638571Y-43743571D01*
X91590952Y-43648333D01*
X91495714Y-43600714D01*
X91305238Y-43600714D01*
X91210000Y-43648333D01*
X91162380Y-43743571D01*
X91162380Y-43838809D01*
X91638571Y-43934047D01*
X90305238Y-43600714D02*
X90305238Y-44600714D01*
X90305238Y-44219761D02*
X90400476Y-44267380D01*
X90590952Y-44267380D01*
X90686190Y-44219761D01*
X90733809Y-44172142D01*
X90781428Y-44076904D01*
X90781428Y-43791190D01*
X90733809Y-43695952D01*
X90686190Y-43648333D01*
X90590952Y-43600714D01*
X90400476Y-43600714D01*
X90305238Y-43648333D01*
X88495714Y-44172142D02*
X88543333Y-44219761D01*
X88686190Y-44267380D01*
X88781428Y-44267380D01*
X88924285Y-44219761D01*
X89019523Y-44124523D01*
X89067142Y-44029285D01*
X89114761Y-43838809D01*
X89114761Y-43695952D01*
X89067142Y-43505476D01*
X89019523Y-43410238D01*
X88924285Y-43315000D01*
X88781428Y-43267380D01*
X88686190Y-43267380D01*
X88543333Y-43315000D01*
X88495714Y-43362619D01*
X88210000Y-43267380D02*
X87876666Y-44267380D01*
X87543333Y-43267380D01*
X115902952Y-89717571D02*
X116236285Y-89717571D01*
X116236285Y-90241380D02*
X116236285Y-89241380D01*
X115760095Y-89241380D01*
X115379142Y-90241380D02*
X115379142Y-89574714D01*
X115379142Y-89241380D02*
X115426761Y-89289000D01*
X115379142Y-89336619D01*
X115331523Y-89289000D01*
X115379142Y-89241380D01*
X115379142Y-89336619D01*
X114760095Y-90241380D02*
X114855333Y-90193761D01*
X114902952Y-90098523D01*
X114902952Y-89241380D01*
X114522000Y-89574714D02*
X114141047Y-89574714D01*
X114379142Y-89241380D02*
X114379142Y-90098523D01*
X114331523Y-90193761D01*
X114236285Y-90241380D01*
X114141047Y-90241380D01*
X113426761Y-90193761D02*
X113522000Y-90241380D01*
X113712476Y-90241380D01*
X113807714Y-90193761D01*
X113855333Y-90098523D01*
X113855333Y-89717571D01*
X113807714Y-89622333D01*
X113712476Y-89574714D01*
X113522000Y-89574714D01*
X113426761Y-89622333D01*
X113379142Y-89717571D01*
X113379142Y-89812809D01*
X113855333Y-89908047D01*
X112950571Y-90241380D02*
X112950571Y-89574714D01*
X112950571Y-89765190D02*
X112902952Y-89669952D01*
X112855333Y-89622333D01*
X112760095Y-89574714D01*
X112664857Y-89574714D01*
X111236285Y-89717571D02*
X111569619Y-89717571D01*
X111569619Y-90241380D02*
X111569619Y-89241380D01*
X111093428Y-89241380D01*
X110712476Y-90241380D02*
X110712476Y-89574714D01*
X110712476Y-89765190D02*
X110664857Y-89669952D01*
X110617238Y-89622333D01*
X110522000Y-89574714D01*
X110426761Y-89574714D01*
X109712476Y-90193761D02*
X109807714Y-90241380D01*
X109998190Y-90241380D01*
X110093428Y-90193761D01*
X110141047Y-90098523D01*
X110141047Y-89717571D01*
X110093428Y-89622333D01*
X109998190Y-89574714D01*
X109807714Y-89574714D01*
X109712476Y-89622333D01*
X109664857Y-89717571D01*
X109664857Y-89812809D01*
X110141047Y-89908047D01*
X108807714Y-89574714D02*
X108807714Y-90574714D01*
X108807714Y-90193761D02*
X108902952Y-90241380D01*
X109093428Y-90241380D01*
X109188666Y-90193761D01*
X109236285Y-90146142D01*
X109283904Y-90050904D01*
X109283904Y-89765190D01*
X109236285Y-89669952D01*
X109188666Y-89622333D01*
X109093428Y-89574714D01*
X108902952Y-89574714D01*
X108807714Y-89622333D01*
X67651380Y-49538380D02*
X67651380Y-49728857D01*
X67699000Y-49824095D01*
X67794238Y-49919333D01*
X67984714Y-49966952D01*
X68318047Y-49966952D01*
X68508523Y-49919333D01*
X68603761Y-49824095D01*
X68651380Y-49728857D01*
X68651380Y-49538380D01*
X68603761Y-49443142D01*
X68508523Y-49347904D01*
X68318047Y-49300285D01*
X67984714Y-49300285D01*
X67794238Y-49347904D01*
X67699000Y-49443142D01*
X67651380Y-49538380D01*
X68603761Y-50347904D02*
X68651380Y-50490761D01*
X68651380Y-50728857D01*
X68603761Y-50824095D01*
X68556142Y-50871714D01*
X68460904Y-50919333D01*
X68365666Y-50919333D01*
X68270428Y-50871714D01*
X68222809Y-50824095D01*
X68175190Y-50728857D01*
X68127571Y-50538380D01*
X68079952Y-50443142D01*
X68032333Y-50395523D01*
X67937095Y-50347904D01*
X67841857Y-50347904D01*
X67746619Y-50395523D01*
X67699000Y-50443142D01*
X67651380Y-50538380D01*
X67651380Y-50776476D01*
X67699000Y-50919333D01*
X68556142Y-51919333D02*
X68603761Y-51871714D01*
X68651380Y-51728857D01*
X68651380Y-51633619D01*
X68603761Y-51490761D01*
X68508523Y-51395523D01*
X68413285Y-51347904D01*
X68222809Y-51300285D01*
X68079952Y-51300285D01*
X67889476Y-51347904D01*
X67794238Y-51395523D01*
X67699000Y-51490761D01*
X67651380Y-51633619D01*
X67651380Y-51728857D01*
X67699000Y-51871714D01*
X67746619Y-51919333D01*
X68651380Y-52871714D02*
X68651380Y-52300285D01*
X68651380Y-52586000D02*
X67651380Y-52586000D01*
X67794238Y-52490761D01*
X67889476Y-52395523D01*
X67937095Y-52300285D01*
X68127571Y-54395523D02*
X68127571Y-54062190D01*
X68651380Y-54062190D02*
X67651380Y-54062190D01*
X67651380Y-54538380D01*
X68651380Y-54919333D02*
X67984714Y-54919333D01*
X68175190Y-54919333D02*
X68079952Y-54966952D01*
X68032333Y-55014571D01*
X67984714Y-55109809D01*
X67984714Y-55205047D01*
X68603761Y-55919333D02*
X68651380Y-55824095D01*
X68651380Y-55633619D01*
X68603761Y-55538380D01*
X68508523Y-55490761D01*
X68127571Y-55490761D01*
X68032333Y-55538380D01*
X67984714Y-55633619D01*
X67984714Y-55824095D01*
X68032333Y-55919333D01*
X68127571Y-55966952D01*
X68222809Y-55966952D01*
X68318047Y-55490761D01*
X67984714Y-56824095D02*
X68984714Y-56824095D01*
X68603761Y-56824095D02*
X68651380Y-56728857D01*
X68651380Y-56538380D01*
X68603761Y-56443142D01*
X68556142Y-56395523D01*
X68460904Y-56347904D01*
X68175190Y-56347904D01*
X68079952Y-56395523D01*
X68032333Y-56443142D01*
X67984714Y-56538380D01*
X67984714Y-56728857D01*
X68032333Y-56824095D01*
X124674380Y-47323952D02*
X124674380Y-47514428D01*
X124722000Y-47609666D01*
X124817238Y-47704904D01*
X125007714Y-47752523D01*
X125341047Y-47752523D01*
X125531523Y-47704904D01*
X125626761Y-47609666D01*
X125674380Y-47514428D01*
X125674380Y-47323952D01*
X125626761Y-47228714D01*
X125531523Y-47133476D01*
X125341047Y-47085857D01*
X125007714Y-47085857D01*
X124817238Y-47133476D01*
X124722000Y-47228714D01*
X124674380Y-47323952D01*
X125626761Y-48133476D02*
X125674380Y-48276333D01*
X125674380Y-48514428D01*
X125626761Y-48609666D01*
X125579142Y-48657285D01*
X125483904Y-48704904D01*
X125388666Y-48704904D01*
X125293428Y-48657285D01*
X125245809Y-48609666D01*
X125198190Y-48514428D01*
X125150571Y-48323952D01*
X125102952Y-48228714D01*
X125055333Y-48181095D01*
X124960095Y-48133476D01*
X124864857Y-48133476D01*
X124769619Y-48181095D01*
X124722000Y-48228714D01*
X124674380Y-48323952D01*
X124674380Y-48562047D01*
X124722000Y-48704904D01*
X125579142Y-49704904D02*
X125626761Y-49657285D01*
X125674380Y-49514428D01*
X125674380Y-49419190D01*
X125626761Y-49276333D01*
X125531523Y-49181095D01*
X125436285Y-49133476D01*
X125245809Y-49085857D01*
X125102952Y-49085857D01*
X124912476Y-49133476D01*
X124817238Y-49181095D01*
X124722000Y-49276333D01*
X124674380Y-49419190D01*
X124674380Y-49514428D01*
X124722000Y-49657285D01*
X124769619Y-49704904D01*
X125674380Y-50657285D02*
X125674380Y-50085857D01*
X125674380Y-50371571D02*
X124674380Y-50371571D01*
X124817238Y-50276333D01*
X124912476Y-50181095D01*
X124960095Y-50085857D01*
X124674380Y-51704904D02*
X125674380Y-52038238D01*
X124674380Y-52371571D01*
X125674380Y-52847761D02*
X125626761Y-52752523D01*
X125579142Y-52704904D01*
X125483904Y-52657285D01*
X125198190Y-52657285D01*
X125102952Y-52704904D01*
X125055333Y-52752523D01*
X125007714Y-52847761D01*
X125007714Y-52990619D01*
X125055333Y-53085857D01*
X125102952Y-53133476D01*
X125198190Y-53181095D01*
X125483904Y-53181095D01*
X125579142Y-53133476D01*
X125626761Y-53085857D01*
X125674380Y-52990619D01*
X125674380Y-52847761D01*
X125674380Y-53752523D02*
X125626761Y-53657285D01*
X125531523Y-53609666D01*
X124674380Y-53609666D01*
X125007714Y-54562047D02*
X125674380Y-54562047D01*
X125007714Y-54133476D02*
X125531523Y-54133476D01*
X125626761Y-54181095D01*
X125674380Y-54276333D01*
X125674380Y-54419190D01*
X125626761Y-54514428D01*
X125579142Y-54562047D01*
X125674380Y-55038238D02*
X125007714Y-55038238D01*
X125102952Y-55038238D02*
X125055333Y-55085857D01*
X125007714Y-55181095D01*
X125007714Y-55323952D01*
X125055333Y-55419190D01*
X125150571Y-55466809D01*
X125674380Y-55466809D01*
X125150571Y-55466809D02*
X125055333Y-55514428D01*
X125007714Y-55609666D01*
X125007714Y-55752523D01*
X125055333Y-55847761D01*
X125150571Y-55895380D01*
X125674380Y-55895380D01*
X125626761Y-56752523D02*
X125674380Y-56657285D01*
X125674380Y-56466809D01*
X125626761Y-56371571D01*
X125531523Y-56323952D01*
X125150571Y-56323952D01*
X125055333Y-56371571D01*
X125007714Y-56466809D01*
X125007714Y-56657285D01*
X125055333Y-56752523D01*
X125150571Y-56800142D01*
X125245809Y-56800142D01*
X125341047Y-56323952D01*
X89947047Y-89844571D02*
X90280380Y-89844571D01*
X90280380Y-90368380D02*
X90280380Y-89368380D01*
X89804190Y-89368380D01*
X89423238Y-90368380D02*
X89423238Y-89701714D01*
X89423238Y-89368380D02*
X89470857Y-89416000D01*
X89423238Y-89463619D01*
X89375619Y-89416000D01*
X89423238Y-89368380D01*
X89423238Y-89463619D01*
X88804190Y-90368380D02*
X88899428Y-90320761D01*
X88947047Y-90225523D01*
X88947047Y-89368380D01*
X88566095Y-89701714D02*
X88185142Y-89701714D01*
X88423238Y-89368380D02*
X88423238Y-90225523D01*
X88375619Y-90320761D01*
X88280380Y-90368380D01*
X88185142Y-90368380D01*
X87470857Y-90320761D02*
X87566095Y-90368380D01*
X87756571Y-90368380D01*
X87851809Y-90320761D01*
X87899428Y-90225523D01*
X87899428Y-89844571D01*
X87851809Y-89749333D01*
X87756571Y-89701714D01*
X87566095Y-89701714D01*
X87470857Y-89749333D01*
X87423238Y-89844571D01*
X87423238Y-89939809D01*
X87899428Y-90035047D01*
X86994666Y-90368380D02*
X86994666Y-89701714D01*
X86994666Y-89892190D02*
X86947047Y-89796952D01*
X86899428Y-89749333D01*
X86804190Y-89701714D01*
X86708952Y-89701714D01*
X85613714Y-89844571D02*
X85280380Y-89844571D01*
X85137523Y-90368380D02*
X85613714Y-90368380D01*
X85613714Y-89368380D01*
X85137523Y-89368380D01*
X84708952Y-89701714D02*
X84708952Y-90368380D01*
X84708952Y-89796952D02*
X84661333Y-89749333D01*
X84566095Y-89701714D01*
X84423238Y-89701714D01*
X84328000Y-89749333D01*
X84280380Y-89844571D01*
X84280380Y-90368380D01*
X83899428Y-89701714D02*
X83661333Y-90368380D01*
X83423238Y-89701714D01*
X82280380Y-90368380D02*
X82280380Y-89368380D01*
X82042285Y-89368380D01*
X81899428Y-89416000D01*
X81804190Y-89511238D01*
X81756571Y-89606476D01*
X81708952Y-89796952D01*
X81708952Y-89939809D01*
X81756571Y-90130285D01*
X81804190Y-90225523D01*
X81899428Y-90320761D01*
X82042285Y-90368380D01*
X82280380Y-90368380D01*
X80899428Y-90320761D02*
X80994666Y-90368380D01*
X81185142Y-90368380D01*
X81280380Y-90320761D01*
X81328000Y-90225523D01*
X81328000Y-89844571D01*
X81280380Y-89749333D01*
X81185142Y-89701714D01*
X80994666Y-89701714D01*
X80899428Y-89749333D01*
X80851809Y-89844571D01*
X80851809Y-89939809D01*
X81328000Y-90035047D01*
X79994666Y-90320761D02*
X80089904Y-90368380D01*
X80280380Y-90368380D01*
X80375619Y-90320761D01*
X80423238Y-90273142D01*
X80470857Y-90177904D01*
X80470857Y-89892190D01*
X80423238Y-89796952D01*
X80375619Y-89749333D01*
X80280380Y-89701714D01*
X80089904Y-89701714D01*
X79994666Y-89749333D01*
X79137523Y-90368380D02*
X79137523Y-89844571D01*
X79185142Y-89749333D01*
X79280380Y-89701714D01*
X79470857Y-89701714D01*
X79566095Y-89749333D01*
X79137523Y-90320761D02*
X79232761Y-90368380D01*
X79470857Y-90368380D01*
X79566095Y-90320761D01*
X79613714Y-90225523D01*
X79613714Y-90130285D01*
X79566095Y-90035047D01*
X79470857Y-89987428D01*
X79232761Y-89987428D01*
X79137523Y-89939809D01*
X78756571Y-89701714D02*
X78518476Y-90368380D01*
X78280380Y-89701714D02*
X78518476Y-90368380D01*
X78613714Y-90606476D01*
X78661333Y-90654095D01*
X78756571Y-90701714D01*
X48855380Y-50046380D02*
X48855380Y-50236857D01*
X48903000Y-50332095D01*
X48998238Y-50427333D01*
X49188714Y-50474952D01*
X49522047Y-50474952D01*
X49712523Y-50427333D01*
X49807761Y-50332095D01*
X49855380Y-50236857D01*
X49855380Y-50046380D01*
X49807761Y-49951142D01*
X49712523Y-49855904D01*
X49522047Y-49808285D01*
X49188714Y-49808285D01*
X48998238Y-49855904D01*
X48903000Y-49951142D01*
X48855380Y-50046380D01*
X49807761Y-50855904D02*
X49855380Y-50998761D01*
X49855380Y-51236857D01*
X49807761Y-51332095D01*
X49760142Y-51379714D01*
X49664904Y-51427333D01*
X49569666Y-51427333D01*
X49474428Y-51379714D01*
X49426809Y-51332095D01*
X49379190Y-51236857D01*
X49331571Y-51046380D01*
X49283952Y-50951142D01*
X49236333Y-50903523D01*
X49141095Y-50855904D01*
X49045857Y-50855904D01*
X48950619Y-50903523D01*
X48903000Y-50951142D01*
X48855380Y-51046380D01*
X48855380Y-51284476D01*
X48903000Y-51427333D01*
X49760142Y-52427333D02*
X49807761Y-52379714D01*
X49855380Y-52236857D01*
X49855380Y-52141619D01*
X49807761Y-51998761D01*
X49712523Y-51903523D01*
X49617285Y-51855904D01*
X49426809Y-51808285D01*
X49283952Y-51808285D01*
X49093476Y-51855904D01*
X48998238Y-51903523D01*
X48903000Y-51998761D01*
X48855380Y-52141619D01*
X48855380Y-52236857D01*
X48903000Y-52379714D01*
X48950619Y-52427333D01*
X48950619Y-52808285D02*
X48903000Y-52855904D01*
X48855380Y-52951142D01*
X48855380Y-53189238D01*
X48903000Y-53284476D01*
X48950619Y-53332095D01*
X49045857Y-53379714D01*
X49141095Y-53379714D01*
X49283952Y-53332095D01*
X49855380Y-52760666D01*
X49855380Y-53379714D01*
X49331571Y-54903523D02*
X49331571Y-54570190D01*
X49855380Y-54570190D02*
X48855380Y-54570190D01*
X48855380Y-55046380D01*
X49855380Y-55427333D02*
X49188714Y-55427333D01*
X49379190Y-55427333D02*
X49283952Y-55474952D01*
X49236333Y-55522571D01*
X49188714Y-55617809D01*
X49188714Y-55713047D01*
X49807761Y-56427333D02*
X49855380Y-56332095D01*
X49855380Y-56141619D01*
X49807761Y-56046380D01*
X49712523Y-55998761D01*
X49331571Y-55998761D01*
X49236333Y-56046380D01*
X49188714Y-56141619D01*
X49188714Y-56332095D01*
X49236333Y-56427333D01*
X49331571Y-56474952D01*
X49426809Y-56474952D01*
X49522047Y-55998761D01*
X49188714Y-57332095D02*
X50188714Y-57332095D01*
X49807761Y-57332095D02*
X49855380Y-57236857D01*
X49855380Y-57046380D01*
X49807761Y-56951142D01*
X49760142Y-56903523D01*
X49664904Y-56855904D01*
X49379190Y-56855904D01*
X49283952Y-56903523D01*
X49236333Y-56951142D01*
X49188714Y-57046380D01*
X49188714Y-57236857D01*
X49236333Y-57332095D01*
X87701380Y-47570047D02*
X86701380Y-47570047D01*
X87701380Y-48141476D01*
X86701380Y-48141476D01*
X87701380Y-48760523D02*
X87653761Y-48665285D01*
X87606142Y-48617666D01*
X87510904Y-48570047D01*
X87225190Y-48570047D01*
X87129952Y-48617666D01*
X87082333Y-48665285D01*
X87034714Y-48760523D01*
X87034714Y-48903380D01*
X87082333Y-48998619D01*
X87129952Y-49046238D01*
X87225190Y-49093857D01*
X87510904Y-49093857D01*
X87606142Y-49046238D01*
X87653761Y-48998619D01*
X87701380Y-48903380D01*
X87701380Y-48760523D01*
X87701380Y-49522428D02*
X87034714Y-49522428D01*
X86701380Y-49522428D02*
X86749000Y-49474809D01*
X86796619Y-49522428D01*
X86749000Y-49570047D01*
X86701380Y-49522428D01*
X86796619Y-49522428D01*
X87653761Y-49950999D02*
X87701380Y-50046238D01*
X87701380Y-50236714D01*
X87653761Y-50331952D01*
X87558523Y-50379571D01*
X87510904Y-50379571D01*
X87415666Y-50331952D01*
X87368047Y-50236714D01*
X87368047Y-50093857D01*
X87320428Y-49998619D01*
X87225190Y-49950999D01*
X87177571Y-49950999D01*
X87082333Y-49998619D01*
X87034714Y-50093857D01*
X87034714Y-50236714D01*
X87082333Y-50331952D01*
X87653761Y-51189095D02*
X87701380Y-51093857D01*
X87701380Y-50903380D01*
X87653761Y-50808142D01*
X87558523Y-50760523D01*
X87177571Y-50760523D01*
X87082333Y-50808142D01*
X87034714Y-50903380D01*
X87034714Y-51093857D01*
X87082333Y-51189095D01*
X87177571Y-51236714D01*
X87272809Y-51236714D01*
X87368047Y-50760523D01*
X86701380Y-52284333D02*
X87701380Y-52617666D01*
X86701380Y-52950999D01*
X87701380Y-53427190D02*
X87653761Y-53331952D01*
X87606142Y-53284333D01*
X87510904Y-53236714D01*
X87225190Y-53236714D01*
X87129952Y-53284333D01*
X87082333Y-53331952D01*
X87034714Y-53427190D01*
X87034714Y-53570047D01*
X87082333Y-53665285D01*
X87129952Y-53712904D01*
X87225190Y-53760523D01*
X87510904Y-53760523D01*
X87606142Y-53712904D01*
X87653761Y-53665285D01*
X87701380Y-53570047D01*
X87701380Y-53427190D01*
X87701380Y-54331952D02*
X87653761Y-54236714D01*
X87558523Y-54189095D01*
X86701380Y-54189095D01*
X87034714Y-55141476D02*
X87701380Y-55141476D01*
X87034714Y-54712904D02*
X87558523Y-54712904D01*
X87653761Y-54760523D01*
X87701380Y-54855761D01*
X87701380Y-54998619D01*
X87653761Y-55093857D01*
X87606142Y-55141476D01*
X87701380Y-55617666D02*
X87034714Y-55617666D01*
X87129952Y-55617666D02*
X87082333Y-55665285D01*
X87034714Y-55760523D01*
X87034714Y-55903380D01*
X87082333Y-55998619D01*
X87177571Y-56046238D01*
X87701380Y-56046238D01*
X87177571Y-56046238D02*
X87082333Y-56093857D01*
X87034714Y-56189095D01*
X87034714Y-56331952D01*
X87082333Y-56427190D01*
X87177571Y-56474809D01*
X87701380Y-56474809D01*
X87653761Y-57331952D02*
X87701380Y-57236714D01*
X87701380Y-57046238D01*
X87653761Y-56950999D01*
X87558523Y-56903380D01*
X87177571Y-56903380D01*
X87082333Y-56950999D01*
X87034714Y-57046238D01*
X87034714Y-57236714D01*
X87082333Y-57331952D01*
X87177571Y-57379571D01*
X87272809Y-57379571D01*
X87368047Y-56903380D01*
X98948095Y-80573571D02*
X99281428Y-80573571D01*
X99281428Y-81097380D02*
X99281428Y-80097380D01*
X98805238Y-80097380D01*
X98424285Y-81097380D02*
X98424285Y-80430714D01*
X98424285Y-80097380D02*
X98471904Y-80145000D01*
X98424285Y-80192619D01*
X98376666Y-80145000D01*
X98424285Y-80097380D01*
X98424285Y-80192619D01*
X97805238Y-81097380D02*
X97900476Y-81049761D01*
X97948095Y-80954523D01*
X97948095Y-80097380D01*
X97567142Y-80430714D02*
X97186190Y-80430714D01*
X97424285Y-80097380D02*
X97424285Y-80954523D01*
X97376666Y-81049761D01*
X97281428Y-81097380D01*
X97186190Y-81097380D01*
X96471904Y-81049761D02*
X96567142Y-81097380D01*
X96757619Y-81097380D01*
X96852857Y-81049761D01*
X96900476Y-80954523D01*
X96900476Y-80573571D01*
X96852857Y-80478333D01*
X96757619Y-80430714D01*
X96567142Y-80430714D01*
X96471904Y-80478333D01*
X96424285Y-80573571D01*
X96424285Y-80668809D01*
X96900476Y-80764047D01*
X95995714Y-81097380D02*
X95995714Y-80430714D01*
X95995714Y-80621190D02*
X95948095Y-80525952D01*
X95900476Y-80478333D01*
X95805238Y-80430714D01*
X95710000Y-80430714D01*
X94138571Y-81097380D02*
X94614761Y-81097380D01*
X94614761Y-80097380D01*
X93471904Y-80573571D02*
X93805238Y-80573571D01*
X93805238Y-81097380D02*
X93805238Y-80097380D01*
X93329047Y-80097380D01*
X92757619Y-80097380D02*
X92567142Y-80097380D01*
X92471904Y-80145000D01*
X92376666Y-80240238D01*
X92329047Y-80430714D01*
X92329047Y-80764047D01*
X92376666Y-80954523D01*
X92471904Y-81049761D01*
X92567142Y-81097380D01*
X92757619Y-81097380D01*
X92852857Y-81049761D01*
X92948095Y-80954523D01*
X92995714Y-80764047D01*
X92995714Y-80430714D01*
X92948095Y-80240238D01*
X92852857Y-80145000D01*
X92757619Y-80097380D01*
X91186190Y-80811666D02*
X90710000Y-80811666D01*
X91281428Y-81097380D02*
X90948095Y-80097380D01*
X90614761Y-81097380D01*
X90281428Y-81097380D02*
X90281428Y-80430714D01*
X90281428Y-80525952D02*
X90233809Y-80478333D01*
X90138571Y-80430714D01*
X89995714Y-80430714D01*
X89900476Y-80478333D01*
X89852857Y-80573571D01*
X89852857Y-81097380D01*
X89852857Y-80573571D02*
X89805238Y-80478333D01*
X89710000Y-80430714D01*
X89567142Y-80430714D01*
X89471904Y-80478333D01*
X89424285Y-80573571D01*
X89424285Y-81097380D01*
X88805238Y-81097380D02*
X88900476Y-81049761D01*
X88948095Y-81002142D01*
X88995714Y-80906904D01*
X88995714Y-80621190D01*
X88948095Y-80525952D01*
X88900476Y-80478333D01*
X88805238Y-80430714D01*
X88662380Y-80430714D01*
X88567142Y-80478333D01*
X88519523Y-80525952D01*
X88471904Y-80621190D01*
X88471904Y-80906904D01*
X88519523Y-81002142D01*
X88567142Y-81049761D01*
X88662380Y-81097380D01*
X88805238Y-81097380D01*
X87614761Y-80430714D02*
X87614761Y-81097380D01*
X88043333Y-80430714D02*
X88043333Y-80954523D01*
X87995714Y-81049761D01*
X87900476Y-81097380D01*
X87757619Y-81097380D01*
X87662380Y-81049761D01*
X87614761Y-81002142D01*
X87138571Y-80430714D02*
X87138571Y-81097380D01*
X87138571Y-80525952D02*
X87090952Y-80478333D01*
X86995714Y-80430714D01*
X86852857Y-80430714D01*
X86757619Y-80478333D01*
X86710000Y-80573571D01*
X86710000Y-81097380D01*
X86376666Y-80430714D02*
X85995714Y-80430714D01*
X86233809Y-80097380D02*
X86233809Y-80954523D01*
X86186190Y-81049761D01*
X86090952Y-81097380D01*
X85995714Y-81097380D01*
X45092571Y-76906380D02*
X45568761Y-76906380D01*
X45568761Y-75906380D01*
X44425904Y-76382571D02*
X44759238Y-76382571D01*
X44759238Y-76906380D02*
X44759238Y-75906380D01*
X44283047Y-75906380D01*
X43711619Y-75906380D02*
X43521142Y-75906380D01*
X43425904Y-75954000D01*
X43330666Y-76049238D01*
X43283047Y-76239714D01*
X43283047Y-76573047D01*
X43330666Y-76763523D01*
X43425904Y-76858761D01*
X43521142Y-76906380D01*
X43711619Y-76906380D01*
X43806857Y-76858761D01*
X43902095Y-76763523D01*
X43949714Y-76573047D01*
X43949714Y-76239714D01*
X43902095Y-76049238D01*
X43806857Y-75954000D01*
X43711619Y-75906380D01*
X42092571Y-76906380D02*
X42092571Y-75906380D01*
X41759238Y-76620666D01*
X41425904Y-75906380D01*
X41425904Y-76906380D01*
X40806857Y-76906380D02*
X40902095Y-76858761D01*
X40949714Y-76811142D01*
X40997333Y-76715904D01*
X40997333Y-76430190D01*
X40949714Y-76334952D01*
X40902095Y-76287333D01*
X40806857Y-76239714D01*
X40664000Y-76239714D01*
X40568761Y-76287333D01*
X40521142Y-76334952D01*
X40473523Y-76430190D01*
X40473523Y-76715904D01*
X40521142Y-76811142D01*
X40568761Y-76858761D01*
X40664000Y-76906380D01*
X40806857Y-76906380D01*
X39616380Y-76906380D02*
X39616380Y-75906380D01*
X39616380Y-76858761D02*
X39711619Y-76906380D01*
X39902095Y-76906380D01*
X39997333Y-76858761D01*
X40044952Y-76811142D01*
X40092571Y-76715904D01*
X40092571Y-76430190D01*
X40044952Y-76334952D01*
X39997333Y-76287333D01*
X39902095Y-76239714D01*
X39711619Y-76239714D01*
X39616380Y-76287333D01*
X38759238Y-76858761D02*
X38854476Y-76906380D01*
X39044952Y-76906380D01*
X39140190Y-76858761D01*
X39187809Y-76763523D01*
X39187809Y-76382571D01*
X39140190Y-76287333D01*
X39044952Y-76239714D01*
X38854476Y-76239714D01*
X38759238Y-76287333D01*
X38711619Y-76382571D01*
X38711619Y-76477809D01*
X39187809Y-76573047D01*
X57998666Y-89241380D02*
X57665333Y-90241380D01*
X57332000Y-89241380D01*
X56855809Y-90241380D02*
X56951047Y-90193761D01*
X56998666Y-90146142D01*
X57046285Y-90050904D01*
X57046285Y-89765190D01*
X56998666Y-89669952D01*
X56951047Y-89622333D01*
X56855809Y-89574714D01*
X56712952Y-89574714D01*
X56617714Y-89622333D01*
X56570095Y-89669952D01*
X56522476Y-89765190D01*
X56522476Y-90050904D01*
X56570095Y-90146142D01*
X56617714Y-90193761D01*
X56712952Y-90241380D01*
X56855809Y-90241380D01*
X55951047Y-90241380D02*
X56046285Y-90193761D01*
X56093904Y-90098523D01*
X56093904Y-89241380D01*
X55141523Y-89574714D02*
X55141523Y-90241380D01*
X55570095Y-89574714D02*
X55570095Y-90098523D01*
X55522476Y-90193761D01*
X55427238Y-90241380D01*
X55284380Y-90241380D01*
X55189142Y-90193761D01*
X55141523Y-90146142D01*
X54665333Y-90241380D02*
X54665333Y-89574714D01*
X54665333Y-89669952D02*
X54617714Y-89622333D01*
X54522476Y-89574714D01*
X54379619Y-89574714D01*
X54284380Y-89622333D01*
X54236761Y-89717571D01*
X54236761Y-90241380D01*
X54236761Y-89717571D02*
X54189142Y-89622333D01*
X54093904Y-89574714D01*
X53951047Y-89574714D01*
X53855809Y-89622333D01*
X53808190Y-89717571D01*
X53808190Y-90241380D01*
X52951047Y-90193761D02*
X53046285Y-90241380D01*
X53236761Y-90241380D01*
X53332000Y-90193761D01*
X53379619Y-90098523D01*
X53379619Y-89717571D01*
X53332000Y-89622333D01*
X53236761Y-89574714D01*
X53046285Y-89574714D01*
X52951047Y-89622333D01*
X52903428Y-89717571D01*
X52903428Y-89812809D01*
X53379619Y-89908047D01*
X51712952Y-90241380D02*
X51712952Y-89241380D01*
X51474857Y-89241380D01*
X51332000Y-89289000D01*
X51236761Y-89384238D01*
X51189142Y-89479476D01*
X51141523Y-89669952D01*
X51141523Y-89812809D01*
X51189142Y-90003285D01*
X51236761Y-90098523D01*
X51332000Y-90193761D01*
X51474857Y-90241380D01*
X51712952Y-90241380D01*
X50332000Y-90193761D02*
X50427238Y-90241380D01*
X50617714Y-90241380D01*
X50712952Y-90193761D01*
X50760571Y-90098523D01*
X50760571Y-89717571D01*
X50712952Y-89622333D01*
X50617714Y-89574714D01*
X50427238Y-89574714D01*
X50332000Y-89622333D01*
X50284380Y-89717571D01*
X50284380Y-89812809D01*
X50760571Y-89908047D01*
X49427238Y-90193761D02*
X49522476Y-90241380D01*
X49712952Y-90241380D01*
X49808190Y-90193761D01*
X49855809Y-90146142D01*
X49903428Y-90050904D01*
X49903428Y-89765190D01*
X49855809Y-89669952D01*
X49808190Y-89622333D01*
X49712952Y-89574714D01*
X49522476Y-89574714D01*
X49427238Y-89622333D01*
X48570095Y-90241380D02*
X48570095Y-89717571D01*
X48617714Y-89622333D01*
X48712952Y-89574714D01*
X48903428Y-89574714D01*
X48998666Y-89622333D01*
X48570095Y-90193761D02*
X48665333Y-90241380D01*
X48903428Y-90241380D01*
X48998666Y-90193761D01*
X49046285Y-90098523D01*
X49046285Y-90003285D01*
X48998666Y-89908047D01*
X48903428Y-89860428D01*
X48665333Y-89860428D01*
X48570095Y-89812809D01*
X48189142Y-89574714D02*
X47951047Y-90241380D01*
X47712952Y-89574714D02*
X47951047Y-90241380D01*
X48046285Y-90479476D01*
X48093904Y-90527095D01*
X48189142Y-90574714D01*
%TO.C,J18*%
X59902380Y-34690476D02*
X60616666Y-34690476D01*
X60759523Y-34642857D01*
X60854761Y-34547619D01*
X60902380Y-34404761D01*
X60902380Y-34309523D01*
X60902380Y-35690476D02*
X60902380Y-35119047D01*
X60902380Y-35404761D02*
X59902380Y-35404761D01*
X60045238Y-35309523D01*
X60140476Y-35214285D01*
X60188095Y-35119047D01*
X60330952Y-36261904D02*
X60283333Y-36166666D01*
X60235714Y-36119047D01*
X60140476Y-36071428D01*
X60092857Y-36071428D01*
X59997619Y-36119047D01*
X59950000Y-36166666D01*
X59902380Y-36261904D01*
X59902380Y-36452380D01*
X59950000Y-36547619D01*
X59997619Y-36595238D01*
X60092857Y-36642857D01*
X60140476Y-36642857D01*
X60235714Y-36595238D01*
X60283333Y-36547619D01*
X60330952Y-36452380D01*
X60330952Y-36261904D01*
X60378571Y-36166666D01*
X60426190Y-36119047D01*
X60521428Y-36071428D01*
X60711904Y-36071428D01*
X60807142Y-36119047D01*
X60854761Y-36166666D01*
X60902380Y-36261904D01*
X60902380Y-36452380D01*
X60854761Y-36547619D01*
X60807142Y-36595238D01*
X60711904Y-36642857D01*
X60521428Y-36642857D01*
X60426190Y-36595238D01*
X60378571Y-36547619D01*
X60330952Y-36452380D01*
%TO.C,J21*%
X135556523Y-103294380D02*
X135556523Y-104008666D01*
X135604142Y-104151523D01*
X135699380Y-104246761D01*
X135842238Y-104294380D01*
X135937476Y-104294380D01*
X135127952Y-103389619D02*
X135080333Y-103342000D01*
X134985095Y-103294380D01*
X134747000Y-103294380D01*
X134651761Y-103342000D01*
X134604142Y-103389619D01*
X134556523Y-103484857D01*
X134556523Y-103580095D01*
X134604142Y-103722952D01*
X135175571Y-104294380D01*
X134556523Y-104294380D01*
X133604142Y-104294380D02*
X134175571Y-104294380D01*
X133889857Y-104294380D02*
X133889857Y-103294380D01*
X133985095Y-103437238D01*
X134080333Y-103532476D01*
X134175571Y-103580095D01*
%TO.C,RV8*%
X106150238Y-90737380D02*
X106483571Y-90261190D01*
X106721666Y-90737380D02*
X106721666Y-89737380D01*
X106340714Y-89737380D01*
X106245476Y-89785000D01*
X106197857Y-89832619D01*
X106150238Y-89927857D01*
X106150238Y-90070714D01*
X106197857Y-90165952D01*
X106245476Y-90213571D01*
X106340714Y-90261190D01*
X106721666Y-90261190D01*
X105864523Y-89737380D02*
X105531190Y-90737380D01*
X105197857Y-89737380D01*
X104721666Y-90165952D02*
X104816904Y-90118333D01*
X104864523Y-90070714D01*
X104912142Y-89975476D01*
X104912142Y-89927857D01*
X104864523Y-89832619D01*
X104816904Y-89785000D01*
X104721666Y-89737380D01*
X104531190Y-89737380D01*
X104435952Y-89785000D01*
X104388333Y-89832619D01*
X104340714Y-89927857D01*
X104340714Y-89975476D01*
X104388333Y-90070714D01*
X104435952Y-90118333D01*
X104531190Y-90165952D01*
X104721666Y-90165952D01*
X104816904Y-90213571D01*
X104864523Y-90261190D01*
X104912142Y-90356428D01*
X104912142Y-90546904D01*
X104864523Y-90642142D01*
X104816904Y-90689761D01*
X104721666Y-90737380D01*
X104531190Y-90737380D01*
X104435952Y-90689761D01*
X104388333Y-90642142D01*
X104340714Y-90546904D01*
X104340714Y-90356428D01*
X104388333Y-90261190D01*
X104435952Y-90213571D01*
X104531190Y-90165952D01*
%TO.C,J6*%
X189317380Y-62150666D02*
X190031666Y-62150666D01*
X190174523Y-62103047D01*
X190269761Y-62007809D01*
X190317380Y-61864952D01*
X190317380Y-61769714D01*
X189317380Y-63055428D02*
X189317380Y-62864952D01*
X189365000Y-62769714D01*
X189412619Y-62722095D01*
X189555476Y-62626857D01*
X189745952Y-62579238D01*
X190126904Y-62579238D01*
X190222142Y-62626857D01*
X190269761Y-62674476D01*
X190317380Y-62769714D01*
X190317380Y-62960190D01*
X190269761Y-63055428D01*
X190222142Y-63103047D01*
X190126904Y-63150666D01*
X189888809Y-63150666D01*
X189793571Y-63103047D01*
X189745952Y-63055428D01*
X189698333Y-62960190D01*
X189698333Y-62769714D01*
X189745952Y-62674476D01*
X189793571Y-62626857D01*
X189888809Y-62579238D01*
%TO.C,RV2*%
X95150238Y-45737380D02*
X95483571Y-45261190D01*
X95721666Y-45737380D02*
X95721666Y-44737380D01*
X95340714Y-44737380D01*
X95245476Y-44785000D01*
X95197857Y-44832619D01*
X95150238Y-44927857D01*
X95150238Y-45070714D01*
X95197857Y-45165952D01*
X95245476Y-45213571D01*
X95340714Y-45261190D01*
X95721666Y-45261190D01*
X94864523Y-44737380D02*
X94531190Y-45737380D01*
X94197857Y-44737380D01*
X93912142Y-44832619D02*
X93864523Y-44785000D01*
X93769285Y-44737380D01*
X93531190Y-44737380D01*
X93435952Y-44785000D01*
X93388333Y-44832619D01*
X93340714Y-44927857D01*
X93340714Y-45023095D01*
X93388333Y-45165952D01*
X93959761Y-45737380D01*
X93340714Y-45737380D01*
%TO.C,RV10*%
X46626428Y-90737380D02*
X46959761Y-90261190D01*
X47197857Y-90737380D02*
X47197857Y-89737380D01*
X46816904Y-89737380D01*
X46721666Y-89785000D01*
X46674047Y-89832619D01*
X46626428Y-89927857D01*
X46626428Y-90070714D01*
X46674047Y-90165952D01*
X46721666Y-90213571D01*
X46816904Y-90261190D01*
X47197857Y-90261190D01*
X46340714Y-89737380D02*
X46007380Y-90737380D01*
X45674047Y-89737380D01*
X44816904Y-90737380D02*
X45388333Y-90737380D01*
X45102619Y-90737380D02*
X45102619Y-89737380D01*
X45197857Y-89880238D01*
X45293095Y-89975476D01*
X45388333Y-90023095D01*
X44197857Y-89737380D02*
X44102619Y-89737380D01*
X44007380Y-89785000D01*
X43959761Y-89832619D01*
X43912142Y-89927857D01*
X43864523Y-90118333D01*
X43864523Y-90356428D01*
X43912142Y-90546904D01*
X43959761Y-90642142D01*
X44007380Y-90689761D01*
X44102619Y-90737380D01*
X44197857Y-90737380D01*
X44293095Y-90689761D01*
X44340714Y-90642142D01*
X44388333Y-90546904D01*
X44435952Y-90356428D01*
X44435952Y-90118333D01*
X44388333Y-89927857D01*
X44340714Y-89832619D01*
X44293095Y-89785000D01*
X44197857Y-89737380D01*
%TO.C,RV7*%
X63450238Y-65737380D02*
X63783571Y-65261190D01*
X64021666Y-65737380D02*
X64021666Y-64737380D01*
X63640714Y-64737380D01*
X63545476Y-64785000D01*
X63497857Y-64832619D01*
X63450238Y-64927857D01*
X63450238Y-65070714D01*
X63497857Y-65165952D01*
X63545476Y-65213571D01*
X63640714Y-65261190D01*
X64021666Y-65261190D01*
X63164523Y-64737380D02*
X62831190Y-65737380D01*
X62497857Y-64737380D01*
X62259761Y-64737380D02*
X61593095Y-64737380D01*
X62021666Y-65737380D01*
%TO.C,SW1*%
X37441761Y-69659666D02*
X37489380Y-69802523D01*
X37489380Y-70040619D01*
X37441761Y-70135857D01*
X37394142Y-70183476D01*
X37298904Y-70231095D01*
X37203666Y-70231095D01*
X37108428Y-70183476D01*
X37060809Y-70135857D01*
X37013190Y-70040619D01*
X36965571Y-69850142D01*
X36917952Y-69754904D01*
X36870333Y-69707285D01*
X36775095Y-69659666D01*
X36679857Y-69659666D01*
X36584619Y-69707285D01*
X36537000Y-69754904D01*
X36489380Y-69850142D01*
X36489380Y-70088238D01*
X36537000Y-70231095D01*
X36489380Y-70564428D02*
X37489380Y-70802523D01*
X36775095Y-70993000D01*
X37489380Y-71183476D01*
X36489380Y-71421571D01*
X37489380Y-72326333D02*
X37489380Y-71754904D01*
X37489380Y-72040619D02*
X36489380Y-72040619D01*
X36632238Y-71945380D01*
X36727476Y-71850142D01*
X36775095Y-71754904D01*
%TO.C,RV5*%
X114150238Y-45737380D02*
X114483571Y-45261190D01*
X114721666Y-45737380D02*
X114721666Y-44737380D01*
X114340714Y-44737380D01*
X114245476Y-44785000D01*
X114197857Y-44832619D01*
X114150238Y-44927857D01*
X114150238Y-45070714D01*
X114197857Y-45165952D01*
X114245476Y-45213571D01*
X114340714Y-45261190D01*
X114721666Y-45261190D01*
X113864523Y-44737380D02*
X113531190Y-45737380D01*
X113197857Y-44737380D01*
X112388333Y-44737380D02*
X112864523Y-44737380D01*
X112912142Y-45213571D01*
X112864523Y-45165952D01*
X112769285Y-45118333D01*
X112531190Y-45118333D01*
X112435952Y-45165952D01*
X112388333Y-45213571D01*
X112340714Y-45308809D01*
X112340714Y-45546904D01*
X112388333Y-45642142D01*
X112435952Y-45689761D01*
X112531190Y-45737380D01*
X112769285Y-45737380D01*
X112864523Y-45689761D01*
X112912142Y-45642142D01*
%TO.C,RV9*%
X88900238Y-65737380D02*
X89233571Y-65261190D01*
X89471666Y-65737380D02*
X89471666Y-64737380D01*
X89090714Y-64737380D01*
X88995476Y-64785000D01*
X88947857Y-64832619D01*
X88900238Y-64927857D01*
X88900238Y-65070714D01*
X88947857Y-65165952D01*
X88995476Y-65213571D01*
X89090714Y-65261190D01*
X89471666Y-65261190D01*
X88614523Y-64737380D02*
X88281190Y-65737380D01*
X87947857Y-64737380D01*
X87566904Y-65737380D02*
X87376428Y-65737380D01*
X87281190Y-65689761D01*
X87233571Y-65642142D01*
X87138333Y-65499285D01*
X87090714Y-65308809D01*
X87090714Y-64927857D01*
X87138333Y-64832619D01*
X87185952Y-64785000D01*
X87281190Y-64737380D01*
X87471666Y-64737380D01*
X87566904Y-64785000D01*
X87614523Y-64832619D01*
X87662142Y-64927857D01*
X87662142Y-65165952D01*
X87614523Y-65261190D01*
X87566904Y-65308809D01*
X87471666Y-65356428D01*
X87281190Y-65356428D01*
X87185952Y-65308809D01*
X87138333Y-65261190D01*
X87090714Y-65165952D01*
%TO.C,J4*%
X171073380Y-62150666D02*
X171787666Y-62150666D01*
X171930523Y-62103047D01*
X172025761Y-62007809D01*
X172073380Y-61864952D01*
X172073380Y-61769714D01*
X171406714Y-63055428D02*
X172073380Y-63055428D01*
X171025761Y-62817333D02*
X171740047Y-62579238D01*
X171740047Y-63198285D01*
%TO.C,J26*%
X48252380Y-39690476D02*
X48966666Y-39690476D01*
X49109523Y-39642857D01*
X49204761Y-39547619D01*
X49252380Y-39404761D01*
X49252380Y-39309523D01*
X48347619Y-40119047D02*
X48300000Y-40166666D01*
X48252380Y-40261904D01*
X48252380Y-40500000D01*
X48300000Y-40595238D01*
X48347619Y-40642857D01*
X48442857Y-40690476D01*
X48538095Y-40690476D01*
X48680952Y-40642857D01*
X49252380Y-40071428D01*
X49252380Y-40690476D01*
X48252380Y-41547619D02*
X48252380Y-41357142D01*
X48300000Y-41261904D01*
X48347619Y-41214285D01*
X48490476Y-41119047D01*
X48680952Y-41071428D01*
X49061904Y-41071428D01*
X49157142Y-41119047D01*
X49204761Y-41166666D01*
X49252380Y-41261904D01*
X49252380Y-41452380D01*
X49204761Y-41547619D01*
X49157142Y-41595238D01*
X49061904Y-41642857D01*
X48823809Y-41642857D01*
X48728571Y-41595238D01*
X48680952Y-41547619D01*
X48633333Y-41452380D01*
X48633333Y-41261904D01*
X48680952Y-41166666D01*
X48728571Y-41119047D01*
X48823809Y-41071428D01*
%TO.C,J2*%
X110652380Y-35166666D02*
X111366666Y-35166666D01*
X111509523Y-35119047D01*
X111604761Y-35023809D01*
X111652380Y-34880952D01*
X111652380Y-34785714D01*
X110747619Y-35595238D02*
X110700000Y-35642857D01*
X110652380Y-35738095D01*
X110652380Y-35976190D01*
X110700000Y-36071428D01*
X110747619Y-36119047D01*
X110842857Y-36166666D01*
X110938095Y-36166666D01*
X111080952Y-36119047D01*
X111652380Y-35547619D01*
X111652380Y-36166666D01*
%TO.C,J30*%
X199687380Y-117554476D02*
X200401666Y-117554476D01*
X200544523Y-117506857D01*
X200639761Y-117411619D01*
X200687380Y-117268761D01*
X200687380Y-117173523D01*
X199687380Y-117935428D02*
X199687380Y-118554476D01*
X200068333Y-118221142D01*
X200068333Y-118364000D01*
X200115952Y-118459238D01*
X200163571Y-118506857D01*
X200258809Y-118554476D01*
X200496904Y-118554476D01*
X200592142Y-118506857D01*
X200639761Y-118459238D01*
X200687380Y-118364000D01*
X200687380Y-118078285D01*
X200639761Y-117983047D01*
X200592142Y-117935428D01*
X199687380Y-119173523D02*
X199687380Y-119268761D01*
X199735000Y-119364000D01*
X199782619Y-119411619D01*
X199877857Y-119459238D01*
X200068333Y-119506857D01*
X200306428Y-119506857D01*
X200496904Y-119459238D01*
X200592142Y-119411619D01*
X200639761Y-119364000D01*
X200687380Y-119268761D01*
X200687380Y-119173523D01*
X200639761Y-119078285D01*
X200592142Y-119030666D01*
X200496904Y-118983047D01*
X200306428Y-118935428D01*
X200068333Y-118935428D01*
X199877857Y-118983047D01*
X199782619Y-119030666D01*
X199735000Y-119078285D01*
X199687380Y-119173523D01*
%TO.C,RV12*%
X114626428Y-65737380D02*
X114959761Y-65261190D01*
X115197857Y-65737380D02*
X115197857Y-64737380D01*
X114816904Y-64737380D01*
X114721666Y-64785000D01*
X114674047Y-64832619D01*
X114626428Y-64927857D01*
X114626428Y-65070714D01*
X114674047Y-65165952D01*
X114721666Y-65213571D01*
X114816904Y-65261190D01*
X115197857Y-65261190D01*
X114340714Y-64737380D02*
X114007380Y-65737380D01*
X113674047Y-64737380D01*
X112816904Y-65737380D02*
X113388333Y-65737380D01*
X113102619Y-65737380D02*
X113102619Y-64737380D01*
X113197857Y-64880238D01*
X113293095Y-64975476D01*
X113388333Y-65023095D01*
X112435952Y-64832619D02*
X112388333Y-64785000D01*
X112293095Y-64737380D01*
X112055000Y-64737380D01*
X111959761Y-64785000D01*
X111912142Y-64832619D01*
X111864523Y-64927857D01*
X111864523Y-65023095D01*
X111912142Y-65165952D01*
X112483571Y-65737380D01*
X111864523Y-65737380D01*
%TO.C,RV6*%
X76150238Y-45737380D02*
X76483571Y-45261190D01*
X76721666Y-45737380D02*
X76721666Y-44737380D01*
X76340714Y-44737380D01*
X76245476Y-44785000D01*
X76197857Y-44832619D01*
X76150238Y-44927857D01*
X76150238Y-45070714D01*
X76197857Y-45165952D01*
X76245476Y-45213571D01*
X76340714Y-45261190D01*
X76721666Y-45261190D01*
X75864523Y-44737380D02*
X75531190Y-45737380D01*
X75197857Y-44737380D01*
X74435952Y-44737380D02*
X74626428Y-44737380D01*
X74721666Y-44785000D01*
X74769285Y-44832619D01*
X74864523Y-44975476D01*
X74912142Y-45165952D01*
X74912142Y-45546904D01*
X74864523Y-45642142D01*
X74816904Y-45689761D01*
X74721666Y-45737380D01*
X74531190Y-45737380D01*
X74435952Y-45689761D01*
X74388333Y-45642142D01*
X74340714Y-45546904D01*
X74340714Y-45308809D01*
X74388333Y-45213571D01*
X74435952Y-45165952D01*
X74531190Y-45118333D01*
X74721666Y-45118333D01*
X74816904Y-45165952D01*
X74864523Y-45213571D01*
X74912142Y-45308809D01*
%TO.C,RV11*%
X76626428Y-90737380D02*
X76959761Y-90261190D01*
X77197857Y-90737380D02*
X77197857Y-89737380D01*
X76816904Y-89737380D01*
X76721666Y-89785000D01*
X76674047Y-89832619D01*
X76626428Y-89927857D01*
X76626428Y-90070714D01*
X76674047Y-90165952D01*
X76721666Y-90213571D01*
X76816904Y-90261190D01*
X77197857Y-90261190D01*
X76340714Y-89737380D02*
X76007380Y-90737380D01*
X75674047Y-89737380D01*
X74816904Y-90737380D02*
X75388333Y-90737380D01*
X75102619Y-90737380D02*
X75102619Y-89737380D01*
X75197857Y-89880238D01*
X75293095Y-89975476D01*
X75388333Y-90023095D01*
X73864523Y-90737380D02*
X74435952Y-90737380D01*
X74150238Y-90737380D02*
X74150238Y-89737380D01*
X74245476Y-89880238D01*
X74340714Y-89975476D01*
X74435952Y-90023095D01*
%TO.C,RV4*%
X38150238Y-45737380D02*
X38483571Y-45261190D01*
X38721666Y-45737380D02*
X38721666Y-44737380D01*
X38340714Y-44737380D01*
X38245476Y-44785000D01*
X38197857Y-44832619D01*
X38150238Y-44927857D01*
X38150238Y-45070714D01*
X38197857Y-45165952D01*
X38245476Y-45213571D01*
X38340714Y-45261190D01*
X38721666Y-45261190D01*
X37864523Y-44737380D02*
X37531190Y-45737380D01*
X37197857Y-44737380D01*
X36435952Y-45070714D02*
X36435952Y-45737380D01*
X36674047Y-44689761D02*
X36912142Y-45404047D01*
X36293095Y-45404047D01*
%TO.C,RV3*%
X57150238Y-45737380D02*
X57483571Y-45261190D01*
X57721666Y-45737380D02*
X57721666Y-44737380D01*
X57340714Y-44737380D01*
X57245476Y-44785000D01*
X57197857Y-44832619D01*
X57150238Y-44927857D01*
X57150238Y-45070714D01*
X57197857Y-45165952D01*
X57245476Y-45213571D01*
X57340714Y-45261190D01*
X57721666Y-45261190D01*
X56864523Y-44737380D02*
X56531190Y-45737380D01*
X56197857Y-44737380D01*
X55959761Y-44737380D02*
X55340714Y-44737380D01*
X55674047Y-45118333D01*
X55531190Y-45118333D01*
X55435952Y-45165952D01*
X55388333Y-45213571D01*
X55340714Y-45308809D01*
X55340714Y-45546904D01*
X55388333Y-45642142D01*
X55435952Y-45689761D01*
X55531190Y-45737380D01*
X55816904Y-45737380D01*
X55912142Y-45689761D01*
X55959761Y-45642142D01*
%TO.C,J10*%
X164889380Y-83518476D02*
X165603666Y-83518476D01*
X165746523Y-83470857D01*
X165841761Y-83375619D01*
X165889380Y-83232761D01*
X165889380Y-83137523D01*
X165889380Y-84518476D02*
X165889380Y-83947047D01*
X165889380Y-84232761D02*
X164889380Y-84232761D01*
X165032238Y-84137523D01*
X165127476Y-84042285D01*
X165175095Y-83947047D01*
X164889380Y-85137523D02*
X164889380Y-85232761D01*
X164937000Y-85328000D01*
X164984619Y-85375619D01*
X165079857Y-85423238D01*
X165270333Y-85470857D01*
X165508428Y-85470857D01*
X165698904Y-85423238D01*
X165794142Y-85375619D01*
X165841761Y-85328000D01*
X165889380Y-85232761D01*
X165889380Y-85137523D01*
X165841761Y-85042285D01*
X165794142Y-84994666D01*
X165698904Y-84947047D01*
X165508428Y-84899428D01*
X165270333Y-84899428D01*
X165079857Y-84947047D01*
X164984619Y-84994666D01*
X164937000Y-85042285D01*
X164889380Y-85137523D01*
%TO.C,J22*%
X229917523Y-76331380D02*
X229917523Y-77045666D01*
X229965142Y-77188523D01*
X230060380Y-77283761D01*
X230203238Y-77331380D01*
X230298476Y-77331380D01*
X229488952Y-76426619D02*
X229441333Y-76379000D01*
X229346095Y-76331380D01*
X229108000Y-76331380D01*
X229012761Y-76379000D01*
X228965142Y-76426619D01*
X228917523Y-76521857D01*
X228917523Y-76617095D01*
X228965142Y-76759952D01*
X229536571Y-77331380D01*
X228917523Y-77331380D01*
X228536571Y-76426619D02*
X228488952Y-76379000D01*
X228393714Y-76331380D01*
X228155619Y-76331380D01*
X228060380Y-76379000D01*
X228012761Y-76426619D01*
X227965142Y-76521857D01*
X227965142Y-76617095D01*
X228012761Y-76759952D01*
X228584190Y-77331380D01*
X227965142Y-77331380D01*
%TO.C,J8*%
X136187380Y-62150666D02*
X136901666Y-62150666D01*
X137044523Y-62103047D01*
X137139761Y-62007809D01*
X137187380Y-61864952D01*
X137187380Y-61769714D01*
X136615952Y-62769714D02*
X136568333Y-62674476D01*
X136520714Y-62626857D01*
X136425476Y-62579238D01*
X136377857Y-62579238D01*
X136282619Y-62626857D01*
X136235000Y-62674476D01*
X136187380Y-62769714D01*
X136187380Y-62960190D01*
X136235000Y-63055428D01*
X136282619Y-63103047D01*
X136377857Y-63150666D01*
X136425476Y-63150666D01*
X136520714Y-63103047D01*
X136568333Y-63055428D01*
X136615952Y-62960190D01*
X136615952Y-62769714D01*
X136663571Y-62674476D01*
X136711190Y-62626857D01*
X136806428Y-62579238D01*
X136996904Y-62579238D01*
X137092142Y-62626857D01*
X137139761Y-62674476D01*
X137187380Y-62769714D01*
X137187380Y-62960190D01*
X137139761Y-63055428D01*
X137092142Y-63103047D01*
X136996904Y-63150666D01*
X136806428Y-63150666D01*
X136711190Y-63103047D01*
X136663571Y-63055428D01*
X136615952Y-62960190D01*
%TO.C,J12*%
X99002380Y-39690476D02*
X99716666Y-39690476D01*
X99859523Y-39642857D01*
X99954761Y-39547619D01*
X100002380Y-39404761D01*
X100002380Y-39309523D01*
X100002380Y-40690476D02*
X100002380Y-40119047D01*
X100002380Y-40404761D02*
X99002380Y-40404761D01*
X99145238Y-40309523D01*
X99240476Y-40214285D01*
X99288095Y-40119047D01*
X99097619Y-41071428D02*
X99050000Y-41119047D01*
X99002380Y-41214285D01*
X99002380Y-41452380D01*
X99050000Y-41547619D01*
X99097619Y-41595238D01*
X99192857Y-41642857D01*
X99288095Y-41642857D01*
X99430952Y-41595238D01*
X100002380Y-41023809D01*
X100002380Y-41642857D01*
D11*
%TO.C,J18*%
X61250000Y-39600000D02*
X61250000Y-42500000D01*
X71750000Y-33500000D02*
X61250000Y-33500000D01*
X61250000Y-33500000D02*
X61250000Y-36400000D01*
X71750000Y-39500000D02*
X71750000Y-42500000D01*
X71750000Y-42500000D02*
X61250000Y-42500000D01*
X71750000Y-33500000D02*
X71750000Y-36500000D01*
D12*
X69789999Y-36603000D02*
G75*
G03*
X69789999Y-39397000I-2539999J-1397000D01*
G01*
X69050000Y-38000000D02*
G75*
G03*
X69050000Y-38000000I-1800000J0D01*
G01*
%TO.C,J21*%
X136077000Y-106172000D02*
X136077000Y-104842000D01*
X136077000Y-107442000D02*
X136077000Y-110042000D01*
X136077000Y-107442000D02*
X133417000Y-107442000D01*
X133417000Y-107442000D02*
X133417000Y-110042000D01*
X136077000Y-110042000D02*
X133417000Y-110042000D01*
X136077000Y-104842000D02*
X134747000Y-104842000D01*
%TO.C,RV8*%
X105130000Y-102620000D02*
X105130000Y-97900000D01*
X105130000Y-91030000D02*
X114870000Y-91030000D01*
X108340000Y-102620000D02*
X109170000Y-102620000D01*
X110500000Y-96000000D02*
X109500000Y-96000000D01*
X110000000Y-95500000D02*
X110000000Y-96500000D01*
X105130000Y-102620000D02*
X106620000Y-102620000D01*
X114870000Y-94090000D02*
X114870000Y-91030000D01*
X105130000Y-94090000D02*
X105130000Y-91030000D01*
X110790000Y-102620000D02*
X111320000Y-102620000D01*
X113690000Y-102620000D02*
X114870000Y-102620000D01*
X114880000Y-102620000D02*
X114880000Y-97900000D01*
%TO.C,J6*%
X173295000Y-61154000D02*
X173295000Y-62484000D01*
X174625000Y-61154000D02*
X173295000Y-61154000D01*
X188655000Y-61154000D02*
X188655000Y-63814000D01*
X175895000Y-61154000D02*
X188655000Y-61154000D01*
X175895000Y-61154000D02*
X175895000Y-63814000D01*
X175895000Y-63814000D02*
X188655000Y-63814000D01*
%TO.C,RV2*%
X102690000Y-57620000D02*
X103870000Y-57620000D01*
X99500000Y-51000000D02*
X98500000Y-51000000D01*
X103880000Y-57620000D02*
X103880000Y-52900000D01*
X97340000Y-57620000D02*
X98170000Y-57620000D01*
X94130000Y-57620000D02*
X95620000Y-57620000D01*
X94130000Y-46030000D02*
X103870000Y-46030000D01*
X99000000Y-50500000D02*
X99000000Y-51500000D01*
X99790000Y-57620000D02*
X100320000Y-57620000D01*
X94130000Y-49090000D02*
X94130000Y-46030000D01*
X103870000Y-49090000D02*
X103870000Y-46030000D01*
X94130000Y-57620000D02*
X94130000Y-52900000D01*
%TO.C,RV10*%
X54870000Y-94090000D02*
X54870000Y-91030000D01*
X45130000Y-102620000D02*
X46620000Y-102620000D01*
X53690000Y-102620000D02*
X54870000Y-102620000D01*
X54880000Y-102620000D02*
X54880000Y-97900000D01*
X48340000Y-102620000D02*
X49170000Y-102620000D01*
X50790000Y-102620000D02*
X51320000Y-102620000D01*
X45130000Y-102620000D02*
X45130000Y-97900000D01*
X45130000Y-91030000D02*
X54870000Y-91030000D01*
X45130000Y-94090000D02*
X45130000Y-91030000D01*
X50500000Y-96000000D02*
X49500000Y-96000000D01*
X50000000Y-95500000D02*
X50000000Y-96500000D01*
%TO.C,RV7*%
X72180000Y-77620000D02*
X72180000Y-72900000D01*
X62430000Y-77620000D02*
X62430000Y-72900000D01*
X68090000Y-77620000D02*
X68620000Y-77620000D01*
X67800000Y-71000000D02*
X66800000Y-71000000D01*
X62430000Y-66030000D02*
X72170000Y-66030000D01*
X70990000Y-77620000D02*
X72170000Y-77620000D01*
X72170000Y-69090000D02*
X72170000Y-66030000D01*
X62430000Y-69090000D02*
X62430000Y-66030000D01*
X67300000Y-70500000D02*
X67300000Y-71500000D01*
X62430000Y-77620000D02*
X63920000Y-77620000D01*
X65640000Y-77620000D02*
X66470000Y-77620000D01*
%TO.C,SW1*%
X42037000Y-71493000D02*
X42037000Y-70493000D01*
X37937000Y-75093000D02*
X37937000Y-66893000D01*
X46137000Y-75093000D02*
X37937000Y-75093000D01*
X41537000Y-70993000D02*
X42537000Y-70993000D01*
X37937000Y-66893000D02*
X46137000Y-66893000D01*
X46137000Y-66893000D02*
X46137000Y-75093000D01*
X42537000Y-70993000D02*
G75*
G03*
X42537000Y-70993000I-500000J0D01*
G01*
%TO.C,RV5*%
X122880000Y-57620000D02*
X122880000Y-52900000D01*
X116340000Y-57620000D02*
X117170000Y-57620000D01*
X121690000Y-57620000D02*
X122870000Y-57620000D01*
X122870000Y-49090000D02*
X122870000Y-46030000D01*
X118000000Y-50500000D02*
X118000000Y-51500000D01*
X113130000Y-57620000D02*
X113130000Y-52900000D01*
X118500000Y-51000000D02*
X117500000Y-51000000D01*
X113130000Y-49090000D02*
X113130000Y-46030000D01*
X113130000Y-57620000D02*
X114620000Y-57620000D01*
X118790000Y-57620000D02*
X119320000Y-57620000D01*
X113130000Y-46030000D02*
X122870000Y-46030000D01*
%TO.C,RV9*%
X96440000Y-77620000D02*
X97620000Y-77620000D01*
X91090000Y-77620000D02*
X91920000Y-77620000D01*
X87880000Y-77620000D02*
X89370000Y-77620000D01*
X93540000Y-77620000D02*
X94070000Y-77620000D01*
X87880000Y-66030000D02*
X97620000Y-66030000D01*
X93250000Y-71000000D02*
X92250000Y-71000000D01*
X97630000Y-77620000D02*
X97630000Y-72900000D01*
X87880000Y-69090000D02*
X87880000Y-66030000D01*
X92750000Y-70500000D02*
X92750000Y-71500000D01*
X87880000Y-77620000D02*
X87880000Y-72900000D01*
X97620000Y-69090000D02*
X97620000Y-66030000D01*
%TO.C,J4*%
X170621000Y-63814000D02*
X170621000Y-62484000D01*
X168021000Y-61154000D02*
X160341000Y-61154000D01*
X169291000Y-63814000D02*
X170621000Y-63814000D01*
X168021000Y-63814000D02*
X168021000Y-61154000D01*
X168021000Y-63814000D02*
X160341000Y-63814000D01*
X160341000Y-63814000D02*
X160341000Y-61154000D01*
D11*
%TO.C,J26*%
X37500000Y-33500000D02*
X48000000Y-33500000D01*
X48000000Y-36400000D02*
X48000000Y-33500000D01*
X37500000Y-36500000D02*
X37500000Y-33500000D01*
X48000000Y-42500000D02*
X48000000Y-39600000D01*
X37500000Y-42500000D02*
X48000000Y-42500000D01*
X37500000Y-42500000D02*
X37500000Y-39500000D01*
D12*
X39460001Y-39397000D02*
G75*
G03*
X39460001Y-36603000I2539999J1397000D01*
G01*
X43800000Y-38000000D02*
G75*
G03*
X43800000Y-38000000I-1800000J0D01*
G01*
D11*
%TO.C,J2*%
X122500000Y-33500000D02*
X112000000Y-33500000D01*
X112000000Y-39600000D02*
X112000000Y-42500000D01*
X122500000Y-42500000D02*
X112000000Y-42500000D01*
X112000000Y-33500000D02*
X112000000Y-36400000D01*
X122500000Y-33500000D02*
X122500000Y-36500000D01*
X122500000Y-39500000D02*
X122500000Y-42500000D01*
D12*
X120539999Y-36603000D02*
G75*
G03*
X120539999Y-39397000I-2539999J-1397000D01*
G01*
X119800000Y-38000000D02*
G75*
G03*
X119800000Y-38000000I-1800000J0D01*
G01*
%TO.C,J30*%
X203835000Y-119694000D02*
X211515000Y-119694000D01*
X203835000Y-117034000D02*
X211515000Y-117034000D01*
X202565000Y-117034000D02*
X201235000Y-117034000D01*
X201235000Y-117034000D02*
X201235000Y-118364000D01*
X211515000Y-117034000D02*
X211515000Y-119694000D01*
X203835000Y-117034000D02*
X203835000Y-119694000D01*
%TO.C,RV12*%
X122880000Y-77620000D02*
X122880000Y-72900000D01*
X118790000Y-77620000D02*
X119320000Y-77620000D01*
X118500000Y-71000000D02*
X117500000Y-71000000D01*
X122870000Y-69090000D02*
X122870000Y-66030000D01*
X116340000Y-77620000D02*
X117170000Y-77620000D01*
X121690000Y-77620000D02*
X122870000Y-77620000D01*
X118000000Y-70500000D02*
X118000000Y-71500000D01*
X113130000Y-77620000D02*
X113130000Y-72900000D01*
X113130000Y-77620000D02*
X114620000Y-77620000D01*
X113130000Y-69090000D02*
X113130000Y-66030000D01*
X113130000Y-66030000D02*
X122870000Y-66030000D01*
%TO.C,RV6*%
X84870000Y-49090000D02*
X84870000Y-46030000D01*
X75130000Y-57620000D02*
X75130000Y-52900000D01*
X78340000Y-57620000D02*
X79170000Y-57620000D01*
X80500000Y-51000000D02*
X79500000Y-51000000D01*
X75130000Y-46030000D02*
X84870000Y-46030000D01*
X80000000Y-50500000D02*
X80000000Y-51500000D01*
X84880000Y-57620000D02*
X84880000Y-52900000D01*
X75130000Y-57620000D02*
X76620000Y-57620000D01*
X75130000Y-49090000D02*
X75130000Y-46030000D01*
X83690000Y-57620000D02*
X84870000Y-57620000D01*
X80790000Y-57620000D02*
X81320000Y-57620000D01*
%TO.C,RV11*%
X75130000Y-94090000D02*
X75130000Y-91030000D01*
X78340000Y-102620000D02*
X79170000Y-102620000D01*
X75130000Y-91030000D02*
X84870000Y-91030000D01*
X84870000Y-94090000D02*
X84870000Y-91030000D01*
X75130000Y-102620000D02*
X76620000Y-102620000D01*
X84880000Y-102620000D02*
X84880000Y-97900000D01*
X80000000Y-95500000D02*
X80000000Y-96500000D01*
X83690000Y-102620000D02*
X84870000Y-102620000D01*
X80500000Y-96000000D02*
X79500000Y-96000000D01*
X80790000Y-102620000D02*
X81320000Y-102620000D01*
X75130000Y-102620000D02*
X75130000Y-97900000D01*
%TO.C,RV4*%
X37130000Y-57620000D02*
X38620000Y-57620000D01*
X42790000Y-57620000D02*
X43320000Y-57620000D01*
X42500000Y-51000000D02*
X41500000Y-51000000D01*
X42000000Y-50500000D02*
X42000000Y-51500000D01*
X37130000Y-57620000D02*
X37130000Y-52900000D01*
X46880000Y-57620000D02*
X46880000Y-52900000D01*
X37130000Y-49090000D02*
X37130000Y-46030000D01*
X37130000Y-46030000D02*
X46870000Y-46030000D01*
X46870000Y-49090000D02*
X46870000Y-46030000D01*
X45690000Y-57620000D02*
X46870000Y-57620000D01*
X40340000Y-57620000D02*
X41170000Y-57620000D01*
%TO.C,RV3*%
X65870000Y-49090000D02*
X65870000Y-46030000D01*
X61790000Y-57620000D02*
X62320000Y-57620000D01*
X64690000Y-57620000D02*
X65870000Y-57620000D01*
X56130000Y-49090000D02*
X56130000Y-46030000D01*
X56130000Y-57620000D02*
X56130000Y-52900000D01*
X61500000Y-51000000D02*
X60500000Y-51000000D01*
X59340000Y-57620000D02*
X60170000Y-57620000D01*
X65880000Y-57620000D02*
X65880000Y-52900000D01*
X56130000Y-46030000D02*
X65870000Y-46030000D01*
X56130000Y-57620000D02*
X57620000Y-57620000D01*
X61000000Y-50500000D02*
X61000000Y-51500000D01*
%TO.C,J10*%
X169037000Y-85658000D02*
X176717000Y-85658000D01*
X169037000Y-82998000D02*
X169037000Y-85658000D01*
X166437000Y-82998000D02*
X166437000Y-84328000D01*
X167767000Y-82998000D02*
X166437000Y-82998000D01*
X176717000Y-82998000D02*
X176717000Y-85658000D01*
X169037000Y-82998000D02*
X176717000Y-82998000D01*
%TO.C,J22*%
X227778000Y-73279000D02*
X230438000Y-73279000D01*
X227778000Y-75879000D02*
X229108000Y-75879000D01*
X227778000Y-73279000D02*
X227778000Y-70679000D01*
X230438000Y-73279000D02*
X230438000Y-70679000D01*
X227778000Y-70679000D02*
X230438000Y-70679000D01*
X227778000Y-74549000D02*
X227778000Y-75879000D01*
%TO.C,J8*%
X153095000Y-61154000D02*
X153095000Y-63814000D01*
X140335000Y-61154000D02*
X153095000Y-61154000D01*
X140335000Y-61154000D02*
X140335000Y-63814000D01*
X137735000Y-61154000D02*
X137735000Y-62484000D01*
X139065000Y-61154000D02*
X137735000Y-61154000D01*
X140335000Y-63814000D02*
X153095000Y-63814000D01*
D11*
%TO.C,J12*%
X88250000Y-36500000D02*
X88250000Y-33500000D01*
X88250000Y-33500000D02*
X98750000Y-33500000D01*
X88250000Y-42500000D02*
X88250000Y-39500000D01*
X88250000Y-42500000D02*
X98750000Y-42500000D01*
X98750000Y-36400000D02*
X98750000Y-33500000D01*
X98750000Y-42500000D02*
X98750000Y-39600000D01*
D12*
X90210001Y-39397000D02*
G75*
G03*
X90210001Y-36603000I2539999J1397000D01*
G01*
X94550000Y-38000000D02*
G75*
G03*
X94550000Y-38000000I-1800000J0D01*
G01*
%TD*%
M02*
