%TF.GenerationSoftware,KiCad,Pcbnew,7.0.2-0*%
%TF.CreationDate,2023-07-15T16:57:58+01:00*%
%TF.ProjectId,magnum-drum-synth,6d61676e-756d-42d6-9472-756d2d73796e,r05*%
%TF.SameCoordinates,Original*%
%TF.FileFunction,Legend,Bot*%
%TF.FilePolarity,Positive*%
%FSLAX46Y46*%
G04 Gerber Fmt 4.6, Leading zero omitted, Abs format (unit mm)*
G04 Created by KiCad (PCBNEW 7.0.2-0) date 2023-07-15 16:57:58*
%MOMM*%
%LPD*%
G01*
G04 APERTURE LIST*
%ADD10C,0.150000*%
%ADD11C,0.200000*%
%ADD12C,0.120000*%
G04 APERTURE END LIST*
D10*
X105761619Y-47196952D02*
X105761619Y-47387428D01*
X105761619Y-47387428D02*
X105809238Y-47482666D01*
X105809238Y-47482666D02*
X105904476Y-47577904D01*
X105904476Y-47577904D02*
X106094952Y-47625523D01*
X106094952Y-47625523D02*
X106428285Y-47625523D01*
X106428285Y-47625523D02*
X106618761Y-47577904D01*
X106618761Y-47577904D02*
X106714000Y-47482666D01*
X106714000Y-47482666D02*
X106761619Y-47387428D01*
X106761619Y-47387428D02*
X106761619Y-47196952D01*
X106761619Y-47196952D02*
X106714000Y-47101714D01*
X106714000Y-47101714D02*
X106618761Y-47006476D01*
X106618761Y-47006476D02*
X106428285Y-46958857D01*
X106428285Y-46958857D02*
X106094952Y-46958857D01*
X106094952Y-46958857D02*
X105904476Y-47006476D01*
X105904476Y-47006476D02*
X105809238Y-47101714D01*
X105809238Y-47101714D02*
X105761619Y-47196952D01*
X106714000Y-48006476D02*
X106761619Y-48149333D01*
X106761619Y-48149333D02*
X106761619Y-48387428D01*
X106761619Y-48387428D02*
X106714000Y-48482666D01*
X106714000Y-48482666D02*
X106666380Y-48530285D01*
X106666380Y-48530285D02*
X106571142Y-48577904D01*
X106571142Y-48577904D02*
X106475904Y-48577904D01*
X106475904Y-48577904D02*
X106380666Y-48530285D01*
X106380666Y-48530285D02*
X106333047Y-48482666D01*
X106333047Y-48482666D02*
X106285428Y-48387428D01*
X106285428Y-48387428D02*
X106237809Y-48196952D01*
X106237809Y-48196952D02*
X106190190Y-48101714D01*
X106190190Y-48101714D02*
X106142571Y-48054095D01*
X106142571Y-48054095D02*
X106047333Y-48006476D01*
X106047333Y-48006476D02*
X105952095Y-48006476D01*
X105952095Y-48006476D02*
X105856857Y-48054095D01*
X105856857Y-48054095D02*
X105809238Y-48101714D01*
X105809238Y-48101714D02*
X105761619Y-48196952D01*
X105761619Y-48196952D02*
X105761619Y-48435047D01*
X105761619Y-48435047D02*
X105809238Y-48577904D01*
X106666380Y-49577904D02*
X106714000Y-49530285D01*
X106714000Y-49530285D02*
X106761619Y-49387428D01*
X106761619Y-49387428D02*
X106761619Y-49292190D01*
X106761619Y-49292190D02*
X106714000Y-49149333D01*
X106714000Y-49149333D02*
X106618761Y-49054095D01*
X106618761Y-49054095D02*
X106523523Y-49006476D01*
X106523523Y-49006476D02*
X106333047Y-48958857D01*
X106333047Y-48958857D02*
X106190190Y-48958857D01*
X106190190Y-48958857D02*
X105999714Y-49006476D01*
X105999714Y-49006476D02*
X105904476Y-49054095D01*
X105904476Y-49054095D02*
X105809238Y-49149333D01*
X105809238Y-49149333D02*
X105761619Y-49292190D01*
X105761619Y-49292190D02*
X105761619Y-49387428D01*
X105761619Y-49387428D02*
X105809238Y-49530285D01*
X105809238Y-49530285D02*
X105856857Y-49577904D01*
X105856857Y-49958857D02*
X105809238Y-50006476D01*
X105809238Y-50006476D02*
X105761619Y-50101714D01*
X105761619Y-50101714D02*
X105761619Y-50339809D01*
X105761619Y-50339809D02*
X105809238Y-50435047D01*
X105809238Y-50435047D02*
X105856857Y-50482666D01*
X105856857Y-50482666D02*
X105952095Y-50530285D01*
X105952095Y-50530285D02*
X106047333Y-50530285D01*
X106047333Y-50530285D02*
X106190190Y-50482666D01*
X106190190Y-50482666D02*
X106761619Y-49911238D01*
X106761619Y-49911238D02*
X106761619Y-50530285D01*
X105761619Y-51577905D02*
X106761619Y-51911238D01*
X106761619Y-51911238D02*
X105761619Y-52244571D01*
X106761619Y-52720762D02*
X106714000Y-52625524D01*
X106714000Y-52625524D02*
X106666380Y-52577905D01*
X106666380Y-52577905D02*
X106571142Y-52530286D01*
X106571142Y-52530286D02*
X106285428Y-52530286D01*
X106285428Y-52530286D02*
X106190190Y-52577905D01*
X106190190Y-52577905D02*
X106142571Y-52625524D01*
X106142571Y-52625524D02*
X106094952Y-52720762D01*
X106094952Y-52720762D02*
X106094952Y-52863619D01*
X106094952Y-52863619D02*
X106142571Y-52958857D01*
X106142571Y-52958857D02*
X106190190Y-53006476D01*
X106190190Y-53006476D02*
X106285428Y-53054095D01*
X106285428Y-53054095D02*
X106571142Y-53054095D01*
X106571142Y-53054095D02*
X106666380Y-53006476D01*
X106666380Y-53006476D02*
X106714000Y-52958857D01*
X106714000Y-52958857D02*
X106761619Y-52863619D01*
X106761619Y-52863619D02*
X106761619Y-52720762D01*
X106761619Y-53625524D02*
X106714000Y-53530286D01*
X106714000Y-53530286D02*
X106618761Y-53482667D01*
X106618761Y-53482667D02*
X105761619Y-53482667D01*
X106094952Y-54435048D02*
X106761619Y-54435048D01*
X106094952Y-54006477D02*
X106618761Y-54006477D01*
X106618761Y-54006477D02*
X106714000Y-54054096D01*
X106714000Y-54054096D02*
X106761619Y-54149334D01*
X106761619Y-54149334D02*
X106761619Y-54292191D01*
X106761619Y-54292191D02*
X106714000Y-54387429D01*
X106714000Y-54387429D02*
X106666380Y-54435048D01*
X106761619Y-54911239D02*
X106094952Y-54911239D01*
X106190190Y-54911239D02*
X106142571Y-54958858D01*
X106142571Y-54958858D02*
X106094952Y-55054096D01*
X106094952Y-55054096D02*
X106094952Y-55196953D01*
X106094952Y-55196953D02*
X106142571Y-55292191D01*
X106142571Y-55292191D02*
X106237809Y-55339810D01*
X106237809Y-55339810D02*
X106761619Y-55339810D01*
X106237809Y-55339810D02*
X106142571Y-55387429D01*
X106142571Y-55387429D02*
X106094952Y-55482667D01*
X106094952Y-55482667D02*
X106094952Y-55625524D01*
X106094952Y-55625524D02*
X106142571Y-55720763D01*
X106142571Y-55720763D02*
X106237809Y-55768382D01*
X106237809Y-55768382D02*
X106761619Y-55768382D01*
X106714000Y-56625524D02*
X106761619Y-56530286D01*
X106761619Y-56530286D02*
X106761619Y-56339810D01*
X106761619Y-56339810D02*
X106714000Y-56244572D01*
X106714000Y-56244572D02*
X106618761Y-56196953D01*
X106618761Y-56196953D02*
X106237809Y-56196953D01*
X106237809Y-56196953D02*
X106142571Y-56244572D01*
X106142571Y-56244572D02*
X106094952Y-56339810D01*
X106094952Y-56339810D02*
X106094952Y-56530286D01*
X106094952Y-56530286D02*
X106142571Y-56625524D01*
X106142571Y-56625524D02*
X106237809Y-56673143D01*
X106237809Y-56673143D02*
X106333047Y-56673143D01*
X106333047Y-56673143D02*
X106428285Y-56196953D01*
X111513713Y-133812619D02*
X111513713Y-132812619D01*
X111513713Y-132812619D02*
X111132761Y-132812619D01*
X111132761Y-132812619D02*
X111037523Y-132860238D01*
X111037523Y-132860238D02*
X110989904Y-132907857D01*
X110989904Y-132907857D02*
X110942285Y-133003095D01*
X110942285Y-133003095D02*
X110942285Y-133145952D01*
X110942285Y-133145952D02*
X110989904Y-133241190D01*
X110989904Y-133241190D02*
X111037523Y-133288809D01*
X111037523Y-133288809D02*
X111132761Y-133336428D01*
X111132761Y-133336428D02*
X111513713Y-133336428D01*
X110513713Y-133812619D02*
X110513713Y-133145952D01*
X110513713Y-132812619D02*
X110561332Y-132860238D01*
X110561332Y-132860238D02*
X110513713Y-132907857D01*
X110513713Y-132907857D02*
X110466094Y-132860238D01*
X110466094Y-132860238D02*
X110513713Y-132812619D01*
X110513713Y-132812619D02*
X110513713Y-132907857D01*
X109656571Y-133765000D02*
X109751809Y-133812619D01*
X109751809Y-133812619D02*
X109942285Y-133812619D01*
X109942285Y-133812619D02*
X110037523Y-133765000D01*
X110037523Y-133765000D02*
X110085142Y-133669761D01*
X110085142Y-133669761D02*
X110085142Y-133288809D01*
X110085142Y-133288809D02*
X110037523Y-133193571D01*
X110037523Y-133193571D02*
X109942285Y-133145952D01*
X109942285Y-133145952D02*
X109751809Y-133145952D01*
X109751809Y-133145952D02*
X109656571Y-133193571D01*
X109656571Y-133193571D02*
X109608952Y-133288809D01*
X109608952Y-133288809D02*
X109608952Y-133384047D01*
X109608952Y-133384047D02*
X110085142Y-133479285D01*
X109275618Y-133145952D02*
X108751809Y-133145952D01*
X108751809Y-133145952D02*
X109275618Y-133812619D01*
X109275618Y-133812619D02*
X108751809Y-133812619D01*
X108227999Y-133812619D02*
X108323237Y-133765000D01*
X108323237Y-133765000D02*
X108370856Y-133717380D01*
X108370856Y-133717380D02*
X108418475Y-133622142D01*
X108418475Y-133622142D02*
X108418475Y-133336428D01*
X108418475Y-133336428D02*
X108370856Y-133241190D01*
X108370856Y-133241190D02*
X108323237Y-133193571D01*
X108323237Y-133193571D02*
X108227999Y-133145952D01*
X108227999Y-133145952D02*
X108085142Y-133145952D01*
X108085142Y-133145952D02*
X107989904Y-133193571D01*
X107989904Y-133193571D02*
X107942285Y-133241190D01*
X107942285Y-133241190D02*
X107894666Y-133336428D01*
X107894666Y-133336428D02*
X107894666Y-133622142D01*
X107894666Y-133622142D02*
X107942285Y-133717380D01*
X107942285Y-133717380D02*
X107989904Y-133765000D01*
X107989904Y-133765000D02*
X108085142Y-133812619D01*
X108085142Y-133812619D02*
X108227999Y-133812619D01*
X72087762Y-80456809D02*
X72421095Y-80456809D01*
X72421095Y-80980619D02*
X72421095Y-79980619D01*
X72421095Y-79980619D02*
X71944905Y-79980619D01*
X71563952Y-80980619D02*
X71563952Y-80313952D01*
X71563952Y-79980619D02*
X71611571Y-80028238D01*
X71611571Y-80028238D02*
X71563952Y-80075857D01*
X71563952Y-80075857D02*
X71516333Y-80028238D01*
X71516333Y-80028238D02*
X71563952Y-79980619D01*
X71563952Y-79980619D02*
X71563952Y-80075857D01*
X70944905Y-80980619D02*
X71040143Y-80933000D01*
X71040143Y-80933000D02*
X71087762Y-80837761D01*
X71087762Y-80837761D02*
X71087762Y-79980619D01*
X70706809Y-80313952D02*
X70325857Y-80313952D01*
X70563952Y-79980619D02*
X70563952Y-80837761D01*
X70563952Y-80837761D02*
X70516333Y-80933000D01*
X70516333Y-80933000D02*
X70421095Y-80980619D01*
X70421095Y-80980619D02*
X70325857Y-80980619D01*
X69611571Y-80933000D02*
X69706809Y-80980619D01*
X69706809Y-80980619D02*
X69897285Y-80980619D01*
X69897285Y-80980619D02*
X69992523Y-80933000D01*
X69992523Y-80933000D02*
X70040142Y-80837761D01*
X70040142Y-80837761D02*
X70040142Y-80456809D01*
X70040142Y-80456809D02*
X69992523Y-80361571D01*
X69992523Y-80361571D02*
X69897285Y-80313952D01*
X69897285Y-80313952D02*
X69706809Y-80313952D01*
X69706809Y-80313952D02*
X69611571Y-80361571D01*
X69611571Y-80361571D02*
X69563952Y-80456809D01*
X69563952Y-80456809D02*
X69563952Y-80552047D01*
X69563952Y-80552047D02*
X70040142Y-80647285D01*
X69135380Y-80980619D02*
X69135380Y-80313952D01*
X69135380Y-80504428D02*
X69087761Y-80409190D01*
X69087761Y-80409190D02*
X69040142Y-80361571D01*
X69040142Y-80361571D02*
X68944904Y-80313952D01*
X68944904Y-80313952D02*
X68849666Y-80313952D01*
X67754427Y-80456809D02*
X67421094Y-80456809D01*
X67278237Y-80980619D02*
X67754427Y-80980619D01*
X67754427Y-80980619D02*
X67754427Y-79980619D01*
X67754427Y-79980619D02*
X67278237Y-79980619D01*
X66849665Y-80313952D02*
X66849665Y-80980619D01*
X66849665Y-80409190D02*
X66802046Y-80361571D01*
X66802046Y-80361571D02*
X66706808Y-80313952D01*
X66706808Y-80313952D02*
X66563951Y-80313952D01*
X66563951Y-80313952D02*
X66468713Y-80361571D01*
X66468713Y-80361571D02*
X66421094Y-80456809D01*
X66421094Y-80456809D02*
X66421094Y-80980619D01*
X66040141Y-80313952D02*
X65802046Y-80980619D01*
X65802046Y-80980619D02*
X65563951Y-80313952D01*
X64421093Y-80980619D02*
X64421093Y-79980619D01*
X64421093Y-79980619D02*
X64087760Y-80694904D01*
X64087760Y-80694904D02*
X63754427Y-79980619D01*
X63754427Y-79980619D02*
X63754427Y-80980619D01*
X63135379Y-80980619D02*
X63230617Y-80933000D01*
X63230617Y-80933000D02*
X63278236Y-80885380D01*
X63278236Y-80885380D02*
X63325855Y-80790142D01*
X63325855Y-80790142D02*
X63325855Y-80504428D01*
X63325855Y-80504428D02*
X63278236Y-80409190D01*
X63278236Y-80409190D02*
X63230617Y-80361571D01*
X63230617Y-80361571D02*
X63135379Y-80313952D01*
X63135379Y-80313952D02*
X62992522Y-80313952D01*
X62992522Y-80313952D02*
X62897284Y-80361571D01*
X62897284Y-80361571D02*
X62849665Y-80409190D01*
X62849665Y-80409190D02*
X62802046Y-80504428D01*
X62802046Y-80504428D02*
X62802046Y-80790142D01*
X62802046Y-80790142D02*
X62849665Y-80885380D01*
X62849665Y-80885380D02*
X62897284Y-80933000D01*
X62897284Y-80933000D02*
X62992522Y-80980619D01*
X62992522Y-80980619D02*
X63135379Y-80980619D01*
X61944903Y-80980619D02*
X61944903Y-79980619D01*
X61944903Y-80933000D02*
X62040141Y-80980619D01*
X62040141Y-80980619D02*
X62230617Y-80980619D01*
X62230617Y-80980619D02*
X62325855Y-80933000D01*
X62325855Y-80933000D02*
X62373474Y-80885380D01*
X62373474Y-80885380D02*
X62421093Y-80790142D01*
X62421093Y-80790142D02*
X62421093Y-80504428D01*
X62421093Y-80504428D02*
X62373474Y-80409190D01*
X62373474Y-80409190D02*
X62325855Y-80361571D01*
X62325855Y-80361571D02*
X62230617Y-80313952D01*
X62230617Y-80313952D02*
X62040141Y-80313952D01*
X62040141Y-80313952D02*
X61944903Y-80361571D01*
X121330382Y-84650238D02*
X120187525Y-84650238D01*
X120758954Y-86650238D02*
X120758954Y-84650238D01*
X119520858Y-86650238D02*
X119520858Y-84650238D01*
X118663715Y-86650238D02*
X118663715Y-85602619D01*
X118663715Y-85602619D02*
X118758953Y-85412142D01*
X118758953Y-85412142D02*
X118949429Y-85316904D01*
X118949429Y-85316904D02*
X119235144Y-85316904D01*
X119235144Y-85316904D02*
X119425620Y-85412142D01*
X119425620Y-85412142D02*
X119520858Y-85507380D01*
X117711334Y-86650238D02*
X117711334Y-85316904D01*
X117711334Y-84650238D02*
X117806572Y-84745476D01*
X117806572Y-84745476D02*
X117711334Y-84840714D01*
X117711334Y-84840714D02*
X117616096Y-84745476D01*
X117616096Y-84745476D02*
X117711334Y-84650238D01*
X117711334Y-84650238D02*
X117711334Y-84840714D01*
X116854191Y-86555000D02*
X116663715Y-86650238D01*
X116663715Y-86650238D02*
X116282763Y-86650238D01*
X116282763Y-86650238D02*
X116092286Y-86555000D01*
X116092286Y-86555000D02*
X115997048Y-86364523D01*
X115997048Y-86364523D02*
X115997048Y-86269285D01*
X115997048Y-86269285D02*
X116092286Y-86078809D01*
X116092286Y-86078809D02*
X116282763Y-85983571D01*
X116282763Y-85983571D02*
X116568477Y-85983571D01*
X116568477Y-85983571D02*
X116758953Y-85888333D01*
X116758953Y-85888333D02*
X116854191Y-85697857D01*
X116854191Y-85697857D02*
X116854191Y-85602619D01*
X116854191Y-85602619D02*
X116758953Y-85412142D01*
X116758953Y-85412142D02*
X116568477Y-85316904D01*
X116568477Y-85316904D02*
X116282763Y-85316904D01*
X116282763Y-85316904D02*
X116092286Y-85412142D01*
X113711333Y-86555000D02*
X113520857Y-86650238D01*
X113520857Y-86650238D02*
X113139905Y-86650238D01*
X113139905Y-86650238D02*
X112949428Y-86555000D01*
X112949428Y-86555000D02*
X112854190Y-86364523D01*
X112854190Y-86364523D02*
X112854190Y-86269285D01*
X112854190Y-86269285D02*
X112949428Y-86078809D01*
X112949428Y-86078809D02*
X113139905Y-85983571D01*
X113139905Y-85983571D02*
X113425619Y-85983571D01*
X113425619Y-85983571D02*
X113616095Y-85888333D01*
X113616095Y-85888333D02*
X113711333Y-85697857D01*
X113711333Y-85697857D02*
X113711333Y-85602619D01*
X113711333Y-85602619D02*
X113616095Y-85412142D01*
X113616095Y-85412142D02*
X113425619Y-85316904D01*
X113425619Y-85316904D02*
X113139905Y-85316904D01*
X113139905Y-85316904D02*
X112949428Y-85412142D01*
X111997047Y-86650238D02*
X111997047Y-85316904D01*
X111997047Y-84650238D02*
X112092285Y-84745476D01*
X112092285Y-84745476D02*
X111997047Y-84840714D01*
X111997047Y-84840714D02*
X111901809Y-84745476D01*
X111901809Y-84745476D02*
X111997047Y-84650238D01*
X111997047Y-84650238D02*
X111997047Y-84840714D01*
X110187523Y-86650238D02*
X110187523Y-84650238D01*
X110187523Y-86555000D02*
X110377999Y-86650238D01*
X110377999Y-86650238D02*
X110758952Y-86650238D01*
X110758952Y-86650238D02*
X110949428Y-86555000D01*
X110949428Y-86555000D02*
X111044666Y-86459761D01*
X111044666Y-86459761D02*
X111139904Y-86269285D01*
X111139904Y-86269285D02*
X111139904Y-85697857D01*
X111139904Y-85697857D02*
X111044666Y-85507380D01*
X111044666Y-85507380D02*
X110949428Y-85412142D01*
X110949428Y-85412142D02*
X110758952Y-85316904D01*
X110758952Y-85316904D02*
X110377999Y-85316904D01*
X110377999Y-85316904D02*
X110187523Y-85412142D01*
X108473237Y-86555000D02*
X108663713Y-86650238D01*
X108663713Y-86650238D02*
X109044666Y-86650238D01*
X109044666Y-86650238D02*
X109235142Y-86555000D01*
X109235142Y-86555000D02*
X109330380Y-86364523D01*
X109330380Y-86364523D02*
X109330380Y-85602619D01*
X109330380Y-85602619D02*
X109235142Y-85412142D01*
X109235142Y-85412142D02*
X109044666Y-85316904D01*
X109044666Y-85316904D02*
X108663713Y-85316904D01*
X108663713Y-85316904D02*
X108473237Y-85412142D01*
X108473237Y-85412142D02*
X108377999Y-85602619D01*
X108377999Y-85602619D02*
X108377999Y-85793095D01*
X108377999Y-85793095D02*
X109330380Y-85983571D01*
X106282760Y-85316904D02*
X105520856Y-85316904D01*
X105997046Y-84650238D02*
X105997046Y-86364523D01*
X105997046Y-86364523D02*
X105901808Y-86555000D01*
X105901808Y-86555000D02*
X105711332Y-86650238D01*
X105711332Y-86650238D02*
X105520856Y-86650238D01*
X104568475Y-86650238D02*
X104758951Y-86555000D01*
X104758951Y-86555000D02*
X104854189Y-86459761D01*
X104854189Y-86459761D02*
X104949427Y-86269285D01*
X104949427Y-86269285D02*
X104949427Y-85697857D01*
X104949427Y-85697857D02*
X104854189Y-85507380D01*
X104854189Y-85507380D02*
X104758951Y-85412142D01*
X104758951Y-85412142D02*
X104568475Y-85316904D01*
X104568475Y-85316904D02*
X104282760Y-85316904D01*
X104282760Y-85316904D02*
X104092284Y-85412142D01*
X104092284Y-85412142D02*
X103997046Y-85507380D01*
X103997046Y-85507380D02*
X103901808Y-85697857D01*
X103901808Y-85697857D02*
X103901808Y-86269285D01*
X103901808Y-86269285D02*
X103997046Y-86459761D01*
X103997046Y-86459761D02*
X104092284Y-86555000D01*
X104092284Y-86555000D02*
X104282760Y-86650238D01*
X104282760Y-86650238D02*
X104568475Y-86650238D01*
X103235141Y-85316904D02*
X102854189Y-86650238D01*
X102854189Y-86650238D02*
X102473236Y-85697857D01*
X102473236Y-85697857D02*
X102092284Y-86650238D01*
X102092284Y-86650238D02*
X101711332Y-85316904D01*
X100092284Y-86650238D02*
X100092284Y-85602619D01*
X100092284Y-85602619D02*
X100187522Y-85412142D01*
X100187522Y-85412142D02*
X100377998Y-85316904D01*
X100377998Y-85316904D02*
X100758951Y-85316904D01*
X100758951Y-85316904D02*
X100949427Y-85412142D01*
X100092284Y-86555000D02*
X100282760Y-86650238D01*
X100282760Y-86650238D02*
X100758951Y-86650238D01*
X100758951Y-86650238D02*
X100949427Y-86555000D01*
X100949427Y-86555000D02*
X101044665Y-86364523D01*
X101044665Y-86364523D02*
X101044665Y-86174047D01*
X101044665Y-86174047D02*
X100949427Y-85983571D01*
X100949427Y-85983571D02*
X100758951Y-85888333D01*
X100758951Y-85888333D02*
X100282760Y-85888333D01*
X100282760Y-85888333D02*
X100092284Y-85793095D01*
X99139903Y-86650238D02*
X99139903Y-85316904D01*
X99139903Y-85697857D02*
X99044665Y-85507380D01*
X99044665Y-85507380D02*
X98949427Y-85412142D01*
X98949427Y-85412142D02*
X98758951Y-85316904D01*
X98758951Y-85316904D02*
X98568474Y-85316904D01*
X97044665Y-86650238D02*
X97044665Y-84650238D01*
X97044665Y-86555000D02*
X97235141Y-86650238D01*
X97235141Y-86650238D02*
X97616094Y-86650238D01*
X97616094Y-86650238D02*
X97806570Y-86555000D01*
X97806570Y-86555000D02*
X97901808Y-86459761D01*
X97901808Y-86459761D02*
X97997046Y-86269285D01*
X97997046Y-86269285D02*
X97997046Y-85697857D01*
X97997046Y-85697857D02*
X97901808Y-85507380D01*
X97901808Y-85507380D02*
X97806570Y-85412142D01*
X97806570Y-85412142D02*
X97616094Y-85316904D01*
X97616094Y-85316904D02*
X97235141Y-85316904D01*
X97235141Y-85316904D02*
X97044665Y-85412142D01*
X96187522Y-86555000D02*
X95997046Y-86650238D01*
X95997046Y-86650238D02*
X95616094Y-86650238D01*
X95616094Y-86650238D02*
X95425617Y-86555000D01*
X95425617Y-86555000D02*
X95330379Y-86364523D01*
X95330379Y-86364523D02*
X95330379Y-86269285D01*
X95330379Y-86269285D02*
X95425617Y-86078809D01*
X95425617Y-86078809D02*
X95616094Y-85983571D01*
X95616094Y-85983571D02*
X95901808Y-85983571D01*
X95901808Y-85983571D02*
X96092284Y-85888333D01*
X96092284Y-85888333D02*
X96187522Y-85697857D01*
X96187522Y-85697857D02*
X96187522Y-85602619D01*
X96187522Y-85602619D02*
X96092284Y-85412142D01*
X96092284Y-85412142D02*
X95901808Y-85316904D01*
X95901808Y-85316904D02*
X95616094Y-85316904D01*
X95616094Y-85316904D02*
X95425617Y-85412142D01*
X92949426Y-85316904D02*
X92949426Y-87316904D01*
X92949426Y-85412142D02*
X92758950Y-85316904D01*
X92758950Y-85316904D02*
X92377997Y-85316904D01*
X92377997Y-85316904D02*
X92187521Y-85412142D01*
X92187521Y-85412142D02*
X92092283Y-85507380D01*
X92092283Y-85507380D02*
X91997045Y-85697857D01*
X91997045Y-85697857D02*
X91997045Y-86269285D01*
X91997045Y-86269285D02*
X92092283Y-86459761D01*
X92092283Y-86459761D02*
X92187521Y-86555000D01*
X92187521Y-86555000D02*
X92377997Y-86650238D01*
X92377997Y-86650238D02*
X92758950Y-86650238D01*
X92758950Y-86650238D02*
X92949426Y-86555000D01*
X90282759Y-86650238D02*
X90282759Y-85602619D01*
X90282759Y-85602619D02*
X90377997Y-85412142D01*
X90377997Y-85412142D02*
X90568473Y-85316904D01*
X90568473Y-85316904D02*
X90949426Y-85316904D01*
X90949426Y-85316904D02*
X91139902Y-85412142D01*
X90282759Y-86555000D02*
X90473235Y-86650238D01*
X90473235Y-86650238D02*
X90949426Y-86650238D01*
X90949426Y-86650238D02*
X91139902Y-86555000D01*
X91139902Y-86555000D02*
X91235140Y-86364523D01*
X91235140Y-86364523D02*
X91235140Y-86174047D01*
X91235140Y-86174047D02*
X91139902Y-85983571D01*
X91139902Y-85983571D02*
X90949426Y-85888333D01*
X90949426Y-85888333D02*
X90473235Y-85888333D01*
X90473235Y-85888333D02*
X90282759Y-85793095D01*
X89330378Y-85316904D02*
X89330378Y-86650238D01*
X89330378Y-85507380D02*
X89235140Y-85412142D01*
X89235140Y-85412142D02*
X89044664Y-85316904D01*
X89044664Y-85316904D02*
X88758949Y-85316904D01*
X88758949Y-85316904D02*
X88568473Y-85412142D01*
X88568473Y-85412142D02*
X88473235Y-85602619D01*
X88473235Y-85602619D02*
X88473235Y-86650238D01*
X86758949Y-86555000D02*
X86949425Y-86650238D01*
X86949425Y-86650238D02*
X87330378Y-86650238D01*
X87330378Y-86650238D02*
X87520854Y-86555000D01*
X87520854Y-86555000D02*
X87616092Y-86364523D01*
X87616092Y-86364523D02*
X87616092Y-85602619D01*
X87616092Y-85602619D02*
X87520854Y-85412142D01*
X87520854Y-85412142D02*
X87330378Y-85316904D01*
X87330378Y-85316904D02*
X86949425Y-85316904D01*
X86949425Y-85316904D02*
X86758949Y-85412142D01*
X86758949Y-85412142D02*
X86663711Y-85602619D01*
X86663711Y-85602619D02*
X86663711Y-85793095D01*
X86663711Y-85793095D02*
X87616092Y-85983571D01*
X85520854Y-86650238D02*
X85711330Y-86555000D01*
X85711330Y-86555000D02*
X85806568Y-86364523D01*
X85806568Y-86364523D02*
X85806568Y-84650238D01*
X72294095Y-43991904D02*
X71817905Y-43991904D01*
X72389333Y-44277619D02*
X72056000Y-43277619D01*
X72056000Y-43277619D02*
X71722667Y-44277619D01*
X71389333Y-44277619D02*
X71389333Y-43610952D01*
X71389333Y-43706190D02*
X71341714Y-43658571D01*
X71341714Y-43658571D02*
X71246476Y-43610952D01*
X71246476Y-43610952D02*
X71103619Y-43610952D01*
X71103619Y-43610952D02*
X71008381Y-43658571D01*
X71008381Y-43658571D02*
X70960762Y-43753809D01*
X70960762Y-43753809D02*
X70960762Y-44277619D01*
X70960762Y-43753809D02*
X70913143Y-43658571D01*
X70913143Y-43658571D02*
X70817905Y-43610952D01*
X70817905Y-43610952D02*
X70675048Y-43610952D01*
X70675048Y-43610952D02*
X70579809Y-43658571D01*
X70579809Y-43658571D02*
X70532190Y-43753809D01*
X70532190Y-43753809D02*
X70532190Y-44277619D01*
X70056000Y-43610952D02*
X70056000Y-44610952D01*
X70056000Y-43658571D02*
X69960762Y-43610952D01*
X69960762Y-43610952D02*
X69770286Y-43610952D01*
X69770286Y-43610952D02*
X69675048Y-43658571D01*
X69675048Y-43658571D02*
X69627429Y-43706190D01*
X69627429Y-43706190D02*
X69579810Y-43801428D01*
X69579810Y-43801428D02*
X69579810Y-44087142D01*
X69579810Y-44087142D02*
X69627429Y-44182380D01*
X69627429Y-44182380D02*
X69675048Y-44230000D01*
X69675048Y-44230000D02*
X69770286Y-44277619D01*
X69770286Y-44277619D02*
X69960762Y-44277619D01*
X69960762Y-44277619D02*
X70056000Y-44230000D01*
X68389333Y-44277619D02*
X68389333Y-43277619D01*
X68389333Y-43277619D02*
X68151238Y-43277619D01*
X68151238Y-43277619D02*
X68008381Y-43325238D01*
X68008381Y-43325238D02*
X67913143Y-43420476D01*
X67913143Y-43420476D02*
X67865524Y-43515714D01*
X67865524Y-43515714D02*
X67817905Y-43706190D01*
X67817905Y-43706190D02*
X67817905Y-43849047D01*
X67817905Y-43849047D02*
X67865524Y-44039523D01*
X67865524Y-44039523D02*
X67913143Y-44134761D01*
X67913143Y-44134761D02*
X68008381Y-44230000D01*
X68008381Y-44230000D02*
X68151238Y-44277619D01*
X68151238Y-44277619D02*
X68389333Y-44277619D01*
X67008381Y-44230000D02*
X67103619Y-44277619D01*
X67103619Y-44277619D02*
X67294095Y-44277619D01*
X67294095Y-44277619D02*
X67389333Y-44230000D01*
X67389333Y-44230000D02*
X67436952Y-44134761D01*
X67436952Y-44134761D02*
X67436952Y-43753809D01*
X67436952Y-43753809D02*
X67389333Y-43658571D01*
X67389333Y-43658571D02*
X67294095Y-43610952D01*
X67294095Y-43610952D02*
X67103619Y-43610952D01*
X67103619Y-43610952D02*
X67008381Y-43658571D01*
X67008381Y-43658571D02*
X66960762Y-43753809D01*
X66960762Y-43753809D02*
X66960762Y-43849047D01*
X66960762Y-43849047D02*
X67436952Y-43944285D01*
X66103619Y-44230000D02*
X66198857Y-44277619D01*
X66198857Y-44277619D02*
X66389333Y-44277619D01*
X66389333Y-44277619D02*
X66484571Y-44230000D01*
X66484571Y-44230000D02*
X66532190Y-44182380D01*
X66532190Y-44182380D02*
X66579809Y-44087142D01*
X66579809Y-44087142D02*
X66579809Y-43801428D01*
X66579809Y-43801428D02*
X66532190Y-43706190D01*
X66532190Y-43706190D02*
X66484571Y-43658571D01*
X66484571Y-43658571D02*
X66389333Y-43610952D01*
X66389333Y-43610952D02*
X66198857Y-43610952D01*
X66198857Y-43610952D02*
X66103619Y-43658571D01*
X65246476Y-44277619D02*
X65246476Y-43753809D01*
X65246476Y-43753809D02*
X65294095Y-43658571D01*
X65294095Y-43658571D02*
X65389333Y-43610952D01*
X65389333Y-43610952D02*
X65579809Y-43610952D01*
X65579809Y-43610952D02*
X65675047Y-43658571D01*
X65246476Y-44230000D02*
X65341714Y-44277619D01*
X65341714Y-44277619D02*
X65579809Y-44277619D01*
X65579809Y-44277619D02*
X65675047Y-44230000D01*
X65675047Y-44230000D02*
X65722666Y-44134761D01*
X65722666Y-44134761D02*
X65722666Y-44039523D01*
X65722666Y-44039523D02*
X65675047Y-43944285D01*
X65675047Y-43944285D02*
X65579809Y-43896666D01*
X65579809Y-43896666D02*
X65341714Y-43896666D01*
X65341714Y-43896666D02*
X65246476Y-43849047D01*
X64865523Y-43610952D02*
X64627428Y-44277619D01*
X64389333Y-43610952D02*
X64627428Y-44277619D01*
X64627428Y-44277619D02*
X64722666Y-44515714D01*
X64722666Y-44515714D02*
X64770285Y-44563333D01*
X64770285Y-44563333D02*
X64865523Y-44610952D01*
X62675047Y-44182380D02*
X62722666Y-44230000D01*
X62722666Y-44230000D02*
X62865523Y-44277619D01*
X62865523Y-44277619D02*
X62960761Y-44277619D01*
X62960761Y-44277619D02*
X63103618Y-44230000D01*
X63103618Y-44230000D02*
X63198856Y-44134761D01*
X63198856Y-44134761D02*
X63246475Y-44039523D01*
X63246475Y-44039523D02*
X63294094Y-43849047D01*
X63294094Y-43849047D02*
X63294094Y-43706190D01*
X63294094Y-43706190D02*
X63246475Y-43515714D01*
X63246475Y-43515714D02*
X63198856Y-43420476D01*
X63198856Y-43420476D02*
X63103618Y-43325238D01*
X63103618Y-43325238D02*
X62960761Y-43277619D01*
X62960761Y-43277619D02*
X62865523Y-43277619D01*
X62865523Y-43277619D02*
X62722666Y-43325238D01*
X62722666Y-43325238D02*
X62675047Y-43372857D01*
X62389332Y-43277619D02*
X62055999Y-44277619D01*
X62055999Y-44277619D02*
X61722666Y-43277619D01*
X42870333Y-43277619D02*
X42679857Y-43277619D01*
X42679857Y-43277619D02*
X42584619Y-43325238D01*
X42584619Y-43325238D02*
X42489381Y-43420476D01*
X42489381Y-43420476D02*
X42441762Y-43610952D01*
X42441762Y-43610952D02*
X42441762Y-43944285D01*
X42441762Y-43944285D02*
X42489381Y-44134761D01*
X42489381Y-44134761D02*
X42584619Y-44230000D01*
X42584619Y-44230000D02*
X42679857Y-44277619D01*
X42679857Y-44277619D02*
X42870333Y-44277619D01*
X42870333Y-44277619D02*
X42965571Y-44230000D01*
X42965571Y-44230000D02*
X43060809Y-44134761D01*
X43060809Y-44134761D02*
X43108428Y-43944285D01*
X43108428Y-43944285D02*
X43108428Y-43610952D01*
X43108428Y-43610952D02*
X43060809Y-43420476D01*
X43060809Y-43420476D02*
X42965571Y-43325238D01*
X42965571Y-43325238D02*
X42870333Y-43277619D01*
X41584619Y-43610952D02*
X41584619Y-44277619D01*
X42013190Y-43610952D02*
X42013190Y-44134761D01*
X42013190Y-44134761D02*
X41965571Y-44230000D01*
X41965571Y-44230000D02*
X41870333Y-44277619D01*
X41870333Y-44277619D02*
X41727476Y-44277619D01*
X41727476Y-44277619D02*
X41632238Y-44230000D01*
X41632238Y-44230000D02*
X41584619Y-44182380D01*
X41251285Y-43610952D02*
X40870333Y-43610952D01*
X41108428Y-43277619D02*
X41108428Y-44134761D01*
X41108428Y-44134761D02*
X41060809Y-44230000D01*
X41060809Y-44230000D02*
X40965571Y-44277619D01*
X40965571Y-44277619D02*
X40870333Y-44277619D01*
X110825619Y-68691523D02*
X110349428Y-68358190D01*
X110825619Y-68120095D02*
X109825619Y-68120095D01*
X109825619Y-68120095D02*
X109825619Y-68501047D01*
X109825619Y-68501047D02*
X109873238Y-68596285D01*
X109873238Y-68596285D02*
X109920857Y-68643904D01*
X109920857Y-68643904D02*
X110016095Y-68691523D01*
X110016095Y-68691523D02*
X110158952Y-68691523D01*
X110158952Y-68691523D02*
X110254190Y-68643904D01*
X110254190Y-68643904D02*
X110301809Y-68596285D01*
X110301809Y-68596285D02*
X110349428Y-68501047D01*
X110349428Y-68501047D02*
X110349428Y-68120095D01*
X110778000Y-69501047D02*
X110825619Y-69405809D01*
X110825619Y-69405809D02*
X110825619Y-69215333D01*
X110825619Y-69215333D02*
X110778000Y-69120095D01*
X110778000Y-69120095D02*
X110682761Y-69072476D01*
X110682761Y-69072476D02*
X110301809Y-69072476D01*
X110301809Y-69072476D02*
X110206571Y-69120095D01*
X110206571Y-69120095D02*
X110158952Y-69215333D01*
X110158952Y-69215333D02*
X110158952Y-69405809D01*
X110158952Y-69405809D02*
X110206571Y-69501047D01*
X110206571Y-69501047D02*
X110301809Y-69548666D01*
X110301809Y-69548666D02*
X110397047Y-69548666D01*
X110397047Y-69548666D02*
X110492285Y-69072476D01*
X110778000Y-69929619D02*
X110825619Y-70024857D01*
X110825619Y-70024857D02*
X110825619Y-70215333D01*
X110825619Y-70215333D02*
X110778000Y-70310571D01*
X110778000Y-70310571D02*
X110682761Y-70358190D01*
X110682761Y-70358190D02*
X110635142Y-70358190D01*
X110635142Y-70358190D02*
X110539904Y-70310571D01*
X110539904Y-70310571D02*
X110492285Y-70215333D01*
X110492285Y-70215333D02*
X110492285Y-70072476D01*
X110492285Y-70072476D02*
X110444666Y-69977238D01*
X110444666Y-69977238D02*
X110349428Y-69929619D01*
X110349428Y-69929619D02*
X110301809Y-69929619D01*
X110301809Y-69929619D02*
X110206571Y-69977238D01*
X110206571Y-69977238D02*
X110158952Y-70072476D01*
X110158952Y-70072476D02*
X110158952Y-70215333D01*
X110158952Y-70215333D02*
X110206571Y-70310571D01*
X110825619Y-70929619D02*
X110778000Y-70834381D01*
X110778000Y-70834381D02*
X110730380Y-70786762D01*
X110730380Y-70786762D02*
X110635142Y-70739143D01*
X110635142Y-70739143D02*
X110349428Y-70739143D01*
X110349428Y-70739143D02*
X110254190Y-70786762D01*
X110254190Y-70786762D02*
X110206571Y-70834381D01*
X110206571Y-70834381D02*
X110158952Y-70929619D01*
X110158952Y-70929619D02*
X110158952Y-71072476D01*
X110158952Y-71072476D02*
X110206571Y-71167714D01*
X110206571Y-71167714D02*
X110254190Y-71215333D01*
X110254190Y-71215333D02*
X110349428Y-71262952D01*
X110349428Y-71262952D02*
X110635142Y-71262952D01*
X110635142Y-71262952D02*
X110730380Y-71215333D01*
X110730380Y-71215333D02*
X110778000Y-71167714D01*
X110778000Y-71167714D02*
X110825619Y-71072476D01*
X110825619Y-71072476D02*
X110825619Y-70929619D01*
X110158952Y-71691524D02*
X110825619Y-71691524D01*
X110254190Y-71691524D02*
X110206571Y-71739143D01*
X110206571Y-71739143D02*
X110158952Y-71834381D01*
X110158952Y-71834381D02*
X110158952Y-71977238D01*
X110158952Y-71977238D02*
X110206571Y-72072476D01*
X110206571Y-72072476D02*
X110301809Y-72120095D01*
X110301809Y-72120095D02*
X110825619Y-72120095D01*
X110825619Y-73024857D02*
X110301809Y-73024857D01*
X110301809Y-73024857D02*
X110206571Y-72977238D01*
X110206571Y-72977238D02*
X110158952Y-72882000D01*
X110158952Y-72882000D02*
X110158952Y-72691524D01*
X110158952Y-72691524D02*
X110206571Y-72596286D01*
X110778000Y-73024857D02*
X110825619Y-72929619D01*
X110825619Y-72929619D02*
X110825619Y-72691524D01*
X110825619Y-72691524D02*
X110778000Y-72596286D01*
X110778000Y-72596286D02*
X110682761Y-72548667D01*
X110682761Y-72548667D02*
X110587523Y-72548667D01*
X110587523Y-72548667D02*
X110492285Y-72596286D01*
X110492285Y-72596286D02*
X110444666Y-72691524D01*
X110444666Y-72691524D02*
X110444666Y-72929619D01*
X110444666Y-72929619D02*
X110397047Y-73024857D01*
X110158952Y-73501048D02*
X110825619Y-73501048D01*
X110254190Y-73501048D02*
X110206571Y-73548667D01*
X110206571Y-73548667D02*
X110158952Y-73643905D01*
X110158952Y-73643905D02*
X110158952Y-73786762D01*
X110158952Y-73786762D02*
X110206571Y-73882000D01*
X110206571Y-73882000D02*
X110301809Y-73929619D01*
X110301809Y-73929619D02*
X110825619Y-73929619D01*
X110778000Y-74834381D02*
X110825619Y-74739143D01*
X110825619Y-74739143D02*
X110825619Y-74548667D01*
X110825619Y-74548667D02*
X110778000Y-74453429D01*
X110778000Y-74453429D02*
X110730380Y-74405810D01*
X110730380Y-74405810D02*
X110635142Y-74358191D01*
X110635142Y-74358191D02*
X110349428Y-74358191D01*
X110349428Y-74358191D02*
X110254190Y-74405810D01*
X110254190Y-74405810D02*
X110206571Y-74453429D01*
X110206571Y-74453429D02*
X110158952Y-74548667D01*
X110158952Y-74548667D02*
X110158952Y-74739143D01*
X110158952Y-74739143D02*
X110206571Y-74834381D01*
X110778000Y-75643905D02*
X110825619Y-75548667D01*
X110825619Y-75548667D02*
X110825619Y-75358191D01*
X110825619Y-75358191D02*
X110778000Y-75262953D01*
X110778000Y-75262953D02*
X110682761Y-75215334D01*
X110682761Y-75215334D02*
X110301809Y-75215334D01*
X110301809Y-75215334D02*
X110206571Y-75262953D01*
X110206571Y-75262953D02*
X110158952Y-75358191D01*
X110158952Y-75358191D02*
X110158952Y-75548667D01*
X110158952Y-75548667D02*
X110206571Y-75643905D01*
X110206571Y-75643905D02*
X110301809Y-75691524D01*
X110301809Y-75691524D02*
X110397047Y-75691524D01*
X110397047Y-75691524D02*
X110492285Y-75215334D01*
X120459190Y-43277619D02*
X119887762Y-43277619D01*
X120173476Y-44277619D02*
X120173476Y-43277619D01*
X119554428Y-44277619D02*
X119554428Y-43610952D01*
X119554428Y-43801428D02*
X119506809Y-43706190D01*
X119506809Y-43706190D02*
X119459190Y-43658571D01*
X119459190Y-43658571D02*
X119363952Y-43610952D01*
X119363952Y-43610952D02*
X119268714Y-43610952D01*
X118935380Y-44277619D02*
X118935380Y-43610952D01*
X118935380Y-43277619D02*
X118982999Y-43325238D01*
X118982999Y-43325238D02*
X118935380Y-43372857D01*
X118935380Y-43372857D02*
X118887761Y-43325238D01*
X118887761Y-43325238D02*
X118935380Y-43277619D01*
X118935380Y-43277619D02*
X118935380Y-43372857D01*
X118030619Y-43610952D02*
X118030619Y-44420476D01*
X118030619Y-44420476D02*
X118078238Y-44515714D01*
X118078238Y-44515714D02*
X118125857Y-44563333D01*
X118125857Y-44563333D02*
X118221095Y-44610952D01*
X118221095Y-44610952D02*
X118363952Y-44610952D01*
X118363952Y-44610952D02*
X118459190Y-44563333D01*
X118030619Y-44230000D02*
X118125857Y-44277619D01*
X118125857Y-44277619D02*
X118316333Y-44277619D01*
X118316333Y-44277619D02*
X118411571Y-44230000D01*
X118411571Y-44230000D02*
X118459190Y-44182380D01*
X118459190Y-44182380D02*
X118506809Y-44087142D01*
X118506809Y-44087142D02*
X118506809Y-43801428D01*
X118506809Y-43801428D02*
X118459190Y-43706190D01*
X118459190Y-43706190D02*
X118411571Y-43658571D01*
X118411571Y-43658571D02*
X118316333Y-43610952D01*
X118316333Y-43610952D02*
X118125857Y-43610952D01*
X118125857Y-43610952D02*
X118030619Y-43658571D01*
X117125857Y-43610952D02*
X117125857Y-44420476D01*
X117125857Y-44420476D02*
X117173476Y-44515714D01*
X117173476Y-44515714D02*
X117221095Y-44563333D01*
X117221095Y-44563333D02*
X117316333Y-44610952D01*
X117316333Y-44610952D02*
X117459190Y-44610952D01*
X117459190Y-44610952D02*
X117554428Y-44563333D01*
X117125857Y-44230000D02*
X117221095Y-44277619D01*
X117221095Y-44277619D02*
X117411571Y-44277619D01*
X117411571Y-44277619D02*
X117506809Y-44230000D01*
X117506809Y-44230000D02*
X117554428Y-44182380D01*
X117554428Y-44182380D02*
X117602047Y-44087142D01*
X117602047Y-44087142D02*
X117602047Y-43801428D01*
X117602047Y-43801428D02*
X117554428Y-43706190D01*
X117554428Y-43706190D02*
X117506809Y-43658571D01*
X117506809Y-43658571D02*
X117411571Y-43610952D01*
X117411571Y-43610952D02*
X117221095Y-43610952D01*
X117221095Y-43610952D02*
X117125857Y-43658571D01*
X116268714Y-44230000D02*
X116363952Y-44277619D01*
X116363952Y-44277619D02*
X116554428Y-44277619D01*
X116554428Y-44277619D02*
X116649666Y-44230000D01*
X116649666Y-44230000D02*
X116697285Y-44134761D01*
X116697285Y-44134761D02*
X116697285Y-43753809D01*
X116697285Y-43753809D02*
X116649666Y-43658571D01*
X116649666Y-43658571D02*
X116554428Y-43610952D01*
X116554428Y-43610952D02*
X116363952Y-43610952D01*
X116363952Y-43610952D02*
X116268714Y-43658571D01*
X116268714Y-43658571D02*
X116221095Y-43753809D01*
X116221095Y-43753809D02*
X116221095Y-43849047D01*
X116221095Y-43849047D02*
X116697285Y-43944285D01*
X115792523Y-44277619D02*
X115792523Y-43610952D01*
X115792523Y-43801428D02*
X115744904Y-43706190D01*
X115744904Y-43706190D02*
X115697285Y-43658571D01*
X115697285Y-43658571D02*
X115602047Y-43610952D01*
X115602047Y-43610952D02*
X115506809Y-43610952D01*
X97400477Y-43753809D02*
X97733810Y-43753809D01*
X97733810Y-44277619D02*
X97733810Y-43277619D01*
X97733810Y-43277619D02*
X97257620Y-43277619D01*
X96876667Y-44277619D02*
X96876667Y-43610952D01*
X96876667Y-43277619D02*
X96924286Y-43325238D01*
X96924286Y-43325238D02*
X96876667Y-43372857D01*
X96876667Y-43372857D02*
X96829048Y-43325238D01*
X96829048Y-43325238D02*
X96876667Y-43277619D01*
X96876667Y-43277619D02*
X96876667Y-43372857D01*
X96257620Y-44277619D02*
X96352858Y-44230000D01*
X96352858Y-44230000D02*
X96400477Y-44134761D01*
X96400477Y-44134761D02*
X96400477Y-43277619D01*
X96019524Y-43610952D02*
X95638572Y-43610952D01*
X95876667Y-43277619D02*
X95876667Y-44134761D01*
X95876667Y-44134761D02*
X95829048Y-44230000D01*
X95829048Y-44230000D02*
X95733810Y-44277619D01*
X95733810Y-44277619D02*
X95638572Y-44277619D01*
X94924286Y-44230000D02*
X95019524Y-44277619D01*
X95019524Y-44277619D02*
X95210000Y-44277619D01*
X95210000Y-44277619D02*
X95305238Y-44230000D01*
X95305238Y-44230000D02*
X95352857Y-44134761D01*
X95352857Y-44134761D02*
X95352857Y-43753809D01*
X95352857Y-43753809D02*
X95305238Y-43658571D01*
X95305238Y-43658571D02*
X95210000Y-43610952D01*
X95210000Y-43610952D02*
X95019524Y-43610952D01*
X95019524Y-43610952D02*
X94924286Y-43658571D01*
X94924286Y-43658571D02*
X94876667Y-43753809D01*
X94876667Y-43753809D02*
X94876667Y-43849047D01*
X94876667Y-43849047D02*
X95352857Y-43944285D01*
X94448095Y-44277619D02*
X94448095Y-43610952D01*
X94448095Y-43801428D02*
X94400476Y-43706190D01*
X94400476Y-43706190D02*
X94352857Y-43658571D01*
X94352857Y-43658571D02*
X94257619Y-43610952D01*
X94257619Y-43610952D02*
X94162381Y-43610952D01*
X92733809Y-43753809D02*
X93067142Y-43753809D01*
X93067142Y-44277619D02*
X93067142Y-43277619D01*
X93067142Y-43277619D02*
X92590952Y-43277619D01*
X92209999Y-44277619D02*
X92209999Y-43610952D01*
X92209999Y-43801428D02*
X92162380Y-43706190D01*
X92162380Y-43706190D02*
X92114761Y-43658571D01*
X92114761Y-43658571D02*
X92019523Y-43610952D01*
X92019523Y-43610952D02*
X91924285Y-43610952D01*
X91209999Y-44230000D02*
X91305237Y-44277619D01*
X91305237Y-44277619D02*
X91495713Y-44277619D01*
X91495713Y-44277619D02*
X91590951Y-44230000D01*
X91590951Y-44230000D02*
X91638570Y-44134761D01*
X91638570Y-44134761D02*
X91638570Y-43753809D01*
X91638570Y-43753809D02*
X91590951Y-43658571D01*
X91590951Y-43658571D02*
X91495713Y-43610952D01*
X91495713Y-43610952D02*
X91305237Y-43610952D01*
X91305237Y-43610952D02*
X91209999Y-43658571D01*
X91209999Y-43658571D02*
X91162380Y-43753809D01*
X91162380Y-43753809D02*
X91162380Y-43849047D01*
X91162380Y-43849047D02*
X91638570Y-43944285D01*
X90305237Y-43610952D02*
X90305237Y-44610952D01*
X90305237Y-44230000D02*
X90400475Y-44277619D01*
X90400475Y-44277619D02*
X90590951Y-44277619D01*
X90590951Y-44277619D02*
X90686189Y-44230000D01*
X90686189Y-44230000D02*
X90733808Y-44182380D01*
X90733808Y-44182380D02*
X90781427Y-44087142D01*
X90781427Y-44087142D02*
X90781427Y-43801428D01*
X90781427Y-43801428D02*
X90733808Y-43706190D01*
X90733808Y-43706190D02*
X90686189Y-43658571D01*
X90686189Y-43658571D02*
X90590951Y-43610952D01*
X90590951Y-43610952D02*
X90400475Y-43610952D01*
X90400475Y-43610952D02*
X90305237Y-43658571D01*
X88495713Y-44182380D02*
X88543332Y-44230000D01*
X88543332Y-44230000D02*
X88686189Y-44277619D01*
X88686189Y-44277619D02*
X88781427Y-44277619D01*
X88781427Y-44277619D02*
X88924284Y-44230000D01*
X88924284Y-44230000D02*
X89019522Y-44134761D01*
X89019522Y-44134761D02*
X89067141Y-44039523D01*
X89067141Y-44039523D02*
X89114760Y-43849047D01*
X89114760Y-43849047D02*
X89114760Y-43706190D01*
X89114760Y-43706190D02*
X89067141Y-43515714D01*
X89067141Y-43515714D02*
X89019522Y-43420476D01*
X89019522Y-43420476D02*
X88924284Y-43325238D01*
X88924284Y-43325238D02*
X88781427Y-43277619D01*
X88781427Y-43277619D02*
X88686189Y-43277619D01*
X88686189Y-43277619D02*
X88543332Y-43325238D01*
X88543332Y-43325238D02*
X88495713Y-43372857D01*
X88209998Y-43277619D02*
X87876665Y-44277619D01*
X87876665Y-44277619D02*
X87543332Y-43277619D01*
X115902953Y-89727809D02*
X116236286Y-89727809D01*
X116236286Y-90251619D02*
X116236286Y-89251619D01*
X116236286Y-89251619D02*
X115760096Y-89251619D01*
X115379143Y-90251619D02*
X115379143Y-89584952D01*
X115379143Y-89251619D02*
X115426762Y-89299238D01*
X115426762Y-89299238D02*
X115379143Y-89346857D01*
X115379143Y-89346857D02*
X115331524Y-89299238D01*
X115331524Y-89299238D02*
X115379143Y-89251619D01*
X115379143Y-89251619D02*
X115379143Y-89346857D01*
X114760096Y-90251619D02*
X114855334Y-90204000D01*
X114855334Y-90204000D02*
X114902953Y-90108761D01*
X114902953Y-90108761D02*
X114902953Y-89251619D01*
X114522000Y-89584952D02*
X114141048Y-89584952D01*
X114379143Y-89251619D02*
X114379143Y-90108761D01*
X114379143Y-90108761D02*
X114331524Y-90204000D01*
X114331524Y-90204000D02*
X114236286Y-90251619D01*
X114236286Y-90251619D02*
X114141048Y-90251619D01*
X113426762Y-90204000D02*
X113522000Y-90251619D01*
X113522000Y-90251619D02*
X113712476Y-90251619D01*
X113712476Y-90251619D02*
X113807714Y-90204000D01*
X113807714Y-90204000D02*
X113855333Y-90108761D01*
X113855333Y-90108761D02*
X113855333Y-89727809D01*
X113855333Y-89727809D02*
X113807714Y-89632571D01*
X113807714Y-89632571D02*
X113712476Y-89584952D01*
X113712476Y-89584952D02*
X113522000Y-89584952D01*
X113522000Y-89584952D02*
X113426762Y-89632571D01*
X113426762Y-89632571D02*
X113379143Y-89727809D01*
X113379143Y-89727809D02*
X113379143Y-89823047D01*
X113379143Y-89823047D02*
X113855333Y-89918285D01*
X112950571Y-90251619D02*
X112950571Y-89584952D01*
X112950571Y-89775428D02*
X112902952Y-89680190D01*
X112902952Y-89680190D02*
X112855333Y-89632571D01*
X112855333Y-89632571D02*
X112760095Y-89584952D01*
X112760095Y-89584952D02*
X112664857Y-89584952D01*
X111236285Y-89727809D02*
X111569618Y-89727809D01*
X111569618Y-90251619D02*
X111569618Y-89251619D01*
X111569618Y-89251619D02*
X111093428Y-89251619D01*
X110712475Y-90251619D02*
X110712475Y-89584952D01*
X110712475Y-89775428D02*
X110664856Y-89680190D01*
X110664856Y-89680190D02*
X110617237Y-89632571D01*
X110617237Y-89632571D02*
X110521999Y-89584952D01*
X110521999Y-89584952D02*
X110426761Y-89584952D01*
X109712475Y-90204000D02*
X109807713Y-90251619D01*
X109807713Y-90251619D02*
X109998189Y-90251619D01*
X109998189Y-90251619D02*
X110093427Y-90204000D01*
X110093427Y-90204000D02*
X110141046Y-90108761D01*
X110141046Y-90108761D02*
X110141046Y-89727809D01*
X110141046Y-89727809D02*
X110093427Y-89632571D01*
X110093427Y-89632571D02*
X109998189Y-89584952D01*
X109998189Y-89584952D02*
X109807713Y-89584952D01*
X109807713Y-89584952D02*
X109712475Y-89632571D01*
X109712475Y-89632571D02*
X109664856Y-89727809D01*
X109664856Y-89727809D02*
X109664856Y-89823047D01*
X109664856Y-89823047D02*
X110141046Y-89918285D01*
X108807713Y-89584952D02*
X108807713Y-90584952D01*
X108807713Y-90204000D02*
X108902951Y-90251619D01*
X108902951Y-90251619D02*
X109093427Y-90251619D01*
X109093427Y-90251619D02*
X109188665Y-90204000D01*
X109188665Y-90204000D02*
X109236284Y-90156380D01*
X109236284Y-90156380D02*
X109283903Y-90061142D01*
X109283903Y-90061142D02*
X109283903Y-89775428D01*
X109283903Y-89775428D02*
X109236284Y-89680190D01*
X109236284Y-89680190D02*
X109188665Y-89632571D01*
X109188665Y-89632571D02*
X109093427Y-89584952D01*
X109093427Y-89584952D02*
X108902951Y-89584952D01*
X108902951Y-89584952D02*
X108807713Y-89632571D01*
X67661619Y-49538380D02*
X67661619Y-49728856D01*
X67661619Y-49728856D02*
X67709238Y-49824094D01*
X67709238Y-49824094D02*
X67804476Y-49919332D01*
X67804476Y-49919332D02*
X67994952Y-49966951D01*
X67994952Y-49966951D02*
X68328285Y-49966951D01*
X68328285Y-49966951D02*
X68518761Y-49919332D01*
X68518761Y-49919332D02*
X68614000Y-49824094D01*
X68614000Y-49824094D02*
X68661619Y-49728856D01*
X68661619Y-49728856D02*
X68661619Y-49538380D01*
X68661619Y-49538380D02*
X68614000Y-49443142D01*
X68614000Y-49443142D02*
X68518761Y-49347904D01*
X68518761Y-49347904D02*
X68328285Y-49300285D01*
X68328285Y-49300285D02*
X67994952Y-49300285D01*
X67994952Y-49300285D02*
X67804476Y-49347904D01*
X67804476Y-49347904D02*
X67709238Y-49443142D01*
X67709238Y-49443142D02*
X67661619Y-49538380D01*
X68614000Y-50347904D02*
X68661619Y-50490761D01*
X68661619Y-50490761D02*
X68661619Y-50728856D01*
X68661619Y-50728856D02*
X68614000Y-50824094D01*
X68614000Y-50824094D02*
X68566380Y-50871713D01*
X68566380Y-50871713D02*
X68471142Y-50919332D01*
X68471142Y-50919332D02*
X68375904Y-50919332D01*
X68375904Y-50919332D02*
X68280666Y-50871713D01*
X68280666Y-50871713D02*
X68233047Y-50824094D01*
X68233047Y-50824094D02*
X68185428Y-50728856D01*
X68185428Y-50728856D02*
X68137809Y-50538380D01*
X68137809Y-50538380D02*
X68090190Y-50443142D01*
X68090190Y-50443142D02*
X68042571Y-50395523D01*
X68042571Y-50395523D02*
X67947333Y-50347904D01*
X67947333Y-50347904D02*
X67852095Y-50347904D01*
X67852095Y-50347904D02*
X67756857Y-50395523D01*
X67756857Y-50395523D02*
X67709238Y-50443142D01*
X67709238Y-50443142D02*
X67661619Y-50538380D01*
X67661619Y-50538380D02*
X67661619Y-50776475D01*
X67661619Y-50776475D02*
X67709238Y-50919332D01*
X68566380Y-51919332D02*
X68614000Y-51871713D01*
X68614000Y-51871713D02*
X68661619Y-51728856D01*
X68661619Y-51728856D02*
X68661619Y-51633618D01*
X68661619Y-51633618D02*
X68614000Y-51490761D01*
X68614000Y-51490761D02*
X68518761Y-51395523D01*
X68518761Y-51395523D02*
X68423523Y-51347904D01*
X68423523Y-51347904D02*
X68233047Y-51300285D01*
X68233047Y-51300285D02*
X68090190Y-51300285D01*
X68090190Y-51300285D02*
X67899714Y-51347904D01*
X67899714Y-51347904D02*
X67804476Y-51395523D01*
X67804476Y-51395523D02*
X67709238Y-51490761D01*
X67709238Y-51490761D02*
X67661619Y-51633618D01*
X67661619Y-51633618D02*
X67661619Y-51728856D01*
X67661619Y-51728856D02*
X67709238Y-51871713D01*
X67709238Y-51871713D02*
X67756857Y-51919332D01*
X68661619Y-52871713D02*
X68661619Y-52300285D01*
X68661619Y-52585999D02*
X67661619Y-52585999D01*
X67661619Y-52585999D02*
X67804476Y-52490761D01*
X67804476Y-52490761D02*
X67899714Y-52395523D01*
X67899714Y-52395523D02*
X67947333Y-52300285D01*
X68137809Y-54395523D02*
X68137809Y-54062190D01*
X68661619Y-54062190D02*
X67661619Y-54062190D01*
X67661619Y-54062190D02*
X67661619Y-54538380D01*
X68661619Y-54919333D02*
X67994952Y-54919333D01*
X68185428Y-54919333D02*
X68090190Y-54966952D01*
X68090190Y-54966952D02*
X68042571Y-55014571D01*
X68042571Y-55014571D02*
X67994952Y-55109809D01*
X67994952Y-55109809D02*
X67994952Y-55205047D01*
X68614000Y-55919333D02*
X68661619Y-55824095D01*
X68661619Y-55824095D02*
X68661619Y-55633619D01*
X68661619Y-55633619D02*
X68614000Y-55538381D01*
X68614000Y-55538381D02*
X68518761Y-55490762D01*
X68518761Y-55490762D02*
X68137809Y-55490762D01*
X68137809Y-55490762D02*
X68042571Y-55538381D01*
X68042571Y-55538381D02*
X67994952Y-55633619D01*
X67994952Y-55633619D02*
X67994952Y-55824095D01*
X67994952Y-55824095D02*
X68042571Y-55919333D01*
X68042571Y-55919333D02*
X68137809Y-55966952D01*
X68137809Y-55966952D02*
X68233047Y-55966952D01*
X68233047Y-55966952D02*
X68328285Y-55490762D01*
X67994952Y-56824095D02*
X68994952Y-56824095D01*
X68614000Y-56824095D02*
X68661619Y-56728857D01*
X68661619Y-56728857D02*
X68661619Y-56538381D01*
X68661619Y-56538381D02*
X68614000Y-56443143D01*
X68614000Y-56443143D02*
X68566380Y-56395524D01*
X68566380Y-56395524D02*
X68471142Y-56347905D01*
X68471142Y-56347905D02*
X68185428Y-56347905D01*
X68185428Y-56347905D02*
X68090190Y-56395524D01*
X68090190Y-56395524D02*
X68042571Y-56443143D01*
X68042571Y-56443143D02*
X67994952Y-56538381D01*
X67994952Y-56538381D02*
X67994952Y-56728857D01*
X67994952Y-56728857D02*
X68042571Y-56824095D01*
X124684619Y-47323952D02*
X124684619Y-47514428D01*
X124684619Y-47514428D02*
X124732238Y-47609666D01*
X124732238Y-47609666D02*
X124827476Y-47704904D01*
X124827476Y-47704904D02*
X125017952Y-47752523D01*
X125017952Y-47752523D02*
X125351285Y-47752523D01*
X125351285Y-47752523D02*
X125541761Y-47704904D01*
X125541761Y-47704904D02*
X125637000Y-47609666D01*
X125637000Y-47609666D02*
X125684619Y-47514428D01*
X125684619Y-47514428D02*
X125684619Y-47323952D01*
X125684619Y-47323952D02*
X125637000Y-47228714D01*
X125637000Y-47228714D02*
X125541761Y-47133476D01*
X125541761Y-47133476D02*
X125351285Y-47085857D01*
X125351285Y-47085857D02*
X125017952Y-47085857D01*
X125017952Y-47085857D02*
X124827476Y-47133476D01*
X124827476Y-47133476D02*
X124732238Y-47228714D01*
X124732238Y-47228714D02*
X124684619Y-47323952D01*
X125637000Y-48133476D02*
X125684619Y-48276333D01*
X125684619Y-48276333D02*
X125684619Y-48514428D01*
X125684619Y-48514428D02*
X125637000Y-48609666D01*
X125637000Y-48609666D02*
X125589380Y-48657285D01*
X125589380Y-48657285D02*
X125494142Y-48704904D01*
X125494142Y-48704904D02*
X125398904Y-48704904D01*
X125398904Y-48704904D02*
X125303666Y-48657285D01*
X125303666Y-48657285D02*
X125256047Y-48609666D01*
X125256047Y-48609666D02*
X125208428Y-48514428D01*
X125208428Y-48514428D02*
X125160809Y-48323952D01*
X125160809Y-48323952D02*
X125113190Y-48228714D01*
X125113190Y-48228714D02*
X125065571Y-48181095D01*
X125065571Y-48181095D02*
X124970333Y-48133476D01*
X124970333Y-48133476D02*
X124875095Y-48133476D01*
X124875095Y-48133476D02*
X124779857Y-48181095D01*
X124779857Y-48181095D02*
X124732238Y-48228714D01*
X124732238Y-48228714D02*
X124684619Y-48323952D01*
X124684619Y-48323952D02*
X124684619Y-48562047D01*
X124684619Y-48562047D02*
X124732238Y-48704904D01*
X125589380Y-49704904D02*
X125637000Y-49657285D01*
X125637000Y-49657285D02*
X125684619Y-49514428D01*
X125684619Y-49514428D02*
X125684619Y-49419190D01*
X125684619Y-49419190D02*
X125637000Y-49276333D01*
X125637000Y-49276333D02*
X125541761Y-49181095D01*
X125541761Y-49181095D02*
X125446523Y-49133476D01*
X125446523Y-49133476D02*
X125256047Y-49085857D01*
X125256047Y-49085857D02*
X125113190Y-49085857D01*
X125113190Y-49085857D02*
X124922714Y-49133476D01*
X124922714Y-49133476D02*
X124827476Y-49181095D01*
X124827476Y-49181095D02*
X124732238Y-49276333D01*
X124732238Y-49276333D02*
X124684619Y-49419190D01*
X124684619Y-49419190D02*
X124684619Y-49514428D01*
X124684619Y-49514428D02*
X124732238Y-49657285D01*
X124732238Y-49657285D02*
X124779857Y-49704904D01*
X125684619Y-50657285D02*
X125684619Y-50085857D01*
X125684619Y-50371571D02*
X124684619Y-50371571D01*
X124684619Y-50371571D02*
X124827476Y-50276333D01*
X124827476Y-50276333D02*
X124922714Y-50181095D01*
X124922714Y-50181095D02*
X124970333Y-50085857D01*
X124684619Y-51704905D02*
X125684619Y-52038238D01*
X125684619Y-52038238D02*
X124684619Y-52371571D01*
X125684619Y-52847762D02*
X125637000Y-52752524D01*
X125637000Y-52752524D02*
X125589380Y-52704905D01*
X125589380Y-52704905D02*
X125494142Y-52657286D01*
X125494142Y-52657286D02*
X125208428Y-52657286D01*
X125208428Y-52657286D02*
X125113190Y-52704905D01*
X125113190Y-52704905D02*
X125065571Y-52752524D01*
X125065571Y-52752524D02*
X125017952Y-52847762D01*
X125017952Y-52847762D02*
X125017952Y-52990619D01*
X125017952Y-52990619D02*
X125065571Y-53085857D01*
X125065571Y-53085857D02*
X125113190Y-53133476D01*
X125113190Y-53133476D02*
X125208428Y-53181095D01*
X125208428Y-53181095D02*
X125494142Y-53181095D01*
X125494142Y-53181095D02*
X125589380Y-53133476D01*
X125589380Y-53133476D02*
X125637000Y-53085857D01*
X125637000Y-53085857D02*
X125684619Y-52990619D01*
X125684619Y-52990619D02*
X125684619Y-52847762D01*
X125684619Y-53752524D02*
X125637000Y-53657286D01*
X125637000Y-53657286D02*
X125541761Y-53609667D01*
X125541761Y-53609667D02*
X124684619Y-53609667D01*
X125017952Y-54562048D02*
X125684619Y-54562048D01*
X125017952Y-54133477D02*
X125541761Y-54133477D01*
X125541761Y-54133477D02*
X125637000Y-54181096D01*
X125637000Y-54181096D02*
X125684619Y-54276334D01*
X125684619Y-54276334D02*
X125684619Y-54419191D01*
X125684619Y-54419191D02*
X125637000Y-54514429D01*
X125637000Y-54514429D02*
X125589380Y-54562048D01*
X125684619Y-55038239D02*
X125017952Y-55038239D01*
X125113190Y-55038239D02*
X125065571Y-55085858D01*
X125065571Y-55085858D02*
X125017952Y-55181096D01*
X125017952Y-55181096D02*
X125017952Y-55323953D01*
X125017952Y-55323953D02*
X125065571Y-55419191D01*
X125065571Y-55419191D02*
X125160809Y-55466810D01*
X125160809Y-55466810D02*
X125684619Y-55466810D01*
X125160809Y-55466810D02*
X125065571Y-55514429D01*
X125065571Y-55514429D02*
X125017952Y-55609667D01*
X125017952Y-55609667D02*
X125017952Y-55752524D01*
X125017952Y-55752524D02*
X125065571Y-55847763D01*
X125065571Y-55847763D02*
X125160809Y-55895382D01*
X125160809Y-55895382D02*
X125684619Y-55895382D01*
X125637000Y-56752524D02*
X125684619Y-56657286D01*
X125684619Y-56657286D02*
X125684619Y-56466810D01*
X125684619Y-56466810D02*
X125637000Y-56371572D01*
X125637000Y-56371572D02*
X125541761Y-56323953D01*
X125541761Y-56323953D02*
X125160809Y-56323953D01*
X125160809Y-56323953D02*
X125065571Y-56371572D01*
X125065571Y-56371572D02*
X125017952Y-56466810D01*
X125017952Y-56466810D02*
X125017952Y-56657286D01*
X125017952Y-56657286D02*
X125065571Y-56752524D01*
X125065571Y-56752524D02*
X125160809Y-56800143D01*
X125160809Y-56800143D02*
X125256047Y-56800143D01*
X125256047Y-56800143D02*
X125351285Y-56323953D01*
X89947048Y-89854809D02*
X90280381Y-89854809D01*
X90280381Y-90378619D02*
X90280381Y-89378619D01*
X90280381Y-89378619D02*
X89804191Y-89378619D01*
X89423238Y-90378619D02*
X89423238Y-89711952D01*
X89423238Y-89378619D02*
X89470857Y-89426238D01*
X89470857Y-89426238D02*
X89423238Y-89473857D01*
X89423238Y-89473857D02*
X89375619Y-89426238D01*
X89375619Y-89426238D02*
X89423238Y-89378619D01*
X89423238Y-89378619D02*
X89423238Y-89473857D01*
X88804191Y-90378619D02*
X88899429Y-90331000D01*
X88899429Y-90331000D02*
X88947048Y-90235761D01*
X88947048Y-90235761D02*
X88947048Y-89378619D01*
X88566095Y-89711952D02*
X88185143Y-89711952D01*
X88423238Y-89378619D02*
X88423238Y-90235761D01*
X88423238Y-90235761D02*
X88375619Y-90331000D01*
X88375619Y-90331000D02*
X88280381Y-90378619D01*
X88280381Y-90378619D02*
X88185143Y-90378619D01*
X87470857Y-90331000D02*
X87566095Y-90378619D01*
X87566095Y-90378619D02*
X87756571Y-90378619D01*
X87756571Y-90378619D02*
X87851809Y-90331000D01*
X87851809Y-90331000D02*
X87899428Y-90235761D01*
X87899428Y-90235761D02*
X87899428Y-89854809D01*
X87899428Y-89854809D02*
X87851809Y-89759571D01*
X87851809Y-89759571D02*
X87756571Y-89711952D01*
X87756571Y-89711952D02*
X87566095Y-89711952D01*
X87566095Y-89711952D02*
X87470857Y-89759571D01*
X87470857Y-89759571D02*
X87423238Y-89854809D01*
X87423238Y-89854809D02*
X87423238Y-89950047D01*
X87423238Y-89950047D02*
X87899428Y-90045285D01*
X86994666Y-90378619D02*
X86994666Y-89711952D01*
X86994666Y-89902428D02*
X86947047Y-89807190D01*
X86947047Y-89807190D02*
X86899428Y-89759571D01*
X86899428Y-89759571D02*
X86804190Y-89711952D01*
X86804190Y-89711952D02*
X86708952Y-89711952D01*
X85613713Y-89854809D02*
X85280380Y-89854809D01*
X85137523Y-90378619D02*
X85613713Y-90378619D01*
X85613713Y-90378619D02*
X85613713Y-89378619D01*
X85613713Y-89378619D02*
X85137523Y-89378619D01*
X84708951Y-89711952D02*
X84708951Y-90378619D01*
X84708951Y-89807190D02*
X84661332Y-89759571D01*
X84661332Y-89759571D02*
X84566094Y-89711952D01*
X84566094Y-89711952D02*
X84423237Y-89711952D01*
X84423237Y-89711952D02*
X84327999Y-89759571D01*
X84327999Y-89759571D02*
X84280380Y-89854809D01*
X84280380Y-89854809D02*
X84280380Y-90378619D01*
X83899427Y-89711952D02*
X83661332Y-90378619D01*
X83661332Y-90378619D02*
X83423237Y-89711952D01*
X82280379Y-90378619D02*
X82280379Y-89378619D01*
X82280379Y-89378619D02*
X82042284Y-89378619D01*
X82042284Y-89378619D02*
X81899427Y-89426238D01*
X81899427Y-89426238D02*
X81804189Y-89521476D01*
X81804189Y-89521476D02*
X81756570Y-89616714D01*
X81756570Y-89616714D02*
X81708951Y-89807190D01*
X81708951Y-89807190D02*
X81708951Y-89950047D01*
X81708951Y-89950047D02*
X81756570Y-90140523D01*
X81756570Y-90140523D02*
X81804189Y-90235761D01*
X81804189Y-90235761D02*
X81899427Y-90331000D01*
X81899427Y-90331000D02*
X82042284Y-90378619D01*
X82042284Y-90378619D02*
X82280379Y-90378619D01*
X80899427Y-90331000D02*
X80994665Y-90378619D01*
X80994665Y-90378619D02*
X81185141Y-90378619D01*
X81185141Y-90378619D02*
X81280379Y-90331000D01*
X81280379Y-90331000D02*
X81327998Y-90235761D01*
X81327998Y-90235761D02*
X81327998Y-89854809D01*
X81327998Y-89854809D02*
X81280379Y-89759571D01*
X81280379Y-89759571D02*
X81185141Y-89711952D01*
X81185141Y-89711952D02*
X80994665Y-89711952D01*
X80994665Y-89711952D02*
X80899427Y-89759571D01*
X80899427Y-89759571D02*
X80851808Y-89854809D01*
X80851808Y-89854809D02*
X80851808Y-89950047D01*
X80851808Y-89950047D02*
X81327998Y-90045285D01*
X79994665Y-90331000D02*
X80089903Y-90378619D01*
X80089903Y-90378619D02*
X80280379Y-90378619D01*
X80280379Y-90378619D02*
X80375617Y-90331000D01*
X80375617Y-90331000D02*
X80423236Y-90283380D01*
X80423236Y-90283380D02*
X80470855Y-90188142D01*
X80470855Y-90188142D02*
X80470855Y-89902428D01*
X80470855Y-89902428D02*
X80423236Y-89807190D01*
X80423236Y-89807190D02*
X80375617Y-89759571D01*
X80375617Y-89759571D02*
X80280379Y-89711952D01*
X80280379Y-89711952D02*
X80089903Y-89711952D01*
X80089903Y-89711952D02*
X79994665Y-89759571D01*
X79137522Y-90378619D02*
X79137522Y-89854809D01*
X79137522Y-89854809D02*
X79185141Y-89759571D01*
X79185141Y-89759571D02*
X79280379Y-89711952D01*
X79280379Y-89711952D02*
X79470855Y-89711952D01*
X79470855Y-89711952D02*
X79566093Y-89759571D01*
X79137522Y-90331000D02*
X79232760Y-90378619D01*
X79232760Y-90378619D02*
X79470855Y-90378619D01*
X79470855Y-90378619D02*
X79566093Y-90331000D01*
X79566093Y-90331000D02*
X79613712Y-90235761D01*
X79613712Y-90235761D02*
X79613712Y-90140523D01*
X79613712Y-90140523D02*
X79566093Y-90045285D01*
X79566093Y-90045285D02*
X79470855Y-89997666D01*
X79470855Y-89997666D02*
X79232760Y-89997666D01*
X79232760Y-89997666D02*
X79137522Y-89950047D01*
X78756569Y-89711952D02*
X78518474Y-90378619D01*
X78280379Y-89711952D02*
X78518474Y-90378619D01*
X78518474Y-90378619D02*
X78613712Y-90616714D01*
X78613712Y-90616714D02*
X78661331Y-90664333D01*
X78661331Y-90664333D02*
X78756569Y-90711952D01*
X48865619Y-50046380D02*
X48865619Y-50236856D01*
X48865619Y-50236856D02*
X48913238Y-50332094D01*
X48913238Y-50332094D02*
X49008476Y-50427332D01*
X49008476Y-50427332D02*
X49198952Y-50474951D01*
X49198952Y-50474951D02*
X49532285Y-50474951D01*
X49532285Y-50474951D02*
X49722761Y-50427332D01*
X49722761Y-50427332D02*
X49818000Y-50332094D01*
X49818000Y-50332094D02*
X49865619Y-50236856D01*
X49865619Y-50236856D02*
X49865619Y-50046380D01*
X49865619Y-50046380D02*
X49818000Y-49951142D01*
X49818000Y-49951142D02*
X49722761Y-49855904D01*
X49722761Y-49855904D02*
X49532285Y-49808285D01*
X49532285Y-49808285D02*
X49198952Y-49808285D01*
X49198952Y-49808285D02*
X49008476Y-49855904D01*
X49008476Y-49855904D02*
X48913238Y-49951142D01*
X48913238Y-49951142D02*
X48865619Y-50046380D01*
X49818000Y-50855904D02*
X49865619Y-50998761D01*
X49865619Y-50998761D02*
X49865619Y-51236856D01*
X49865619Y-51236856D02*
X49818000Y-51332094D01*
X49818000Y-51332094D02*
X49770380Y-51379713D01*
X49770380Y-51379713D02*
X49675142Y-51427332D01*
X49675142Y-51427332D02*
X49579904Y-51427332D01*
X49579904Y-51427332D02*
X49484666Y-51379713D01*
X49484666Y-51379713D02*
X49437047Y-51332094D01*
X49437047Y-51332094D02*
X49389428Y-51236856D01*
X49389428Y-51236856D02*
X49341809Y-51046380D01*
X49341809Y-51046380D02*
X49294190Y-50951142D01*
X49294190Y-50951142D02*
X49246571Y-50903523D01*
X49246571Y-50903523D02*
X49151333Y-50855904D01*
X49151333Y-50855904D02*
X49056095Y-50855904D01*
X49056095Y-50855904D02*
X48960857Y-50903523D01*
X48960857Y-50903523D02*
X48913238Y-50951142D01*
X48913238Y-50951142D02*
X48865619Y-51046380D01*
X48865619Y-51046380D02*
X48865619Y-51284475D01*
X48865619Y-51284475D02*
X48913238Y-51427332D01*
X49770380Y-52427332D02*
X49818000Y-52379713D01*
X49818000Y-52379713D02*
X49865619Y-52236856D01*
X49865619Y-52236856D02*
X49865619Y-52141618D01*
X49865619Y-52141618D02*
X49818000Y-51998761D01*
X49818000Y-51998761D02*
X49722761Y-51903523D01*
X49722761Y-51903523D02*
X49627523Y-51855904D01*
X49627523Y-51855904D02*
X49437047Y-51808285D01*
X49437047Y-51808285D02*
X49294190Y-51808285D01*
X49294190Y-51808285D02*
X49103714Y-51855904D01*
X49103714Y-51855904D02*
X49008476Y-51903523D01*
X49008476Y-51903523D02*
X48913238Y-51998761D01*
X48913238Y-51998761D02*
X48865619Y-52141618D01*
X48865619Y-52141618D02*
X48865619Y-52236856D01*
X48865619Y-52236856D02*
X48913238Y-52379713D01*
X48913238Y-52379713D02*
X48960857Y-52427332D01*
X48960857Y-52808285D02*
X48913238Y-52855904D01*
X48913238Y-52855904D02*
X48865619Y-52951142D01*
X48865619Y-52951142D02*
X48865619Y-53189237D01*
X48865619Y-53189237D02*
X48913238Y-53284475D01*
X48913238Y-53284475D02*
X48960857Y-53332094D01*
X48960857Y-53332094D02*
X49056095Y-53379713D01*
X49056095Y-53379713D02*
X49151333Y-53379713D01*
X49151333Y-53379713D02*
X49294190Y-53332094D01*
X49294190Y-53332094D02*
X49865619Y-52760666D01*
X49865619Y-52760666D02*
X49865619Y-53379713D01*
X49341809Y-54903523D02*
X49341809Y-54570190D01*
X49865619Y-54570190D02*
X48865619Y-54570190D01*
X48865619Y-54570190D02*
X48865619Y-55046380D01*
X49865619Y-55427333D02*
X49198952Y-55427333D01*
X49389428Y-55427333D02*
X49294190Y-55474952D01*
X49294190Y-55474952D02*
X49246571Y-55522571D01*
X49246571Y-55522571D02*
X49198952Y-55617809D01*
X49198952Y-55617809D02*
X49198952Y-55713047D01*
X49818000Y-56427333D02*
X49865619Y-56332095D01*
X49865619Y-56332095D02*
X49865619Y-56141619D01*
X49865619Y-56141619D02*
X49818000Y-56046381D01*
X49818000Y-56046381D02*
X49722761Y-55998762D01*
X49722761Y-55998762D02*
X49341809Y-55998762D01*
X49341809Y-55998762D02*
X49246571Y-56046381D01*
X49246571Y-56046381D02*
X49198952Y-56141619D01*
X49198952Y-56141619D02*
X49198952Y-56332095D01*
X49198952Y-56332095D02*
X49246571Y-56427333D01*
X49246571Y-56427333D02*
X49341809Y-56474952D01*
X49341809Y-56474952D02*
X49437047Y-56474952D01*
X49437047Y-56474952D02*
X49532285Y-55998762D01*
X49198952Y-57332095D02*
X50198952Y-57332095D01*
X49818000Y-57332095D02*
X49865619Y-57236857D01*
X49865619Y-57236857D02*
X49865619Y-57046381D01*
X49865619Y-57046381D02*
X49818000Y-56951143D01*
X49818000Y-56951143D02*
X49770380Y-56903524D01*
X49770380Y-56903524D02*
X49675142Y-56855905D01*
X49675142Y-56855905D02*
X49389428Y-56855905D01*
X49389428Y-56855905D02*
X49294190Y-56903524D01*
X49294190Y-56903524D02*
X49246571Y-56951143D01*
X49246571Y-56951143D02*
X49198952Y-57046381D01*
X49198952Y-57046381D02*
X49198952Y-57236857D01*
X49198952Y-57236857D02*
X49246571Y-57332095D01*
X87711619Y-47570047D02*
X86711619Y-47570047D01*
X86711619Y-47570047D02*
X87711619Y-48141475D01*
X87711619Y-48141475D02*
X86711619Y-48141475D01*
X87711619Y-48760523D02*
X87664000Y-48665285D01*
X87664000Y-48665285D02*
X87616380Y-48617666D01*
X87616380Y-48617666D02*
X87521142Y-48570047D01*
X87521142Y-48570047D02*
X87235428Y-48570047D01*
X87235428Y-48570047D02*
X87140190Y-48617666D01*
X87140190Y-48617666D02*
X87092571Y-48665285D01*
X87092571Y-48665285D02*
X87044952Y-48760523D01*
X87044952Y-48760523D02*
X87044952Y-48903380D01*
X87044952Y-48903380D02*
X87092571Y-48998618D01*
X87092571Y-48998618D02*
X87140190Y-49046237D01*
X87140190Y-49046237D02*
X87235428Y-49093856D01*
X87235428Y-49093856D02*
X87521142Y-49093856D01*
X87521142Y-49093856D02*
X87616380Y-49046237D01*
X87616380Y-49046237D02*
X87664000Y-48998618D01*
X87664000Y-48998618D02*
X87711619Y-48903380D01*
X87711619Y-48903380D02*
X87711619Y-48760523D01*
X87711619Y-49522428D02*
X87044952Y-49522428D01*
X86711619Y-49522428D02*
X86759238Y-49474809D01*
X86759238Y-49474809D02*
X86806857Y-49522428D01*
X86806857Y-49522428D02*
X86759238Y-49570047D01*
X86759238Y-49570047D02*
X86711619Y-49522428D01*
X86711619Y-49522428D02*
X86806857Y-49522428D01*
X87664000Y-49950999D02*
X87711619Y-50046237D01*
X87711619Y-50046237D02*
X87711619Y-50236713D01*
X87711619Y-50236713D02*
X87664000Y-50331951D01*
X87664000Y-50331951D02*
X87568761Y-50379570D01*
X87568761Y-50379570D02*
X87521142Y-50379570D01*
X87521142Y-50379570D02*
X87425904Y-50331951D01*
X87425904Y-50331951D02*
X87378285Y-50236713D01*
X87378285Y-50236713D02*
X87378285Y-50093856D01*
X87378285Y-50093856D02*
X87330666Y-49998618D01*
X87330666Y-49998618D02*
X87235428Y-49950999D01*
X87235428Y-49950999D02*
X87187809Y-49950999D01*
X87187809Y-49950999D02*
X87092571Y-49998618D01*
X87092571Y-49998618D02*
X87044952Y-50093856D01*
X87044952Y-50093856D02*
X87044952Y-50236713D01*
X87044952Y-50236713D02*
X87092571Y-50331951D01*
X87664000Y-51189094D02*
X87711619Y-51093856D01*
X87711619Y-51093856D02*
X87711619Y-50903380D01*
X87711619Y-50903380D02*
X87664000Y-50808142D01*
X87664000Y-50808142D02*
X87568761Y-50760523D01*
X87568761Y-50760523D02*
X87187809Y-50760523D01*
X87187809Y-50760523D02*
X87092571Y-50808142D01*
X87092571Y-50808142D02*
X87044952Y-50903380D01*
X87044952Y-50903380D02*
X87044952Y-51093856D01*
X87044952Y-51093856D02*
X87092571Y-51189094D01*
X87092571Y-51189094D02*
X87187809Y-51236713D01*
X87187809Y-51236713D02*
X87283047Y-51236713D01*
X87283047Y-51236713D02*
X87378285Y-50760523D01*
X86711619Y-52284333D02*
X87711619Y-52617666D01*
X87711619Y-52617666D02*
X86711619Y-52950999D01*
X87711619Y-53427190D02*
X87664000Y-53331952D01*
X87664000Y-53331952D02*
X87616380Y-53284333D01*
X87616380Y-53284333D02*
X87521142Y-53236714D01*
X87521142Y-53236714D02*
X87235428Y-53236714D01*
X87235428Y-53236714D02*
X87140190Y-53284333D01*
X87140190Y-53284333D02*
X87092571Y-53331952D01*
X87092571Y-53331952D02*
X87044952Y-53427190D01*
X87044952Y-53427190D02*
X87044952Y-53570047D01*
X87044952Y-53570047D02*
X87092571Y-53665285D01*
X87092571Y-53665285D02*
X87140190Y-53712904D01*
X87140190Y-53712904D02*
X87235428Y-53760523D01*
X87235428Y-53760523D02*
X87521142Y-53760523D01*
X87521142Y-53760523D02*
X87616380Y-53712904D01*
X87616380Y-53712904D02*
X87664000Y-53665285D01*
X87664000Y-53665285D02*
X87711619Y-53570047D01*
X87711619Y-53570047D02*
X87711619Y-53427190D01*
X87711619Y-54331952D02*
X87664000Y-54236714D01*
X87664000Y-54236714D02*
X87568761Y-54189095D01*
X87568761Y-54189095D02*
X86711619Y-54189095D01*
X87044952Y-55141476D02*
X87711619Y-55141476D01*
X87044952Y-54712905D02*
X87568761Y-54712905D01*
X87568761Y-54712905D02*
X87664000Y-54760524D01*
X87664000Y-54760524D02*
X87711619Y-54855762D01*
X87711619Y-54855762D02*
X87711619Y-54998619D01*
X87711619Y-54998619D02*
X87664000Y-55093857D01*
X87664000Y-55093857D02*
X87616380Y-55141476D01*
X87711619Y-55617667D02*
X87044952Y-55617667D01*
X87140190Y-55617667D02*
X87092571Y-55665286D01*
X87092571Y-55665286D02*
X87044952Y-55760524D01*
X87044952Y-55760524D02*
X87044952Y-55903381D01*
X87044952Y-55903381D02*
X87092571Y-55998619D01*
X87092571Y-55998619D02*
X87187809Y-56046238D01*
X87187809Y-56046238D02*
X87711619Y-56046238D01*
X87187809Y-56046238D02*
X87092571Y-56093857D01*
X87092571Y-56093857D02*
X87044952Y-56189095D01*
X87044952Y-56189095D02*
X87044952Y-56331952D01*
X87044952Y-56331952D02*
X87092571Y-56427191D01*
X87092571Y-56427191D02*
X87187809Y-56474810D01*
X87187809Y-56474810D02*
X87711619Y-56474810D01*
X87664000Y-57331952D02*
X87711619Y-57236714D01*
X87711619Y-57236714D02*
X87711619Y-57046238D01*
X87711619Y-57046238D02*
X87664000Y-56951000D01*
X87664000Y-56951000D02*
X87568761Y-56903381D01*
X87568761Y-56903381D02*
X87187809Y-56903381D01*
X87187809Y-56903381D02*
X87092571Y-56951000D01*
X87092571Y-56951000D02*
X87044952Y-57046238D01*
X87044952Y-57046238D02*
X87044952Y-57236714D01*
X87044952Y-57236714D02*
X87092571Y-57331952D01*
X87092571Y-57331952D02*
X87187809Y-57379571D01*
X87187809Y-57379571D02*
X87283047Y-57379571D01*
X87283047Y-57379571D02*
X87378285Y-56903381D01*
X98948096Y-80583809D02*
X99281429Y-80583809D01*
X99281429Y-81107619D02*
X99281429Y-80107619D01*
X99281429Y-80107619D02*
X98805239Y-80107619D01*
X98424286Y-81107619D02*
X98424286Y-80440952D01*
X98424286Y-80107619D02*
X98471905Y-80155238D01*
X98471905Y-80155238D02*
X98424286Y-80202857D01*
X98424286Y-80202857D02*
X98376667Y-80155238D01*
X98376667Y-80155238D02*
X98424286Y-80107619D01*
X98424286Y-80107619D02*
X98424286Y-80202857D01*
X97805239Y-81107619D02*
X97900477Y-81060000D01*
X97900477Y-81060000D02*
X97948096Y-80964761D01*
X97948096Y-80964761D02*
X97948096Y-80107619D01*
X97567143Y-80440952D02*
X97186191Y-80440952D01*
X97424286Y-80107619D02*
X97424286Y-80964761D01*
X97424286Y-80964761D02*
X97376667Y-81060000D01*
X97376667Y-81060000D02*
X97281429Y-81107619D01*
X97281429Y-81107619D02*
X97186191Y-81107619D01*
X96471905Y-81060000D02*
X96567143Y-81107619D01*
X96567143Y-81107619D02*
X96757619Y-81107619D01*
X96757619Y-81107619D02*
X96852857Y-81060000D01*
X96852857Y-81060000D02*
X96900476Y-80964761D01*
X96900476Y-80964761D02*
X96900476Y-80583809D01*
X96900476Y-80583809D02*
X96852857Y-80488571D01*
X96852857Y-80488571D02*
X96757619Y-80440952D01*
X96757619Y-80440952D02*
X96567143Y-80440952D01*
X96567143Y-80440952D02*
X96471905Y-80488571D01*
X96471905Y-80488571D02*
X96424286Y-80583809D01*
X96424286Y-80583809D02*
X96424286Y-80679047D01*
X96424286Y-80679047D02*
X96900476Y-80774285D01*
X95995714Y-81107619D02*
X95995714Y-80440952D01*
X95995714Y-80631428D02*
X95948095Y-80536190D01*
X95948095Y-80536190D02*
X95900476Y-80488571D01*
X95900476Y-80488571D02*
X95805238Y-80440952D01*
X95805238Y-80440952D02*
X95710000Y-80440952D01*
X94138571Y-81107619D02*
X94614761Y-81107619D01*
X94614761Y-81107619D02*
X94614761Y-80107619D01*
X93471904Y-80583809D02*
X93805237Y-80583809D01*
X93805237Y-81107619D02*
X93805237Y-80107619D01*
X93805237Y-80107619D02*
X93329047Y-80107619D01*
X92757618Y-80107619D02*
X92567142Y-80107619D01*
X92567142Y-80107619D02*
X92471904Y-80155238D01*
X92471904Y-80155238D02*
X92376666Y-80250476D01*
X92376666Y-80250476D02*
X92329047Y-80440952D01*
X92329047Y-80440952D02*
X92329047Y-80774285D01*
X92329047Y-80774285D02*
X92376666Y-80964761D01*
X92376666Y-80964761D02*
X92471904Y-81060000D01*
X92471904Y-81060000D02*
X92567142Y-81107619D01*
X92567142Y-81107619D02*
X92757618Y-81107619D01*
X92757618Y-81107619D02*
X92852856Y-81060000D01*
X92852856Y-81060000D02*
X92948094Y-80964761D01*
X92948094Y-80964761D02*
X92995713Y-80774285D01*
X92995713Y-80774285D02*
X92995713Y-80440952D01*
X92995713Y-80440952D02*
X92948094Y-80250476D01*
X92948094Y-80250476D02*
X92852856Y-80155238D01*
X92852856Y-80155238D02*
X92757618Y-80107619D01*
X91186189Y-80821904D02*
X90709999Y-80821904D01*
X91281427Y-81107619D02*
X90948094Y-80107619D01*
X90948094Y-80107619D02*
X90614761Y-81107619D01*
X90281427Y-81107619D02*
X90281427Y-80440952D01*
X90281427Y-80536190D02*
X90233808Y-80488571D01*
X90233808Y-80488571D02*
X90138570Y-80440952D01*
X90138570Y-80440952D02*
X89995713Y-80440952D01*
X89995713Y-80440952D02*
X89900475Y-80488571D01*
X89900475Y-80488571D02*
X89852856Y-80583809D01*
X89852856Y-80583809D02*
X89852856Y-81107619D01*
X89852856Y-80583809D02*
X89805237Y-80488571D01*
X89805237Y-80488571D02*
X89709999Y-80440952D01*
X89709999Y-80440952D02*
X89567142Y-80440952D01*
X89567142Y-80440952D02*
X89471903Y-80488571D01*
X89471903Y-80488571D02*
X89424284Y-80583809D01*
X89424284Y-80583809D02*
X89424284Y-81107619D01*
X88805237Y-81107619D02*
X88900475Y-81060000D01*
X88900475Y-81060000D02*
X88948094Y-81012380D01*
X88948094Y-81012380D02*
X88995713Y-80917142D01*
X88995713Y-80917142D02*
X88995713Y-80631428D01*
X88995713Y-80631428D02*
X88948094Y-80536190D01*
X88948094Y-80536190D02*
X88900475Y-80488571D01*
X88900475Y-80488571D02*
X88805237Y-80440952D01*
X88805237Y-80440952D02*
X88662380Y-80440952D01*
X88662380Y-80440952D02*
X88567142Y-80488571D01*
X88567142Y-80488571D02*
X88519523Y-80536190D01*
X88519523Y-80536190D02*
X88471904Y-80631428D01*
X88471904Y-80631428D02*
X88471904Y-80917142D01*
X88471904Y-80917142D02*
X88519523Y-81012380D01*
X88519523Y-81012380D02*
X88567142Y-81060000D01*
X88567142Y-81060000D02*
X88662380Y-81107619D01*
X88662380Y-81107619D02*
X88805237Y-81107619D01*
X87614761Y-80440952D02*
X87614761Y-81107619D01*
X88043332Y-80440952D02*
X88043332Y-80964761D01*
X88043332Y-80964761D02*
X87995713Y-81060000D01*
X87995713Y-81060000D02*
X87900475Y-81107619D01*
X87900475Y-81107619D02*
X87757618Y-81107619D01*
X87757618Y-81107619D02*
X87662380Y-81060000D01*
X87662380Y-81060000D02*
X87614761Y-81012380D01*
X87138570Y-80440952D02*
X87138570Y-81107619D01*
X87138570Y-80536190D02*
X87090951Y-80488571D01*
X87090951Y-80488571D02*
X86995713Y-80440952D01*
X86995713Y-80440952D02*
X86852856Y-80440952D01*
X86852856Y-80440952D02*
X86757618Y-80488571D01*
X86757618Y-80488571D02*
X86709999Y-80583809D01*
X86709999Y-80583809D02*
X86709999Y-81107619D01*
X86376665Y-80440952D02*
X85995713Y-80440952D01*
X86233808Y-80107619D02*
X86233808Y-80964761D01*
X86233808Y-80964761D02*
X86186189Y-81060000D01*
X86186189Y-81060000D02*
X86090951Y-81107619D01*
X86090951Y-81107619D02*
X85995713Y-81107619D01*
X45092571Y-76916619D02*
X45568761Y-76916619D01*
X45568761Y-76916619D02*
X45568761Y-75916619D01*
X44425904Y-76392809D02*
X44759237Y-76392809D01*
X44759237Y-76916619D02*
X44759237Y-75916619D01*
X44759237Y-75916619D02*
X44283047Y-75916619D01*
X43711618Y-75916619D02*
X43521142Y-75916619D01*
X43521142Y-75916619D02*
X43425904Y-75964238D01*
X43425904Y-75964238D02*
X43330666Y-76059476D01*
X43330666Y-76059476D02*
X43283047Y-76249952D01*
X43283047Y-76249952D02*
X43283047Y-76583285D01*
X43283047Y-76583285D02*
X43330666Y-76773761D01*
X43330666Y-76773761D02*
X43425904Y-76869000D01*
X43425904Y-76869000D02*
X43521142Y-76916619D01*
X43521142Y-76916619D02*
X43711618Y-76916619D01*
X43711618Y-76916619D02*
X43806856Y-76869000D01*
X43806856Y-76869000D02*
X43902094Y-76773761D01*
X43902094Y-76773761D02*
X43949713Y-76583285D01*
X43949713Y-76583285D02*
X43949713Y-76249952D01*
X43949713Y-76249952D02*
X43902094Y-76059476D01*
X43902094Y-76059476D02*
X43806856Y-75964238D01*
X43806856Y-75964238D02*
X43711618Y-75916619D01*
X42092570Y-76916619D02*
X42092570Y-75916619D01*
X42092570Y-75916619D02*
X41759237Y-76630904D01*
X41759237Y-76630904D02*
X41425904Y-75916619D01*
X41425904Y-75916619D02*
X41425904Y-76916619D01*
X40806856Y-76916619D02*
X40902094Y-76869000D01*
X40902094Y-76869000D02*
X40949713Y-76821380D01*
X40949713Y-76821380D02*
X40997332Y-76726142D01*
X40997332Y-76726142D02*
X40997332Y-76440428D01*
X40997332Y-76440428D02*
X40949713Y-76345190D01*
X40949713Y-76345190D02*
X40902094Y-76297571D01*
X40902094Y-76297571D02*
X40806856Y-76249952D01*
X40806856Y-76249952D02*
X40663999Y-76249952D01*
X40663999Y-76249952D02*
X40568761Y-76297571D01*
X40568761Y-76297571D02*
X40521142Y-76345190D01*
X40521142Y-76345190D02*
X40473523Y-76440428D01*
X40473523Y-76440428D02*
X40473523Y-76726142D01*
X40473523Y-76726142D02*
X40521142Y-76821380D01*
X40521142Y-76821380D02*
X40568761Y-76869000D01*
X40568761Y-76869000D02*
X40663999Y-76916619D01*
X40663999Y-76916619D02*
X40806856Y-76916619D01*
X39616380Y-76916619D02*
X39616380Y-75916619D01*
X39616380Y-76869000D02*
X39711618Y-76916619D01*
X39711618Y-76916619D02*
X39902094Y-76916619D01*
X39902094Y-76916619D02*
X39997332Y-76869000D01*
X39997332Y-76869000D02*
X40044951Y-76821380D01*
X40044951Y-76821380D02*
X40092570Y-76726142D01*
X40092570Y-76726142D02*
X40092570Y-76440428D01*
X40092570Y-76440428D02*
X40044951Y-76345190D01*
X40044951Y-76345190D02*
X39997332Y-76297571D01*
X39997332Y-76297571D02*
X39902094Y-76249952D01*
X39902094Y-76249952D02*
X39711618Y-76249952D01*
X39711618Y-76249952D02*
X39616380Y-76297571D01*
X38759237Y-76869000D02*
X38854475Y-76916619D01*
X38854475Y-76916619D02*
X39044951Y-76916619D01*
X39044951Y-76916619D02*
X39140189Y-76869000D01*
X39140189Y-76869000D02*
X39187808Y-76773761D01*
X39187808Y-76773761D02*
X39187808Y-76392809D01*
X39187808Y-76392809D02*
X39140189Y-76297571D01*
X39140189Y-76297571D02*
X39044951Y-76249952D01*
X39044951Y-76249952D02*
X38854475Y-76249952D01*
X38854475Y-76249952D02*
X38759237Y-76297571D01*
X38759237Y-76297571D02*
X38711618Y-76392809D01*
X38711618Y-76392809D02*
X38711618Y-76488047D01*
X38711618Y-76488047D02*
X39187808Y-76583285D01*
X57998666Y-89251619D02*
X57665333Y-90251619D01*
X57665333Y-90251619D02*
X57332000Y-89251619D01*
X56855809Y-90251619D02*
X56951047Y-90204000D01*
X56951047Y-90204000D02*
X56998666Y-90156380D01*
X56998666Y-90156380D02*
X57046285Y-90061142D01*
X57046285Y-90061142D02*
X57046285Y-89775428D01*
X57046285Y-89775428D02*
X56998666Y-89680190D01*
X56998666Y-89680190D02*
X56951047Y-89632571D01*
X56951047Y-89632571D02*
X56855809Y-89584952D01*
X56855809Y-89584952D02*
X56712952Y-89584952D01*
X56712952Y-89584952D02*
X56617714Y-89632571D01*
X56617714Y-89632571D02*
X56570095Y-89680190D01*
X56570095Y-89680190D02*
X56522476Y-89775428D01*
X56522476Y-89775428D02*
X56522476Y-90061142D01*
X56522476Y-90061142D02*
X56570095Y-90156380D01*
X56570095Y-90156380D02*
X56617714Y-90204000D01*
X56617714Y-90204000D02*
X56712952Y-90251619D01*
X56712952Y-90251619D02*
X56855809Y-90251619D01*
X55951047Y-90251619D02*
X56046285Y-90204000D01*
X56046285Y-90204000D02*
X56093904Y-90108761D01*
X56093904Y-90108761D02*
X56093904Y-89251619D01*
X55141523Y-89584952D02*
X55141523Y-90251619D01*
X55570094Y-89584952D02*
X55570094Y-90108761D01*
X55570094Y-90108761D02*
X55522475Y-90204000D01*
X55522475Y-90204000D02*
X55427237Y-90251619D01*
X55427237Y-90251619D02*
X55284380Y-90251619D01*
X55284380Y-90251619D02*
X55189142Y-90204000D01*
X55189142Y-90204000D02*
X55141523Y-90156380D01*
X54665332Y-90251619D02*
X54665332Y-89584952D01*
X54665332Y-89680190D02*
X54617713Y-89632571D01*
X54617713Y-89632571D02*
X54522475Y-89584952D01*
X54522475Y-89584952D02*
X54379618Y-89584952D01*
X54379618Y-89584952D02*
X54284380Y-89632571D01*
X54284380Y-89632571D02*
X54236761Y-89727809D01*
X54236761Y-89727809D02*
X54236761Y-90251619D01*
X54236761Y-89727809D02*
X54189142Y-89632571D01*
X54189142Y-89632571D02*
X54093904Y-89584952D01*
X54093904Y-89584952D02*
X53951047Y-89584952D01*
X53951047Y-89584952D02*
X53855808Y-89632571D01*
X53855808Y-89632571D02*
X53808189Y-89727809D01*
X53808189Y-89727809D02*
X53808189Y-90251619D01*
X52951047Y-90204000D02*
X53046285Y-90251619D01*
X53046285Y-90251619D02*
X53236761Y-90251619D01*
X53236761Y-90251619D02*
X53331999Y-90204000D01*
X53331999Y-90204000D02*
X53379618Y-90108761D01*
X53379618Y-90108761D02*
X53379618Y-89727809D01*
X53379618Y-89727809D02*
X53331999Y-89632571D01*
X53331999Y-89632571D02*
X53236761Y-89584952D01*
X53236761Y-89584952D02*
X53046285Y-89584952D01*
X53046285Y-89584952D02*
X52951047Y-89632571D01*
X52951047Y-89632571D02*
X52903428Y-89727809D01*
X52903428Y-89727809D02*
X52903428Y-89823047D01*
X52903428Y-89823047D02*
X53379618Y-89918285D01*
X51712951Y-90251619D02*
X51712951Y-89251619D01*
X51712951Y-89251619D02*
X51474856Y-89251619D01*
X51474856Y-89251619D02*
X51331999Y-89299238D01*
X51331999Y-89299238D02*
X51236761Y-89394476D01*
X51236761Y-89394476D02*
X51189142Y-89489714D01*
X51189142Y-89489714D02*
X51141523Y-89680190D01*
X51141523Y-89680190D02*
X51141523Y-89823047D01*
X51141523Y-89823047D02*
X51189142Y-90013523D01*
X51189142Y-90013523D02*
X51236761Y-90108761D01*
X51236761Y-90108761D02*
X51331999Y-90204000D01*
X51331999Y-90204000D02*
X51474856Y-90251619D01*
X51474856Y-90251619D02*
X51712951Y-90251619D01*
X50331999Y-90204000D02*
X50427237Y-90251619D01*
X50427237Y-90251619D02*
X50617713Y-90251619D01*
X50617713Y-90251619D02*
X50712951Y-90204000D01*
X50712951Y-90204000D02*
X50760570Y-90108761D01*
X50760570Y-90108761D02*
X50760570Y-89727809D01*
X50760570Y-89727809D02*
X50712951Y-89632571D01*
X50712951Y-89632571D02*
X50617713Y-89584952D01*
X50617713Y-89584952D02*
X50427237Y-89584952D01*
X50427237Y-89584952D02*
X50331999Y-89632571D01*
X50331999Y-89632571D02*
X50284380Y-89727809D01*
X50284380Y-89727809D02*
X50284380Y-89823047D01*
X50284380Y-89823047D02*
X50760570Y-89918285D01*
X49427237Y-90204000D02*
X49522475Y-90251619D01*
X49522475Y-90251619D02*
X49712951Y-90251619D01*
X49712951Y-90251619D02*
X49808189Y-90204000D01*
X49808189Y-90204000D02*
X49855808Y-90156380D01*
X49855808Y-90156380D02*
X49903427Y-90061142D01*
X49903427Y-90061142D02*
X49903427Y-89775428D01*
X49903427Y-89775428D02*
X49855808Y-89680190D01*
X49855808Y-89680190D02*
X49808189Y-89632571D01*
X49808189Y-89632571D02*
X49712951Y-89584952D01*
X49712951Y-89584952D02*
X49522475Y-89584952D01*
X49522475Y-89584952D02*
X49427237Y-89632571D01*
X48570094Y-90251619D02*
X48570094Y-89727809D01*
X48570094Y-89727809D02*
X48617713Y-89632571D01*
X48617713Y-89632571D02*
X48712951Y-89584952D01*
X48712951Y-89584952D02*
X48903427Y-89584952D01*
X48903427Y-89584952D02*
X48998665Y-89632571D01*
X48570094Y-90204000D02*
X48665332Y-90251619D01*
X48665332Y-90251619D02*
X48903427Y-90251619D01*
X48903427Y-90251619D02*
X48998665Y-90204000D01*
X48998665Y-90204000D02*
X49046284Y-90108761D01*
X49046284Y-90108761D02*
X49046284Y-90013523D01*
X49046284Y-90013523D02*
X48998665Y-89918285D01*
X48998665Y-89918285D02*
X48903427Y-89870666D01*
X48903427Y-89870666D02*
X48665332Y-89870666D01*
X48665332Y-89870666D02*
X48570094Y-89823047D01*
X48189141Y-89584952D02*
X47951046Y-90251619D01*
X47712951Y-89584952D02*
X47951046Y-90251619D01*
X47951046Y-90251619D02*
X48046284Y-90489714D01*
X48046284Y-90489714D02*
X48093903Y-90537333D01*
X48093903Y-90537333D02*
X48189141Y-90584952D01*
%TO.C,J10*%
X59912624Y-34690476D02*
X60626909Y-34690476D01*
X60626909Y-34690476D02*
X60769766Y-34642857D01*
X60769766Y-34642857D02*
X60865005Y-34547619D01*
X60865005Y-34547619D02*
X60912624Y-34404762D01*
X60912624Y-34404762D02*
X60912624Y-34309524D01*
X60912624Y-35690476D02*
X60912624Y-35119048D01*
X60912624Y-35404762D02*
X59912624Y-35404762D01*
X59912624Y-35404762D02*
X60055481Y-35309524D01*
X60055481Y-35309524D02*
X60150719Y-35214286D01*
X60150719Y-35214286D02*
X60198338Y-35119048D01*
X59912624Y-36309524D02*
X59912624Y-36404762D01*
X59912624Y-36404762D02*
X59960243Y-36500000D01*
X59960243Y-36500000D02*
X60007862Y-36547619D01*
X60007862Y-36547619D02*
X60103100Y-36595238D01*
X60103100Y-36595238D02*
X60293576Y-36642857D01*
X60293576Y-36642857D02*
X60531671Y-36642857D01*
X60531671Y-36642857D02*
X60722147Y-36595238D01*
X60722147Y-36595238D02*
X60817385Y-36547619D01*
X60817385Y-36547619D02*
X60865005Y-36500000D01*
X60865005Y-36500000D02*
X60912624Y-36404762D01*
X60912624Y-36404762D02*
X60912624Y-36309524D01*
X60912624Y-36309524D02*
X60865005Y-36214286D01*
X60865005Y-36214286D02*
X60817385Y-36166667D01*
X60817385Y-36166667D02*
X60722147Y-36119048D01*
X60722147Y-36119048D02*
X60531671Y-36071429D01*
X60531671Y-36071429D02*
X60293576Y-36071429D01*
X60293576Y-36071429D02*
X60103100Y-36119048D01*
X60103100Y-36119048D02*
X60007862Y-36166667D01*
X60007862Y-36166667D02*
X59960243Y-36214286D01*
X59960243Y-36214286D02*
X59912624Y-36309524D01*
%TO.C,RV11*%
X106626428Y-90747619D02*
X106959761Y-90271428D01*
X107197856Y-90747619D02*
X107197856Y-89747619D01*
X107197856Y-89747619D02*
X106816904Y-89747619D01*
X106816904Y-89747619D02*
X106721666Y-89795238D01*
X106721666Y-89795238D02*
X106674047Y-89842857D01*
X106674047Y-89842857D02*
X106626428Y-89938095D01*
X106626428Y-89938095D02*
X106626428Y-90080952D01*
X106626428Y-90080952D02*
X106674047Y-90176190D01*
X106674047Y-90176190D02*
X106721666Y-90223809D01*
X106721666Y-90223809D02*
X106816904Y-90271428D01*
X106816904Y-90271428D02*
X107197856Y-90271428D01*
X106340713Y-89747619D02*
X106007380Y-90747619D01*
X106007380Y-90747619D02*
X105674047Y-89747619D01*
X104816904Y-90747619D02*
X105388332Y-90747619D01*
X105102618Y-90747619D02*
X105102618Y-89747619D01*
X105102618Y-89747619D02*
X105197856Y-89890476D01*
X105197856Y-89890476D02*
X105293094Y-89985714D01*
X105293094Y-89985714D02*
X105388332Y-90033333D01*
X103864523Y-90747619D02*
X104435951Y-90747619D01*
X104150237Y-90747619D02*
X104150237Y-89747619D01*
X104150237Y-89747619D02*
X104245475Y-89890476D01*
X104245475Y-89890476D02*
X104340713Y-89985714D01*
X104340713Y-89985714D02*
X104435951Y-90033333D01*
%TO.C,RV4*%
X95150238Y-45747619D02*
X95483571Y-45271428D01*
X95721666Y-45747619D02*
X95721666Y-44747619D01*
X95721666Y-44747619D02*
X95340714Y-44747619D01*
X95340714Y-44747619D02*
X95245476Y-44795238D01*
X95245476Y-44795238D02*
X95197857Y-44842857D01*
X95197857Y-44842857D02*
X95150238Y-44938095D01*
X95150238Y-44938095D02*
X95150238Y-45080952D01*
X95150238Y-45080952D02*
X95197857Y-45176190D01*
X95197857Y-45176190D02*
X95245476Y-45223809D01*
X95245476Y-45223809D02*
X95340714Y-45271428D01*
X95340714Y-45271428D02*
X95721666Y-45271428D01*
X94864523Y-44747619D02*
X94531190Y-45747619D01*
X94531190Y-45747619D02*
X94197857Y-44747619D01*
X93435952Y-45080952D02*
X93435952Y-45747619D01*
X93674047Y-44700000D02*
X93912142Y-45414285D01*
X93912142Y-45414285D02*
X93293095Y-45414285D01*
%TO.C,RV13*%
X46626428Y-90747619D02*
X46959761Y-90271428D01*
X47197856Y-90747619D02*
X47197856Y-89747619D01*
X47197856Y-89747619D02*
X46816904Y-89747619D01*
X46816904Y-89747619D02*
X46721666Y-89795238D01*
X46721666Y-89795238D02*
X46674047Y-89842857D01*
X46674047Y-89842857D02*
X46626428Y-89938095D01*
X46626428Y-89938095D02*
X46626428Y-90080952D01*
X46626428Y-90080952D02*
X46674047Y-90176190D01*
X46674047Y-90176190D02*
X46721666Y-90223809D01*
X46721666Y-90223809D02*
X46816904Y-90271428D01*
X46816904Y-90271428D02*
X47197856Y-90271428D01*
X46340713Y-89747619D02*
X46007380Y-90747619D01*
X46007380Y-90747619D02*
X45674047Y-89747619D01*
X44816904Y-90747619D02*
X45388332Y-90747619D01*
X45102618Y-90747619D02*
X45102618Y-89747619D01*
X45102618Y-89747619D02*
X45197856Y-89890476D01*
X45197856Y-89890476D02*
X45293094Y-89985714D01*
X45293094Y-89985714D02*
X45388332Y-90033333D01*
X44483570Y-89747619D02*
X43864523Y-89747619D01*
X43864523Y-89747619D02*
X44197856Y-90128571D01*
X44197856Y-90128571D02*
X44054999Y-90128571D01*
X44054999Y-90128571D02*
X43959761Y-90176190D01*
X43959761Y-90176190D02*
X43912142Y-90223809D01*
X43912142Y-90223809D02*
X43864523Y-90319047D01*
X43864523Y-90319047D02*
X43864523Y-90557142D01*
X43864523Y-90557142D02*
X43912142Y-90652380D01*
X43912142Y-90652380D02*
X43959761Y-90700000D01*
X43959761Y-90700000D02*
X44054999Y-90747619D01*
X44054999Y-90747619D02*
X44340713Y-90747619D01*
X44340713Y-90747619D02*
X44435951Y-90700000D01*
X44435951Y-90700000D02*
X44483570Y-90652380D01*
%TO.C,RV10*%
X63926428Y-65747619D02*
X64259761Y-65271428D01*
X64497856Y-65747619D02*
X64497856Y-64747619D01*
X64497856Y-64747619D02*
X64116904Y-64747619D01*
X64116904Y-64747619D02*
X64021666Y-64795238D01*
X64021666Y-64795238D02*
X63974047Y-64842857D01*
X63974047Y-64842857D02*
X63926428Y-64938095D01*
X63926428Y-64938095D02*
X63926428Y-65080952D01*
X63926428Y-65080952D02*
X63974047Y-65176190D01*
X63974047Y-65176190D02*
X64021666Y-65223809D01*
X64021666Y-65223809D02*
X64116904Y-65271428D01*
X64116904Y-65271428D02*
X64497856Y-65271428D01*
X63640713Y-64747619D02*
X63307380Y-65747619D01*
X63307380Y-65747619D02*
X62974047Y-64747619D01*
X62116904Y-65747619D02*
X62688332Y-65747619D01*
X62402618Y-65747619D02*
X62402618Y-64747619D01*
X62402618Y-64747619D02*
X62497856Y-64890476D01*
X62497856Y-64890476D02*
X62593094Y-64985714D01*
X62593094Y-64985714D02*
X62688332Y-65033333D01*
X61497856Y-64747619D02*
X61402618Y-64747619D01*
X61402618Y-64747619D02*
X61307380Y-64795238D01*
X61307380Y-64795238D02*
X61259761Y-64842857D01*
X61259761Y-64842857D02*
X61212142Y-64938095D01*
X61212142Y-64938095D02*
X61164523Y-65128571D01*
X61164523Y-65128571D02*
X61164523Y-65366666D01*
X61164523Y-65366666D02*
X61212142Y-65557142D01*
X61212142Y-65557142D02*
X61259761Y-65652380D01*
X61259761Y-65652380D02*
X61307380Y-65700000D01*
X61307380Y-65700000D02*
X61402618Y-65747619D01*
X61402618Y-65747619D02*
X61497856Y-65747619D01*
X61497856Y-65747619D02*
X61593094Y-65700000D01*
X61593094Y-65700000D02*
X61640713Y-65652380D01*
X61640713Y-65652380D02*
X61688332Y-65557142D01*
X61688332Y-65557142D02*
X61735951Y-65366666D01*
X61735951Y-65366666D02*
X61735951Y-65128571D01*
X61735951Y-65128571D02*
X61688332Y-64938095D01*
X61688332Y-64938095D02*
X61640713Y-64842857D01*
X61640713Y-64842857D02*
X61593094Y-64795238D01*
X61593094Y-64795238D02*
X61497856Y-64747619D01*
%TO.C,SW1*%
X43370332Y-66408000D02*
X43227475Y-66455619D01*
X43227475Y-66455619D02*
X42989380Y-66455619D01*
X42989380Y-66455619D02*
X42894142Y-66408000D01*
X42894142Y-66408000D02*
X42846523Y-66360380D01*
X42846523Y-66360380D02*
X42798904Y-66265142D01*
X42798904Y-66265142D02*
X42798904Y-66169904D01*
X42798904Y-66169904D02*
X42846523Y-66074666D01*
X42846523Y-66074666D02*
X42894142Y-66027047D01*
X42894142Y-66027047D02*
X42989380Y-65979428D01*
X42989380Y-65979428D02*
X43179856Y-65931809D01*
X43179856Y-65931809D02*
X43275094Y-65884190D01*
X43275094Y-65884190D02*
X43322713Y-65836571D01*
X43322713Y-65836571D02*
X43370332Y-65741333D01*
X43370332Y-65741333D02*
X43370332Y-65646095D01*
X43370332Y-65646095D02*
X43322713Y-65550857D01*
X43322713Y-65550857D02*
X43275094Y-65503238D01*
X43275094Y-65503238D02*
X43179856Y-65455619D01*
X43179856Y-65455619D02*
X42941761Y-65455619D01*
X42941761Y-65455619D02*
X42798904Y-65503238D01*
X42465570Y-65455619D02*
X42227475Y-66455619D01*
X42227475Y-66455619D02*
X42036999Y-65741333D01*
X42036999Y-65741333D02*
X41846523Y-66455619D01*
X41846523Y-66455619D02*
X41608428Y-65455619D01*
X40703666Y-66455619D02*
X41275094Y-66455619D01*
X40989380Y-66455619D02*
X40989380Y-65455619D01*
X40989380Y-65455619D02*
X41084618Y-65598476D01*
X41084618Y-65598476D02*
X41179856Y-65693714D01*
X41179856Y-65693714D02*
X41275094Y-65741333D01*
%TO.C,J7*%
X183338333Y-60732619D02*
X183338333Y-61446904D01*
X183338333Y-61446904D02*
X183385952Y-61589761D01*
X183385952Y-61589761D02*
X183481190Y-61685000D01*
X183481190Y-61685000D02*
X183624047Y-61732619D01*
X183624047Y-61732619D02*
X183719285Y-61732619D01*
X182957380Y-60732619D02*
X182290714Y-60732619D01*
X182290714Y-60732619D02*
X182719285Y-61732619D01*
%TO.C,RV3*%
X114150238Y-45747619D02*
X114483571Y-45271428D01*
X114721666Y-45747619D02*
X114721666Y-44747619D01*
X114721666Y-44747619D02*
X114340714Y-44747619D01*
X114340714Y-44747619D02*
X114245476Y-44795238D01*
X114245476Y-44795238D02*
X114197857Y-44842857D01*
X114197857Y-44842857D02*
X114150238Y-44938095D01*
X114150238Y-44938095D02*
X114150238Y-45080952D01*
X114150238Y-45080952D02*
X114197857Y-45176190D01*
X114197857Y-45176190D02*
X114245476Y-45223809D01*
X114245476Y-45223809D02*
X114340714Y-45271428D01*
X114340714Y-45271428D02*
X114721666Y-45271428D01*
X113864523Y-44747619D02*
X113531190Y-45747619D01*
X113531190Y-45747619D02*
X113197857Y-44747619D01*
X112959761Y-44747619D02*
X112340714Y-44747619D01*
X112340714Y-44747619D02*
X112674047Y-45128571D01*
X112674047Y-45128571D02*
X112531190Y-45128571D01*
X112531190Y-45128571D02*
X112435952Y-45176190D01*
X112435952Y-45176190D02*
X112388333Y-45223809D01*
X112388333Y-45223809D02*
X112340714Y-45319047D01*
X112340714Y-45319047D02*
X112340714Y-45557142D01*
X112340714Y-45557142D02*
X112388333Y-45652380D01*
X112388333Y-45652380D02*
X112435952Y-45700000D01*
X112435952Y-45700000D02*
X112531190Y-45747619D01*
X112531190Y-45747619D02*
X112816904Y-45747619D01*
X112816904Y-45747619D02*
X112912142Y-45700000D01*
X112912142Y-45700000D02*
X112959761Y-45652380D01*
%TO.C,RV9*%
X88900238Y-65747619D02*
X89233571Y-65271428D01*
X89471666Y-65747619D02*
X89471666Y-64747619D01*
X89471666Y-64747619D02*
X89090714Y-64747619D01*
X89090714Y-64747619D02*
X88995476Y-64795238D01*
X88995476Y-64795238D02*
X88947857Y-64842857D01*
X88947857Y-64842857D02*
X88900238Y-64938095D01*
X88900238Y-64938095D02*
X88900238Y-65080952D01*
X88900238Y-65080952D02*
X88947857Y-65176190D01*
X88947857Y-65176190D02*
X88995476Y-65223809D01*
X88995476Y-65223809D02*
X89090714Y-65271428D01*
X89090714Y-65271428D02*
X89471666Y-65271428D01*
X88614523Y-64747619D02*
X88281190Y-65747619D01*
X88281190Y-65747619D02*
X87947857Y-64747619D01*
X87566904Y-65747619D02*
X87376428Y-65747619D01*
X87376428Y-65747619D02*
X87281190Y-65700000D01*
X87281190Y-65700000D02*
X87233571Y-65652380D01*
X87233571Y-65652380D02*
X87138333Y-65509523D01*
X87138333Y-65509523D02*
X87090714Y-65319047D01*
X87090714Y-65319047D02*
X87090714Y-64938095D01*
X87090714Y-64938095D02*
X87138333Y-64842857D01*
X87138333Y-64842857D02*
X87185952Y-64795238D01*
X87185952Y-64795238D02*
X87281190Y-64747619D01*
X87281190Y-64747619D02*
X87471666Y-64747619D01*
X87471666Y-64747619D02*
X87566904Y-64795238D01*
X87566904Y-64795238D02*
X87614523Y-64842857D01*
X87614523Y-64842857D02*
X87662142Y-64938095D01*
X87662142Y-64938095D02*
X87662142Y-65176190D01*
X87662142Y-65176190D02*
X87614523Y-65271428D01*
X87614523Y-65271428D02*
X87566904Y-65319047D01*
X87566904Y-65319047D02*
X87471666Y-65366666D01*
X87471666Y-65366666D02*
X87281190Y-65366666D01*
X87281190Y-65366666D02*
X87185952Y-65319047D01*
X87185952Y-65319047D02*
X87138333Y-65271428D01*
X87138333Y-65271428D02*
X87090714Y-65176190D01*
%TO.C,J11*%
X48262611Y-39690476D02*
X48976896Y-39690476D01*
X48976896Y-39690476D02*
X49119753Y-39642857D01*
X49119753Y-39642857D02*
X49214992Y-39547619D01*
X49214992Y-39547619D02*
X49262611Y-39404762D01*
X49262611Y-39404762D02*
X49262611Y-39309524D01*
X49262611Y-40690476D02*
X49262611Y-40119048D01*
X49262611Y-40404762D02*
X48262611Y-40404762D01*
X48262611Y-40404762D02*
X48405468Y-40309524D01*
X48405468Y-40309524D02*
X48500706Y-40214286D01*
X48500706Y-40214286D02*
X48548325Y-40119048D01*
X49262611Y-41642857D02*
X49262611Y-41071429D01*
X49262611Y-41357143D02*
X48262611Y-41357143D01*
X48262611Y-41357143D02*
X48405468Y-41261905D01*
X48405468Y-41261905D02*
X48500706Y-41166667D01*
X48500706Y-41166667D02*
X48548325Y-41071429D01*
%TO.C,J8*%
X110662612Y-35166666D02*
X111376897Y-35166666D01*
X111376897Y-35166666D02*
X111519754Y-35119047D01*
X111519754Y-35119047D02*
X111614993Y-35023809D01*
X111614993Y-35023809D02*
X111662612Y-34880952D01*
X111662612Y-34880952D02*
X111662612Y-34785714D01*
X111091183Y-35785714D02*
X111043564Y-35690476D01*
X111043564Y-35690476D02*
X110995945Y-35642857D01*
X110995945Y-35642857D02*
X110900707Y-35595238D01*
X110900707Y-35595238D02*
X110853088Y-35595238D01*
X110853088Y-35595238D02*
X110757850Y-35642857D01*
X110757850Y-35642857D02*
X110710231Y-35690476D01*
X110710231Y-35690476D02*
X110662612Y-35785714D01*
X110662612Y-35785714D02*
X110662612Y-35976190D01*
X110662612Y-35976190D02*
X110710231Y-36071428D01*
X110710231Y-36071428D02*
X110757850Y-36119047D01*
X110757850Y-36119047D02*
X110853088Y-36166666D01*
X110853088Y-36166666D02*
X110900707Y-36166666D01*
X110900707Y-36166666D02*
X110995945Y-36119047D01*
X110995945Y-36119047D02*
X111043564Y-36071428D01*
X111043564Y-36071428D02*
X111091183Y-35976190D01*
X111091183Y-35976190D02*
X111091183Y-35785714D01*
X111091183Y-35785714D02*
X111138802Y-35690476D01*
X111138802Y-35690476D02*
X111186421Y-35642857D01*
X111186421Y-35642857D02*
X111281659Y-35595238D01*
X111281659Y-35595238D02*
X111472135Y-35595238D01*
X111472135Y-35595238D02*
X111567373Y-35642857D01*
X111567373Y-35642857D02*
X111614993Y-35690476D01*
X111614993Y-35690476D02*
X111662612Y-35785714D01*
X111662612Y-35785714D02*
X111662612Y-35976190D01*
X111662612Y-35976190D02*
X111614993Y-36071428D01*
X111614993Y-36071428D02*
X111567373Y-36119047D01*
X111567373Y-36119047D02*
X111472135Y-36166666D01*
X111472135Y-36166666D02*
X111281659Y-36166666D01*
X111281659Y-36166666D02*
X111186421Y-36119047D01*
X111186421Y-36119047D02*
X111138802Y-36071428D01*
X111138802Y-36071428D02*
X111091183Y-35976190D01*
%TO.C,J6*%
X148233333Y-105762619D02*
X148233333Y-106476904D01*
X148233333Y-106476904D02*
X148280952Y-106619761D01*
X148280952Y-106619761D02*
X148376190Y-106715000D01*
X148376190Y-106715000D02*
X148519047Y-106762619D01*
X148519047Y-106762619D02*
X148614285Y-106762619D01*
X147328571Y-105762619D02*
X147519047Y-105762619D01*
X147519047Y-105762619D02*
X147614285Y-105810238D01*
X147614285Y-105810238D02*
X147661904Y-105857857D01*
X147661904Y-105857857D02*
X147757142Y-106000714D01*
X147757142Y-106000714D02*
X147804761Y-106191190D01*
X147804761Y-106191190D02*
X147804761Y-106572142D01*
X147804761Y-106572142D02*
X147757142Y-106667380D01*
X147757142Y-106667380D02*
X147709523Y-106715000D01*
X147709523Y-106715000D02*
X147614285Y-106762619D01*
X147614285Y-106762619D02*
X147423809Y-106762619D01*
X147423809Y-106762619D02*
X147328571Y-106715000D01*
X147328571Y-106715000D02*
X147280952Y-106667380D01*
X147280952Y-106667380D02*
X147233333Y-106572142D01*
X147233333Y-106572142D02*
X147233333Y-106334047D01*
X147233333Y-106334047D02*
X147280952Y-106238809D01*
X147280952Y-106238809D02*
X147328571Y-106191190D01*
X147328571Y-106191190D02*
X147423809Y-106143571D01*
X147423809Y-106143571D02*
X147614285Y-106143571D01*
X147614285Y-106143571D02*
X147709523Y-106191190D01*
X147709523Y-106191190D02*
X147757142Y-106238809D01*
X147757142Y-106238809D02*
X147804761Y-106334047D01*
%TO.C,RV8*%
X114150238Y-65747619D02*
X114483571Y-65271428D01*
X114721666Y-65747619D02*
X114721666Y-64747619D01*
X114721666Y-64747619D02*
X114340714Y-64747619D01*
X114340714Y-64747619D02*
X114245476Y-64795238D01*
X114245476Y-64795238D02*
X114197857Y-64842857D01*
X114197857Y-64842857D02*
X114150238Y-64938095D01*
X114150238Y-64938095D02*
X114150238Y-65080952D01*
X114150238Y-65080952D02*
X114197857Y-65176190D01*
X114197857Y-65176190D02*
X114245476Y-65223809D01*
X114245476Y-65223809D02*
X114340714Y-65271428D01*
X114340714Y-65271428D02*
X114721666Y-65271428D01*
X113864523Y-64747619D02*
X113531190Y-65747619D01*
X113531190Y-65747619D02*
X113197857Y-64747619D01*
X112721666Y-65176190D02*
X112816904Y-65128571D01*
X112816904Y-65128571D02*
X112864523Y-65080952D01*
X112864523Y-65080952D02*
X112912142Y-64985714D01*
X112912142Y-64985714D02*
X112912142Y-64938095D01*
X112912142Y-64938095D02*
X112864523Y-64842857D01*
X112864523Y-64842857D02*
X112816904Y-64795238D01*
X112816904Y-64795238D02*
X112721666Y-64747619D01*
X112721666Y-64747619D02*
X112531190Y-64747619D01*
X112531190Y-64747619D02*
X112435952Y-64795238D01*
X112435952Y-64795238D02*
X112388333Y-64842857D01*
X112388333Y-64842857D02*
X112340714Y-64938095D01*
X112340714Y-64938095D02*
X112340714Y-64985714D01*
X112340714Y-64985714D02*
X112388333Y-65080952D01*
X112388333Y-65080952D02*
X112435952Y-65128571D01*
X112435952Y-65128571D02*
X112531190Y-65176190D01*
X112531190Y-65176190D02*
X112721666Y-65176190D01*
X112721666Y-65176190D02*
X112816904Y-65223809D01*
X112816904Y-65223809D02*
X112864523Y-65271428D01*
X112864523Y-65271428D02*
X112912142Y-65366666D01*
X112912142Y-65366666D02*
X112912142Y-65557142D01*
X112912142Y-65557142D02*
X112864523Y-65652380D01*
X112864523Y-65652380D02*
X112816904Y-65700000D01*
X112816904Y-65700000D02*
X112721666Y-65747619D01*
X112721666Y-65747619D02*
X112531190Y-65747619D01*
X112531190Y-65747619D02*
X112435952Y-65700000D01*
X112435952Y-65700000D02*
X112388333Y-65652380D01*
X112388333Y-65652380D02*
X112340714Y-65557142D01*
X112340714Y-65557142D02*
X112340714Y-65366666D01*
X112340714Y-65366666D02*
X112388333Y-65271428D01*
X112388333Y-65271428D02*
X112435952Y-65223809D01*
X112435952Y-65223809D02*
X112531190Y-65176190D01*
%TO.C,RV5*%
X76150238Y-45747619D02*
X76483571Y-45271428D01*
X76721666Y-45747619D02*
X76721666Y-44747619D01*
X76721666Y-44747619D02*
X76340714Y-44747619D01*
X76340714Y-44747619D02*
X76245476Y-44795238D01*
X76245476Y-44795238D02*
X76197857Y-44842857D01*
X76197857Y-44842857D02*
X76150238Y-44938095D01*
X76150238Y-44938095D02*
X76150238Y-45080952D01*
X76150238Y-45080952D02*
X76197857Y-45176190D01*
X76197857Y-45176190D02*
X76245476Y-45223809D01*
X76245476Y-45223809D02*
X76340714Y-45271428D01*
X76340714Y-45271428D02*
X76721666Y-45271428D01*
X75864523Y-44747619D02*
X75531190Y-45747619D01*
X75531190Y-45747619D02*
X75197857Y-44747619D01*
X74388333Y-44747619D02*
X74864523Y-44747619D01*
X74864523Y-44747619D02*
X74912142Y-45223809D01*
X74912142Y-45223809D02*
X74864523Y-45176190D01*
X74864523Y-45176190D02*
X74769285Y-45128571D01*
X74769285Y-45128571D02*
X74531190Y-45128571D01*
X74531190Y-45128571D02*
X74435952Y-45176190D01*
X74435952Y-45176190D02*
X74388333Y-45223809D01*
X74388333Y-45223809D02*
X74340714Y-45319047D01*
X74340714Y-45319047D02*
X74340714Y-45557142D01*
X74340714Y-45557142D02*
X74388333Y-45652380D01*
X74388333Y-45652380D02*
X74435952Y-45700000D01*
X74435952Y-45700000D02*
X74531190Y-45747619D01*
X74531190Y-45747619D02*
X74769285Y-45747619D01*
X74769285Y-45747619D02*
X74864523Y-45700000D01*
X74864523Y-45700000D02*
X74912142Y-45652380D01*
%TO.C,RV12*%
X76626428Y-90747619D02*
X76959761Y-90271428D01*
X77197856Y-90747619D02*
X77197856Y-89747619D01*
X77197856Y-89747619D02*
X76816904Y-89747619D01*
X76816904Y-89747619D02*
X76721666Y-89795238D01*
X76721666Y-89795238D02*
X76674047Y-89842857D01*
X76674047Y-89842857D02*
X76626428Y-89938095D01*
X76626428Y-89938095D02*
X76626428Y-90080952D01*
X76626428Y-90080952D02*
X76674047Y-90176190D01*
X76674047Y-90176190D02*
X76721666Y-90223809D01*
X76721666Y-90223809D02*
X76816904Y-90271428D01*
X76816904Y-90271428D02*
X77197856Y-90271428D01*
X76340713Y-89747619D02*
X76007380Y-90747619D01*
X76007380Y-90747619D02*
X75674047Y-89747619D01*
X74816904Y-90747619D02*
X75388332Y-90747619D01*
X75102618Y-90747619D02*
X75102618Y-89747619D01*
X75102618Y-89747619D02*
X75197856Y-89890476D01*
X75197856Y-89890476D02*
X75293094Y-89985714D01*
X75293094Y-89985714D02*
X75388332Y-90033333D01*
X74435951Y-89842857D02*
X74388332Y-89795238D01*
X74388332Y-89795238D02*
X74293094Y-89747619D01*
X74293094Y-89747619D02*
X74054999Y-89747619D01*
X74054999Y-89747619D02*
X73959761Y-89795238D01*
X73959761Y-89795238D02*
X73912142Y-89842857D01*
X73912142Y-89842857D02*
X73864523Y-89938095D01*
X73864523Y-89938095D02*
X73864523Y-90033333D01*
X73864523Y-90033333D02*
X73912142Y-90176190D01*
X73912142Y-90176190D02*
X74483570Y-90747619D01*
X74483570Y-90747619D02*
X73864523Y-90747619D01*
%TO.C,RV7*%
X38150238Y-45747619D02*
X38483571Y-45271428D01*
X38721666Y-45747619D02*
X38721666Y-44747619D01*
X38721666Y-44747619D02*
X38340714Y-44747619D01*
X38340714Y-44747619D02*
X38245476Y-44795238D01*
X38245476Y-44795238D02*
X38197857Y-44842857D01*
X38197857Y-44842857D02*
X38150238Y-44938095D01*
X38150238Y-44938095D02*
X38150238Y-45080952D01*
X38150238Y-45080952D02*
X38197857Y-45176190D01*
X38197857Y-45176190D02*
X38245476Y-45223809D01*
X38245476Y-45223809D02*
X38340714Y-45271428D01*
X38340714Y-45271428D02*
X38721666Y-45271428D01*
X37864523Y-44747619D02*
X37531190Y-45747619D01*
X37531190Y-45747619D02*
X37197857Y-44747619D01*
X36959761Y-44747619D02*
X36293095Y-44747619D01*
X36293095Y-44747619D02*
X36721666Y-45747619D01*
%TO.C,RV6*%
X57150238Y-45747619D02*
X57483571Y-45271428D01*
X57721666Y-45747619D02*
X57721666Y-44747619D01*
X57721666Y-44747619D02*
X57340714Y-44747619D01*
X57340714Y-44747619D02*
X57245476Y-44795238D01*
X57245476Y-44795238D02*
X57197857Y-44842857D01*
X57197857Y-44842857D02*
X57150238Y-44938095D01*
X57150238Y-44938095D02*
X57150238Y-45080952D01*
X57150238Y-45080952D02*
X57197857Y-45176190D01*
X57197857Y-45176190D02*
X57245476Y-45223809D01*
X57245476Y-45223809D02*
X57340714Y-45271428D01*
X57340714Y-45271428D02*
X57721666Y-45271428D01*
X56864523Y-44747619D02*
X56531190Y-45747619D01*
X56531190Y-45747619D02*
X56197857Y-44747619D01*
X55435952Y-44747619D02*
X55626428Y-44747619D01*
X55626428Y-44747619D02*
X55721666Y-44795238D01*
X55721666Y-44795238D02*
X55769285Y-44842857D01*
X55769285Y-44842857D02*
X55864523Y-44985714D01*
X55864523Y-44985714D02*
X55912142Y-45176190D01*
X55912142Y-45176190D02*
X55912142Y-45557142D01*
X55912142Y-45557142D02*
X55864523Y-45652380D01*
X55864523Y-45652380D02*
X55816904Y-45700000D01*
X55816904Y-45700000D02*
X55721666Y-45747619D01*
X55721666Y-45747619D02*
X55531190Y-45747619D01*
X55531190Y-45747619D02*
X55435952Y-45700000D01*
X55435952Y-45700000D02*
X55388333Y-45652380D01*
X55388333Y-45652380D02*
X55340714Y-45557142D01*
X55340714Y-45557142D02*
X55340714Y-45319047D01*
X55340714Y-45319047D02*
X55388333Y-45223809D01*
X55388333Y-45223809D02*
X55435952Y-45176190D01*
X55435952Y-45176190D02*
X55531190Y-45128571D01*
X55531190Y-45128571D02*
X55721666Y-45128571D01*
X55721666Y-45128571D02*
X55816904Y-45176190D01*
X55816904Y-45176190D02*
X55864523Y-45223809D01*
X55864523Y-45223809D02*
X55912142Y-45319047D01*
%TO.C,J9*%
X85412624Y-35166666D02*
X86126909Y-35166666D01*
X86126909Y-35166666D02*
X86269766Y-35119047D01*
X86269766Y-35119047D02*
X86365005Y-35023809D01*
X86365005Y-35023809D02*
X86412624Y-34880952D01*
X86412624Y-34880952D02*
X86412624Y-34785714D01*
X86412624Y-35690476D02*
X86412624Y-35880952D01*
X86412624Y-35880952D02*
X86365005Y-35976190D01*
X86365005Y-35976190D02*
X86317385Y-36023809D01*
X86317385Y-36023809D02*
X86174528Y-36119047D01*
X86174528Y-36119047D02*
X85984052Y-36166666D01*
X85984052Y-36166666D02*
X85603100Y-36166666D01*
X85603100Y-36166666D02*
X85507862Y-36119047D01*
X85507862Y-36119047D02*
X85460243Y-36071428D01*
X85460243Y-36071428D02*
X85412624Y-35976190D01*
X85412624Y-35976190D02*
X85412624Y-35785714D01*
X85412624Y-35785714D02*
X85460243Y-35690476D01*
X85460243Y-35690476D02*
X85507862Y-35642857D01*
X85507862Y-35642857D02*
X85603100Y-35595238D01*
X85603100Y-35595238D02*
X85841195Y-35595238D01*
X85841195Y-35595238D02*
X85936433Y-35642857D01*
X85936433Y-35642857D02*
X85984052Y-35690476D01*
X85984052Y-35690476D02*
X86031671Y-35785714D01*
X86031671Y-35785714D02*
X86031671Y-35976190D01*
X86031671Y-35976190D02*
X85984052Y-36071428D01*
X85984052Y-36071428D02*
X85936433Y-36119047D01*
X85936433Y-36119047D02*
X85841195Y-36166666D01*
D11*
%TO.C,J10*%
X71750005Y-33500000D02*
X61250005Y-33500000D01*
X71750005Y-33500000D02*
X71750005Y-36500000D01*
X61250005Y-33500000D02*
X61250005Y-36400000D01*
X71750005Y-39500000D02*
X71750005Y-42500000D01*
X61250005Y-39600000D02*
X61250005Y-42500000D01*
X71750005Y-42500000D02*
X61250005Y-42500000D01*
D12*
X69790004Y-36603000D02*
G75*
G03*
X69790004Y-39397000I-2539999J-1397000D01*
G01*
X69050005Y-38000000D02*
G75*
G03*
X69050005Y-38000000I-1800000J0D01*
G01*
%TO.C,RV11*%
X114880000Y-102620000D02*
X114880000Y-97900000D01*
X114870000Y-94090000D02*
X114870000Y-91030000D01*
X113690000Y-102620000D02*
X114870000Y-102620000D01*
X110790000Y-102620000D02*
X111320000Y-102620000D01*
X110500000Y-96000000D02*
X109500000Y-96000000D01*
X110000000Y-95500000D02*
X110000000Y-96500000D01*
X108340000Y-102620000D02*
X109170000Y-102620000D01*
X105130000Y-102620000D02*
X106620000Y-102620000D01*
X105130000Y-102620000D02*
X105130000Y-97900000D01*
X105130000Y-94090000D02*
X105130000Y-91030000D01*
X105130000Y-91030000D02*
X114870000Y-91030000D01*
%TO.C,RV4*%
X103880000Y-57620000D02*
X103880000Y-52900000D01*
X103870000Y-49090000D02*
X103870000Y-46030000D01*
X102690000Y-57620000D02*
X103870000Y-57620000D01*
X99790000Y-57620000D02*
X100320000Y-57620000D01*
X99500000Y-51000000D02*
X98500000Y-51000000D01*
X99000000Y-50500000D02*
X99000000Y-51500000D01*
X97340000Y-57620000D02*
X98170000Y-57620000D01*
X94130000Y-57620000D02*
X95620000Y-57620000D01*
X94130000Y-57620000D02*
X94130000Y-52900000D01*
X94130000Y-49090000D02*
X94130000Y-46030000D01*
X94130000Y-46030000D02*
X103870000Y-46030000D01*
%TO.C,RV13*%
X54880000Y-102620000D02*
X54880000Y-97900000D01*
X54870000Y-94090000D02*
X54870000Y-91030000D01*
X53690000Y-102620000D02*
X54870000Y-102620000D01*
X50790000Y-102620000D02*
X51320000Y-102620000D01*
X50500000Y-96000000D02*
X49500000Y-96000000D01*
X50000000Y-95500000D02*
X50000000Y-96500000D01*
X48340000Y-102620000D02*
X49170000Y-102620000D01*
X45130000Y-102620000D02*
X46620000Y-102620000D01*
X45130000Y-102620000D02*
X45130000Y-97900000D01*
X45130000Y-94090000D02*
X45130000Y-91030000D01*
X45130000Y-91030000D02*
X54870000Y-91030000D01*
%TO.C,RV10*%
X72180000Y-77620000D02*
X72180000Y-72900000D01*
X72170000Y-69090000D02*
X72170000Y-66030000D01*
X70990000Y-77620000D02*
X72170000Y-77620000D01*
X68090000Y-77620000D02*
X68620000Y-77620000D01*
X67800000Y-71000000D02*
X66800000Y-71000000D01*
X67300000Y-70500000D02*
X67300000Y-71500000D01*
X65640000Y-77620000D02*
X66470000Y-77620000D01*
X62430000Y-77620000D02*
X63920000Y-77620000D01*
X62430000Y-77620000D02*
X62430000Y-72900000D01*
X62430000Y-69090000D02*
X62430000Y-66030000D01*
X62430000Y-66030000D02*
X72170000Y-66030000D01*
%TO.C,SW1*%
X46137000Y-75093000D02*
X37937000Y-75093000D01*
X46137000Y-66893000D02*
X46137000Y-75093000D01*
X42037000Y-70493000D02*
X42037000Y-71493000D01*
X41537000Y-70993000D02*
X42537000Y-70993000D01*
X37937000Y-75093000D02*
X37937000Y-66893000D01*
X37937000Y-66893000D02*
X46137000Y-66893000D01*
X42537000Y-70993000D02*
G75*
G03*
X42537000Y-70993000I-500000J0D01*
G01*
%TO.C,J7*%
X185605000Y-87790000D02*
X180405000Y-87790000D01*
X185605000Y-64870000D02*
X185605000Y-87790000D01*
X185605000Y-64870000D02*
X183005000Y-64870000D01*
X185605000Y-63600000D02*
X185605000Y-62270000D01*
X185605000Y-62270000D02*
X184275000Y-62270000D01*
X183005000Y-64870000D02*
X183005000Y-62270000D01*
X183005000Y-62270000D02*
X180405000Y-62270000D01*
X180405000Y-62270000D02*
X180405000Y-87790000D01*
%TO.C,RV3*%
X122880000Y-57620000D02*
X122880000Y-52900000D01*
X122870000Y-49090000D02*
X122870000Y-46030000D01*
X121690000Y-57620000D02*
X122870000Y-57620000D01*
X118790000Y-57620000D02*
X119320000Y-57620000D01*
X118500000Y-51000000D02*
X117500000Y-51000000D01*
X118000000Y-50500000D02*
X118000000Y-51500000D01*
X116340000Y-57620000D02*
X117170000Y-57620000D01*
X113130000Y-57620000D02*
X114620000Y-57620000D01*
X113130000Y-57620000D02*
X113130000Y-52900000D01*
X113130000Y-49090000D02*
X113130000Y-46030000D01*
X113130000Y-46030000D02*
X122870000Y-46030000D01*
%TO.C,RV9*%
X97630000Y-77620000D02*
X97630000Y-72900000D01*
X97620000Y-69090000D02*
X97620000Y-66030000D01*
X96440000Y-77620000D02*
X97620000Y-77620000D01*
X93540000Y-77620000D02*
X94070000Y-77620000D01*
X93250000Y-71000000D02*
X92250000Y-71000000D01*
X92750000Y-70500000D02*
X92750000Y-71500000D01*
X91090000Y-77620000D02*
X91920000Y-77620000D01*
X87880000Y-77620000D02*
X89370000Y-77620000D01*
X87880000Y-77620000D02*
X87880000Y-72900000D01*
X87880000Y-69090000D02*
X87880000Y-66030000D01*
X87880000Y-66030000D02*
X97620000Y-66030000D01*
D11*
%TO.C,J11*%
X37499992Y-42500000D02*
X47999992Y-42500000D01*
X37499992Y-42500000D02*
X37499992Y-39500000D01*
X47999992Y-42500000D02*
X47999992Y-39600000D01*
X37499992Y-36500000D02*
X37499992Y-33500000D01*
X47999992Y-36400000D02*
X47999992Y-33500000D01*
X37499992Y-33500000D02*
X47999992Y-33500000D01*
D12*
X39459993Y-39397000D02*
G75*
G03*
X39459993Y-36603000I2539999J1397000D01*
G01*
X43799992Y-38000000D02*
G75*
G03*
X43799992Y-38000000I-1800000J0D01*
G01*
D11*
%TO.C,J8*%
X122499993Y-33500000D02*
X111999993Y-33500000D01*
X122499993Y-33500000D02*
X122499993Y-36500000D01*
X111999993Y-33500000D02*
X111999993Y-36400000D01*
X122499993Y-39500000D02*
X122499993Y-42500000D01*
X111999993Y-39600000D02*
X111999993Y-42500000D01*
X122499993Y-42500000D02*
X111999993Y-42500000D01*
D12*
X120539992Y-36603000D02*
G75*
G03*
X120539992Y-39397000I-2539999J-1397000D01*
G01*
X119799993Y-38000000D02*
G75*
G03*
X119799993Y-38000000I-1800000J0D01*
G01*
%TO.C,J6*%
X149130000Y-117850000D02*
X146470000Y-117850000D01*
X149130000Y-110170000D02*
X149130000Y-117850000D01*
X149130000Y-110170000D02*
X146470000Y-110170000D01*
X149130000Y-108900000D02*
X149130000Y-107570000D01*
X149130000Y-107570000D02*
X147800000Y-107570000D01*
X146470000Y-110170000D02*
X146470000Y-117850000D01*
%TO.C,RV8*%
X122880000Y-77620000D02*
X122880000Y-72900000D01*
X122870000Y-69090000D02*
X122870000Y-66030000D01*
X121690000Y-77620000D02*
X122870000Y-77620000D01*
X118790000Y-77620000D02*
X119320000Y-77620000D01*
X118500000Y-71000000D02*
X117500000Y-71000000D01*
X118000000Y-70500000D02*
X118000000Y-71500000D01*
X116340000Y-77620000D02*
X117170000Y-77620000D01*
X113130000Y-77620000D02*
X114620000Y-77620000D01*
X113130000Y-77620000D02*
X113130000Y-72900000D01*
X113130000Y-69090000D02*
X113130000Y-66030000D01*
X113130000Y-66030000D02*
X122870000Y-66030000D01*
%TO.C,RV5*%
X84880000Y-57620000D02*
X84880000Y-52900000D01*
X84870000Y-49090000D02*
X84870000Y-46030000D01*
X83690000Y-57620000D02*
X84870000Y-57620000D01*
X80790000Y-57620000D02*
X81320000Y-57620000D01*
X80500000Y-51000000D02*
X79500000Y-51000000D01*
X80000000Y-50500000D02*
X80000000Y-51500000D01*
X78340000Y-57620000D02*
X79170000Y-57620000D01*
X75130000Y-57620000D02*
X76620000Y-57620000D01*
X75130000Y-57620000D02*
X75130000Y-52900000D01*
X75130000Y-49090000D02*
X75130000Y-46030000D01*
X75130000Y-46030000D02*
X84870000Y-46030000D01*
%TO.C,RV12*%
X84880000Y-102620000D02*
X84880000Y-97900000D01*
X84870000Y-94090000D02*
X84870000Y-91030000D01*
X83690000Y-102620000D02*
X84870000Y-102620000D01*
X80790000Y-102620000D02*
X81320000Y-102620000D01*
X80500000Y-96000000D02*
X79500000Y-96000000D01*
X80000000Y-95500000D02*
X80000000Y-96500000D01*
X78340000Y-102620000D02*
X79170000Y-102620000D01*
X75130000Y-102620000D02*
X76620000Y-102620000D01*
X75130000Y-102620000D02*
X75130000Y-97900000D01*
X75130000Y-94090000D02*
X75130000Y-91030000D01*
X75130000Y-91030000D02*
X84870000Y-91030000D01*
%TO.C,RV7*%
X46880000Y-57620000D02*
X46880000Y-52900000D01*
X46870000Y-49090000D02*
X46870000Y-46030000D01*
X45690000Y-57620000D02*
X46870000Y-57620000D01*
X42790000Y-57620000D02*
X43320000Y-57620000D01*
X42500000Y-51000000D02*
X41500000Y-51000000D01*
X42000000Y-50500000D02*
X42000000Y-51500000D01*
X40340000Y-57620000D02*
X41170000Y-57620000D01*
X37130000Y-57620000D02*
X38620000Y-57620000D01*
X37130000Y-57620000D02*
X37130000Y-52900000D01*
X37130000Y-49090000D02*
X37130000Y-46030000D01*
X37130000Y-46030000D02*
X46870000Y-46030000D01*
%TO.C,RV6*%
X65880000Y-57620000D02*
X65880000Y-52900000D01*
X65870000Y-49090000D02*
X65870000Y-46030000D01*
X64690000Y-57620000D02*
X65870000Y-57620000D01*
X61790000Y-57620000D02*
X62320000Y-57620000D01*
X61500000Y-51000000D02*
X60500000Y-51000000D01*
X61000000Y-50500000D02*
X61000000Y-51500000D01*
X59340000Y-57620000D02*
X60170000Y-57620000D01*
X56130000Y-57620000D02*
X57620000Y-57620000D01*
X56130000Y-57620000D02*
X56130000Y-52900000D01*
X56130000Y-49090000D02*
X56130000Y-46030000D01*
X56130000Y-46030000D02*
X65870000Y-46030000D01*
D11*
%TO.C,J9*%
X97250005Y-33500000D02*
X86750005Y-33500000D01*
X97250005Y-33500000D02*
X97250005Y-36500000D01*
X86750005Y-33500000D02*
X86750005Y-36400000D01*
X97250005Y-39500000D02*
X97250005Y-42500000D01*
X86750005Y-39600000D02*
X86750005Y-42500000D01*
X97250005Y-42500000D02*
X86750005Y-42500000D01*
D12*
X95290004Y-36603000D02*
G75*
G03*
X95290004Y-39397000I-2539999J-1397000D01*
G01*
X94550005Y-38000000D02*
G75*
G03*
X94550005Y-38000000I-1800000J0D01*
G01*
%TD*%
M02*
