M48
; DRILL file {KiCad (6.0.0-0)} date Monday, 11 April 2022 at 21:39:20
; FORMAT={-:-/ absolute / metric / decimal}
; #@! TF.CreationDate,2022-04-11T21:39:20+01:00
; #@! TF.GenerationSoftware,Kicad,Pcbnew,(6.0.0-0)
; #@! TF.FileFunction,MixedPlating,1,2
FMAT,2
METRIC
; #@! TA.AperFunction,Plated,PTH,ViaDrill
T1C0.381
; #@! TA.AperFunction,Plated,PTH,ComponentDrill
T2C0.600
; #@! TA.AperFunction,Plated,PTH,ComponentDrill
T3C0.800
; #@! TA.AperFunction,Plated,PTH,ComponentDrill
T4C0.900
; #@! TA.AperFunction,Plated,PTH,ComponentDrill
T5C1.000
; #@! TA.AperFunction,Plated,PTH,ComponentDrill
T6C1.800
; #@! TA.AperFunction,Plated,PTH,ComponentDrill
T7C1.900
%
G90
G05
T1
X55.88Y-53.594
X57.912Y-59.563
X79.629Y-60.833
X79.756Y-66.802
X82.423Y-65.151
X83.185Y-77.343
X92.329Y-75.184
X94.742Y-51.435
X104.013Y-68.58
X106.045Y-75.311
X108.331Y-85.725
X109.347Y-69.85
X123.19Y-72.136
X127.381Y-46.482
X129.032Y-74.803
X133.477Y-55.626
X133.985Y-40.513
X147.701Y-48.768
X148.971Y-58.42
X153.543Y-51.054
T3
X52.832Y-50.8
X52.832Y-53.848
X52.832Y-56.896
X52.832Y-59.944
X52.832Y-62.992
X53.34Y-42.164
X53.34Y-46.228
X54.59Y-42.164
X55.88Y-46.228
X57.09Y-42.164
X57.404Y-82.296
X57.404Y-86.36
X58.34Y-42.164
X58.42Y-46.228
X60.452Y-50.8
X60.452Y-53.848
X60.452Y-56.896
X60.452Y-59.944
X60.452Y-62.992
X60.452Y-91.313
X64.008Y-71.0
X64.516Y-55.452
X64.516Y-56.702
X64.516Y-59.202
X64.516Y-60.452
X64.516Y-65.024
X65.024Y-82.296
X65.024Y-86.36
X65.532Y-42.164
X65.532Y-45.212
X65.532Y-48.26
X66.548Y-71.0
X68.072Y-82.296
X68.072Y-86.36
X68.072Y-91.313
X69.088Y-71.0
X69.322Y-82.296
X69.322Y-86.36
X69.596Y-55.372
X69.596Y-57.912
X69.596Y-60.452
X71.822Y-82.296
X71.822Y-86.36
X72.136Y-65.024
X73.025Y-89.916
X73.025Y-91.166
X73.025Y-93.666
X73.025Y-94.916
X73.072Y-82.296
X73.072Y-86.36
X73.152Y-42.164
X73.152Y-45.212
X73.152Y-48.26
X73.152Y-68.58
X73.152Y-69.83
X73.152Y-72.33
X73.152Y-73.58
X75.966Y-46.736
X77.216Y-46.736
X77.216Y-51.308
X77.216Y-53.848
X77.216Y-56.388
X77.216Y-58.928
X77.216Y-61.468
X77.216Y-64.008
X77.216Y-66.548
X78.74Y-70.612
X79.716Y-46.736
X79.99Y-70.612
X80.966Y-46.736
X81.026Y-82.042
X81.28Y-42.164
X82.49Y-70.612
X83.74Y-70.612
X84.836Y-51.308
X84.836Y-53.848
X84.836Y-56.388
X84.836Y-58.928
X84.836Y-61.468
X84.836Y-64.008
X84.836Y-66.548
X87.376Y-84.836
X87.376Y-92.456
X88.392Y-58.928
X88.392Y-66.548
X88.646Y-82.042
X88.9Y-42.164
X89.0Y-48.848
X89.0Y-50.098
X89.0Y-52.598
X89.0Y-53.848
X90.424Y-84.836
X90.424Y-92.456
X93.472Y-84.836
X93.472Y-92.456
X95.504Y-41.656
X95.504Y-44.156
X96.52Y-55.96
X96.52Y-57.21
X96.52Y-59.71
X96.52Y-60.96
X96.52Y-64.008
X96.52Y-71.628
X97.028Y-84.836
X97.85Y-75.692
X99.06Y-64.008
X99.06Y-71.628
X99.06Y-80.772
X99.1Y-75.692
X101.6Y-64.008
X101.6Y-71.628
X101.6Y-75.692
X101.6Y-80.772
X102.616Y-42.164
X102.616Y-45.212
X102.616Y-48.26
X102.616Y-51.308
X102.85Y-75.692
X104.14Y-64.008
X104.14Y-71.628
X104.14Y-80.772
X104.648Y-84.836
X108.204Y-60.024
X108.204Y-61.274
X108.204Y-63.774
X108.204Y-65.024
X110.236Y-42.164
X110.236Y-45.212
X110.236Y-48.26
X110.236Y-51.308
X110.744Y-74.676
X112.079Y-66.04
X113.792Y-85.852
X113.792Y-93.472
X114.579Y-66.04
X117.348Y-81.28
X117.348Y-85.852
X117.348Y-93.472
X118.364Y-74.676
X118.872Y-62.484
X118.872Y-65.532
X118.872Y-68.58
X119.848Y-81.28
X120.904Y-85.852
X120.904Y-93.472
X120.984Y-54.864
X120.984Y-58.928
X122.234Y-54.864
X122.234Y-58.928
X123.444Y-85.852
X123.444Y-93.472
X123.952Y-96.52
X123.952Y-104.14
X124.734Y-54.864
X124.734Y-58.928
X124.774Y-81.788
X125.476Y-42.164
X125.476Y-49.784
X125.984Y-54.864
X125.984Y-58.928
X125.984Y-85.852
X125.984Y-93.472
X126.024Y-81.788
X126.492Y-62.484
X126.492Y-65.532
X126.492Y-68.58
X128.016Y-97.028
X128.016Y-98.278
X128.016Y-100.778
X128.016Y-102.028
X128.524Y-78.232
X128.524Y-81.788
X128.524Y-85.852
X128.524Y-93.472
X129.54Y-47.244
X129.54Y-50.292
X129.54Y-53.34
X129.54Y-55.88
X129.54Y-58.42
X129.54Y-60.96
X129.54Y-63.5
X129.54Y-66.04
X129.54Y-68.58
X129.54Y-71.12
X129.774Y-81.788
X131.064Y-85.852
X131.064Y-93.472
X132.08Y-96.52
X132.08Y-104.14
X133.604Y-82.296
X133.604Y-85.852
X133.604Y-93.472
X134.112Y-110.236
X134.112Y-117.856
X135.636Y-96.52
X135.636Y-104.14
X136.144Y-78.232
X136.144Y-85.852
X136.144Y-93.472
X137.16Y-47.244
X137.16Y-50.292
X137.16Y-53.34
X137.16Y-55.88
X137.16Y-58.42
X137.16Y-60.96
X137.16Y-63.5
X137.16Y-66.04
X137.16Y-68.58
X137.16Y-71.12
X138.684Y-96.52
X138.684Y-104.14
X140.208Y-63.5
X140.208Y-66.548
X140.208Y-69.596
X140.462Y-51.943
X140.716Y-55.88
X140.716Y-59.944
X141.224Y-82.296
X141.732Y-96.52
X141.732Y-104.14
X141.966Y-55.88
X141.966Y-59.944
X142.24Y-89.448
X142.24Y-91.948
X144.466Y-55.88
X144.466Y-59.944
X144.78Y-96.52
X144.78Y-104.14
X145.716Y-55.88
X145.716Y-59.944
X147.447Y-84.328
X147.828Y-63.5
X147.828Y-66.548
X147.828Y-69.596
X148.082Y-51.943
X150.368Y-64.008
X150.368Y-67.056
X150.368Y-70.104
X150.368Y-73.152
X151.0Y-30.88
X151.0Y-38.5
X151.892Y-103.124
X151.892Y-105.664
X151.892Y-108.204
X152.48Y-56.388
X152.48Y-60.452
X153.73Y-56.388
X153.73Y-60.452
X155.067Y-84.328
X156.23Y-56.388
X156.23Y-60.452
X157.099Y-24.257
X157.099Y-31.877
X157.226Y-101.706
X157.48Y-56.388
X157.48Y-60.452
X157.988Y-64.008
X157.988Y-67.056
X157.988Y-70.104
X157.988Y-73.152
X157.988Y-84.328
X157.988Y-93.472
X157.988Y-96.647
X159.766Y-101.706
X160.02Y-24.384
X160.02Y-32.004
X160.608Y-89.408
X161.0Y-49.784
X161.0Y-52.832
X161.036Y-45.212
X161.036Y-56.388
X161.036Y-58.928
X161.036Y-61.468
X161.036Y-64.008
X161.036Y-66.548
X161.036Y-69.088
X161.036Y-71.628
X161.036Y-74.168
X161.858Y-89.408
X162.306Y-101.706
X164.084Y-38.227
X164.358Y-89.408
X165.608Y-84.328
X165.608Y-89.408
X165.608Y-93.472
X165.608Y-96.647
X166.584Y-38.227
X168.62Y-49.784
X168.62Y-52.832
X168.656Y-45.212
X168.656Y-56.388
X168.656Y-58.928
X168.656Y-61.468
X168.656Y-64.008
X168.656Y-66.548
X168.656Y-69.088
X168.656Y-71.628
X168.656Y-74.168
X168.656Y-84.328
X168.656Y-86.868
X168.656Y-89.408
X168.656Y-91.948
X168.656Y-94.488
X168.656Y-97.028
X168.656Y-99.568
X168.656Y-102.108
X171.704Y-65.532
X171.704Y-68.58
X171.704Y-71.628
X172.212Y-36.235
X172.212Y-38.735
X172.212Y-46.736
X172.212Y-54.356
X172.212Y-57.912
X172.212Y-61.976
X173.462Y-57.912
X173.462Y-61.976
X175.387Y-80.645
X175.962Y-57.912
X175.962Y-61.976
X176.276Y-84.328
X176.276Y-86.868
X176.276Y-89.408
X176.276Y-91.948
X176.276Y-94.488
X176.276Y-97.028
X176.276Y-99.568
X176.276Y-102.108
X176.784Y-108.204
X176.784Y-115.824
X177.212Y-57.912
X177.212Y-61.976
X179.324Y-65.532
X179.324Y-68.58
X179.324Y-71.628
X179.451Y-85.217
X179.451Y-92.583
X179.451Y-95.631
X179.451Y-98.679
X180.34Y-35.814
X180.34Y-38.735
X180.34Y-88.9
X181.59Y-88.9
X183.007Y-75.946
X183.007Y-80.645
X184.09Y-88.9
X185.34Y-88.9
X185.507Y-75.946
X187.071Y-85.217
X187.071Y-92.583
X187.071Y-95.631
X187.071Y-98.679
X187.96Y-35.814
X187.96Y-38.735
T4
X148.463Y-91.948
X151.003Y-91.948
X157.099Y-36.449
X157.099Y-38.989
X183.007Y-44.069
X185.547Y-44.069
T5
X52.578Y-23.749
X53.848Y-79.756
X53.848Y-82.296
X53.848Y-86.36
X53.848Y-88.9
X55.92Y-38.488
X55.92Y-119.26
X58.42Y-38.488
X58.42Y-119.26
X60.92Y-38.488
X60.92Y-119.26
X66.548Y-76.581
X70.144Y-38.488
X70.144Y-119.26
X72.644Y-38.488
X72.644Y-119.26
X75.144Y-38.488
X75.144Y-119.26
X79.248Y-23.876
X84.368Y-38.488
X86.868Y-38.488
X89.368Y-38.488
X94.528Y-119.26
X97.028Y-119.26
X97.409Y-102.489
X99.528Y-119.26
X106.212Y-38.488
X108.712Y-38.488
X108.712Y-80.772
X108.752Y-119.26
X111.212Y-38.488
X111.252Y-119.26
X113.752Y-119.26
X114.681Y-60.071
X115.062Y-42.545
X118.237Y-98.552
X120.436Y-38.488
X122.936Y-38.488
X122.976Y-119.26
X125.436Y-38.488
X125.476Y-119.26
X127.976Y-119.26
X140.0Y-38.5
X142.5Y-38.5
X145.0Y-38.5
X148.971Y-99.06
X165.14Y-118.5
X167.64Y-118.5
X170.14Y-118.5
X173.101Y-26.416
X173.101Y-28.956
X175.641Y-26.416
X175.641Y-28.956
X178.181Y-26.416
X178.181Y-28.956
X180.721Y-26.416
X180.721Y-28.956
X183.261Y-26.416
X183.261Y-28.956
X183.515Y-58.039
X185.42Y-68.453
T6
X53.62Y-30.988
X53.62Y-111.76
X63.22Y-30.988
X63.22Y-111.76
X67.844Y-30.988
X67.844Y-111.76
X77.444Y-30.988
X77.444Y-111.76
X82.068Y-30.988
X91.668Y-30.988
X92.228Y-111.76
X101.828Y-111.76
X103.912Y-30.988
X106.452Y-111.76
X113.512Y-30.988
X116.052Y-111.76
X118.136Y-30.988
X120.676Y-111.76
X127.736Y-30.988
X130.276Y-111.76
X137.7Y-31.0
X147.3Y-31.0
X162.84Y-111.0
X172.44Y-111.0
T7
X98.019Y-37.34
X98.044Y-27.94
X98.044Y-32.64
T2
G00X53.594Y-98.798
M15
G01X53.594Y-97.798
M16
G05
G00X61.894Y-98.798
M15
G01X61.894Y-97.798
M16
G05
G00X64.994Y-98.798
M15
G01X64.994Y-97.798
M16
G05
G00X84.336Y-108.08
M15
G01X85.336Y-108.08
M16
G05
G00X84.336Y-116.38
M15
G01X85.336Y-116.38
M16
G05
G00X84.336Y-119.48
M15
G01X85.336Y-119.48
M16
G05
G00X143.264Y-108.204
M15
G01X144.264Y-108.204
M16
G05
G00X143.264Y-116.504
M15
G01X144.264Y-116.504
M16
G05
G00X143.264Y-119.604
M15
G01X144.264Y-119.604
M16
G05
G00X183.396Y-108.016
M15
G01X184.396Y-108.016
M16
G05
G00X183.396Y-116.316
M15
G01X184.396Y-116.316
M16
G05
G00X183.396Y-119.416
M15
G01X184.396Y-119.416
M16
G05
T0
M30
