%TF.GenerationSoftware,KiCad,Pcbnew,(6.0.0-0)*%
%TF.CreationDate,2022-05-14T19:45:40+01:00*%
%TF.ProjectId,magnum-drum-synth,6d61676e-756d-42d6-9472-756d2d73796e,r01*%
%TF.SameCoordinates,Original*%
%TF.FileFunction,Legend,Bot*%
%TF.FilePolarity,Positive*%
%FSLAX46Y46*%
G04 Gerber Fmt 4.6, Leading zero omitted, Abs format (unit mm)*
G04 Created by KiCad (PCBNEW (6.0.0-0)) date 2022-05-14 19:45:40*
%MOMM*%
%LPD*%
G01*
G04 APERTURE LIST*
%ADD10C,0.150000*%
%ADD11C,0.200000*%
%ADD12C,0.120000*%
G04 APERTURE END LIST*
D10*
X113710380Y-85772761D02*
X112567523Y-85772761D01*
X113138952Y-87772761D02*
X113138952Y-85772761D01*
X111900857Y-87772761D02*
X111900857Y-85772761D01*
X111043714Y-87772761D02*
X111043714Y-86725142D01*
X111138952Y-86534666D01*
X111329428Y-86439428D01*
X111615142Y-86439428D01*
X111805619Y-86534666D01*
X111900857Y-86629904D01*
X110091333Y-87772761D02*
X110091333Y-86439428D01*
X110091333Y-85772761D02*
X110186571Y-85868000D01*
X110091333Y-85963238D01*
X109996095Y-85868000D01*
X110091333Y-85772761D01*
X110091333Y-85963238D01*
X109234190Y-87677523D02*
X109043714Y-87772761D01*
X108662761Y-87772761D01*
X108472285Y-87677523D01*
X108377047Y-87487047D01*
X108377047Y-87391809D01*
X108472285Y-87201333D01*
X108662761Y-87106095D01*
X108948476Y-87106095D01*
X109138952Y-87010857D01*
X109234190Y-86820380D01*
X109234190Y-86725142D01*
X109138952Y-86534666D01*
X108948476Y-86439428D01*
X108662761Y-86439428D01*
X108472285Y-86534666D01*
X106091333Y-87677523D02*
X105900857Y-87772761D01*
X105519904Y-87772761D01*
X105329428Y-87677523D01*
X105234190Y-87487047D01*
X105234190Y-87391809D01*
X105329428Y-87201333D01*
X105519904Y-87106095D01*
X105805619Y-87106095D01*
X105996095Y-87010857D01*
X106091333Y-86820380D01*
X106091333Y-86725142D01*
X105996095Y-86534666D01*
X105805619Y-86439428D01*
X105519904Y-86439428D01*
X105329428Y-86534666D01*
X104377047Y-87772761D02*
X104377047Y-86439428D01*
X104377047Y-85772761D02*
X104472285Y-85868000D01*
X104377047Y-85963238D01*
X104281809Y-85868000D01*
X104377047Y-85772761D01*
X104377047Y-85963238D01*
X102567523Y-87772761D02*
X102567523Y-85772761D01*
X102567523Y-87677523D02*
X102758000Y-87772761D01*
X103138952Y-87772761D01*
X103329428Y-87677523D01*
X103424666Y-87582285D01*
X103519904Y-87391809D01*
X103519904Y-86820380D01*
X103424666Y-86629904D01*
X103329428Y-86534666D01*
X103138952Y-86439428D01*
X102758000Y-86439428D01*
X102567523Y-86534666D01*
X100853238Y-87677523D02*
X101043714Y-87772761D01*
X101424666Y-87772761D01*
X101615142Y-87677523D01*
X101710380Y-87487047D01*
X101710380Y-86725142D01*
X101615142Y-86534666D01*
X101424666Y-86439428D01*
X101043714Y-86439428D01*
X100853238Y-86534666D01*
X100758000Y-86725142D01*
X100758000Y-86915619D01*
X101710380Y-87106095D01*
X98662761Y-86439428D02*
X97900857Y-86439428D01*
X98377047Y-85772761D02*
X98377047Y-87487047D01*
X98281809Y-87677523D01*
X98091333Y-87772761D01*
X97900857Y-87772761D01*
X96948476Y-87772761D02*
X97138952Y-87677523D01*
X97234190Y-87582285D01*
X97329428Y-87391809D01*
X97329428Y-86820380D01*
X97234190Y-86629904D01*
X97138952Y-86534666D01*
X96948476Y-86439428D01*
X96662761Y-86439428D01*
X96472285Y-86534666D01*
X96377047Y-86629904D01*
X96281809Y-86820380D01*
X96281809Y-87391809D01*
X96377047Y-87582285D01*
X96472285Y-87677523D01*
X96662761Y-87772761D01*
X96948476Y-87772761D01*
X95615142Y-86439428D02*
X95234190Y-87772761D01*
X94853238Y-86820380D01*
X94472285Y-87772761D01*
X94091333Y-86439428D01*
X92472285Y-87772761D02*
X92472285Y-86725142D01*
X92567523Y-86534666D01*
X92758000Y-86439428D01*
X93138952Y-86439428D01*
X93329428Y-86534666D01*
X92472285Y-87677523D02*
X92662761Y-87772761D01*
X93138952Y-87772761D01*
X93329428Y-87677523D01*
X93424666Y-87487047D01*
X93424666Y-87296571D01*
X93329428Y-87106095D01*
X93138952Y-87010857D01*
X92662761Y-87010857D01*
X92472285Y-86915619D01*
X91519904Y-87772761D02*
X91519904Y-86439428D01*
X91519904Y-86820380D02*
X91424666Y-86629904D01*
X91329428Y-86534666D01*
X91138952Y-86439428D01*
X90948476Y-86439428D01*
X89424666Y-87772761D02*
X89424666Y-85772761D01*
X89424666Y-87677523D02*
X89615142Y-87772761D01*
X89996095Y-87772761D01*
X90186571Y-87677523D01*
X90281809Y-87582285D01*
X90377047Y-87391809D01*
X90377047Y-86820380D01*
X90281809Y-86629904D01*
X90186571Y-86534666D01*
X89996095Y-86439428D01*
X89615142Y-86439428D01*
X89424666Y-86534666D01*
X88567523Y-87677523D02*
X88377047Y-87772761D01*
X87996095Y-87772761D01*
X87805619Y-87677523D01*
X87710380Y-87487047D01*
X87710380Y-87391809D01*
X87805619Y-87201333D01*
X87996095Y-87106095D01*
X88281809Y-87106095D01*
X88472285Y-87010857D01*
X88567523Y-86820380D01*
X88567523Y-86725142D01*
X88472285Y-86534666D01*
X88281809Y-86439428D01*
X87996095Y-86439428D01*
X87805619Y-86534666D01*
X85329428Y-86439428D02*
X85329428Y-88439428D01*
X85329428Y-86534666D02*
X85138952Y-86439428D01*
X84758000Y-86439428D01*
X84567523Y-86534666D01*
X84472285Y-86629904D01*
X84377047Y-86820380D01*
X84377047Y-87391809D01*
X84472285Y-87582285D01*
X84567523Y-87677523D01*
X84758000Y-87772761D01*
X85138952Y-87772761D01*
X85329428Y-87677523D01*
X82662761Y-87772761D02*
X82662761Y-86725142D01*
X82758000Y-86534666D01*
X82948476Y-86439428D01*
X83329428Y-86439428D01*
X83519904Y-86534666D01*
X82662761Y-87677523D02*
X82853238Y-87772761D01*
X83329428Y-87772761D01*
X83519904Y-87677523D01*
X83615142Y-87487047D01*
X83615142Y-87296571D01*
X83519904Y-87106095D01*
X83329428Y-87010857D01*
X82853238Y-87010857D01*
X82662761Y-86915619D01*
X81710380Y-86439428D02*
X81710380Y-87772761D01*
X81710380Y-86629904D02*
X81615142Y-86534666D01*
X81424666Y-86439428D01*
X81138952Y-86439428D01*
X80948476Y-86534666D01*
X80853238Y-86725142D01*
X80853238Y-87772761D01*
X79138952Y-87677523D02*
X79329428Y-87772761D01*
X79710380Y-87772761D01*
X79900857Y-87677523D01*
X79996095Y-87487047D01*
X79996095Y-86725142D01*
X79900857Y-86534666D01*
X79710380Y-86439428D01*
X79329428Y-86439428D01*
X79138952Y-86534666D01*
X79043714Y-86725142D01*
X79043714Y-86915619D01*
X79996095Y-87106095D01*
X77900857Y-87772761D02*
X78091333Y-87677523D01*
X78186571Y-87487047D01*
X78186571Y-85772761D01*
%TO.C,J18*%
X59902380Y-34690476D02*
X60616666Y-34690476D01*
X60759523Y-34642857D01*
X60854761Y-34547619D01*
X60902380Y-34404761D01*
X60902380Y-34309523D01*
X60902380Y-35690476D02*
X60902380Y-35119047D01*
X60902380Y-35404761D02*
X59902380Y-35404761D01*
X60045238Y-35309523D01*
X60140476Y-35214285D01*
X60188095Y-35119047D01*
X60330952Y-36261904D02*
X60283333Y-36166666D01*
X60235714Y-36119047D01*
X60140476Y-36071428D01*
X60092857Y-36071428D01*
X59997619Y-36119047D01*
X59950000Y-36166666D01*
X59902380Y-36261904D01*
X59902380Y-36452380D01*
X59950000Y-36547619D01*
X59997619Y-36595238D01*
X60092857Y-36642857D01*
X60140476Y-36642857D01*
X60235714Y-36595238D01*
X60283333Y-36547619D01*
X60330952Y-36452380D01*
X60330952Y-36261904D01*
X60378571Y-36166666D01*
X60426190Y-36119047D01*
X60521428Y-36071428D01*
X60711904Y-36071428D01*
X60807142Y-36119047D01*
X60854761Y-36166666D01*
X60902380Y-36261904D01*
X60902380Y-36452380D01*
X60854761Y-36547619D01*
X60807142Y-36595238D01*
X60711904Y-36642857D01*
X60521428Y-36642857D01*
X60426190Y-36595238D01*
X60378571Y-36547619D01*
X60330952Y-36452380D01*
%TO.C,J21*%
X135556523Y-103294380D02*
X135556523Y-104008666D01*
X135604142Y-104151523D01*
X135699380Y-104246761D01*
X135842238Y-104294380D01*
X135937476Y-104294380D01*
X135127952Y-103389619D02*
X135080333Y-103342000D01*
X134985095Y-103294380D01*
X134747000Y-103294380D01*
X134651761Y-103342000D01*
X134604142Y-103389619D01*
X134556523Y-103484857D01*
X134556523Y-103580095D01*
X134604142Y-103722952D01*
X135175571Y-104294380D01*
X134556523Y-104294380D01*
X133604142Y-104294380D02*
X134175571Y-104294380D01*
X133889857Y-104294380D02*
X133889857Y-103294380D01*
X133985095Y-103437238D01*
X134080333Y-103532476D01*
X134175571Y-103580095D01*
%TO.C,RV8*%
X105845238Y-90702380D02*
X106178571Y-90226190D01*
X106416666Y-90702380D02*
X106416666Y-89702380D01*
X106035714Y-89702380D01*
X105940476Y-89750000D01*
X105892857Y-89797619D01*
X105845238Y-89892857D01*
X105845238Y-90035714D01*
X105892857Y-90130952D01*
X105940476Y-90178571D01*
X106035714Y-90226190D01*
X106416666Y-90226190D01*
X105559523Y-89702380D02*
X105226190Y-90702380D01*
X104892857Y-89702380D01*
X104416666Y-90130952D02*
X104511904Y-90083333D01*
X104559523Y-90035714D01*
X104607142Y-89940476D01*
X104607142Y-89892857D01*
X104559523Y-89797619D01*
X104511904Y-89750000D01*
X104416666Y-89702380D01*
X104226190Y-89702380D01*
X104130952Y-89750000D01*
X104083333Y-89797619D01*
X104035714Y-89892857D01*
X104035714Y-89940476D01*
X104083333Y-90035714D01*
X104130952Y-90083333D01*
X104226190Y-90130952D01*
X104416666Y-90130952D01*
X104511904Y-90178571D01*
X104559523Y-90226190D01*
X104607142Y-90321428D01*
X104607142Y-90511904D01*
X104559523Y-90607142D01*
X104511904Y-90654761D01*
X104416666Y-90702380D01*
X104226190Y-90702380D01*
X104130952Y-90654761D01*
X104083333Y-90607142D01*
X104035714Y-90511904D01*
X104035714Y-90321428D01*
X104083333Y-90226190D01*
X104130952Y-90178571D01*
X104226190Y-90130952D01*
%TO.C,J6*%
X189452380Y-62150666D02*
X190166666Y-62150666D01*
X190309523Y-62103047D01*
X190404761Y-62007809D01*
X190452380Y-61864952D01*
X190452380Y-61769714D01*
X189452380Y-63055428D02*
X189452380Y-62864952D01*
X189500000Y-62769714D01*
X189547619Y-62722095D01*
X189690476Y-62626857D01*
X189880952Y-62579238D01*
X190261904Y-62579238D01*
X190357142Y-62626857D01*
X190404761Y-62674476D01*
X190452380Y-62769714D01*
X190452380Y-62960190D01*
X190404761Y-63055428D01*
X190357142Y-63103047D01*
X190261904Y-63150666D01*
X190023809Y-63150666D01*
X189928571Y-63103047D01*
X189880952Y-63055428D01*
X189833333Y-62960190D01*
X189833333Y-62769714D01*
X189880952Y-62674476D01*
X189928571Y-62626857D01*
X190023809Y-62579238D01*
%TO.C,RV2*%
X95150238Y-45737380D02*
X95483571Y-45261190D01*
X95721666Y-45737380D02*
X95721666Y-44737380D01*
X95340714Y-44737380D01*
X95245476Y-44785000D01*
X95197857Y-44832619D01*
X95150238Y-44927857D01*
X95150238Y-45070714D01*
X95197857Y-45165952D01*
X95245476Y-45213571D01*
X95340714Y-45261190D01*
X95721666Y-45261190D01*
X94864523Y-44737380D02*
X94531190Y-45737380D01*
X94197857Y-44737380D01*
X93912142Y-44832619D02*
X93864523Y-44785000D01*
X93769285Y-44737380D01*
X93531190Y-44737380D01*
X93435952Y-44785000D01*
X93388333Y-44832619D01*
X93340714Y-44927857D01*
X93340714Y-45023095D01*
X93388333Y-45165952D01*
X93959761Y-45737380D01*
X93340714Y-45737380D01*
%TO.C,RV10*%
X46321428Y-90702380D02*
X46654761Y-90226190D01*
X46892857Y-90702380D02*
X46892857Y-89702380D01*
X46511904Y-89702380D01*
X46416666Y-89750000D01*
X46369047Y-89797619D01*
X46321428Y-89892857D01*
X46321428Y-90035714D01*
X46369047Y-90130952D01*
X46416666Y-90178571D01*
X46511904Y-90226190D01*
X46892857Y-90226190D01*
X46035714Y-89702380D02*
X45702380Y-90702380D01*
X45369047Y-89702380D01*
X44511904Y-90702380D02*
X45083333Y-90702380D01*
X44797619Y-90702380D02*
X44797619Y-89702380D01*
X44892857Y-89845238D01*
X44988095Y-89940476D01*
X45083333Y-89988095D01*
X43892857Y-89702380D02*
X43797619Y-89702380D01*
X43702380Y-89750000D01*
X43654761Y-89797619D01*
X43607142Y-89892857D01*
X43559523Y-90083333D01*
X43559523Y-90321428D01*
X43607142Y-90511904D01*
X43654761Y-90607142D01*
X43702380Y-90654761D01*
X43797619Y-90702380D01*
X43892857Y-90702380D01*
X43988095Y-90654761D01*
X44035714Y-90607142D01*
X44083333Y-90511904D01*
X44130952Y-90321428D01*
X44130952Y-90083333D01*
X44083333Y-89892857D01*
X44035714Y-89797619D01*
X43988095Y-89750000D01*
X43892857Y-89702380D01*
%TO.C,RV7*%
X63145238Y-65702380D02*
X63478571Y-65226190D01*
X63716666Y-65702380D02*
X63716666Y-64702380D01*
X63335714Y-64702380D01*
X63240476Y-64750000D01*
X63192857Y-64797619D01*
X63145238Y-64892857D01*
X63145238Y-65035714D01*
X63192857Y-65130952D01*
X63240476Y-65178571D01*
X63335714Y-65226190D01*
X63716666Y-65226190D01*
X62859523Y-64702380D02*
X62526190Y-65702380D01*
X62192857Y-64702380D01*
X61954761Y-64702380D02*
X61288095Y-64702380D01*
X61716666Y-65702380D01*
%TO.C,SW1*%
X33904761Y-66666666D02*
X33952380Y-66809523D01*
X33952380Y-67047619D01*
X33904761Y-67142857D01*
X33857142Y-67190476D01*
X33761904Y-67238095D01*
X33666666Y-67238095D01*
X33571428Y-67190476D01*
X33523809Y-67142857D01*
X33476190Y-67047619D01*
X33428571Y-66857142D01*
X33380952Y-66761904D01*
X33333333Y-66714285D01*
X33238095Y-66666666D01*
X33142857Y-66666666D01*
X33047619Y-66714285D01*
X33000000Y-66761904D01*
X32952380Y-66857142D01*
X32952380Y-67095238D01*
X33000000Y-67238095D01*
X32952380Y-67571428D02*
X33952380Y-67809523D01*
X33238095Y-68000000D01*
X33952380Y-68190476D01*
X32952380Y-68428571D01*
X33952380Y-69333333D02*
X33952380Y-68761904D01*
X33952380Y-69047619D02*
X32952380Y-69047619D01*
X33095238Y-68952380D01*
X33190476Y-68857142D01*
X33238095Y-68761904D01*
%TO.C,RV5*%
X114150238Y-45737380D02*
X114483571Y-45261190D01*
X114721666Y-45737380D02*
X114721666Y-44737380D01*
X114340714Y-44737380D01*
X114245476Y-44785000D01*
X114197857Y-44832619D01*
X114150238Y-44927857D01*
X114150238Y-45070714D01*
X114197857Y-45165952D01*
X114245476Y-45213571D01*
X114340714Y-45261190D01*
X114721666Y-45261190D01*
X113864523Y-44737380D02*
X113531190Y-45737380D01*
X113197857Y-44737380D01*
X112388333Y-44737380D02*
X112864523Y-44737380D01*
X112912142Y-45213571D01*
X112864523Y-45165952D01*
X112769285Y-45118333D01*
X112531190Y-45118333D01*
X112435952Y-45165952D01*
X112388333Y-45213571D01*
X112340714Y-45308809D01*
X112340714Y-45546904D01*
X112388333Y-45642142D01*
X112435952Y-45689761D01*
X112531190Y-45737380D01*
X112769285Y-45737380D01*
X112864523Y-45689761D01*
X112912142Y-45642142D01*
%TO.C,RV9*%
X88595238Y-65702380D02*
X88928571Y-65226190D01*
X89166666Y-65702380D02*
X89166666Y-64702380D01*
X88785714Y-64702380D01*
X88690476Y-64750000D01*
X88642857Y-64797619D01*
X88595238Y-64892857D01*
X88595238Y-65035714D01*
X88642857Y-65130952D01*
X88690476Y-65178571D01*
X88785714Y-65226190D01*
X89166666Y-65226190D01*
X88309523Y-64702380D02*
X87976190Y-65702380D01*
X87642857Y-64702380D01*
X87261904Y-65702380D02*
X87071428Y-65702380D01*
X86976190Y-65654761D01*
X86928571Y-65607142D01*
X86833333Y-65464285D01*
X86785714Y-65273809D01*
X86785714Y-64892857D01*
X86833333Y-64797619D01*
X86880952Y-64750000D01*
X86976190Y-64702380D01*
X87166666Y-64702380D01*
X87261904Y-64750000D01*
X87309523Y-64797619D01*
X87357142Y-64892857D01*
X87357142Y-65130952D01*
X87309523Y-65226190D01*
X87261904Y-65273809D01*
X87166666Y-65321428D01*
X86976190Y-65321428D01*
X86880952Y-65273809D01*
X86833333Y-65226190D01*
X86785714Y-65130952D01*
%TO.C,J4*%
X171073380Y-62150666D02*
X171787666Y-62150666D01*
X171930523Y-62103047D01*
X172025761Y-62007809D01*
X172073380Y-61864952D01*
X172073380Y-61769714D01*
X171406714Y-63055428D02*
X172073380Y-63055428D01*
X171025761Y-62817333D02*
X171740047Y-62579238D01*
X171740047Y-63198285D01*
%TO.C,J26*%
X48252380Y-39690476D02*
X48966666Y-39690476D01*
X49109523Y-39642857D01*
X49204761Y-39547619D01*
X49252380Y-39404761D01*
X49252380Y-39309523D01*
X48347619Y-40119047D02*
X48300000Y-40166666D01*
X48252380Y-40261904D01*
X48252380Y-40500000D01*
X48300000Y-40595238D01*
X48347619Y-40642857D01*
X48442857Y-40690476D01*
X48538095Y-40690476D01*
X48680952Y-40642857D01*
X49252380Y-40071428D01*
X49252380Y-40690476D01*
X48252380Y-41547619D02*
X48252380Y-41357142D01*
X48300000Y-41261904D01*
X48347619Y-41214285D01*
X48490476Y-41119047D01*
X48680952Y-41071428D01*
X49061904Y-41071428D01*
X49157142Y-41119047D01*
X49204761Y-41166666D01*
X49252380Y-41261904D01*
X49252380Y-41452380D01*
X49204761Y-41547619D01*
X49157142Y-41595238D01*
X49061904Y-41642857D01*
X48823809Y-41642857D01*
X48728571Y-41595238D01*
X48680952Y-41547619D01*
X48633333Y-41452380D01*
X48633333Y-41261904D01*
X48680952Y-41166666D01*
X48728571Y-41119047D01*
X48823809Y-41071428D01*
%TO.C,J2*%
X110652380Y-35166666D02*
X111366666Y-35166666D01*
X111509523Y-35119047D01*
X111604761Y-35023809D01*
X111652380Y-34880952D01*
X111652380Y-34785714D01*
X110747619Y-35595238D02*
X110700000Y-35642857D01*
X110652380Y-35738095D01*
X110652380Y-35976190D01*
X110700000Y-36071428D01*
X110747619Y-36119047D01*
X110842857Y-36166666D01*
X110938095Y-36166666D01*
X111080952Y-36119047D01*
X111652380Y-35547619D01*
X111652380Y-36166666D01*
%TO.C,J30*%
X199687380Y-117554476D02*
X200401666Y-117554476D01*
X200544523Y-117506857D01*
X200639761Y-117411619D01*
X200687380Y-117268761D01*
X200687380Y-117173523D01*
X199687380Y-117935428D02*
X199687380Y-118554476D01*
X200068333Y-118221142D01*
X200068333Y-118364000D01*
X200115952Y-118459238D01*
X200163571Y-118506857D01*
X200258809Y-118554476D01*
X200496904Y-118554476D01*
X200592142Y-118506857D01*
X200639761Y-118459238D01*
X200687380Y-118364000D01*
X200687380Y-118078285D01*
X200639761Y-117983047D01*
X200592142Y-117935428D01*
X199687380Y-119173523D02*
X199687380Y-119268761D01*
X199735000Y-119364000D01*
X199782619Y-119411619D01*
X199877857Y-119459238D01*
X200068333Y-119506857D01*
X200306428Y-119506857D01*
X200496904Y-119459238D01*
X200592142Y-119411619D01*
X200639761Y-119364000D01*
X200687380Y-119268761D01*
X200687380Y-119173523D01*
X200639761Y-119078285D01*
X200592142Y-119030666D01*
X200496904Y-118983047D01*
X200306428Y-118935428D01*
X200068333Y-118935428D01*
X199877857Y-118983047D01*
X199782619Y-119030666D01*
X199735000Y-119078285D01*
X199687380Y-119173523D01*
%TO.C,RV12*%
X114321428Y-65702380D02*
X114654761Y-65226190D01*
X114892857Y-65702380D02*
X114892857Y-64702380D01*
X114511904Y-64702380D01*
X114416666Y-64750000D01*
X114369047Y-64797619D01*
X114321428Y-64892857D01*
X114321428Y-65035714D01*
X114369047Y-65130952D01*
X114416666Y-65178571D01*
X114511904Y-65226190D01*
X114892857Y-65226190D01*
X114035714Y-64702380D02*
X113702380Y-65702380D01*
X113369047Y-64702380D01*
X112511904Y-65702380D02*
X113083333Y-65702380D01*
X112797619Y-65702380D02*
X112797619Y-64702380D01*
X112892857Y-64845238D01*
X112988095Y-64940476D01*
X113083333Y-64988095D01*
X112130952Y-64797619D02*
X112083333Y-64750000D01*
X111988095Y-64702380D01*
X111750000Y-64702380D01*
X111654761Y-64750000D01*
X111607142Y-64797619D01*
X111559523Y-64892857D01*
X111559523Y-64988095D01*
X111607142Y-65130952D01*
X112178571Y-65702380D01*
X111559523Y-65702380D01*
%TO.C,RV6*%
X76150238Y-45737380D02*
X76483571Y-45261190D01*
X76721666Y-45737380D02*
X76721666Y-44737380D01*
X76340714Y-44737380D01*
X76245476Y-44785000D01*
X76197857Y-44832619D01*
X76150238Y-44927857D01*
X76150238Y-45070714D01*
X76197857Y-45165952D01*
X76245476Y-45213571D01*
X76340714Y-45261190D01*
X76721666Y-45261190D01*
X75864523Y-44737380D02*
X75531190Y-45737380D01*
X75197857Y-44737380D01*
X74435952Y-44737380D02*
X74626428Y-44737380D01*
X74721666Y-44785000D01*
X74769285Y-44832619D01*
X74864523Y-44975476D01*
X74912142Y-45165952D01*
X74912142Y-45546904D01*
X74864523Y-45642142D01*
X74816904Y-45689761D01*
X74721666Y-45737380D01*
X74531190Y-45737380D01*
X74435952Y-45689761D01*
X74388333Y-45642142D01*
X74340714Y-45546904D01*
X74340714Y-45308809D01*
X74388333Y-45213571D01*
X74435952Y-45165952D01*
X74531190Y-45118333D01*
X74721666Y-45118333D01*
X74816904Y-45165952D01*
X74864523Y-45213571D01*
X74912142Y-45308809D01*
%TO.C,RV11*%
X76321428Y-90702380D02*
X76654761Y-90226190D01*
X76892857Y-90702380D02*
X76892857Y-89702380D01*
X76511904Y-89702380D01*
X76416666Y-89750000D01*
X76369047Y-89797619D01*
X76321428Y-89892857D01*
X76321428Y-90035714D01*
X76369047Y-90130952D01*
X76416666Y-90178571D01*
X76511904Y-90226190D01*
X76892857Y-90226190D01*
X76035714Y-89702380D02*
X75702380Y-90702380D01*
X75369047Y-89702380D01*
X74511904Y-90702380D02*
X75083333Y-90702380D01*
X74797619Y-90702380D02*
X74797619Y-89702380D01*
X74892857Y-89845238D01*
X74988095Y-89940476D01*
X75083333Y-89988095D01*
X73559523Y-90702380D02*
X74130952Y-90702380D01*
X73845238Y-90702380D02*
X73845238Y-89702380D01*
X73940476Y-89845238D01*
X74035714Y-89940476D01*
X74130952Y-89988095D01*
%TO.C,RV4*%
X38150238Y-45737380D02*
X38483571Y-45261190D01*
X38721666Y-45737380D02*
X38721666Y-44737380D01*
X38340714Y-44737380D01*
X38245476Y-44785000D01*
X38197857Y-44832619D01*
X38150238Y-44927857D01*
X38150238Y-45070714D01*
X38197857Y-45165952D01*
X38245476Y-45213571D01*
X38340714Y-45261190D01*
X38721666Y-45261190D01*
X37864523Y-44737380D02*
X37531190Y-45737380D01*
X37197857Y-44737380D01*
X36435952Y-45070714D02*
X36435952Y-45737380D01*
X36674047Y-44689761D02*
X36912142Y-45404047D01*
X36293095Y-45404047D01*
%TO.C,RV3*%
X57150238Y-45737380D02*
X57483571Y-45261190D01*
X57721666Y-45737380D02*
X57721666Y-44737380D01*
X57340714Y-44737380D01*
X57245476Y-44785000D01*
X57197857Y-44832619D01*
X57150238Y-44927857D01*
X57150238Y-45070714D01*
X57197857Y-45165952D01*
X57245476Y-45213571D01*
X57340714Y-45261190D01*
X57721666Y-45261190D01*
X56864523Y-44737380D02*
X56531190Y-45737380D01*
X56197857Y-44737380D01*
X55959761Y-44737380D02*
X55340714Y-44737380D01*
X55674047Y-45118333D01*
X55531190Y-45118333D01*
X55435952Y-45165952D01*
X55388333Y-45213571D01*
X55340714Y-45308809D01*
X55340714Y-45546904D01*
X55388333Y-45642142D01*
X55435952Y-45689761D01*
X55531190Y-45737380D01*
X55816904Y-45737380D01*
X55912142Y-45689761D01*
X55959761Y-45642142D01*
%TO.C,J10*%
X164449380Y-83518476D02*
X165163666Y-83518476D01*
X165306523Y-83470857D01*
X165401761Y-83375619D01*
X165449380Y-83232761D01*
X165449380Y-83137523D01*
X165449380Y-84518476D02*
X165449380Y-83947047D01*
X165449380Y-84232761D02*
X164449380Y-84232761D01*
X164592238Y-84137523D01*
X164687476Y-84042285D01*
X164735095Y-83947047D01*
X164449380Y-85137523D02*
X164449380Y-85232761D01*
X164497000Y-85328000D01*
X164544619Y-85375619D01*
X164639857Y-85423238D01*
X164830333Y-85470857D01*
X165068428Y-85470857D01*
X165258904Y-85423238D01*
X165354142Y-85375619D01*
X165401761Y-85328000D01*
X165449380Y-85232761D01*
X165449380Y-85137523D01*
X165401761Y-85042285D01*
X165354142Y-84994666D01*
X165258904Y-84947047D01*
X165068428Y-84899428D01*
X164830333Y-84899428D01*
X164639857Y-84947047D01*
X164544619Y-84994666D01*
X164497000Y-85042285D01*
X164449380Y-85137523D01*
%TO.C,J22*%
X229917523Y-76331380D02*
X229917523Y-77045666D01*
X229965142Y-77188523D01*
X230060380Y-77283761D01*
X230203238Y-77331380D01*
X230298476Y-77331380D01*
X229488952Y-76426619D02*
X229441333Y-76379000D01*
X229346095Y-76331380D01*
X229108000Y-76331380D01*
X229012761Y-76379000D01*
X228965142Y-76426619D01*
X228917523Y-76521857D01*
X228917523Y-76617095D01*
X228965142Y-76759952D01*
X229536571Y-77331380D01*
X228917523Y-77331380D01*
X228536571Y-76426619D02*
X228488952Y-76379000D01*
X228393714Y-76331380D01*
X228155619Y-76331380D01*
X228060380Y-76379000D01*
X228012761Y-76426619D01*
X227965142Y-76521857D01*
X227965142Y-76617095D01*
X228012761Y-76759952D01*
X228584190Y-77331380D01*
X227965142Y-77331380D01*
%TO.C,J8*%
X136187380Y-62150666D02*
X136901666Y-62150666D01*
X137044523Y-62103047D01*
X137139761Y-62007809D01*
X137187380Y-61864952D01*
X137187380Y-61769714D01*
X136615952Y-62769714D02*
X136568333Y-62674476D01*
X136520714Y-62626857D01*
X136425476Y-62579238D01*
X136377857Y-62579238D01*
X136282619Y-62626857D01*
X136235000Y-62674476D01*
X136187380Y-62769714D01*
X136187380Y-62960190D01*
X136235000Y-63055428D01*
X136282619Y-63103047D01*
X136377857Y-63150666D01*
X136425476Y-63150666D01*
X136520714Y-63103047D01*
X136568333Y-63055428D01*
X136615952Y-62960190D01*
X136615952Y-62769714D01*
X136663571Y-62674476D01*
X136711190Y-62626857D01*
X136806428Y-62579238D01*
X136996904Y-62579238D01*
X137092142Y-62626857D01*
X137139761Y-62674476D01*
X137187380Y-62769714D01*
X137187380Y-62960190D01*
X137139761Y-63055428D01*
X137092142Y-63103047D01*
X136996904Y-63150666D01*
X136806428Y-63150666D01*
X136711190Y-63103047D01*
X136663571Y-63055428D01*
X136615952Y-62960190D01*
%TO.C,J12*%
X99002380Y-39690476D02*
X99716666Y-39690476D01*
X99859523Y-39642857D01*
X99954761Y-39547619D01*
X100002380Y-39404761D01*
X100002380Y-39309523D01*
X100002380Y-40690476D02*
X100002380Y-40119047D01*
X100002380Y-40404761D02*
X99002380Y-40404761D01*
X99145238Y-40309523D01*
X99240476Y-40214285D01*
X99288095Y-40119047D01*
X99097619Y-41071428D02*
X99050000Y-41119047D01*
X99002380Y-41214285D01*
X99002380Y-41452380D01*
X99050000Y-41547619D01*
X99097619Y-41595238D01*
X99192857Y-41642857D01*
X99288095Y-41642857D01*
X99430952Y-41595238D01*
X100002380Y-41023809D01*
X100002380Y-41642857D01*
D11*
%TO.C,J18*%
X71750000Y-42500000D02*
X61250000Y-42500000D01*
X61250000Y-39600000D02*
X61250000Y-42500000D01*
X71750000Y-33500000D02*
X71750000Y-36500000D01*
X71750000Y-33500000D02*
X61250000Y-33500000D01*
X71750000Y-39500000D02*
X71750000Y-42500000D01*
X61250000Y-33500000D02*
X61250000Y-36400000D01*
D12*
X69789999Y-36603000D02*
G75*
G03*
X69789999Y-39397000I-2539999J-1397000D01*
G01*
X69050000Y-38000000D02*
G75*
G03*
X69050000Y-38000000I-1800000J0D01*
G01*
%TO.C,J21*%
X136077000Y-106172000D02*
X136077000Y-104842000D01*
X136077000Y-107442000D02*
X136077000Y-110042000D01*
X136077000Y-107442000D02*
X133417000Y-107442000D01*
X133417000Y-107442000D02*
X133417000Y-110042000D01*
X136077000Y-110042000D02*
X133417000Y-110042000D01*
X136077000Y-104842000D02*
X134747000Y-104842000D01*
%TO.C,RV8*%
X114880000Y-102620000D02*
X114880000Y-97900000D01*
X114870000Y-94090000D02*
X114870000Y-91030000D01*
X105130000Y-91030000D02*
X114870000Y-91030000D01*
X105130000Y-102620000D02*
X105130000Y-97900000D01*
X113690000Y-102620000D02*
X114870000Y-102620000D01*
X110790000Y-102620000D02*
X111320000Y-102620000D01*
X105130000Y-94090000D02*
X105130000Y-91030000D01*
X105130000Y-102620000D02*
X106620000Y-102620000D01*
X109500000Y-96000000D02*
X110500000Y-96000000D01*
X108340000Y-102620000D02*
X109170000Y-102620000D01*
X110000000Y-95500000D02*
X110000000Y-96500000D01*
%TO.C,J6*%
X173295000Y-62484000D02*
X173295000Y-63814000D01*
X175895000Y-61154000D02*
X188655000Y-61154000D01*
X175895000Y-61154000D02*
X175895000Y-63814000D01*
X175895000Y-63814000D02*
X188655000Y-63814000D01*
X173295000Y-63814000D02*
X174625000Y-63814000D01*
X188655000Y-61154000D02*
X188655000Y-63814000D01*
%TO.C,RV2*%
X103870000Y-49090000D02*
X103870000Y-46030000D01*
X103880000Y-57620000D02*
X103880000Y-52900000D01*
X99500000Y-51000000D02*
X98500000Y-51000000D01*
X99790000Y-57620000D02*
X100320000Y-57620000D01*
X97340000Y-57620000D02*
X98170000Y-57620000D01*
X94130000Y-57620000D02*
X95620000Y-57620000D01*
X94130000Y-57620000D02*
X94130000Y-52900000D01*
X102690000Y-57620000D02*
X103870000Y-57620000D01*
X94130000Y-46030000D02*
X103870000Y-46030000D01*
X94130000Y-49090000D02*
X94130000Y-46030000D01*
X99000000Y-50500000D02*
X99000000Y-51500000D01*
%TO.C,RV10*%
X48340000Y-102620000D02*
X49170000Y-102620000D01*
X53690000Y-102620000D02*
X54870000Y-102620000D01*
X54880000Y-102620000D02*
X54880000Y-97900000D01*
X54870000Y-94090000D02*
X54870000Y-91030000D01*
X50000000Y-95500000D02*
X50000000Y-96500000D01*
X50790000Y-102620000D02*
X51320000Y-102620000D01*
X45130000Y-94090000D02*
X45130000Y-91030000D01*
X45130000Y-102620000D02*
X45130000Y-97900000D01*
X45130000Y-91030000D02*
X54870000Y-91030000D01*
X49500000Y-96000000D02*
X50500000Y-96000000D01*
X45130000Y-102620000D02*
X46620000Y-102620000D01*
%TO.C,RV7*%
X62430000Y-77620000D02*
X62430000Y-72900000D01*
X70990000Y-77620000D02*
X72170000Y-77620000D01*
X72180000Y-77620000D02*
X72180000Y-72900000D01*
X68090000Y-77620000D02*
X68620000Y-77620000D01*
X72170000Y-69090000D02*
X72170000Y-66030000D01*
X62430000Y-66030000D02*
X72170000Y-66030000D01*
X65640000Y-77620000D02*
X66470000Y-77620000D01*
X62430000Y-77620000D02*
X63920000Y-77620000D01*
X67300000Y-70500000D02*
X67300000Y-71500000D01*
X66800000Y-71000000D02*
X67800000Y-71000000D01*
X62430000Y-69090000D02*
X62430000Y-66030000D01*
%TO.C,SW1*%
X38500000Y-67000000D02*
X38500000Y-75000000D01*
X38500000Y-75000000D02*
X45500000Y-75000000D01*
X45500000Y-67000000D02*
X38500000Y-67000000D01*
X45500000Y-75000000D02*
X45500000Y-67000000D01*
X43500000Y-71000000D02*
G75*
G03*
X43500000Y-71000000I-1500000J0D01*
G01*
%TO.C,RV5*%
X116340000Y-57620000D02*
X117170000Y-57620000D01*
X113130000Y-57620000D02*
X113130000Y-52900000D01*
X118500000Y-51000000D02*
X117500000Y-51000000D01*
X122880000Y-57620000D02*
X122880000Y-52900000D01*
X113130000Y-46030000D02*
X122870000Y-46030000D01*
X118790000Y-57620000D02*
X119320000Y-57620000D01*
X121690000Y-57620000D02*
X122870000Y-57620000D01*
X113130000Y-49090000D02*
X113130000Y-46030000D01*
X122870000Y-49090000D02*
X122870000Y-46030000D01*
X113130000Y-57620000D02*
X114620000Y-57620000D01*
X118000000Y-50500000D02*
X118000000Y-51500000D01*
%TO.C,RV9*%
X87880000Y-69090000D02*
X87880000Y-66030000D01*
X87880000Y-77620000D02*
X87880000Y-72900000D01*
X92750000Y-70500000D02*
X92750000Y-71500000D01*
X97630000Y-77620000D02*
X97630000Y-72900000D01*
X87880000Y-66030000D02*
X97620000Y-66030000D01*
X87880000Y-77620000D02*
X89370000Y-77620000D01*
X97620000Y-69090000D02*
X97620000Y-66030000D01*
X96440000Y-77620000D02*
X97620000Y-77620000D01*
X92250000Y-71000000D02*
X93250000Y-71000000D01*
X93540000Y-77620000D02*
X94070000Y-77620000D01*
X91090000Y-77620000D02*
X91920000Y-77620000D01*
%TO.C,J4*%
X170621000Y-63814000D02*
X170621000Y-62484000D01*
X168021000Y-61154000D02*
X160341000Y-61154000D01*
X169291000Y-63814000D02*
X170621000Y-63814000D01*
X168021000Y-63814000D02*
X168021000Y-61154000D01*
X168021000Y-63814000D02*
X160341000Y-63814000D01*
X160341000Y-63814000D02*
X160341000Y-61154000D01*
D11*
%TO.C,J26*%
X37500000Y-42500000D02*
X48000000Y-42500000D01*
X37500000Y-33500000D02*
X48000000Y-33500000D01*
X37500000Y-42500000D02*
X37500000Y-39500000D01*
X37500000Y-36500000D02*
X37500000Y-33500000D01*
X48000000Y-36400000D02*
X48000000Y-33500000D01*
X48000000Y-42500000D02*
X48000000Y-39600000D01*
D12*
X39460001Y-39397000D02*
G75*
G03*
X39460001Y-36603000I2539999J1397000D01*
G01*
X43800000Y-38000000D02*
G75*
G03*
X43800000Y-38000000I-1800000J0D01*
G01*
D11*
%TO.C,J2*%
X112000000Y-33500000D02*
X112000000Y-36400000D01*
X112000000Y-39600000D02*
X112000000Y-42500000D01*
X122500000Y-33500000D02*
X122500000Y-36500000D01*
X122500000Y-33500000D02*
X112000000Y-33500000D01*
X122500000Y-39500000D02*
X122500000Y-42500000D01*
X122500000Y-42500000D02*
X112000000Y-42500000D01*
D12*
X120539999Y-36603000D02*
G75*
G03*
X120539999Y-39397000I-2539999J-1397000D01*
G01*
X119800000Y-38000000D02*
G75*
G03*
X119800000Y-38000000I-1800000J0D01*
G01*
%TO.C,J30*%
X203835000Y-119694000D02*
X211515000Y-119694000D01*
X203835000Y-117034000D02*
X211515000Y-117034000D01*
X202565000Y-117034000D02*
X201235000Y-117034000D01*
X201235000Y-117034000D02*
X201235000Y-118364000D01*
X211515000Y-117034000D02*
X211515000Y-119694000D01*
X203835000Y-117034000D02*
X203835000Y-119694000D01*
%TO.C,RV12*%
X113130000Y-77620000D02*
X113130000Y-72900000D01*
X116340000Y-77620000D02*
X117170000Y-77620000D01*
X113130000Y-69090000D02*
X113130000Y-66030000D01*
X118790000Y-77620000D02*
X119320000Y-77620000D01*
X113130000Y-66030000D02*
X122870000Y-66030000D01*
X121690000Y-77620000D02*
X122870000Y-77620000D01*
X122880000Y-77620000D02*
X122880000Y-72900000D01*
X117500000Y-71000000D02*
X118500000Y-71000000D01*
X122870000Y-69090000D02*
X122870000Y-66030000D01*
X113130000Y-77620000D02*
X114620000Y-77620000D01*
X118000000Y-70500000D02*
X118000000Y-71500000D01*
%TO.C,RV6*%
X75130000Y-49090000D02*
X75130000Y-46030000D01*
X80790000Y-57620000D02*
X81320000Y-57620000D01*
X80000000Y-50500000D02*
X80000000Y-51500000D01*
X75130000Y-57620000D02*
X75130000Y-52900000D01*
X83690000Y-57620000D02*
X84870000Y-57620000D01*
X84880000Y-57620000D02*
X84880000Y-52900000D01*
X80500000Y-51000000D02*
X79500000Y-51000000D01*
X75130000Y-46030000D02*
X84870000Y-46030000D01*
X75130000Y-57620000D02*
X76620000Y-57620000D01*
X84870000Y-49090000D02*
X84870000Y-46030000D01*
X78340000Y-57620000D02*
X79170000Y-57620000D01*
%TO.C,RV11*%
X79500000Y-96000000D02*
X80500000Y-96000000D01*
X83690000Y-102620000D02*
X84870000Y-102620000D01*
X78340000Y-102620000D02*
X79170000Y-102620000D01*
X80790000Y-102620000D02*
X81320000Y-102620000D01*
X84870000Y-94090000D02*
X84870000Y-91030000D01*
X75130000Y-94090000D02*
X75130000Y-91030000D01*
X75130000Y-102620000D02*
X75130000Y-97900000D01*
X75130000Y-102620000D02*
X76620000Y-102620000D01*
X75130000Y-91030000D02*
X84870000Y-91030000D01*
X84880000Y-102620000D02*
X84880000Y-97900000D01*
X80000000Y-95500000D02*
X80000000Y-96500000D01*
%TO.C,RV4*%
X37130000Y-57620000D02*
X38620000Y-57620000D01*
X42790000Y-57620000D02*
X43320000Y-57620000D01*
X42500000Y-51000000D02*
X41500000Y-51000000D01*
X46880000Y-57620000D02*
X46880000Y-52900000D01*
X46870000Y-49090000D02*
X46870000Y-46030000D01*
X40340000Y-57620000D02*
X41170000Y-57620000D01*
X42000000Y-50500000D02*
X42000000Y-51500000D01*
X37130000Y-49090000D02*
X37130000Y-46030000D01*
X37130000Y-46030000D02*
X46870000Y-46030000D01*
X45690000Y-57620000D02*
X46870000Y-57620000D01*
X37130000Y-57620000D02*
X37130000Y-52900000D01*
%TO.C,RV3*%
X65870000Y-49090000D02*
X65870000Y-46030000D01*
X65880000Y-57620000D02*
X65880000Y-52900000D01*
X56130000Y-46030000D02*
X65870000Y-46030000D01*
X59340000Y-57620000D02*
X60170000Y-57620000D01*
X61790000Y-57620000D02*
X62320000Y-57620000D01*
X56130000Y-49090000D02*
X56130000Y-46030000D01*
X64690000Y-57620000D02*
X65870000Y-57620000D01*
X56130000Y-57620000D02*
X56130000Y-52900000D01*
X61000000Y-50500000D02*
X61000000Y-51500000D01*
X56130000Y-57620000D02*
X57620000Y-57620000D01*
X61500000Y-51000000D02*
X60500000Y-51000000D01*
%TO.C,J10*%
X169037000Y-82998000D02*
X176717000Y-82998000D01*
X176717000Y-82998000D02*
X176717000Y-85658000D01*
X166437000Y-84328000D02*
X166437000Y-85658000D01*
X169037000Y-82998000D02*
X169037000Y-85658000D01*
X169037000Y-85658000D02*
X176717000Y-85658000D01*
X166437000Y-85658000D02*
X167767000Y-85658000D01*
%TO.C,J22*%
X227778000Y-73279000D02*
X230438000Y-73279000D01*
X227778000Y-75879000D02*
X229108000Y-75879000D01*
X227778000Y-73279000D02*
X227778000Y-70679000D01*
X230438000Y-73279000D02*
X230438000Y-70679000D01*
X227778000Y-70679000D02*
X230438000Y-70679000D01*
X227778000Y-74549000D02*
X227778000Y-75879000D01*
%TO.C,J8*%
X153095000Y-61154000D02*
X153095000Y-63814000D01*
X140335000Y-61154000D02*
X153095000Y-61154000D01*
X140335000Y-61154000D02*
X140335000Y-63814000D01*
X137735000Y-61154000D02*
X137735000Y-62484000D01*
X139065000Y-61154000D02*
X137735000Y-61154000D01*
X140335000Y-63814000D02*
X153095000Y-63814000D01*
D11*
%TO.C,J12*%
X98750000Y-36400000D02*
X98750000Y-33500000D01*
X88250000Y-42500000D02*
X88250000Y-39500000D01*
X88250000Y-33500000D02*
X98750000Y-33500000D01*
X98750000Y-42500000D02*
X98750000Y-39600000D01*
X88250000Y-42500000D02*
X98750000Y-42500000D01*
X88250000Y-36500000D02*
X88250000Y-33500000D01*
D12*
X90210001Y-39397000D02*
G75*
G03*
X90210001Y-36603000I2539999J1397000D01*
G01*
X94550000Y-38000000D02*
G75*
G03*
X94550000Y-38000000I-1800000J0D01*
G01*
%TD*%
M02*
