M48
; DRILL file {KiCad (6.0.0-0)} date Saturday, 14 May 2022 at 19:45:45
; FORMAT={-:-/ absolute / metric / decimal}
; #@! TF.CreationDate,2022-05-14T19:45:45+01:00
; #@! TF.GenerationSoftware,Kicad,Pcbnew,(6.0.0-0)
; #@! TF.FileFunction,MixedPlating,1,2
FMAT,2
METRIC
; #@! TA.AperFunction,Plated,PTH,ViaDrill
T1C0.381
; #@! TA.AperFunction,Plated,PTH,ComponentDrill
T2C0.600
; #@! TA.AperFunction,Plated,PTH,ComponentDrill
T3C0.800
; #@! TA.AperFunction,Plated,PTH,ComponentDrill
T4C1.000
; #@! TA.AperFunction,Plated,PTH,ComponentDrill
T5C1.100
; #@! TA.AperFunction,Plated,PTH,ComponentDrill
T6C1.800
; #@! TA.AperFunction,Plated,PTH,ComponentDrill
T7C3.200
; #@! TA.AperFunction,NonPlated,NPTH,ComponentDrill
T8C0.500
%
G90
G05
T1
X109.22Y-60.452
X122.936Y-76.454
X148.082Y-67.056
X157.48Y-57.912
X164.338Y-102.87
X165.862Y-57.658
X187.198Y-52.324
X188.468Y-45.974
X194.564Y-87.122
X194.818Y-46.736
X199.644Y-44.45
T3
X39.5Y-68.0
X39.5Y-74.0
X42.0Y-68.0
X42.0Y-74.0
X44.5Y-68.0
X44.5Y-74.0
X50.038Y-106.934
X54.356Y-114.34
X54.356Y-119.34
X57.785Y-112.268
X57.785Y-115.316
X57.785Y-118.364
X60.198Y-106.934
X62.23Y-127.381
X64.77Y-130.556
X65.866Y-123.698
X67.945Y-112.268
X67.945Y-115.316
X67.945Y-118.364
X70.866Y-112.268
X70.866Y-114.808
X70.866Y-117.348
X70.866Y-119.888
X70.866Y-123.698
X72.39Y-127.381
X72.39Y-130.556
X73.486Y-108.458
X78.486Y-108.458
X78.486Y-112.268
X78.486Y-114.808
X78.486Y-117.348
X78.486Y-119.888
X79.731Y-122.987
X79.731Y-130.607
X82.042Y-107.188
X82.042Y-117.348
X85.979Y-112.348
X85.979Y-117.348
X90.297Y-103.886
X90.297Y-114.046
X93.345Y-103.886
X93.345Y-114.046
X96.393Y-103.886
X96.393Y-114.046
X99.441Y-103.886
X99.441Y-114.046
X102.362Y-114.046
X111.84Y-82.0
X112.522Y-114.046
X122.0Y-82.0
X135.255Y-34.29
X135.255Y-37.338
X135.255Y-40.386
X135.255Y-43.434
X135.255Y-46.482
X135.28Y-113.208
X135.28Y-123.368
X136.525Y-70.819
X136.525Y-75.819
X138.328Y-113.208
X138.328Y-123.368
X139.065Y-55.92
X139.065Y-58.42
X139.065Y-78.867
X139.065Y-86.487
X139.065Y-89.281
X139.065Y-99.441
X139.065Y-102.108
X139.065Y-109.728
X140.589Y-70.819
X140.589Y-75.819
X141.376Y-113.208
X141.376Y-123.368
X141.605Y-78.867
X141.605Y-86.487
X142.113Y-89.281
X142.113Y-99.441
X142.875Y-102.489
X142.875Y-110.109
X144.145Y-65.913
X144.145Y-76.073
X144.145Y-78.867
X144.145Y-86.487
X145.415Y-34.29
X145.415Y-37.338
X145.415Y-40.386
X145.415Y-43.434
X145.415Y-46.482
X145.415Y-55.92
X145.415Y-58.42
X145.415Y-99.06
X145.415Y-102.489
X145.415Y-110.109
X145.415Y-113.411
X145.415Y-116.459
X145.415Y-121.459
X145.669Y-89.408
X145.669Y-94.408
X146.685Y-78.867
X146.685Y-86.487
X147.955Y-102.489
X147.955Y-110.109
X148.844Y-33.782
X148.844Y-36.322
X148.844Y-38.862
X148.844Y-41.482
X148.844Y-46.482
X149.225Y-78.867
X149.225Y-86.487
X149.606Y-95.123
X150.495Y-102.489
X150.495Y-110.109
X150.495Y-116.459
X150.495Y-121.459
X151.206Y-124.866
X151.765Y-55.92
X151.765Y-58.42
X151.765Y-65.913
X151.765Y-76.073
X151.765Y-78.867
X151.765Y-86.487
X153.035Y-99.06
X153.035Y-102.489
X153.035Y-110.109
X153.924Y-33.862
X153.924Y-38.862
X154.178Y-41.402
X154.178Y-43.942
X154.178Y-46.482
X154.305Y-78.867
X154.305Y-86.487
X154.606Y-95.123
X155.321Y-70.819
X155.321Y-75.819
X155.575Y-102.489
X155.575Y-110.109
X155.575Y-113.411
X155.702Y-99.06
X156.845Y-118.11
X156.845Y-120.61
X158.115Y-102.489
X158.115Y-110.109
X159.258Y-68.707
X159.258Y-76.327
X160.422Y-79.248
X160.422Y-81.788
X160.422Y-84.328
X160.782Y-93.385
X160.782Y-95.885
X160.909Y-89.154
X161.366Y-124.866
X161.671Y-33.909
X161.671Y-44.069
X164.719Y-33.909
X164.719Y-44.069
X165.862Y-99.06
X167.767Y-33.909
X167.767Y-44.069
X171.069Y-89.154
X171.45Y-103.251
X171.45Y-113.411
X171.831Y-70.612
X171.831Y-78.232
X175.862Y-45.409
X176.149Y-33.909
X176.149Y-36.449
X176.149Y-38.989
X176.149Y-41.529
X176.276Y-110.998
X176.276Y-113.538
X176.276Y-116.078
X177.038Y-72.39
X177.038Y-74.93
X177.038Y-77.47
X177.292Y-98.425
X178.054Y-48.641
X178.054Y-58.801
X179.578Y-84.328
X179.832Y-98.425
X180.862Y-45.409
X180.976Y-103.638
X180.976Y-111.258
X181.102Y-48.641
X181.102Y-58.801
X181.229Y-69.596
X181.229Y-79.756
X182.372Y-98.425
X183.516Y-103.638
X183.516Y-111.258
X183.769Y-33.909
X183.769Y-36.449
X183.769Y-38.989
X183.769Y-41.529
X184.071Y-114.173
X184.071Y-124.333
X184.15Y-48.641
X184.15Y-58.801
X185.976Y-90.678
X185.976Y-100.838
X186.056Y-103.638
X186.056Y-111.258
X187.071Y-114.173
X187.071Y-124.333
X187.198Y-48.641
X187.198Y-58.801
X187.325Y-34.036
X187.833Y-40.767
X188.596Y-103.638
X188.596Y-111.258
X188.976Y-90.678
X188.976Y-100.838
X189.738Y-84.328
X190.071Y-114.173
X190.071Y-124.333
X190.333Y-40.767
X190.881Y-48.641
X190.881Y-53.641
X191.136Y-103.638
X191.136Y-111.258
X192.325Y-34.036
X192.405Y-73.639
X192.418Y-78.871
X193.675Y-99.822
X193.676Y-103.638
X193.676Y-111.258
X193.929Y-115.189
X193.929Y-120.189
X194.768Y-83.981
X194.768Y-94.141
X194.945Y-58.039
X194.945Y-68.199
X194.945Y-73.639
X194.958Y-78.871
X196.216Y-103.638
X196.216Y-111.258
X197.358Y-130.81
X197.485Y-73.639
X197.498Y-78.871
X198.018Y-83.981
X198.018Y-94.141
X198.675Y-99.822
X198.756Y-103.638
X198.756Y-111.258
X199.39Y-53.594
X199.39Y-63.754
X201.233Y-125.349
X201.518Y-73.491
X201.518Y-83.651
X202.268Y-86.401
X202.268Y-94.021
X202.565Y-110.871
X202.756Y-46.946
X202.756Y-54.566
X203.733Y-125.349
X203.756Y-34.036
X203.756Y-44.196
X203.756Y-57.446
X203.756Y-67.606
X204.518Y-73.491
X204.518Y-83.651
X204.518Y-96.901
X204.518Y-107.061
X204.808Y-86.401
X204.808Y-94.021
X204.978Y-130.81
X205.296Y-46.946
X205.296Y-54.566
X206.756Y-34.036
X206.756Y-44.196
X206.756Y-57.446
X206.756Y-67.606
X207.348Y-86.401
X207.348Y-94.021
X207.518Y-73.491
X207.518Y-83.651
X207.518Y-96.901
X207.518Y-107.061
X207.836Y-46.946
X207.836Y-54.566
X209.677Y-123.825
X209.677Y-126.325
X209.756Y-34.036
X209.756Y-44.196
X209.756Y-57.446
X209.756Y-67.606
X209.888Y-86.401
X209.888Y-94.021
X210.268Y-97.401
X210.376Y-46.946
X210.376Y-54.566
X210.518Y-73.491
X210.518Y-83.651
X212.428Y-86.401
X212.428Y-94.021
X212.506Y-43.696
X212.506Y-57.946
X212.725Y-110.871
X212.916Y-46.946
X212.916Y-54.566
X213.268Y-83.151
X213.487Y-114.427
X213.487Y-122.047
X213.741Y-100.401
X213.741Y-105.401
X214.968Y-86.401
X214.968Y-94.021
X215.256Y-35.696
X215.256Y-40.696
X215.256Y-60.946
X215.256Y-65.946
X215.456Y-46.946
X215.456Y-54.566
X216.018Y-75.151
X216.018Y-80.151
X217.508Y-86.401
X217.508Y-94.021
X217.996Y-46.946
X217.996Y-54.566
X218.268Y-100.401
X218.268Y-105.401
X219.506Y-35.696
X219.506Y-40.696
X219.506Y-60.946
X219.506Y-65.946
X220.048Y-86.401
X220.048Y-94.021
X220.268Y-75.151
X220.268Y-80.151
X220.428Y-97.401
X220.536Y-46.946
X220.536Y-54.566
X222.666Y-43.696
X222.666Y-57.946
X223.266Y-60.706
X223.266Y-70.866
X223.428Y-83.151
X223.518Y-86.231
X223.518Y-96.391
X224.028Y-103.759
X224.028Y-106.259
X225.506Y-43.696
X225.506Y-53.856
X226.518Y-86.231
X226.518Y-96.391
X228.756Y-43.786
X228.756Y-53.946
X228.756Y-56.196
X228.756Y-66.356
X229.87Y-81.026
X229.87Y-91.186
X229.87Y-95.504
X229.87Y-105.664
T4
X32.766Y-106.172
X32.766Y-108.712
X37.084Y-62.484
X39.5Y-58.5
X39.624Y-62.484
X42.0Y-58.5
X42.164Y-62.484
X44.5Y-58.5
X44.704Y-62.484
X47.244Y-62.484
X47.5Y-103.5
X49.784Y-62.484
X50.0Y-103.5
X52.5Y-103.5
X58.5Y-58.5
X59.563Y-62.484
X61.0Y-58.5
X62.103Y-62.484
X63.5Y-58.5
X64.643Y-62.484
X64.8Y-78.5
X65.786Y-84.328
X67.183Y-62.484
X67.3Y-78.5
X68.326Y-84.328
X69.8Y-78.5
X70.866Y-84.328
X72.644Y-62.484
X73.406Y-84.328
X75.184Y-62.484
X77.5Y-58.5
X77.5Y-103.5
X77.724Y-62.484
X80.0Y-58.5
X80.0Y-103.5
X80.264Y-62.484
X82.5Y-58.5
X82.5Y-103.5
X82.804Y-62.484
X83.571Y-130.683
X85.344Y-62.484
X86.111Y-130.683
X90.25Y-78.5
X92.75Y-78.5
X95.25Y-78.5
X96.5Y-58.5
X99.0Y-58.5
X100.584Y-118.364
X101.5Y-58.5
X103.124Y-118.364
X105.664Y-118.364
X107.5Y-103.5
X108.204Y-118.364
X110.0Y-103.5
X112.5Y-103.5
X115.5Y-58.5
X115.5Y-78.5
X118.0Y-58.5
X118.0Y-78.5
X120.5Y-58.5
X120.5Y-78.5
X127.127Y-72.009
X127.127Y-74.549
X134.747Y-106.172
X134.747Y-108.712
X139.065Y-62.484
X141.605Y-62.484
X144.145Y-62.484
X145.415Y-52.197
X146.685Y-62.484
X149.225Y-62.484
X150.368Y-90.805
X151.765Y-52.197
X151.765Y-62.484
X157.353Y-52.07
X161.671Y-62.484
X164.211Y-62.484
X165.227Y-47.371
X165.989Y-93.599
X166.624Y-113.919
X166.751Y-62.484
X166.751Y-67.31
X167.767Y-47.371
X167.767Y-84.328
X168.148Y-79.121
X169.291Y-62.484
X169.291Y-67.31
X170.307Y-47.371
X170.307Y-84.328
X171.831Y-67.31
X172.847Y-84.328
X174.625Y-62.484
X175.387Y-84.328
X176.657Y-88.519
X177.165Y-62.484
X179.705Y-62.484
X182.245Y-62.484
X184.785Y-62.484
X187.325Y-62.484
X196.469Y-34.036
X202.565Y-118.364
X205.105Y-118.364
X207.645Y-118.364
X210.185Y-118.364
X221.996Y-116.84
X221.996Y-119.38
X221.996Y-121.92
X221.996Y-124.46
X221.996Y-127.0
X224.536Y-116.84
X224.536Y-119.38
X224.536Y-121.92
X224.536Y-124.46
X224.536Y-127.0
X229.108Y-72.009
X229.108Y-74.549
T5
X45.466Y-126.532
X45.466Y-131.532
X47.966Y-129.032
T6
X45.2Y-96.0
X54.8Y-96.0
X62.5Y-71.0
X72.1Y-71.0
X75.2Y-96.0
X84.8Y-96.0
X87.95Y-71.0
X97.55Y-71.0
X105.2Y-96.0
X113.2Y-71.0
X114.8Y-96.0
X122.8Y-71.0
T7
X34.163Y-131.191
X126.746Y-33.274
X136.144Y-131.191
X228.727Y-33.274
T8
X130.25Y-44.25
X130.25Y-45.0
X130.25Y-45.75
X130.25Y-59.25
X130.25Y-60.0
X130.25Y-60.75
X130.25Y-74.25
X130.25Y-75.0
X130.25Y-75.75
X130.25Y-89.25
X130.25Y-90.0
X130.25Y-90.75
X130.25Y-104.25
X130.25Y-105.0
X130.25Y-105.75
X130.25Y-119.25
X130.25Y-120.0
X130.25Y-120.75
X131.75Y-44.25
X131.75Y-45.0
X131.75Y-45.75
X131.75Y-59.25
X131.75Y-60.0
X131.75Y-60.75
X131.75Y-74.25
X131.75Y-75.0
X131.75Y-75.75
X131.75Y-89.25
X131.75Y-90.0
X131.75Y-90.75
X131.75Y-104.25
X131.75Y-105.0
X131.75Y-105.75
X131.75Y-119.25
X131.75Y-120.0
X131.75Y-120.75
T2
G00X35.52Y-38.5
M15
G01X35.52Y-37.5
M16
G05
G00X38.62Y-38.5
M15
G01X38.62Y-37.5
M16
G05
G00X46.92Y-38.5
M15
G01X46.92Y-37.5
M16
G05
G00X62.33Y-37.5
M15
G01X62.33Y-38.5
M16
G05
G00X70.63Y-37.5
M15
G01X70.63Y-38.5
M16
G05
G00X73.73Y-37.5
M15
G01X73.73Y-38.5
M16
G05
G00X86.27Y-38.5
M15
G01X86.27Y-37.5
M16
G05
G00X89.37Y-38.5
M15
G01X89.37Y-37.5
M16
G05
G00X97.67Y-38.5
M15
G01X97.67Y-37.5
M16
G05
G00X113.08Y-37.5
M15
G01X113.08Y-38.5
M16
G05
G00X121.38Y-37.5
M15
G01X121.38Y-38.5
M16
G05
G00X124.48Y-37.5
M15
G01X124.48Y-38.5
M16
G05
T5
G00X37.2Y-50.45
M15
G01X37.2Y-51.55
M16
G05
G00X46.8Y-50.45
M15
G01X46.8Y-51.55
M16
G05
G00X56.2Y-50.45
M15
G01X56.2Y-51.55
M16
G05
G00X65.8Y-50.45
M15
G01X65.8Y-51.55
M16
G05
G00X75.2Y-50.45
M15
G01X75.2Y-51.55
M16
G05
G00X84.8Y-50.45
M15
G01X84.8Y-51.55
M16
G05
G00X94.2Y-50.45
M15
G01X94.2Y-51.55
M16
G05
G00X103.8Y-50.45
M15
G01X103.8Y-51.55
M16
G05
G00X113.2Y-50.45
M15
G01X113.2Y-51.55
M16
G05
G00X122.8Y-50.45
M15
G01X122.8Y-51.55
M16
G05
T0
M30
