%TF.GenerationSoftware,KiCad,Pcbnew,(6.0.6-0)*%
%TF.CreationDate,2022-08-31T18:23:36+01:00*%
%TF.ProjectId,magnum-front-panel,6d61676e-756d-42d6-9672-6f6e742d7061,r03*%
%TF.SameCoordinates,Original*%
%TF.FileFunction,Profile,NP*%
%FSLAX46Y46*%
G04 Gerber Fmt 4.6, Leading zero omitted, Abs format (unit mm)*
G04 Created by KiCad (PCBNEW (6.0.6-0)) date 2022-08-31 18:23:36*
%MOMM*%
%LPD*%
G01*
G04 APERTURE LIST*
%TA.AperFunction,Profile*%
%ADD10C,0.100000*%
%TD*%
G04 APERTURE END LIST*
D10*
%TO.C,Ref\u002A\u002A*%
X66211051Y-38809051D02*
X66151051Y-38675951D01*
X40213921Y-69463251D02*
X40300731Y-69214051D01*
X116295451Y-71734951D02*
X116240051Y-71567651D01*
X46873451Y-72148251D02*
X46743251Y-72383251D01*
X68385051Y-74083551D02*
X68211051Y-74053251D01*
X45656551Y-53078351D02*
X45464551Y-53216351D01*
X118428351Y-53517151D02*
X118283351Y-53452851D01*
X121964251Y-35545651D02*
X122104051Y-35721051D01*
X97464951Y-50993051D02*
X97445151Y-50834251D01*
X132339951Y-148552951D02*
X31000000Y-148552951D01*
X47257751Y-70338451D02*
X47261651Y-70601351D01*
X118283351Y-53452851D02*
X118141451Y-53381551D01*
X120355051Y-40433151D02*
X120136551Y-40474451D01*
X91430451Y-37662351D02*
X91426251Y-37508151D01*
X117789251Y-47856651D02*
X117990451Y-47724651D01*
X100518351Y-53759551D02*
X100358451Y-53747551D01*
X40718931Y-49115551D02*
X40827981Y-48905151D01*
X46278051Y-48578651D02*
X46413951Y-48777751D01*
X111135151Y-99089451D02*
X110957951Y-99057651D01*
X119230651Y-40473351D02*
X119082751Y-40446851D01*
X50282651Y-92199051D02*
X50537451Y-92104551D01*
X40485661Y-49789551D02*
X40547061Y-49558451D01*
X60177351Y-52189451D02*
X60099351Y-52067651D01*
X45441251Y-35087151D02*
X45616651Y-35226951D01*
X108099351Y-95899051D02*
X108085251Y-95716251D01*
X66622551Y-67741351D02*
X66832951Y-67580451D01*
X97375251Y-36919451D02*
X97409851Y-37135151D01*
X61310451Y-47830251D02*
X61516251Y-47735651D01*
X79048751Y-49031851D02*
X79163451Y-48846551D01*
X46560351Y-68382951D02*
X46710351Y-68603151D01*
X42189151Y-47606451D02*
X42412251Y-47504151D01*
X95014651Y-34558851D02*
X95227051Y-34608951D01*
X79976551Y-98706451D02*
X79823351Y-98620051D01*
X90865051Y-71051751D02*
X90843551Y-70875951D01*
X44104851Y-40474751D02*
X43881851Y-40499851D01*
X42608151Y-73967451D02*
X42441151Y-73912051D01*
X119608551Y-66917251D02*
X119871151Y-66921151D01*
X118329951Y-34825651D02*
X118535751Y-34731051D01*
X101401651Y-53682251D02*
X101165551Y-53727051D01*
X120692051Y-34674251D02*
X120895651Y-34755051D01*
X96878351Y-39243451D02*
X96743951Y-39418851D01*
X46533951Y-48984951D02*
X46637651Y-49199151D01*
X78676751Y-97528151D02*
X78582551Y-97379151D01*
X117837651Y-73612051D02*
X117688351Y-73517851D01*
X116500051Y-49789951D02*
X116561451Y-49558451D01*
X40405191Y-50513051D02*
X40414011Y-50267751D01*
X99212951Y-47612451D02*
X99435651Y-47510151D01*
X120396551Y-53682251D02*
X120159751Y-53727051D01*
X92351151Y-35336251D02*
X92515251Y-35190151D01*
X71695751Y-72814451D02*
X71520751Y-73011451D01*
X93676751Y-40412651D02*
X93534551Y-40372451D01*
X68838151Y-66917251D02*
X69100751Y-66921151D01*
X97649851Y-49335351D02*
X97743751Y-49117951D01*
X91531351Y-72663451D02*
X91429751Y-72518751D01*
X97963951Y-69818951D02*
X98005551Y-70077651D01*
X46843051Y-68832551D02*
X46957751Y-69070051D01*
X64510451Y-52880451D02*
X64333551Y-53008151D01*
X48303451Y-94224451D02*
X48407551Y-93983451D01*
X93395151Y-40325151D02*
X93258851Y-40271151D01*
X70124951Y-67124751D02*
X70368751Y-67221851D01*
X91071151Y-69214051D02*
X91175251Y-68972651D01*
X122003851Y-39416751D02*
X121857751Y-39580851D01*
X65612851Y-49924451D02*
X65647451Y-50140051D01*
X117868651Y-53218551D02*
X117737751Y-53126751D01*
X122235651Y-67971751D02*
X122420251Y-68171151D01*
X65422651Y-71398251D02*
X65383851Y-71226051D01*
X72469651Y-71124751D02*
X72414951Y-71385551D01*
X81372751Y-47526651D02*
X81591551Y-47513951D01*
X91433551Y-68517751D02*
X91587151Y-68305251D01*
X79589451Y-92594351D02*
X79812451Y-92448251D01*
X81942651Y-99120451D02*
X81671651Y-99130751D01*
X71862651Y-36917351D02*
X71897551Y-37132651D01*
X40985051Y-68104451D02*
X41168151Y-67916051D01*
X78071851Y-95530951D02*
X78071851Y-95530951D01*
X61114251Y-47938951D02*
X61310451Y-47830251D01*
X52365151Y-91993351D02*
X52619951Y-92053651D01*
X122368451Y-38859151D02*
X122260051Y-39055351D01*
X41976751Y-47724351D02*
X42189151Y-47606451D01*
X116639451Y-49333651D02*
X116733351Y-49115551D01*
X64981551Y-52423751D02*
X64835451Y-52587851D01*
X43055251Y-66967351D02*
X43317851Y-66932451D01*
X66203351Y-36218251D02*
X66303851Y-36024451D01*
X67177651Y-35056051D02*
X67363651Y-34934351D01*
X65627751Y-51014951D02*
X65582151Y-51232651D01*
X118141451Y-53381551D02*
X118003151Y-53303651D01*
X41341851Y-39415351D02*
X41252951Y-39302051D01*
X108080351Y-95530951D02*
X108080351Y-95530951D01*
X110281751Y-98848051D02*
X110122251Y-98775651D01*
X45066551Y-34851451D02*
X45257751Y-34961851D01*
X113820451Y-92626151D02*
X114030751Y-92793751D01*
X83970551Y-52423451D02*
X83824751Y-52587151D01*
X51845651Y-91928751D02*
X52106851Y-91951751D01*
X122679951Y-51753951D02*
X122577651Y-51976951D01*
X97619451Y-51608851D02*
X97569751Y-51458551D01*
X46637651Y-49199151D02*
X46725151Y-49419651D01*
X79812451Y-92448251D02*
X80047451Y-92318351D01*
X45053051Y-53449651D02*
X44835251Y-53543551D01*
X67056351Y-67434351D02*
X67291351Y-67304051D01*
X63252251Y-47563751D02*
X63464651Y-47613851D01*
X94142951Y-34514751D02*
X94362451Y-34501951D01*
X46649051Y-37791151D02*
X46619751Y-38010051D01*
X62889851Y-53504751D02*
X62663551Y-53512851D01*
X117421551Y-48160551D02*
X117599451Y-48002451D01*
X116429851Y-72059551D02*
X116358651Y-71898651D01*
X72515951Y-70336351D02*
X72519851Y-70598851D01*
X53114451Y-92229051D02*
X53351551Y-92344151D01*
X59737851Y-49845351D02*
X59794751Y-49631851D01*
X40671691Y-37814851D02*
X40660041Y-37662351D01*
X43299451Y-74105451D02*
X43123751Y-74083651D01*
X60349851Y-52420251D02*
X60260951Y-52306951D01*
X93072851Y-34825251D02*
X93278651Y-34730651D01*
X66511751Y-39303051D02*
X66428151Y-39185551D01*
X122024551Y-52759051D02*
X121854451Y-52924251D01*
X91426251Y-37508151D02*
X91426251Y-37508151D01*
X120982451Y-47530651D02*
X121197051Y-47634051D01*
X48407551Y-93983451D02*
X48528251Y-93750851D01*
X45782551Y-35381151D02*
X45936751Y-35547051D01*
X43881851Y-40499851D02*
X43655551Y-40507951D01*
X103550951Y-48989551D02*
X103654751Y-49203351D01*
X114769451Y-97388051D02*
X114623651Y-97611051D01*
X122466151Y-72814451D02*
X122291151Y-73011451D01*
X44961751Y-73879651D02*
X44712551Y-73965751D01*
X42266751Y-53451751D02*
X42124951Y-53380451D01*
X82727151Y-98972551D02*
X82471351Y-99041051D01*
X65922051Y-37281951D02*
X65947051Y-37059251D01*
X79823351Y-98620051D02*
X79674451Y-98525851D01*
X94069851Y-74105451D02*
X93894151Y-74083651D01*
X46260451Y-73013551D02*
X46071651Y-73196351D01*
X84634351Y-50142851D02*
X84653451Y-50360251D01*
X120761851Y-47443051D02*
X120982451Y-47530651D01*
X116887251Y-36419351D02*
X116973751Y-36218251D01*
X40060041Y-70698451D02*
X40055801Y-70519851D01*
X121673051Y-53076351D02*
X121481451Y-53214651D01*
X62509351Y-53508651D02*
X62356951Y-53497051D01*
X48217351Y-94473951D02*
X48303451Y-94224451D01*
X61516251Y-47735651D02*
X61728351Y-47656551D01*
X40659291Y-72518751D02*
X40565421Y-72369451D01*
X120136551Y-40474451D02*
X119913851Y-40499451D01*
X46071651Y-73196351D02*
X45870851Y-73364351D01*
X40094631Y-71051651D02*
X40073101Y-70875951D01*
X78861351Y-49426051D02*
X78948151Y-49225251D01*
X119193151Y-53728151D02*
X119035751Y-53700951D01*
X119082751Y-66967351D02*
X119345351Y-66932751D01*
X46604851Y-36919451D02*
X46639451Y-37135151D01*
X108323751Y-94224851D02*
X108427551Y-93983751D01*
X50782351Y-99022051D02*
X50612551Y-98975051D01*
X45973551Y-39418851D02*
X45827451Y-39582951D01*
X84403251Y-49304751D02*
X84484051Y-49507651D01*
X92997051Y-40144851D02*
X92871351Y-40072451D01*
X64944851Y-48551951D02*
X65084551Y-48727351D01*
X82106051Y-53479351D02*
X81883451Y-53504451D01*
X113133351Y-92228751D02*
X113370851Y-92343451D01*
X44456351Y-74033851D02*
X44194451Y-74083251D01*
X98032051Y-70601351D02*
X98016551Y-70864651D01*
X66246051Y-72938351D02*
X66129951Y-72803551D01*
X121793151Y-48040551D02*
X121973051Y-48207451D01*
X119838351Y-34505251D02*
X120056051Y-34523951D01*
X44945851Y-40218551D02*
X44744651Y-40305051D01*
X64449351Y-48092051D02*
X64624751Y-48231851D01*
X82628351Y-92060751D02*
X82877851Y-92139451D01*
X120852551Y-53542551D02*
X120627751Y-53620551D01*
X60444151Y-52528951D02*
X60349851Y-52420251D01*
X46817251Y-51292951D02*
X46749851Y-51526251D01*
X83121751Y-92236151D02*
X83358851Y-92350851D01*
X103905251Y-50112151D02*
X103925751Y-50347551D01*
X121466751Y-73653351D02*
X121234451Y-73774451D01*
X49243651Y-98199351D02*
X49114451Y-98076251D01*
X118981451Y-74053251D02*
X118809251Y-74014351D01*
X116802851Y-52044751D02*
X116731551Y-51902851D01*
X118147851Y-73777551D02*
X117990851Y-73698551D01*
X43823851Y-47259851D02*
X44059651Y-47280351D01*
X68460251Y-40473351D02*
X68312351Y-40446851D01*
X117611351Y-53028651D02*
X117489651Y-52923851D01*
X69713351Y-34608651D02*
X69921651Y-34674251D01*
X68629551Y-34515051D02*
X68849151Y-34502051D01*
X41986551Y-53302051D02*
X41852151Y-53217351D01*
X70005651Y-40303951D02*
X69798151Y-40375951D01*
X65525051Y-71734951D02*
X65469651Y-71567651D01*
X101632851Y-53620851D02*
X101401651Y-53682251D01*
X71597951Y-38859151D02*
X71489651Y-39055351D01*
X65988051Y-36840451D02*
X66044851Y-36627251D01*
X103867551Y-49878851D02*
X103905251Y-50112151D01*
X80966151Y-99060851D02*
X80794251Y-99021951D01*
X79255551Y-98199351D02*
X79126351Y-98076151D01*
X43926951Y-74113251D02*
X43655551Y-74123151D01*
X43581051Y-66917251D02*
X43844051Y-66921151D01*
X103144751Y-48394451D02*
X103295851Y-48584051D01*
X119673451Y-53763451D02*
X119512151Y-53759551D01*
X50954251Y-99060851D02*
X50782351Y-99022051D01*
X48664851Y-97528151D02*
X48570651Y-97379251D01*
X66832951Y-67580451D02*
X67056351Y-67434351D01*
X70606251Y-67336551D02*
X70835351Y-67469251D01*
X72215251Y-69068351D02*
X72312251Y-69312151D01*
X85270651Y-95610051D02*
X85255151Y-95872951D01*
X115156951Y-94568551D02*
X115217251Y-94823051D01*
X122516951Y-36496751D02*
X122582551Y-36705251D01*
X84307551Y-49107051D02*
X84403251Y-49304751D01*
X52716651Y-98973351D02*
X52460851Y-99041451D01*
X84216851Y-92985751D02*
X84401451Y-93184451D01*
X78787251Y-51385551D02*
X78748151Y-51244451D01*
X108154051Y-96256551D02*
X108122251Y-96079351D01*
X42124951Y-53380451D02*
X41986551Y-53302051D01*
X45936751Y-35547051D02*
X46076551Y-35722451D01*
X116517751Y-51305751D02*
X116482751Y-51150451D01*
X116867551Y-38539751D02*
X116820251Y-38400351D01*
X51303951Y-99113051D02*
X51128251Y-99091151D01*
X84018151Y-92801151D02*
X84216851Y-92985751D01*
X91249051Y-72216351D02*
X91170351Y-72059251D01*
X84334751Y-51866551D02*
X84226451Y-52062351D01*
X65320351Y-49102151D02*
X65416251Y-49300151D01*
X40690741Y-37964851D02*
X40671691Y-37814851D01*
X44664851Y-34674551D02*
X44868551Y-34755451D01*
X59663851Y-50513051D02*
X59663851Y-50513051D01*
X102798151Y-48047951D02*
X102977851Y-48214851D01*
X119619551Y-34502051D02*
X119838351Y-34505251D01*
X42535751Y-67096251D02*
X42794051Y-67021751D01*
X69143451Y-40499451D02*
X68917251Y-40507951D01*
X49964651Y-98706551D02*
X49811451Y-98620051D01*
X84997451Y-96908351D02*
X84884251Y-97155051D01*
X97206251Y-72816651D02*
X97030851Y-73013551D01*
X122603451Y-38225251D02*
X122541351Y-38440951D01*
X46166851Y-52583251D02*
X46008351Y-52761051D01*
X71465251Y-67971751D02*
X71649851Y-68171151D01*
X103186051Y-52582851D02*
X103027951Y-52760451D01*
X83448851Y-98661351D02*
X83216651Y-98782351D01*
X96707151Y-35547051D02*
X96846951Y-35722451D01*
X121533451Y-39873751D02*
X121356651Y-40001551D01*
X63672851Y-47679551D02*
X63876551Y-47760351D01*
X116242451Y-69463251D02*
X116328951Y-69214451D01*
X113600251Y-92476151D02*
X113820451Y-92626151D01*
X50035951Y-92312751D02*
X50282651Y-92199051D01*
X78076451Y-95709551D02*
X78071851Y-95530951D01*
X64624751Y-48231851D02*
X64790551Y-48386051D01*
X84428951Y-51661151D02*
X84334751Y-51866551D01*
X118009551Y-39995851D02*
X117892051Y-39912251D01*
X118655651Y-47418751D02*
X118888951Y-47351651D01*
X97429251Y-50513051D02*
X97429251Y-50513051D01*
X65588151Y-71898651D02*
X65525051Y-71734951D01*
X119035751Y-53700951D02*
X118880451Y-53666051D01*
X43198951Y-40473051D02*
X43051351Y-40446551D01*
X81140151Y-99091151D02*
X80966151Y-99060851D01*
X98876251Y-53217451D02*
X98745951Y-53125651D01*
X41744851Y-35190151D02*
X41920251Y-35055751D01*
X65346451Y-51866151D02*
X65237751Y-52062351D01*
X71265851Y-67787251D02*
X71465251Y-67971751D01*
X45616651Y-35226951D02*
X45782551Y-35381151D01*
X65472051Y-69463251D02*
X65558551Y-69214451D01*
X114980851Y-94074551D02*
X115077851Y-94318351D01*
X72340551Y-71644251D02*
X72246251Y-71898651D01*
X65669751Y-50576651D02*
X65657051Y-50796151D01*
X41473751Y-52922351D02*
X41357351Y-52811151D01*
X42116551Y-73777651D02*
X41959451Y-73698551D01*
X70586151Y-40001551D02*
X70400551Y-40116251D01*
X112989351Y-98885751D02*
X112740151Y-98972651D01*
X40210741Y-71567651D02*
X40163801Y-71397851D01*
X120306251Y-47317751D02*
X120536351Y-47372151D01*
X43018451Y-53700151D02*
X42863251Y-53665251D01*
X117156451Y-52574151D02*
X117058351Y-52448151D01*
X116419551Y-50513151D02*
X116419551Y-50513151D01*
X95133951Y-66986151D02*
X95388351Y-67046451D01*
X46850451Y-49875651D02*
X46888251Y-50108951D01*
X62356951Y-53497051D02*
X62206951Y-53477951D01*
X98609751Y-48006651D02*
X98799651Y-47861251D01*
X66277451Y-38938151D02*
X66211051Y-38809051D01*
X79872851Y-52924251D02*
X79756351Y-52833551D01*
X42949751Y-74053251D02*
X42777551Y-74014451D01*
X41141351Y-52572951D02*
X41042851Y-52446551D01*
X96095951Y-40003251D02*
X95909951Y-40117651D01*
X45325551Y-40003251D02*
X45139551Y-40117651D01*
X71856651Y-72604151D02*
X71695751Y-72814451D01*
X49367151Y-92750351D02*
X49577451Y-92589051D01*
X40892651Y-38675251D02*
X40838611Y-38539051D01*
X108299751Y-96768951D02*
X108242951Y-96601751D01*
X121810051Y-35379751D02*
X121964251Y-35545651D01*
X43476951Y-74118551D02*
X43299451Y-74105451D01*
X112740151Y-98972651D02*
X112484351Y-99040751D01*
X102485451Y-53215651D02*
X102284351Y-53339551D01*
X68917251Y-74123051D02*
X68738651Y-74118451D01*
X71193851Y-35545651D02*
X71333651Y-35721051D01*
X44363451Y-66986151D02*
X44617951Y-67046451D01*
X66425651Y-67916351D02*
X66622551Y-67741351D01*
X118256951Y-40145851D02*
X118131351Y-40073851D01*
X111315451Y-99111951D02*
X111135151Y-99089451D01*
X78496051Y-97226051D02*
X78417051Y-97068951D01*
X97926551Y-71388051D02*
X97852051Y-71646751D01*
X79644151Y-52736851D02*
X79536551Y-52634151D01*
X64835451Y-52587851D02*
X64678051Y-52740351D01*
X70835351Y-67469251D02*
X71055851Y-67619551D01*
X116791251Y-72663451D02*
X116689651Y-72519051D01*
X46796151Y-49645551D02*
X46850451Y-49875651D01*
X48129851Y-96236451D02*
X48099451Y-96062451D01*
X100924551Y-53754251D02*
X100679651Y-53763451D01*
X66545951Y-35661651D02*
X66686051Y-35494051D01*
X122291151Y-73011451D02*
X122102651Y-73194251D01*
X116815251Y-36627251D02*
X116887251Y-36419351D01*
X118963451Y-34589851D02*
X119181151Y-34544351D01*
X93051351Y-67190451D02*
X93306151Y-67096251D01*
X109820151Y-92443251D02*
X110055151Y-92313051D01*
X44617951Y-67046451D02*
X44868151Y-67125551D01*
X108516451Y-97247151D02*
X108436751Y-97091951D01*
X44969451Y-47530851D02*
X45183651Y-47634651D01*
X91930851Y-35838151D02*
X92058551Y-35661351D01*
X111683551Y-99130751D02*
X111498251Y-99126151D01*
X94875251Y-66944151D02*
X95133951Y-66986151D01*
X97367551Y-72606351D02*
X97206251Y-72816651D01*
X97409851Y-37135151D02*
X97428951Y-37352851D01*
X41428251Y-35493651D02*
X41580751Y-35336251D01*
X67363651Y-34934351D02*
X67559551Y-34825651D01*
X92515251Y-35190151D02*
X92690651Y-35055751D01*
X92008851Y-73190751D02*
X91879351Y-73067551D01*
X95482951Y-73965751D02*
X95226751Y-74033851D01*
X96846951Y-35722451D02*
X96972251Y-35905951D01*
X43655551Y-74123151D02*
X43476951Y-74118551D01*
X108436751Y-97091951D02*
X108364351Y-96932351D01*
X48149251Y-94729851D02*
X48217351Y-94473951D01*
X60026951Y-51942051D02*
X59960651Y-51812851D01*
X109528651Y-98415651D02*
X109392751Y-98308751D01*
X119918751Y-53754251D02*
X119673451Y-53763451D01*
X78789351Y-49633651D02*
X78861351Y-49426051D01*
X117465751Y-39525451D02*
X117371451Y-39416351D01*
X41168151Y-67916051D02*
X41365151Y-67740951D01*
X78161551Y-94731251D02*
X78229951Y-94475351D01*
X94581251Y-34505151D02*
X94798951Y-34524251D01*
X72133051Y-72145751D02*
X72002751Y-72380751D01*
X78071851Y-95530951D02*
X78071851Y-95530951D01*
X91722951Y-38807951D02*
X91662951Y-38675251D01*
X46413951Y-48777751D02*
X46533951Y-48984951D01*
X71333651Y-35721051D02*
X71458951Y-35904551D01*
X65921351Y-68518151D02*
X66074451Y-68305651D01*
X84272251Y-98020051D02*
X84084151Y-98202851D01*
X110122251Y-98775651D02*
X109966951Y-98696251D01*
X117269151Y-73191051D02*
X117139651Y-73067851D01*
X116973751Y-36218251D02*
X117074251Y-36024451D01*
X48270651Y-96744651D02*
X48215651Y-96578051D01*
X97757451Y-71901151D02*
X97643851Y-72148251D01*
X118880451Y-53666051D02*
X118727351Y-53623651D01*
X83358851Y-92350851D02*
X83587951Y-92483551D01*
X31000000Y-20000000D02*
X132339951Y-20000000D01*
X69620251Y-66985751D02*
X69875051Y-67046051D01*
X98432251Y-48164751D02*
X98609751Y-48006651D01*
X59960651Y-51812851D02*
X59900651Y-51680151D01*
X41357351Y-52811151D02*
X41246151Y-52694651D01*
X41512651Y-73415851D02*
X41372951Y-73306851D01*
X40952651Y-38807951D02*
X40892651Y-38675251D01*
X116719251Y-37965151D02*
X116700251Y-37814851D01*
X65929751Y-37814851D02*
X65918151Y-37662751D01*
X80294151Y-98856851D02*
X80133651Y-98785551D01*
X103884051Y-51058651D02*
X103834651Y-51294051D01*
X48059951Y-95530951D02*
X48059951Y-95530951D01*
X98267151Y-48334851D02*
X98432251Y-48164751D01*
X60436351Y-48498651D02*
X60588751Y-48341251D01*
X97203451Y-38655451D02*
X97108851Y-38861251D01*
X91557051Y-36626951D02*
X91629051Y-36419051D01*
X69100751Y-66921151D02*
X69361951Y-66944151D01*
X48069851Y-95259551D02*
X48099851Y-94992051D01*
X123274651Y-70862151D02*
X123240051Y-71124751D01*
X122870951Y-68830751D02*
X122985651Y-69068351D01*
X46749851Y-51526251D02*
X46664451Y-51756351D01*
X48215651Y-96578051D02*
X48168651Y-96408351D01*
X103915451Y-50821851D02*
X103884051Y-51058651D01*
X44323251Y-40433851D02*
X44104851Y-40474751D01*
X45435351Y-73654851D02*
X45202751Y-73775851D01*
X91608951Y-38539051D02*
X91561751Y-38399651D01*
X40688941Y-37058851D02*
X40729881Y-36840451D01*
X92306051Y-39628151D02*
X92206451Y-39524051D01*
X99149051Y-53380451D02*
X99010651Y-53302151D01*
X63876551Y-47760351D02*
X64074551Y-47856351D01*
X121605751Y-67469251D02*
X121826351Y-67619551D01*
X42777551Y-74014451D02*
X42608151Y-73967451D01*
X65647451Y-50140051D02*
X65666551Y-50357751D01*
X97527351Y-51305351D02*
X97492451Y-51150051D01*
X61914351Y-53417551D02*
X61772151Y-53377351D01*
X94119251Y-40492051D02*
X93969251Y-40473051D01*
X48987051Y-93114551D02*
X49170251Y-92925751D01*
X92427751Y-73517551D02*
X92283051Y-73415851D01*
X116102051Y-70875951D02*
X116088951Y-70698351D01*
X117669651Y-39728751D02*
X117565251Y-39629551D01*
X113370851Y-92343451D02*
X113600251Y-92476151D01*
X80117451Y-53087351D02*
X79993151Y-53008951D01*
X50282251Y-98856851D02*
X50121651Y-98785551D01*
X120568551Y-40375951D02*
X120355051Y-40433151D01*
X50612551Y-98975051D02*
X50446051Y-98920051D01*
X44536851Y-40377051D02*
X44323251Y-40433851D01*
X108080251Y-95530951D02*
X108090151Y-95259551D01*
X118003151Y-53303651D02*
X117868651Y-53218551D01*
X121481451Y-53214651D02*
X121280251Y-53338851D01*
X99734151Y-53622951D02*
X99583851Y-53573151D01*
X108090151Y-95259551D02*
X108120151Y-94992051D01*
X70873451Y-35225851D02*
X71039651Y-35379751D01*
X53207251Y-98783051D02*
X52966151Y-98887151D01*
X44244251Y-34558851D02*
X44456651Y-34608951D01*
X71520751Y-73011451D02*
X71332251Y-73194251D01*
X116435451Y-50834651D02*
X116423451Y-50674351D01*
X41580751Y-35336251D02*
X41744851Y-35190151D01*
X111076151Y-91975651D02*
X111338751Y-91940451D01*
X81493051Y-99126151D02*
X81315851Y-99113051D01*
X84549351Y-49715851D02*
X84599751Y-49927951D01*
X41108951Y-73067551D02*
X40985751Y-72938051D01*
X79747151Y-48200051D02*
X79922251Y-48065951D01*
X84484051Y-49507651D02*
X84549351Y-49715851D01*
X40545611Y-51458451D02*
X40503261Y-51305251D01*
X40663881Y-37281951D02*
X40688941Y-37058851D01*
X41639751Y-39727651D02*
X41535651Y-39628151D01*
X65116051Y-52248351D02*
X64981551Y-52423751D01*
X42906351Y-40412651D02*
X42764151Y-40372451D01*
X71649851Y-68171151D02*
X71817451Y-68381151D01*
X120895351Y-67124751D02*
X121139151Y-67221851D01*
X43372551Y-34514751D02*
X43592051Y-34501951D01*
X50795751Y-92030051D02*
X51056951Y-91975351D01*
X122926651Y-50579751D02*
X122912851Y-50817651D01*
X114415151Y-93177351D02*
X114582751Y-93387751D01*
X79922251Y-48065951D02*
X80108251Y-47944151D01*
X45670051Y-39735451D02*
X45502351Y-39875551D01*
X41775251Y-47856351D02*
X41976751Y-47724351D01*
X40716771Y-51901651D02*
X40652541Y-51757051D01*
X84507651Y-51449051D02*
X84428951Y-51661151D01*
X68312351Y-40446851D02*
X68167351Y-40413351D01*
X52870151Y-92132351D02*
X53114451Y-92229051D01*
X65666551Y-50357751D02*
X65669751Y-50576651D01*
X122832451Y-51290551D02*
X122765351Y-51523851D01*
X43494251Y-53759451D02*
X43334351Y-53747451D01*
X70696251Y-73653351D02*
X70464051Y-73774451D01*
X84104651Y-52248351D02*
X83970551Y-52423451D01*
X94798951Y-34524251D02*
X95014651Y-34558851D01*
X65558551Y-69214451D02*
X65662651Y-68973051D01*
X90981151Y-71567651D02*
X90934251Y-71397951D01*
X40652541Y-51757051D02*
X40595371Y-51608751D01*
X95882451Y-67222551D02*
X96119551Y-67337651D01*
X59900651Y-51680151D02*
X59846651Y-51543951D01*
X42764151Y-40372451D02*
X42624751Y-40325151D01*
X99583851Y-53573151D02*
X99435551Y-53516051D01*
X111338751Y-91940451D02*
X111602051Y-91924851D01*
X101857251Y-53542851D02*
X101632851Y-53620851D01*
X65318551Y-70698351D02*
X65313951Y-70519851D01*
X97480751Y-68603151D02*
X97613451Y-68832551D01*
X119512151Y-53759551D02*
X119351951Y-53747951D01*
X78112051Y-94992751D02*
X78161551Y-94731251D01*
X40816691Y-68305251D02*
X40985051Y-68104451D01*
X49811451Y-98620051D02*
X49662551Y-98525851D01*
X45578551Y-67470351D02*
X45798851Y-67620651D01*
X40951151Y-52316351D02*
X40866411Y-52181951D01*
X67360851Y-40073851D02*
X67239151Y-39995851D01*
X99010651Y-53302151D02*
X98876251Y-53217451D01*
X41091351Y-39062751D02*
X41018951Y-38937151D01*
X41585351Y-48001751D02*
X41775251Y-47856351D01*
X116419551Y-50513151D02*
X116419651Y-50513051D01*
X122738251Y-68601751D02*
X122870951Y-68830751D01*
X40565421Y-72369451D02*
X40478601Y-72216351D01*
X71907151Y-37788751D02*
X71878251Y-38007851D01*
X53875351Y-98371951D02*
X53662851Y-98524751D01*
X91939651Y-39184551D02*
X91861651Y-39062751D01*
X85243851Y-95087051D02*
X85266751Y-95347451D01*
X79993151Y-53008951D02*
X79872851Y-52924251D01*
X83613051Y-48238251D02*
X83778551Y-48392051D01*
X79126351Y-98076151D02*
X79003251Y-97947051D01*
X79674451Y-98525851D02*
X79530151Y-98424551D01*
X116921551Y-38675951D02*
X116867551Y-38539751D01*
X103813151Y-49649151D02*
X103867551Y-49878851D01*
X80304051Y-47835851D02*
X80509451Y-47741651D01*
X91296251Y-68740451D02*
X91433551Y-68517751D01*
X46664451Y-51756351D02*
X46562151Y-51979351D01*
X84719051Y-93614651D02*
X84851751Y-93843651D01*
X92886951Y-73777651D02*
X92729851Y-73698551D01*
X40788061Y-52043551D02*
X40716771Y-51901651D01*
X55265751Y-95607551D02*
X55250251Y-95870851D01*
X68211051Y-74053251D02*
X68038851Y-74014351D01*
X55086151Y-96653251D02*
X54991551Y-96908051D01*
X116733351Y-49115551D02*
X116842451Y-48905551D01*
X53662851Y-98524751D02*
X53439851Y-98662351D01*
X123161351Y-69562051D02*
X123221751Y-69816851D01*
X49170251Y-92925751D02*
X49367151Y-92750351D01*
X52460851Y-99041451D02*
X52198651Y-99090851D01*
X43348851Y-40492051D02*
X43198951Y-40473051D01*
X119082751Y-40446851D02*
X118937751Y-40413351D01*
X91861651Y-39062751D02*
X91789351Y-38937151D01*
X45390851Y-47754651D02*
X45589851Y-47890551D01*
X40547061Y-49558451D02*
X40625061Y-49333251D01*
X78657851Y-50513151D02*
X78657851Y-50513151D01*
X67220451Y-73698551D02*
X67067251Y-73612051D01*
X71770951Y-38440951D02*
X71692251Y-38653051D01*
X59725251Y-51117251D02*
X59698751Y-50969751D01*
X116684351Y-37508151D02*
X116684351Y-37508151D01*
X41242351Y-48330651D02*
X41407451Y-48160151D01*
X110612851Y-98969051D02*
X110445551Y-98912251D01*
X117256351Y-48330951D02*
X117421551Y-48160551D01*
X93306151Y-67096251D02*
X93564451Y-67021751D01*
X65209851Y-48910851D02*
X65320351Y-49102151D01*
X95716251Y-40218551D02*
X95515051Y-40305051D01*
X72451351Y-69816851D02*
X72492951Y-70075151D01*
X66303851Y-36024451D02*
X66418251Y-35838451D01*
X123110951Y-71644251D02*
X123016751Y-71898651D01*
X70222651Y-73878551D02*
X69973851Y-73964951D01*
X59759151Y-51262351D02*
X59725251Y-51117251D01*
X84754351Y-97390151D02*
X84608251Y-97613151D01*
X61728351Y-47656551D02*
X61943951Y-47594451D01*
X46658551Y-37352851D02*
X46661751Y-37571651D01*
X69973851Y-73964951D02*
X69718051Y-74033151D01*
X82373951Y-92000451D02*
X82628351Y-92060751D01*
X43123751Y-74083651D02*
X42949751Y-74053251D01*
X71055851Y-67619551D02*
X71265851Y-67787251D01*
X109670151Y-98515951D02*
X109528651Y-98415651D01*
X116423451Y-50674351D02*
X116419551Y-50513151D01*
X117990451Y-47724651D02*
X118202851Y-47606851D01*
X92690651Y-35055751D02*
X92876651Y-34933951D01*
X97676651Y-51757051D02*
X97619451Y-51608851D01*
X44292951Y-47318051D02*
X44523051Y-47372451D01*
X40404841Y-68972651D02*
X40525891Y-68740451D01*
X83138751Y-53121851D02*
X82945351Y-53222451D01*
X122668051Y-37132651D02*
X122687051Y-37350451D01*
X43051351Y-40446551D02*
X42906351Y-40412651D01*
X117120251Y-39063851D02*
X117047851Y-38938151D01*
X43501351Y-40503751D02*
X43348851Y-40492051D01*
X67538451Y-73848851D02*
X67377451Y-73777551D01*
X78420151Y-93985851D02*
X78541251Y-93753651D01*
X119331551Y-74105451D02*
X119155451Y-74083551D01*
X119361851Y-47270451D02*
X119599751Y-47256351D01*
X121700651Y-39733251D02*
X121533451Y-39873751D01*
X115270951Y-95868751D02*
X115236051Y-96131251D01*
X79433851Y-52526551D02*
X79337151Y-52414351D01*
X117316351Y-35661651D02*
X117456451Y-35494051D01*
X65913951Y-37508151D02*
X65913951Y-37508151D01*
X101080551Y-47287351D02*
X101313851Y-47325151D01*
X117392951Y-67741351D02*
X117603351Y-67580451D01*
X112222151Y-99090451D02*
X111954951Y-99120451D01*
X111864951Y-91928751D02*
X112125751Y-91951351D01*
X69921651Y-34674251D02*
X70125251Y-34755051D01*
X82027751Y-47536251D02*
X82242651Y-47570851D01*
X71039651Y-35379751D02*
X71193851Y-35545651D01*
X103463051Y-52191851D02*
X103331451Y-52393051D01*
X116691751Y-68518151D02*
X116844951Y-68305651D01*
X109386751Y-92750651D02*
X109597151Y-92589451D01*
X43111351Y-47301851D02*
X43348851Y-47270451D01*
X97569751Y-51458551D02*
X97527351Y-51305351D01*
X78657651Y-50513051D02*
X78666151Y-50287251D01*
X120271351Y-34558551D02*
X120483851Y-34608651D01*
X91938651Y-67916051D02*
X92135551Y-67740951D01*
X43900751Y-53754551D02*
X43655451Y-53763351D01*
X78082051Y-95259951D02*
X78112051Y-94992751D01*
X93258851Y-40271151D02*
X93126151Y-40211151D01*
X119155451Y-74083551D02*
X118981451Y-74053251D01*
X69285651Y-34523951D02*
X69500951Y-34558551D01*
X116820251Y-38400351D02*
X116779651Y-38258151D01*
X66044851Y-36627251D02*
X66116851Y-36419351D01*
X94697351Y-74113251D02*
X94425951Y-74123151D01*
X53351551Y-92344151D02*
X53581351Y-92476851D01*
X97977051Y-48707151D02*
X98115351Y-48515951D01*
X78672551Y-50809651D02*
X78661351Y-50661751D01*
X54264951Y-98020451D02*
X54076151Y-98203551D01*
X80509551Y-53284651D02*
X80375751Y-53225351D01*
X115282251Y-95342551D02*
X115286151Y-95605451D01*
X116428451Y-50267751D02*
X116455651Y-50026351D01*
X93547951Y-74014451D02*
X93378551Y-73967451D01*
X115259251Y-95081751D02*
X115282251Y-95342551D01*
X121139151Y-67221851D02*
X121376651Y-67336551D01*
X43810851Y-34505151D02*
X44028551Y-34524251D01*
X118131351Y-40073851D02*
X118009551Y-39995851D01*
X96028151Y-34961851D02*
X96211651Y-35087151D01*
X68038851Y-74014351D02*
X67869451Y-73967451D01*
X63464651Y-47613851D02*
X63672851Y-47679551D01*
X84072151Y-48732651D02*
X84197051Y-48916151D01*
X50121651Y-98785551D02*
X49964651Y-98706551D01*
X92112251Y-39415351D02*
X92023351Y-39302051D01*
X94271751Y-40503751D02*
X94119251Y-40492051D01*
X96842051Y-73196351D02*
X96641251Y-73364351D01*
X62600051Y-47506951D02*
X62818851Y-47510151D01*
X115236051Y-96131251D02*
X115181651Y-96392451D01*
X45464551Y-53216351D02*
X45263351Y-53340551D01*
X51056951Y-91975351D02*
X51319851Y-91940351D01*
X71919851Y-37569251D02*
X71907151Y-37788751D01*
X103834651Y-51294051D02*
X103767651Y-51527351D01*
X122340151Y-36095451D02*
X122435751Y-36293451D01*
X46338451Y-38861251D02*
X46229751Y-39057451D01*
X68917251Y-40507951D02*
X68762651Y-40504051D01*
X40478601Y-72216351D02*
X40399901Y-72059251D01*
X65237751Y-52062351D02*
X65116051Y-52248351D01*
X116610151Y-51609651D02*
X116560451Y-51458951D01*
X119351951Y-53747951D02*
X119193151Y-53728151D01*
X120072651Y-47280351D02*
X120306251Y-47317751D01*
X122229351Y-35904551D02*
X122340151Y-36095451D01*
X90866451Y-69981251D02*
X90916251Y-69719051D01*
X108169551Y-94730151D02*
X108237651Y-94473951D01*
X80047451Y-92318351D02*
X80294151Y-92205051D01*
X67067251Y-73612051D02*
X66917951Y-73517851D01*
X72390951Y-69562051D02*
X72451351Y-69816851D01*
X110783651Y-99017451D02*
X110612851Y-98969051D01*
X113230751Y-98781651D02*
X112989351Y-98885751D01*
X44378951Y-53682951D02*
X44142151Y-53727351D01*
X70206751Y-40217151D02*
X70005651Y-40303951D01*
X120132351Y-66944151D02*
X120390651Y-66985751D01*
X121234451Y-73774451D02*
X120993051Y-73878551D01*
X68193051Y-34589851D02*
X68410751Y-34544351D01*
X60296251Y-48666251D02*
X60436351Y-48498651D01*
X117104651Y-48512351D02*
X117256351Y-48330951D01*
X67291351Y-67304051D02*
X67538351Y-67190751D01*
X116174351Y-69719051D02*
X116242451Y-69463251D01*
X67616051Y-40212251D02*
X67486551Y-40145851D01*
X117773051Y-35190551D02*
X117948151Y-35056051D01*
X48099451Y-96062451D02*
X48077651Y-95886751D01*
X102977851Y-48214851D02*
X103144751Y-48394451D01*
X48064551Y-95709551D02*
X48059951Y-95530951D01*
X99000851Y-47729651D02*
X99212951Y-47612451D01*
X122651051Y-49197451D02*
X122738951Y-49417651D01*
X117599451Y-48002451D02*
X117789251Y-47856651D01*
X78111451Y-96062451D02*
X78089551Y-95886751D01*
X95307151Y-40377051D02*
X95093651Y-40433851D01*
X117013251Y-68104851D02*
X117196051Y-67916351D01*
X47133151Y-69564151D02*
X47193551Y-69818951D01*
X79290851Y-48669751D02*
X79430951Y-48502551D01*
X52619951Y-92053651D02*
X52870151Y-92132351D01*
X92518851Y-39821851D02*
X92410151Y-39727651D01*
X97492451Y-51150051D02*
X97464951Y-50993051D01*
X69798151Y-40375951D02*
X69584651Y-40433151D01*
X91662951Y-38675251D02*
X91608951Y-38539051D01*
X46444251Y-52191851D02*
X46312251Y-52393351D01*
X54601651Y-97613151D02*
X54440351Y-97823551D01*
X100679651Y-53763451D02*
X100518351Y-53759551D01*
X116123951Y-71052051D02*
X116102051Y-70875951D01*
X40791321Y-38399651D02*
X40751091Y-38257451D01*
X78180551Y-96408351D02*
X78141751Y-96236451D01*
X46866651Y-51057251D02*
X46817251Y-51292951D01*
X78886051Y-51661251D02*
X78833551Y-51524651D01*
X92568951Y-67433951D02*
X92804351Y-67303751D01*
X71367851Y-39241351D02*
X71233451Y-39416751D01*
X54747751Y-97390151D02*
X54601651Y-97613151D01*
X92410151Y-39727651D02*
X92306051Y-39628151D01*
X119509051Y-74118451D02*
X119331551Y-74105451D01*
X51481151Y-99126151D02*
X51303951Y-99113051D01*
X116966251Y-52317551D02*
X116881251Y-52183151D01*
X116084351Y-70519851D02*
X116084351Y-70519851D01*
X71233451Y-39416751D02*
X71087351Y-39580851D01*
X116482751Y-51150451D02*
X116455251Y-50993451D01*
X42355751Y-40211151D02*
X42226651Y-40144851D01*
X101543551Y-47379551D02*
X101769051Y-47450451D01*
X102284351Y-53339551D02*
X102074651Y-53448951D01*
X120993051Y-73878551D02*
X120744251Y-73964951D01*
X109136951Y-98076551D02*
X109017651Y-97951651D01*
X116084351Y-70519851D02*
X116094651Y-70248451D01*
X68738651Y-74118451D02*
X68561151Y-74105451D01*
X79182451Y-92930351D02*
X79379451Y-92755251D01*
X95836951Y-34851451D02*
X96028151Y-34961851D01*
X102676751Y-53077351D02*
X102485451Y-53215651D01*
X112384451Y-91993051D02*
X112639251Y-92053351D01*
X96272751Y-39875551D02*
X96095951Y-40003251D01*
X60588751Y-48341251D02*
X60752851Y-48195151D01*
X70918951Y-73515751D02*
X70696251Y-73653351D01*
X40328971Y-71898351D02*
X40265791Y-71734551D01*
X91715551Y-36217851D02*
X91816451Y-36024151D01*
X40838611Y-38539051D02*
X40791321Y-38399651D01*
X114287351Y-98018351D02*
X114098951Y-98201451D01*
X78732551Y-49846451D02*
X78789351Y-49633651D01*
X97445151Y-50834251D02*
X97433151Y-50674351D01*
X116700251Y-37814851D02*
X116688551Y-37662751D01*
X44523051Y-47372451D02*
X44748851Y-47443351D01*
X97282451Y-38443351D02*
X97203451Y-38655451D01*
X99435651Y-47510151D02*
X99665351Y-47425051D01*
X42033951Y-67303751D02*
X42280951Y-67190451D01*
X55215351Y-96133751D02*
X55160651Y-96394951D01*
X121356651Y-40001551D02*
X121170951Y-40116251D01*
X69361951Y-66944151D02*
X69620251Y-66985751D01*
X65353551Y-71052051D02*
X65331651Y-70875951D01*
X66074451Y-68305651D02*
X66242851Y-68104851D01*
X40405151Y-50512951D02*
X40405191Y-50513051D01*
X40655811Y-37508151D02*
X40655811Y-37508151D01*
X45589851Y-47890551D02*
X45780051Y-48041951D01*
X115286151Y-95605451D02*
X115270951Y-95868751D01*
X91442051Y-37814851D02*
X91430451Y-37662351D01*
X78778051Y-97672451D02*
X78676751Y-97528151D01*
X120056051Y-34523951D02*
X120271351Y-34558551D01*
X116746051Y-38113051D02*
X116719251Y-37965151D01*
X40858691Y-36419051D02*
X40945151Y-36217851D01*
X98745951Y-53125651D02*
X98619651Y-53027251D01*
X114899651Y-97152651D02*
X114769451Y-97388051D01*
X117047851Y-38938151D02*
X116981551Y-38809051D01*
X85202151Y-94828651D02*
X85243851Y-95087051D01*
X46312251Y-52393351D02*
X46166851Y-52583251D01*
X46574151Y-38227751D02*
X46512051Y-38443351D01*
X45837951Y-52926251D02*
X45656551Y-53078351D01*
X97812151Y-52043651D02*
X97740851Y-51901751D01*
X48528251Y-93750851D02*
X48665951Y-93527851D01*
X122462651Y-38653051D02*
X122368451Y-38859151D01*
X41436151Y-39524051D02*
X41341851Y-39415351D01*
X44748851Y-47443351D02*
X44969451Y-47530851D01*
X116358651Y-71898651D02*
X116295451Y-71734951D01*
X119959051Y-74112851D02*
X119687651Y-74123051D01*
X79161751Y-52177551D02*
X79083351Y-52053251D01*
X121689351Y-73515751D02*
X121466751Y-73653351D01*
X115107151Y-96650751D02*
X115012951Y-96905551D01*
X93534551Y-40372451D02*
X93395151Y-40325151D01*
X99435551Y-53516051D02*
X99290851Y-53451751D01*
X91426251Y-37508151D02*
X91426151Y-37508151D01*
X51583151Y-91924851D02*
X51845651Y-91928751D01*
X55197351Y-94825451D02*
X55238951Y-95083851D01*
X95226751Y-74033851D02*
X94964851Y-74083251D01*
X65913951Y-37508151D02*
X65913951Y-37508151D01*
X59698751Y-50969751D02*
X59679651Y-50819751D01*
X95638951Y-34755451D02*
X95836951Y-34851451D01*
X103682551Y-51757051D02*
X103580251Y-51979751D01*
X120159751Y-53727051D02*
X119918751Y-53754251D01*
X91816451Y-36024151D02*
X91930851Y-35838151D01*
X71967851Y-68601751D02*
X72100551Y-68830751D01*
X93047451Y-73848951D02*
X92886951Y-73777651D01*
X66498751Y-73191051D02*
X66369151Y-73067851D01*
X71489651Y-39055351D02*
X71367851Y-39241351D01*
X46008351Y-52761051D02*
X45837951Y-52926251D01*
X92871351Y-40072451D02*
X92749651Y-39994451D01*
X117196051Y-67916351D02*
X117392951Y-67741351D01*
X121280251Y-53338851D02*
X121070651Y-53448251D01*
X93894151Y-74083651D02*
X93720151Y-74053251D01*
X98115351Y-48515951D02*
X98267151Y-48334851D01*
X70514551Y-34961151D02*
X70698051Y-35086151D01*
X98005551Y-70077651D02*
X98028151Y-70338451D01*
X97030851Y-73013551D02*
X96842051Y-73196351D01*
X120744251Y-73964951D02*
X120488451Y-74033151D01*
X93378551Y-73967451D02*
X93211551Y-73912051D01*
X54846551Y-93839051D02*
X54961551Y-94076251D01*
X122923151Y-50342651D02*
X122926651Y-50579751D01*
X83437951Y-48098451D02*
X83613051Y-48238251D01*
X72246251Y-71898651D02*
X72133051Y-72145751D01*
X91755451Y-68104451D02*
X91938651Y-67916051D01*
X64678051Y-52740351D02*
X64510451Y-52880451D01*
X122435751Y-36293451D02*
X122516951Y-36496751D01*
X118535751Y-34731051D02*
X118748151Y-34651951D01*
X48818751Y-93315351D02*
X48987051Y-93114551D01*
X40625061Y-49333251D02*
X40718931Y-49115551D01*
X117608951Y-35336651D02*
X117773051Y-35190551D01*
X121093651Y-34850751D02*
X121284951Y-34961151D01*
X83063551Y-47863051D02*
X83254451Y-47973551D01*
X97000151Y-39057451D02*
X96878351Y-39243451D01*
X94964851Y-74083251D02*
X94697351Y-74113251D01*
X96779551Y-67788351D02*
X96978551Y-67973251D01*
X78657851Y-50513151D02*
X78657651Y-50513051D01*
X40055811Y-70519851D02*
X40066041Y-70248451D01*
X45780051Y-48041951D02*
X45960051Y-48208451D01*
X80721551Y-47662951D02*
X80936551Y-47601151D01*
X118519551Y-40272251D02*
X118386451Y-40212251D01*
X94247351Y-74118551D02*
X94069851Y-74105451D01*
X47054851Y-69314351D02*
X47133151Y-69564151D01*
X103580251Y-51979751D02*
X103463051Y-52191851D01*
X45112051Y-67222551D02*
X45349151Y-67337651D01*
X85141851Y-94574251D02*
X85202151Y-94828651D01*
X46743251Y-72383251D02*
X46597151Y-72606351D01*
X93924151Y-34543951D02*
X94142951Y-34514751D01*
X117016451Y-72938351D02*
X116900351Y-72803551D01*
X90843551Y-70875951D02*
X90830451Y-70698451D01*
X52966151Y-98887151D02*
X52716651Y-98973351D01*
X122102651Y-73194251D02*
X121901851Y-73362551D01*
X78345751Y-96908351D02*
X78282551Y-96744651D01*
X90916251Y-69719051D02*
X90984351Y-69463251D01*
X116508951Y-72216651D02*
X116429851Y-72059551D01*
X98497851Y-52922451D02*
X98381451Y-52811251D01*
X41046051Y-36024151D02*
X41160451Y-35838151D01*
X68762651Y-40504051D02*
X68610551Y-40492451D01*
X118134051Y-34934351D02*
X118329951Y-34825651D01*
X69188651Y-74112851D02*
X68917251Y-74123051D01*
X97259551Y-36498851D02*
X97325151Y-36707051D01*
X42642351Y-47418651D02*
X42875551Y-47351251D01*
X118308851Y-67190751D02*
X118563251Y-67096551D01*
X66633551Y-73307151D02*
X66498751Y-73191051D01*
X43655551Y-40507951D02*
X43501351Y-40503751D01*
X46987051Y-71901151D02*
X46873451Y-72148251D01*
X46562151Y-51979351D02*
X46444251Y-52191851D01*
X62161751Y-47548951D02*
X62380551Y-47519651D01*
X45502351Y-39875551D02*
X45325551Y-40003251D01*
X51659651Y-99130751D02*
X51481151Y-99126151D01*
X46888251Y-50108951D02*
X46908751Y-50344651D01*
X122677551Y-37788751D02*
X122648651Y-38007851D01*
X116154251Y-71226051D02*
X116123951Y-71052051D01*
X119871151Y-66921151D02*
X120132351Y-66944151D01*
X91640051Y-72803251D02*
X91531351Y-72663451D01*
X63331351Y-53438751D02*
X63112851Y-53479651D01*
X43348851Y-47270451D02*
X43586351Y-47256351D01*
X79379451Y-92755251D02*
X79589451Y-92594351D01*
X54991551Y-96908051D02*
X54877951Y-97154751D01*
X121826351Y-67619551D02*
X122036251Y-67787251D01*
X55250251Y-95870851D02*
X55215351Y-96133751D01*
X40055801Y-70519851D02*
X40055811Y-70519851D01*
X96348951Y-67470351D02*
X96569251Y-67620651D01*
X97728151Y-69070051D02*
X97825251Y-69314351D01*
X116684351Y-37508151D02*
X116684351Y-37508151D01*
X45658351Y-73517551D02*
X45435351Y-73654851D01*
X67486551Y-40145851D02*
X67360851Y-40073851D01*
X96641251Y-73364351D02*
X96428751Y-73517551D01*
X63112851Y-53479651D02*
X62889851Y-53504751D01*
X69500951Y-34558551D02*
X69713351Y-34608651D01*
X108839051Y-93315751D02*
X109007051Y-93114851D01*
X80646051Y-53337251D02*
X80509551Y-53284651D01*
X42280951Y-67190451D02*
X42535751Y-67096251D01*
X46725151Y-49419651D02*
X46796151Y-49645551D01*
X62818851Y-47510151D02*
X63036551Y-47529151D01*
X82945351Y-53222451D02*
X82744551Y-53309251D01*
X116717451Y-37059251D02*
X116758451Y-36840451D01*
X91561751Y-38399651D02*
X91521451Y-38257451D01*
X40265791Y-71734551D02*
X40210741Y-71567651D01*
X102203151Y-47641751D02*
X102409951Y-47761351D01*
X42710051Y-53622851D02*
X42559651Y-53573151D01*
X122420251Y-68171151D02*
X122587951Y-68381151D01*
X118202851Y-47606851D02*
X118425951Y-47504451D01*
X122902351Y-50106851D02*
X122923151Y-50342651D01*
X83668151Y-52739651D02*
X83500851Y-52879751D01*
X54713851Y-93609351D02*
X54846551Y-93839051D01*
X48405151Y-97068951D02*
X48333851Y-96908451D01*
X93969251Y-40473051D02*
X93821751Y-40446551D01*
X59696951Y-50063851D02*
X59737851Y-49845351D01*
X63036551Y-47529151D02*
X63252251Y-47563751D01*
X116084351Y-70519851D02*
X116084351Y-70519851D01*
X117688351Y-73517851D02*
X117544051Y-73416151D01*
X95909951Y-40117651D02*
X95716251Y-40218551D01*
X44456651Y-34608951D02*
X44664851Y-34674551D01*
X62059451Y-53451451D02*
X61914351Y-53417551D01*
X90895351Y-71226051D02*
X90865051Y-71051751D01*
X102074651Y-53448951D02*
X101857251Y-53542851D01*
X55058251Y-94320451D02*
X55136951Y-94570651D01*
X53439851Y-98662351D02*
X53207251Y-98783051D01*
X122633051Y-36917351D02*
X122668051Y-37132651D01*
X103431351Y-48782651D02*
X103550951Y-48989551D01*
X65441051Y-51660451D02*
X65346451Y-51866151D01*
X116240051Y-71567651D02*
X116193051Y-71398251D01*
X110957951Y-99057651D02*
X110783651Y-99017451D01*
X91756151Y-72938051D02*
X91640051Y-72803251D01*
X117188651Y-35838451D02*
X117316351Y-35661651D01*
X118386451Y-40212251D02*
X118256951Y-40145851D01*
X84084151Y-98202851D02*
X83883651Y-98370851D01*
X123286351Y-70336351D02*
X123290251Y-70598851D01*
X42277051Y-73848951D02*
X42116551Y-73777651D01*
X40595371Y-51608751D02*
X40545611Y-51458451D01*
X109007051Y-93114851D02*
X109189851Y-92926051D01*
X116731551Y-51902851D02*
X116667351Y-51757851D01*
X78666151Y-50287251D02*
X78691251Y-50064551D01*
X91789351Y-38937151D02*
X91722951Y-38807951D01*
X41018951Y-38937151D02*
X40952651Y-38807951D01*
X40073101Y-70875951D02*
X40060041Y-70698451D01*
X67538351Y-67190751D02*
X67792851Y-67096551D01*
X46554751Y-36707051D02*
X46604851Y-36919451D01*
X45257751Y-34961851D02*
X45441251Y-35087151D01*
X120483851Y-34608651D02*
X120692051Y-34674251D01*
X66009251Y-38258151D02*
X65975651Y-38113051D01*
X90830451Y-70698451D02*
X90826251Y-70519851D01*
X101165551Y-53727051D02*
X100924551Y-53754251D01*
X46957751Y-69070051D02*
X47054851Y-69314351D01*
X81810351Y-47517151D02*
X82027751Y-47536251D01*
X103767651Y-51527351D02*
X103682551Y-51757051D01*
X81153951Y-47555651D02*
X81372751Y-47526651D01*
X93126151Y-40211151D02*
X92997051Y-40144851D01*
X51128251Y-99091151D02*
X50954251Y-99060851D01*
X48570651Y-97379251D02*
X48484151Y-97226051D01*
X61234651Y-53149751D02*
X61109051Y-53077351D01*
X49662551Y-98525851D02*
X49518251Y-98424551D01*
X70762951Y-39873751D02*
X70586151Y-40001551D01*
X41238451Y-73190751D02*
X41108951Y-73067551D01*
X46408251Y-36295151D02*
X46489151Y-36498851D01*
X82877851Y-92139451D02*
X83121751Y-92236151D01*
X116554151Y-68740751D02*
X116691751Y-68518151D01*
X91521451Y-38257451D02*
X91487551Y-38112351D01*
X46639451Y-37135151D02*
X46658551Y-37352851D01*
X83824751Y-52587151D02*
X83668151Y-52739651D01*
X122773151Y-72380751D02*
X122627051Y-72604151D01*
X40440791Y-50992951D02*
X40421031Y-50834151D01*
X78229951Y-94475351D02*
X78316451Y-94226551D01*
X122903451Y-72145751D02*
X122773151Y-72380751D01*
X64147651Y-53122551D02*
X63953851Y-53223451D01*
X80294151Y-92205051D02*
X80548651Y-92110851D01*
X42411451Y-53515951D02*
X42266751Y-53451751D01*
X123240051Y-71124751D02*
X123185351Y-71385551D01*
X65824951Y-72369851D02*
X65738551Y-72216651D01*
X40409031Y-50674251D02*
X40405151Y-50512951D01*
X116684351Y-37508151D02*
X116692451Y-37281951D01*
X41365151Y-67740951D02*
X41575451Y-67579751D01*
X98270251Y-52694751D02*
X98165451Y-52573051D01*
X70400551Y-40116251D02*
X70206751Y-40217151D01*
X45263351Y-53340551D02*
X45053051Y-53449651D01*
X82865851Y-47767451D02*
X83063551Y-47863051D01*
X54395851Y-93178751D02*
X54563451Y-93389151D01*
X46107951Y-39243451D02*
X45973551Y-39418851D01*
X92206451Y-39524051D02*
X92112251Y-39415351D01*
X72504251Y-70862151D02*
X72469651Y-71124751D01*
X96428751Y-73517551D02*
X96205751Y-73654851D01*
X60647751Y-52732551D02*
X60543651Y-52633051D01*
X78691251Y-50064551D02*
X78732551Y-49846451D01*
X55261851Y-95344951D02*
X55265751Y-95607551D01*
X123082651Y-69312151D02*
X123161351Y-69562051D01*
X92729851Y-73698551D02*
X92576651Y-73611751D01*
X97419351Y-37791151D02*
X97390151Y-38010051D01*
X116433051Y-68973051D02*
X116554151Y-68740751D01*
X41959451Y-73698551D02*
X41806251Y-73611751D01*
X119345351Y-66932751D02*
X119608551Y-66917251D01*
X91461151Y-37964851D02*
X91442051Y-37814851D01*
X118821951Y-67022051D02*
X119082751Y-66967351D01*
X84653451Y-50360251D02*
X84656651Y-50579051D01*
X117892051Y-39912251D02*
X117778351Y-39823251D01*
X97890551Y-52181951D02*
X97812151Y-52043651D01*
X40414011Y-50267751D02*
X40441191Y-50026351D01*
X108242951Y-96601751D02*
X108194651Y-96430851D01*
X97903551Y-69564151D02*
X97963951Y-69818951D01*
X51931051Y-99120851D02*
X51659651Y-99130751D01*
X93706351Y-34589551D02*
X93924151Y-34543951D01*
X67885351Y-40325851D02*
X67749051Y-40272251D01*
X121170951Y-40116251D02*
X120977251Y-40217151D01*
X116692451Y-37281951D02*
X116717451Y-37059251D01*
X61943951Y-47594451D02*
X62161751Y-47548951D01*
X83808151Y-92633551D02*
X84018151Y-92801151D01*
X40786701Y-36626951D02*
X40858691Y-36419051D01*
X66686051Y-35494051D02*
X66838551Y-35336651D01*
X97438451Y-50268151D02*
X97465651Y-50027151D01*
X66428151Y-39185551D02*
X66349751Y-39063851D01*
X103925751Y-50347551D02*
X103929251Y-50584351D01*
X94652151Y-40499851D02*
X94425951Y-40507951D01*
X113462951Y-98660651D02*
X113230751Y-98781651D01*
X40985751Y-72938051D02*
X40869631Y-72803251D01*
X109262151Y-98195851D02*
X109136951Y-98076551D01*
X81315851Y-99113051D02*
X81140151Y-99091151D01*
X122582551Y-36705251D02*
X122633051Y-36917351D01*
X69366151Y-40474451D02*
X69143451Y-40499451D01*
X112484351Y-99040751D02*
X112222151Y-99090451D01*
X115217251Y-94823051D02*
X115259251Y-95081751D01*
X97613451Y-68832551D02*
X97728151Y-69070051D01*
X49114451Y-98076251D02*
X48991351Y-97947051D01*
X100608351Y-47263451D02*
X100845151Y-47266951D01*
X48991351Y-97947051D02*
X48875151Y-97812251D01*
X40066041Y-70248451D02*
X40096041Y-69981251D01*
X108085251Y-95716251D02*
X108080351Y-95530951D01*
X60543651Y-52633051D02*
X60444151Y-52528951D01*
X82471351Y-99041051D02*
X82209851Y-99090451D01*
X48059951Y-95530951D02*
X48059951Y-95530951D01*
X114098951Y-98201451D02*
X113898051Y-98369851D01*
X113898051Y-98369851D02*
X113685651Y-98523351D01*
X47193551Y-69818951D02*
X47235151Y-70077651D01*
X82324251Y-53438051D02*
X82106051Y-53479351D01*
X42559651Y-53573151D02*
X42411451Y-53515951D01*
X101313851Y-47325151D02*
X101543551Y-47379551D01*
X55160651Y-96394951D02*
X55086151Y-96653251D01*
X79390351Y-98315451D02*
X79255551Y-98199351D01*
X44868551Y-34755451D02*
X45066551Y-34851451D01*
X46489151Y-36498851D02*
X46554751Y-36707051D01*
X65975651Y-38113051D02*
X65948851Y-37965151D01*
X117282151Y-39303051D02*
X117198551Y-39185551D01*
X122587951Y-68381151D02*
X122738251Y-68601751D01*
X42302451Y-34825251D02*
X42508251Y-34730651D01*
X117372851Y-52812751D02*
X117261651Y-52695851D01*
X109816251Y-98609751D02*
X109670151Y-98515951D01*
X71458951Y-35904551D02*
X71569751Y-36095451D01*
X40163801Y-71397851D02*
X40124981Y-71226051D01*
X46208151Y-67973251D02*
X46392751Y-68172651D01*
X70464051Y-73774451D02*
X70222651Y-73878551D01*
X93825651Y-66967351D02*
X94088251Y-66932451D01*
X66020851Y-72663451D02*
X65919251Y-72519051D01*
X82242651Y-47570851D02*
X82454751Y-47621351D01*
X67765351Y-34731051D02*
X67977751Y-34651951D01*
X59671851Y-50286851D02*
X59696951Y-50063851D01*
X61363851Y-53216051D02*
X61234651Y-53149751D01*
X68024751Y-40373151D02*
X67885351Y-40325851D01*
X118576651Y-53573951D02*
X118428351Y-53517151D01*
X122809851Y-49643551D02*
X122864551Y-49873651D01*
X114733051Y-93607951D02*
X114865751Y-93837351D01*
X40660041Y-37662351D02*
X40655811Y-37508151D01*
X64790551Y-48386051D02*
X64944851Y-48551951D01*
X43592051Y-34501951D02*
X43810851Y-34505151D01*
X44868151Y-67125551D02*
X45112051Y-67222551D01*
X102409951Y-47761351D02*
X102608651Y-47896851D01*
X42624751Y-40325151D02*
X42488451Y-40271151D01*
X41288151Y-35661351D02*
X41428251Y-35493651D01*
X117948151Y-35056051D02*
X118134051Y-34934351D01*
X116981551Y-38809051D02*
X116921551Y-38675951D01*
X113685651Y-98523351D02*
X113462951Y-98660651D01*
X81069551Y-53454751D02*
X80926351Y-53422651D01*
X46597151Y-72606351D02*
X46435851Y-72816651D01*
X46076551Y-35722451D02*
X46201851Y-35905951D01*
X90984351Y-69463251D02*
X91071151Y-69214051D01*
X92804351Y-67303751D02*
X93051351Y-67190451D01*
X108120151Y-94992051D02*
X108169551Y-94730151D01*
X95515051Y-40305051D02*
X95307151Y-40377051D01*
X79011051Y-51925851D02*
X78945351Y-51794951D01*
X54076151Y-98203551D02*
X53875351Y-98371951D01*
X60168451Y-48843051D02*
X60296251Y-48666251D01*
X109017651Y-97951651D02*
X108904351Y-97821051D01*
X65783651Y-68740751D02*
X65921351Y-68518151D01*
X65657051Y-50796151D02*
X65627751Y-51014951D01*
X65497151Y-49503751D02*
X65562751Y-49711951D01*
X116842451Y-48905551D02*
X116966251Y-48704351D01*
X117489651Y-52923851D02*
X117372851Y-52812751D01*
X108797451Y-97685151D02*
X108696851Y-97543951D01*
X108122251Y-96079351D02*
X108099351Y-95899051D01*
X50446051Y-98920051D02*
X50282251Y-98856851D01*
X59668051Y-50667351D02*
X59663851Y-50513051D01*
X55238951Y-95083851D02*
X55261851Y-95344951D01*
X103331451Y-52393051D02*
X103186051Y-52582851D01*
X64265751Y-47966751D02*
X64449351Y-48092051D01*
X78282551Y-96744651D02*
X78227551Y-96578051D01*
X66049751Y-38400351D02*
X66009251Y-38258151D01*
X97852051Y-71646751D02*
X97757451Y-71901151D01*
X90836451Y-70248451D02*
X90866451Y-69981251D01*
X65383851Y-71226051D02*
X65353551Y-71052051D01*
X59953151Y-49222851D02*
X60054151Y-49029051D01*
X45960051Y-48208451D02*
X46126651Y-48388451D01*
X66369151Y-73067851D02*
X66246051Y-72938351D01*
X118748151Y-34651951D02*
X118963451Y-34589851D01*
X119181151Y-34544351D02*
X119400051Y-34515051D01*
X100370851Y-47277151D02*
X100608351Y-47263451D01*
X90934251Y-71397951D02*
X90895351Y-71226051D01*
X78316451Y-94226551D02*
X78420151Y-93985851D01*
X96978551Y-67973251D02*
X97163151Y-68172651D01*
X132339951Y-20000000D02*
X132339951Y-148552951D01*
X95435251Y-34674551D02*
X95638951Y-34755451D01*
X44835251Y-53543551D02*
X44610151Y-53621451D01*
X92198651Y-35493651D02*
X92351151Y-35336251D01*
X66349751Y-39063851D02*
X66277451Y-38938151D01*
X65313951Y-70519851D02*
X65313951Y-70519851D01*
X41852151Y-53217351D02*
X41721851Y-53125651D01*
X116419651Y-50513051D02*
X116428451Y-50267751D01*
X61109051Y-53077351D02*
X60987251Y-52999351D01*
X97643851Y-72148251D02*
X97513651Y-72383251D01*
X81214651Y-53480151D02*
X81069551Y-53454751D01*
X40729881Y-36840451D02*
X40786701Y-36626951D01*
X85091751Y-96653951D02*
X84997451Y-96908351D01*
X80806651Y-92036751D02*
X81067451Y-91982051D01*
X65738551Y-72216651D02*
X65659451Y-72059551D01*
X91879351Y-73067551D02*
X91756151Y-72938051D01*
X96569251Y-67620651D02*
X96779551Y-67788351D01*
X59663751Y-50513051D02*
X59671851Y-50286851D01*
X60260951Y-52306951D02*
X60177351Y-52189451D01*
X112889051Y-92131751D02*
X113133351Y-92228751D01*
X31000000Y-148552951D02*
X31000000Y-20000000D01*
X110055151Y-92313051D02*
X110302251Y-92199451D01*
X122541351Y-38440951D02*
X122462651Y-38653051D01*
X70323251Y-34850751D02*
X70514551Y-34961151D01*
X84197051Y-48916151D02*
X84307551Y-49107051D01*
X41748451Y-39821851D02*
X41639751Y-39727651D01*
X45349151Y-67337651D02*
X45578551Y-67470351D01*
X121901851Y-73362551D02*
X121689351Y-73515751D01*
X122627051Y-72604151D02*
X122466151Y-72814451D01*
X123221751Y-69816851D02*
X123263351Y-70075151D01*
X46435851Y-72816651D02*
X46260451Y-73013551D01*
X92749651Y-39994451D02*
X92632051Y-39910851D01*
X116124651Y-69981251D02*
X116174351Y-69719051D01*
X114582751Y-93387751D02*
X114733051Y-93607951D01*
X90826251Y-70519851D02*
X90826251Y-70519851D01*
X97513651Y-72383251D02*
X97367551Y-72606351D01*
X54440351Y-97823551D02*
X54264951Y-98020451D01*
X40096041Y-69981251D02*
X40145801Y-69719051D01*
X69584651Y-40433151D02*
X69366151Y-40474451D01*
X46661751Y-37571651D02*
X46649051Y-37791151D01*
X96552951Y-35381151D02*
X96707151Y-35547051D01*
X42441151Y-73912051D02*
X42277051Y-73848951D01*
X120645451Y-67046051D02*
X120895351Y-67124751D01*
X114865751Y-93837351D02*
X114980851Y-94074551D01*
X99665351Y-47425051D02*
X99898651Y-47358051D01*
X99887351Y-53665251D02*
X99734151Y-53622951D01*
X47081651Y-71646751D02*
X46987051Y-71901151D01*
X41246151Y-52694651D02*
X41141351Y-52572951D01*
X80108251Y-47944151D02*
X80304051Y-47835851D01*
X41090151Y-48512051D02*
X41242351Y-48330651D01*
X84401451Y-93184451D02*
X84569051Y-93394451D01*
X67121651Y-39912251D02*
X67007951Y-39823251D01*
X49378451Y-98315451D02*
X49243651Y-98199351D01*
X91099351Y-71898351D02*
X91036251Y-71734651D01*
X68849151Y-34502051D02*
X69067951Y-34505251D01*
X118655751Y-40325851D02*
X118519551Y-40272251D01*
X96211651Y-35087151D02*
X96387051Y-35226951D01*
X65313951Y-70519851D02*
X65324251Y-70248451D01*
X47210851Y-71127251D02*
X47156151Y-71388051D01*
X93278651Y-34730651D02*
X93490751Y-34651651D01*
X120488451Y-74033151D02*
X120226251Y-74082851D01*
X46898051Y-50819751D02*
X46866651Y-51057251D01*
X116844951Y-68305651D02*
X117013251Y-68104851D01*
X93564451Y-67021751D02*
X93825651Y-66967351D01*
X43334351Y-53747451D02*
X43175551Y-53727651D01*
X78887151Y-97812251D02*
X78778051Y-97672451D01*
X120226251Y-74082851D02*
X119959051Y-74112851D01*
X79083351Y-52053251D02*
X79011051Y-51925851D01*
X81671651Y-99130751D02*
X81493051Y-99126151D01*
X59679651Y-50819751D02*
X59668051Y-50667351D01*
X41575451Y-67579751D02*
X41798551Y-67433951D01*
X68167351Y-40413351D02*
X68024751Y-40373151D01*
X114230151Y-92978351D02*
X114415151Y-93177351D01*
X61632751Y-53330051D02*
X61496551Y-53276051D01*
X118888951Y-47351651D02*
X119124751Y-47302251D01*
X80457951Y-98920051D02*
X80294151Y-98856851D01*
X72492951Y-70075151D02*
X72515951Y-70336351D01*
X91459351Y-37058851D02*
X91500251Y-36840451D01*
X91587151Y-68305251D02*
X91755451Y-68104451D01*
X44610151Y-53621451D02*
X44378951Y-53682951D01*
X41160451Y-35838151D02*
X41288151Y-35661351D01*
X78582551Y-97379151D02*
X78496051Y-97226051D01*
X120627751Y-53620551D02*
X120396551Y-53682251D01*
X67977751Y-34651951D02*
X68193051Y-34589851D01*
X95638551Y-67125551D02*
X95882451Y-67222551D01*
X54211251Y-92979351D02*
X54395851Y-93178751D01*
X92058551Y-35661351D02*
X92198651Y-35493651D01*
X121973051Y-48207451D02*
X122140051Y-48387151D01*
X100199651Y-53727751D02*
X100042651Y-53700251D01*
X103295851Y-48584051D02*
X103431351Y-48782651D01*
X78831651Y-93318851D02*
X78999651Y-93118451D01*
X40866411Y-52181951D02*
X40788061Y-52043551D01*
X117737751Y-53126751D02*
X117611351Y-53028651D01*
X121468451Y-35086151D02*
X121643851Y-35225851D01*
X44744651Y-40305051D02*
X44536851Y-40377051D01*
X116689651Y-72519051D02*
X116595451Y-72369851D01*
X65084551Y-48727351D02*
X65209851Y-48910851D01*
X48875151Y-97812251D02*
X48766151Y-97672451D01*
X60099351Y-52067651D02*
X60026951Y-51942051D01*
X108685851Y-93528151D02*
X108839051Y-93315751D01*
X90826251Y-70519851D02*
X90826251Y-70519851D01*
X62206951Y-53477951D02*
X62059451Y-53451451D01*
X46201851Y-35905951D02*
X46312251Y-36097251D01*
X110445551Y-98912251D02*
X110281751Y-98848051D01*
X40760931Y-72663451D02*
X40659291Y-72518751D01*
X122985651Y-69068351D02*
X123082651Y-69312151D01*
X66116851Y-36419351D02*
X66203351Y-36218251D01*
X110556651Y-92104851D02*
X110815351Y-92030351D01*
X41372951Y-73306851D02*
X41238451Y-73190751D01*
X70125251Y-34755051D02*
X70323251Y-34850751D01*
X65919251Y-72519051D02*
X65824951Y-72369851D01*
X80785151Y-53383451D02*
X80646051Y-53337251D01*
X40441191Y-50026351D02*
X40485661Y-49789551D01*
X67702151Y-73912051D02*
X67538451Y-73848851D01*
X61496551Y-53276051D02*
X61363851Y-53216051D01*
X117058351Y-52448151D02*
X116966251Y-52317551D01*
X41407451Y-48160151D02*
X41585351Y-48001751D01*
X84569051Y-93394451D02*
X84719051Y-93614651D01*
X71569751Y-36095451D02*
X71665351Y-36293451D01*
X54961551Y-94076251D02*
X55058251Y-94320451D01*
X40124981Y-71226051D02*
X40094631Y-71051651D01*
X121643851Y-35225851D02*
X121810051Y-35379751D01*
X85220551Y-96135151D02*
X85165851Y-96395951D01*
X54877951Y-97154751D02*
X54747751Y-97390151D01*
X82537051Y-53381251D02*
X82324251Y-53438051D01*
X121857751Y-39580851D02*
X121700651Y-39733251D01*
X81067451Y-91982051D02*
X81329651Y-91947451D01*
X118563251Y-67096551D02*
X118821951Y-67022051D01*
X100134051Y-47308551D02*
X100370851Y-47277151D01*
X67377451Y-73777551D02*
X67220451Y-73698551D01*
X40399901Y-72059251D02*
X40328971Y-71898351D01*
X84643951Y-50797951D02*
X84614951Y-51016751D01*
X108364351Y-96932351D02*
X108299751Y-96768951D01*
X81592551Y-91931951D02*
X81855151Y-91935851D01*
X78417051Y-97068951D02*
X78345751Y-96908351D01*
X96440451Y-39735451D02*
X96272751Y-39875551D01*
X65520051Y-51448351D02*
X65441051Y-51660451D01*
X95093651Y-40433851D02*
X94875251Y-40474751D01*
X116560451Y-51458951D02*
X116517751Y-51305751D01*
X97981251Y-71127251D02*
X97926551Y-71388051D01*
X66151051Y-38675951D02*
X66097051Y-38539751D01*
X97178651Y-36295151D02*
X97259551Y-36498851D01*
X48333851Y-96908451D02*
X48270651Y-96744651D01*
X83254451Y-47973551D02*
X83437951Y-48098451D01*
X120977251Y-40217151D02*
X120776051Y-40303951D01*
X97344551Y-38227751D02*
X97282451Y-38443351D01*
X66899251Y-39728751D02*
X66794851Y-39629551D01*
X108904351Y-97821051D02*
X108797451Y-97685151D01*
X66917951Y-73517851D02*
X66773651Y-73416151D01*
X81329651Y-91947451D02*
X81592551Y-91931951D01*
X98028151Y-70338451D02*
X98032051Y-70601351D01*
X109189851Y-92926051D02*
X109386751Y-92750651D01*
X78716051Y-51101151D02*
X78690551Y-50956051D01*
X121070651Y-53448251D02*
X120852551Y-53542551D01*
X41042851Y-52446551D02*
X40951151Y-52316351D01*
X122138351Y-39241351D02*
X122003851Y-39416751D01*
X45798851Y-67620651D02*
X46009151Y-67788351D01*
X44142151Y-53727351D02*
X43900751Y-53754551D01*
X43175551Y-53727651D02*
X43018451Y-53700151D01*
X79536551Y-52634151D02*
X79433851Y-52526551D01*
X78227551Y-96578051D02*
X78180551Y-96408351D01*
X67869451Y-73967451D02*
X67702151Y-73912051D01*
X96119551Y-67337651D02*
X96348951Y-67470351D01*
X92143351Y-73306851D02*
X92008851Y-73190751D01*
X92023351Y-39302051D02*
X91939651Y-39184551D01*
X103654751Y-49203351D02*
X103742251Y-49423551D01*
X65324251Y-70248451D02*
X65354251Y-69981251D01*
X93211551Y-73912051D02*
X93047451Y-73848951D01*
X123185351Y-71385551D02*
X123110951Y-71644251D01*
X40468321Y-51149951D02*
X40440791Y-50992951D01*
X66097051Y-38539751D02*
X66049751Y-38400351D01*
X49518251Y-98424551D02*
X49378451Y-98315451D01*
X79430951Y-48502551D02*
X79583451Y-48345851D01*
X42412251Y-47504151D02*
X42642351Y-47418651D01*
X119836851Y-47259551D02*
X120072651Y-47280351D01*
X78071851Y-95530951D02*
X78082051Y-95259951D01*
X122577651Y-51976951D02*
X122460051Y-52189451D01*
X103929251Y-50584351D02*
X103915451Y-50821851D01*
X109392751Y-98308751D02*
X109262151Y-98195851D01*
X80509451Y-47741651D02*
X80721551Y-47662951D01*
X45139551Y-40117651D02*
X44945851Y-40218551D01*
X46433051Y-38655451D02*
X46338451Y-38861251D01*
X79246451Y-52297851D02*
X79161751Y-52177551D01*
X117544051Y-73416151D02*
X117403951Y-73307151D01*
X65948851Y-37965151D02*
X65929751Y-37814851D01*
X123016751Y-71898651D02*
X122903451Y-72145751D01*
X42794051Y-67021751D02*
X43055251Y-66967351D01*
X40145801Y-69719051D02*
X40213921Y-69463251D01*
X59794751Y-49631851D02*
X59866751Y-49423951D01*
X117403951Y-73307151D02*
X117269151Y-73191051D01*
X71692251Y-38653051D02*
X71597951Y-38859151D01*
X50537451Y-92104551D02*
X50795751Y-92030051D01*
X78678551Y-93530951D02*
X78831651Y-93318851D01*
X42508251Y-34730651D02*
X42720351Y-34651651D01*
X120776051Y-40303951D02*
X120568551Y-40375951D01*
X65582151Y-51232651D02*
X65520051Y-51448351D01*
X111954951Y-99120451D02*
X111683551Y-99130751D01*
X80794251Y-99021951D02*
X80624551Y-98975051D01*
X119687651Y-40507951D02*
X119533051Y-40504051D01*
X83216651Y-98782351D02*
X82975951Y-98886151D01*
X97740851Y-51901751D02*
X97676651Y-51757051D01*
X66418251Y-35838451D02*
X66545951Y-35661651D01*
X48665951Y-93527851D02*
X48818751Y-93315351D01*
X60054151Y-49029051D02*
X60168451Y-48843051D01*
X65469651Y-71567651D02*
X65422651Y-71398251D01*
X81855151Y-91935851D02*
X82115551Y-91958751D01*
X117456451Y-35494051D02*
X117608951Y-35336651D01*
X79583451Y-48345851D02*
X79747151Y-48200051D01*
X78945351Y-51794951D02*
X78886051Y-51661251D01*
X116667351Y-51757851D02*
X116610151Y-51609651D01*
X65331651Y-70875951D02*
X65318551Y-70698351D01*
X97163151Y-68172651D02*
X97330751Y-68382951D01*
X79003251Y-97947051D02*
X78887151Y-97812251D01*
X72002751Y-72380751D02*
X71856651Y-72604151D01*
X102857851Y-52925551D02*
X102676751Y-53077351D01*
X122036251Y-67787251D02*
X122235651Y-67971751D01*
X122648651Y-38007851D02*
X122603451Y-38225251D01*
X92345851Y-67579751D02*
X92568951Y-67433951D01*
X48099851Y-94992051D02*
X48149251Y-94729851D01*
X53581351Y-92476851D02*
X53801551Y-92627151D01*
X119687651Y-74123051D02*
X119509051Y-74118451D01*
X72414951Y-71385551D02*
X72340551Y-71644251D01*
X96205751Y-73654851D02*
X95973151Y-73775851D01*
X117371451Y-39416351D02*
X117282151Y-39303051D01*
X66794851Y-39629551D02*
X66695251Y-39525451D01*
X112125751Y-91951351D02*
X112384451Y-91993051D01*
X67007951Y-39823251D02*
X66899251Y-39728751D01*
X45183651Y-47634651D02*
X45390851Y-47754651D01*
X68312351Y-66967351D02*
X68574951Y-66932751D01*
X121603251Y-47889551D02*
X121793151Y-48040551D01*
X116328951Y-69214451D02*
X116433051Y-68973051D01*
X65947051Y-37059251D02*
X65988051Y-36840451D01*
X90826251Y-70519851D02*
X90836451Y-70248451D01*
X122690251Y-37569251D02*
X122677551Y-37788751D01*
X84569451Y-51234151D02*
X84507651Y-51449051D01*
X122104051Y-35721051D02*
X122229351Y-35904551D01*
X91036251Y-71734651D02*
X90981151Y-71567651D01*
X40525891Y-68740451D02*
X40663181Y-68517751D01*
X79530151Y-98424551D02*
X79390351Y-98315451D01*
X118809251Y-74014351D02*
X118639851Y-73967451D01*
X78948151Y-49225251D02*
X79048751Y-49031851D01*
X85165851Y-96395951D02*
X85091751Y-96653951D01*
X97825251Y-69314351D02*
X97903551Y-69564151D01*
X95388351Y-67046451D02*
X95638551Y-67125551D01*
X97975251Y-52316451D02*
X97890551Y-52181951D01*
X85266751Y-95347451D02*
X85270651Y-95610051D01*
X71087351Y-39580851D02*
X70930251Y-39733251D01*
X97465651Y-50027151D02*
X97510451Y-49791051D01*
X71812151Y-36705251D02*
X71862651Y-36917351D01*
X59663851Y-50513051D02*
X59663751Y-50513051D01*
X79337151Y-52414351D02*
X79246451Y-52297851D01*
X117826751Y-67434351D02*
X118061751Y-67304051D01*
X72100551Y-68830751D02*
X72215251Y-69068351D01*
X69718051Y-74033151D02*
X69455751Y-74082851D01*
X41920251Y-35055751D02*
X42106251Y-34933951D01*
X122765351Y-51523851D02*
X122679951Y-51753951D01*
X84614951Y-51016751D02*
X84569451Y-51234151D01*
X46912251Y-50582151D02*
X46898051Y-50819751D01*
X121197051Y-47634051D02*
X121404151Y-47753951D01*
X81508951Y-53509451D02*
X81361051Y-53498151D01*
X40663181Y-68517751D02*
X40816691Y-68305251D01*
X52198651Y-99090851D02*
X51931051Y-99120851D01*
X71878251Y-38007851D02*
X71833051Y-38225251D01*
X116966251Y-48704351D02*
X117104651Y-48512351D01*
X40421031Y-50834151D02*
X40409031Y-50674251D01*
X40405151Y-50512951D02*
X40405151Y-50512951D01*
X65313951Y-70519851D02*
X65313951Y-70519851D01*
X31000000Y-20000000D02*
X31000000Y-20000000D01*
X83500851Y-52879751D02*
X83324051Y-53007151D01*
X117074251Y-36024451D02*
X117188651Y-35838451D01*
X84884251Y-97155051D02*
X84754351Y-97390151D01*
X46908751Y-50344651D02*
X46912251Y-50582151D01*
X67792851Y-67096551D02*
X68051551Y-67022051D01*
X81591551Y-47513951D02*
X81810351Y-47517151D01*
X59866751Y-49423951D02*
X59953151Y-49222851D01*
X116900351Y-72803551D02*
X116791251Y-72663451D01*
X42720351Y-34651651D02*
X42935951Y-34589551D01*
X43844051Y-66921151D02*
X44104851Y-66944151D01*
X68574951Y-66932751D02*
X68838151Y-66917251D01*
X64333551Y-53008151D02*
X64147651Y-53122551D01*
X78833551Y-51524651D02*
X78787251Y-51385551D01*
X59846651Y-51543951D02*
X59799351Y-51404551D01*
X68610551Y-40492451D02*
X68460251Y-40473351D01*
X121376651Y-67336551D02*
X121605751Y-67469251D01*
X42488451Y-40271151D02*
X42355751Y-40211151D01*
X67239151Y-39995851D02*
X67121651Y-39912251D01*
X119533051Y-40504051D02*
X119380951Y-40492451D01*
X122881451Y-51054851D02*
X122832451Y-51290551D01*
X41657351Y-73517551D02*
X41512651Y-73415851D01*
X116193051Y-71398251D02*
X116154251Y-71226051D01*
X71833051Y-38225251D02*
X71770951Y-38440951D01*
X122738951Y-49417651D02*
X122809851Y-49643551D01*
X117565251Y-39629551D02*
X117465751Y-39525451D01*
X92283051Y-73415851D02*
X92143351Y-73306851D01*
X116595451Y-72369851D02*
X116508951Y-72216651D01*
X82662951Y-47686551D02*
X82865851Y-47767451D01*
X98381451Y-52811251D02*
X98270251Y-52694751D01*
X118425951Y-47504451D02*
X118655651Y-47418751D01*
X79756351Y-52833551D02*
X79644151Y-52736851D01*
X91426151Y-37508151D02*
X91434251Y-37281951D01*
X44712551Y-73965751D02*
X44456351Y-74033851D01*
X116088951Y-70698351D02*
X116084351Y-70519851D01*
X116779651Y-38258151D02*
X116746051Y-38113051D01*
X84608251Y-97613151D02*
X84447251Y-97823151D01*
X100042651Y-53700251D02*
X99887351Y-53665251D01*
X65913951Y-37508151D02*
X65922051Y-37281951D01*
X122260051Y-39055351D02*
X122138351Y-39241351D01*
X108427551Y-93983751D02*
X108548551Y-93751251D01*
X98066951Y-52446651D02*
X97975251Y-52316451D01*
X119400051Y-34515051D02*
X119619551Y-34502051D01*
X45202751Y-73775851D02*
X44961751Y-73879651D01*
X80624551Y-98975051D02*
X80457951Y-98920051D01*
X47246151Y-70864651D02*
X47210851Y-71127251D01*
X92632051Y-39910851D02*
X92518851Y-39821851D01*
X78089551Y-95886751D02*
X78076451Y-95709551D01*
X46126651Y-48388451D02*
X46278051Y-48578651D01*
X84966451Y-94080851D02*
X85063151Y-94324751D01*
X114623651Y-97611051D02*
X114462451Y-97821451D01*
X48168651Y-96408351D02*
X48129851Y-96236451D01*
X68410751Y-34544351D02*
X68629551Y-34515051D01*
X72519851Y-70598851D02*
X72504251Y-70862151D01*
X97082651Y-36097251D02*
X97178651Y-36295151D01*
X72312251Y-69312151D02*
X72390951Y-69562051D01*
X65662651Y-68973051D02*
X65783651Y-68740751D01*
X118937751Y-40413351D02*
X118795151Y-40373151D01*
X93490751Y-34651651D02*
X93706351Y-34589551D01*
X41169351Y-39184551D02*
X41091351Y-39062751D01*
X42226651Y-40144851D02*
X42100951Y-40072451D01*
X98165451Y-52573051D02*
X98066951Y-52446651D01*
X84226451Y-52062351D02*
X84104651Y-52248351D01*
X95732151Y-73879651D02*
X95482951Y-73965751D01*
X66601051Y-39416351D02*
X66511751Y-39303051D01*
X48077651Y-95886751D02*
X48064551Y-95709551D01*
X100845151Y-47266951D02*
X101080551Y-47287351D01*
X42106251Y-34933951D02*
X42302451Y-34825251D01*
X91170351Y-72059251D02*
X91099351Y-71898351D01*
X92576651Y-73611751D02*
X92427751Y-73517551D01*
X40300731Y-69214051D02*
X40404841Y-68972651D01*
X41535651Y-39628151D02*
X41436151Y-39524051D01*
X101989351Y-47537951D02*
X102203151Y-47641751D01*
X60928251Y-48060651D02*
X61114251Y-47938951D01*
X67559551Y-34825651D02*
X67765351Y-34731051D01*
X59799351Y-51404551D02*
X59759151Y-51262351D01*
X40952251Y-48704051D02*
X41090151Y-48512051D01*
X108237651Y-94473951D02*
X108323751Y-94224851D01*
X122140051Y-48387151D02*
X122291451Y-48576951D01*
X79163451Y-48846551D02*
X79290851Y-48669751D01*
X122687051Y-37350451D02*
X122690251Y-37569251D01*
X97853151Y-48908351D02*
X97977051Y-48707151D01*
X71665351Y-36293451D02*
X71746551Y-36496751D01*
X83932451Y-48557551D02*
X84072151Y-48732651D01*
X46392751Y-68172651D02*
X46560351Y-68382951D01*
X80133651Y-98785551D02*
X79976551Y-98706451D01*
X102608651Y-47896851D02*
X102798151Y-48047951D01*
X46312251Y-36097251D02*
X46408251Y-36295151D01*
X53801551Y-92627151D02*
X54011851Y-92794851D01*
X122460051Y-52189451D02*
X122328451Y-52390951D01*
X78141751Y-96236451D02*
X78111451Y-96062451D01*
X65354251Y-69981251D02*
X65403951Y-69719051D01*
X118472551Y-73912051D02*
X118308851Y-73848851D01*
X40869631Y-72803251D02*
X40760931Y-72663451D01*
X47261651Y-70601351D02*
X47246151Y-70864651D01*
X78999651Y-93118451D02*
X79182451Y-92930351D01*
X41721851Y-53125651D02*
X41595551Y-53027151D01*
X78541251Y-93753651D02*
X78678551Y-93530951D01*
X96387051Y-35226951D02*
X96552951Y-35381151D01*
X97510451Y-49791051D02*
X97571851Y-49559851D01*
X97325151Y-36707051D02*
X97375251Y-36919451D01*
X94362451Y-34501951D02*
X94581251Y-34505151D01*
X82975951Y-98886151D02*
X82727151Y-98972551D01*
X84656651Y-50579051D02*
X84643951Y-50797951D01*
X71131451Y-73362551D02*
X70918951Y-73515751D01*
X67002651Y-35190551D02*
X67177651Y-35056051D01*
X70368751Y-67221851D02*
X70606251Y-67336551D01*
X117139651Y-73067851D02*
X117016451Y-72938351D01*
X122328451Y-52390951D02*
X122183051Y-52581151D01*
X55136951Y-94570651D02*
X55197351Y-94825451D01*
X116455651Y-50026351D02*
X116500051Y-49789951D01*
X97108851Y-38861251D02*
X97000151Y-39057451D01*
X60987251Y-52999351D02*
X60869751Y-52915751D01*
X62663551Y-53512851D02*
X62509351Y-53508651D01*
X40827981Y-48905151D02*
X40952251Y-48704051D01*
X46512051Y-38443351D02*
X46433051Y-38655451D01*
X91429751Y-72518751D02*
X91335851Y-72369451D01*
X40751091Y-38257451D02*
X40717211Y-38112351D01*
X40655811Y-37508151D02*
X40655761Y-37508151D01*
X45827451Y-39582951D02*
X45670051Y-39735451D01*
X120536351Y-47372151D02*
X120761851Y-47443051D01*
X94614451Y-66921151D02*
X94875251Y-66944151D01*
X82744551Y-53309251D02*
X82537051Y-53381251D01*
X42100951Y-40072451D02*
X41979251Y-39994451D01*
X122912851Y-50817651D02*
X122881451Y-51054851D01*
X65416251Y-49300151D02*
X65497151Y-49503751D01*
X40055801Y-70519851D02*
X40055801Y-70519851D01*
X110815351Y-92030351D02*
X111076151Y-91975651D01*
X103742251Y-49423551D02*
X103813151Y-49649151D01*
X111498251Y-99126151D02*
X111315451Y-99111951D01*
X97428951Y-37352851D02*
X97432151Y-37571651D01*
X116688551Y-37662751D02*
X116684351Y-37508151D01*
X62380551Y-47519651D02*
X62600051Y-47506951D01*
X94875251Y-40474751D02*
X94652151Y-40499851D01*
X85063151Y-94324751D02*
X85141851Y-94574251D01*
X65403951Y-69719051D02*
X65472051Y-69463251D01*
X69455751Y-74082851D02*
X69188651Y-74112851D01*
X78690551Y-50956051D02*
X78672551Y-50809651D01*
X118639851Y-73967451D02*
X118472551Y-73912051D01*
X109966951Y-98696251D02*
X109816251Y-98609751D01*
X112639251Y-92053351D02*
X112889051Y-92131751D01*
X97432151Y-37571651D02*
X97419351Y-37791151D01*
X98799651Y-47861251D02*
X99000851Y-47729651D01*
X51319851Y-91940351D02*
X51583151Y-91924851D01*
X60756451Y-52826851D02*
X60647751Y-52732551D01*
X41252951Y-39302051D02*
X41169351Y-39184551D01*
X111602051Y-91924851D02*
X111864951Y-91928751D01*
X93720151Y-74053251D02*
X93547951Y-74014451D01*
X44104851Y-66944151D02*
X44363451Y-66986151D01*
X109597151Y-92589451D02*
X109820151Y-92443251D01*
X43655451Y-53763351D02*
X43494251Y-53759451D01*
X108548551Y-93751251D02*
X108685851Y-93528151D01*
X49800551Y-92442951D02*
X50035951Y-92312751D01*
X91434251Y-37281951D02*
X91459351Y-37058851D01*
X40503261Y-51305251D02*
X40468321Y-51149951D01*
X69875051Y-67046051D02*
X70124951Y-67124751D01*
X41806251Y-73611751D02*
X41657351Y-73517551D01*
X80936551Y-47601151D02*
X81153951Y-47555651D01*
X92876651Y-34933951D02*
X93072851Y-34825251D01*
X121854451Y-52924251D02*
X121673051Y-53076351D01*
X115077851Y-94318351D02*
X115156951Y-94568551D01*
X116881251Y-52183151D02*
X116802851Y-52044751D01*
X66129951Y-72803551D02*
X66020851Y-72663451D01*
X91629051Y-36419051D02*
X91715551Y-36217851D01*
X82115551Y-91958751D02*
X82373951Y-92000451D01*
X94425951Y-74123151D02*
X94247351Y-74118551D01*
X54563451Y-93389151D02*
X54713851Y-93609351D01*
X43317851Y-66932451D02*
X43581051Y-66917251D01*
X67749051Y-40272251D02*
X67616051Y-40212251D01*
X96743951Y-39418851D02*
X96597851Y-39582951D01*
X81883451Y-53504451D02*
X81657551Y-53512951D01*
X83587951Y-92483551D02*
X83808151Y-92633551D01*
X116094651Y-70248451D02*
X116124651Y-69981251D01*
X82454751Y-47621351D02*
X82662951Y-47686551D01*
X49577451Y-92589051D02*
X49800551Y-92442951D01*
X40945151Y-36217851D02*
X41046051Y-36024151D01*
X114030751Y-92793751D02*
X114230151Y-92978351D01*
X117603351Y-67580451D02*
X117826751Y-67434351D01*
X123290251Y-70598851D02*
X123274651Y-70862151D01*
X83324051Y-53007151D02*
X83138751Y-53121851D01*
X83778551Y-48392051D02*
X83932451Y-48557551D01*
X43153751Y-34543951D02*
X43372551Y-34514751D01*
X120390651Y-66985751D02*
X120645451Y-67046051D01*
X41798551Y-67433951D02*
X42033951Y-67303751D01*
X66838551Y-35336651D02*
X67002651Y-35190551D01*
X101769051Y-47450451D02*
X101989351Y-47537951D01*
X45870851Y-73364351D02*
X45658351Y-73517551D01*
X95227051Y-34608951D02*
X95435251Y-34674551D01*
X80244851Y-53159651D02*
X80117451Y-53087351D01*
X122427251Y-48776051D02*
X122547251Y-48983251D01*
X46229751Y-39057451D02*
X46107951Y-39243451D01*
X118727351Y-53623651D02*
X118576651Y-53573951D01*
X117778351Y-39823251D02*
X117669651Y-39728751D01*
X71746551Y-36496751D02*
X71812151Y-36705251D01*
X96597851Y-39582951D02*
X96440451Y-39735451D01*
X48059951Y-95530951D02*
X48069851Y-95259551D01*
X47156151Y-71388051D02*
X47081651Y-71646751D01*
X80375751Y-53225351D02*
X80244851Y-53159651D01*
X69067951Y-34505251D02*
X69285651Y-34523951D01*
X71897551Y-37132651D02*
X71916651Y-37350451D01*
X119599751Y-47256351D02*
X119836851Y-47259551D01*
X91335851Y-72369451D02*
X91249051Y-72216351D01*
X115181651Y-96392451D02*
X115107151Y-96650751D01*
X42875551Y-47351251D02*
X43111351Y-47301851D01*
X43586351Y-47256351D02*
X43823851Y-47259851D01*
X78748151Y-51244451D02*
X78716051Y-51101151D01*
X85255151Y-95872951D02*
X85220551Y-96135151D01*
X122183051Y-52581151D02*
X122024551Y-52759051D01*
X82209851Y-99090451D02*
X81942651Y-99120451D01*
X60869751Y-52915751D02*
X60756451Y-52826851D01*
X84447251Y-97823151D02*
X84272251Y-98020051D01*
X80926351Y-53422651D02*
X80785151Y-53383451D01*
X46619751Y-38010051D02*
X46574151Y-38227751D01*
X108696851Y-97543951D02*
X108602951Y-97397851D01*
X71916651Y-37350451D02*
X71919851Y-37569251D01*
X64074551Y-47856351D02*
X64265751Y-47966751D01*
X95973151Y-73775851D02*
X95732151Y-73879651D01*
X122291451Y-48576951D02*
X122427251Y-48776051D01*
X84851751Y-93843651D02*
X84966451Y-94080851D01*
X68051551Y-67022051D02*
X68312351Y-66967351D01*
X99898651Y-47358051D02*
X100134051Y-47308551D01*
X44059651Y-47280351D02*
X44292951Y-47318051D01*
X42863251Y-53665251D02*
X42710051Y-53622851D01*
X80548651Y-92110851D02*
X80806651Y-92036751D01*
X66773651Y-73416151D02*
X66633551Y-73307151D01*
X81657551Y-53512951D02*
X81508951Y-53509451D01*
X41861751Y-39910851D02*
X41748451Y-39821851D01*
X97429251Y-50513051D02*
X97429251Y-50513051D01*
X110302251Y-92199451D02*
X110556651Y-92104851D01*
X65918151Y-37662751D02*
X65913951Y-37508151D01*
X108194651Y-96430851D02*
X108154051Y-96256551D01*
X97571851Y-49559851D02*
X97649851Y-49335351D01*
X84599751Y-49927951D02*
X84634351Y-50142851D01*
X83671551Y-98524051D02*
X83448851Y-98661351D01*
X68561151Y-74105451D02*
X68385051Y-74083551D01*
X97390151Y-38010051D02*
X97344551Y-38227751D01*
X103027951Y-52760451D02*
X102857851Y-52925551D01*
X63953851Y-53223451D02*
X63752651Y-53309951D01*
X48766151Y-97672451D02*
X48664851Y-97528151D01*
X116561451Y-49558451D02*
X116639451Y-49333651D01*
X94088251Y-66932451D02*
X94351451Y-66917251D01*
X54011851Y-92794851D02*
X54211251Y-92979351D01*
X100358451Y-53747551D02*
X100199651Y-53727751D01*
X41595551Y-53027151D02*
X41473751Y-52922351D01*
X97429251Y-50513051D02*
X97438451Y-50268151D01*
X46009151Y-67788351D02*
X46208151Y-67973251D01*
X117198551Y-39185551D02*
X117120251Y-39063851D01*
X41979251Y-39994451D02*
X41861751Y-39910851D01*
X118795151Y-40373151D02*
X118655751Y-40325851D01*
X121284951Y-34961151D02*
X121468451Y-35086151D01*
X81361051Y-53498151D02*
X81214651Y-53480151D01*
X119380951Y-40492451D02*
X119230651Y-40473351D01*
X118061751Y-67304051D02*
X118308851Y-67190751D01*
X94425951Y-40507951D02*
X94271751Y-40503751D01*
X119124751Y-47302251D02*
X119361851Y-47270451D01*
X122864551Y-49873651D02*
X122902351Y-50106851D01*
X40655761Y-37508151D02*
X40663881Y-37281951D01*
X117990851Y-73698551D02*
X117837651Y-73612051D01*
X60752851Y-48195151D02*
X60928251Y-48060651D01*
X120895651Y-34755051D02*
X121093651Y-34850751D01*
X42935951Y-34589551D02*
X43153751Y-34543951D01*
X121404151Y-47753951D02*
X121603251Y-47889551D01*
X61772151Y-53377351D02*
X61632751Y-53330051D01*
X91175251Y-68972651D02*
X91296251Y-68740451D01*
X108602951Y-97397851D02*
X108516451Y-97247151D01*
X71817451Y-68381151D02*
X71967851Y-68601751D01*
X48484151Y-97226051D02*
X48405151Y-97068951D01*
X44194451Y-74083251D02*
X43926951Y-74113251D01*
X66242851Y-68104851D02*
X66425651Y-67916351D01*
X78661351Y-50661751D02*
X78657851Y-50513151D01*
X97330751Y-68382951D02*
X97480751Y-68603151D01*
X123263351Y-70075151D02*
X123286351Y-70336351D01*
X94351451Y-66917251D02*
X94614451Y-66921151D01*
X63752651Y-53309951D02*
X63544851Y-53381951D01*
X83883651Y-98370851D02*
X83671551Y-98524051D01*
X115012951Y-96905551D02*
X114899651Y-97152651D01*
X99290851Y-53451751D02*
X99149051Y-53380451D01*
X98016551Y-70864651D02*
X97981251Y-71127251D01*
X91500251Y-36840451D02*
X91557051Y-36626951D01*
X116758451Y-36840451D02*
X116815251Y-36627251D01*
X97433151Y-50674351D02*
X97429251Y-50513051D01*
X40717211Y-38112351D02*
X40690741Y-37964851D01*
X96972251Y-35905951D02*
X97082651Y-36097251D01*
X98619651Y-53027251D02*
X98497851Y-52922451D01*
X65659451Y-72059551D02*
X65588151Y-71898651D01*
X44028551Y-34524251D02*
X44244251Y-34558851D01*
X118308851Y-73848851D02*
X118147851Y-73777551D01*
X122547251Y-48983251D02*
X122651051Y-49197451D01*
X116455251Y-50993451D02*
X116435451Y-50834651D01*
X46710351Y-68603151D02*
X46843051Y-68832551D01*
X114462451Y-97821451D02*
X114287351Y-98018351D01*
X70930251Y-39733251D02*
X70762951Y-39873751D01*
X47235151Y-70077651D02*
X47257751Y-70338451D01*
X52106851Y-91951751D02*
X52365151Y-91993351D01*
X119913851Y-40499451D02*
X119687651Y-40507951D01*
X93821751Y-40446551D02*
X93676751Y-40412651D01*
X117261651Y-52695851D02*
X117156451Y-52574151D01*
X108080351Y-95530951D02*
X108080251Y-95530951D01*
X71332251Y-73194251D02*
X71131451Y-73362551D01*
X65562751Y-49711951D02*
X65612851Y-49924451D01*
X63544851Y-53381951D02*
X63331351Y-53438751D01*
X70698051Y-35086151D02*
X70873451Y-35225851D01*
X91487551Y-38112351D02*
X91461151Y-37964851D01*
X97743751Y-49117951D02*
X97853151Y-48908351D01*
X92135551Y-67740951D02*
X92345851Y-67579751D01*
X66695251Y-39525451D02*
X66601051Y-39416351D01*
%TD*%
M02*
