%TF.GenerationSoftware,KiCad,Pcbnew,(6.0.6-0)*%
%TF.CreationDate,2022-06-29T08:56:10+01:00*%
%TF.ProjectId,magnum-front-panel,6d61676e-756d-42d6-9672-6f6e742d7061,r03*%
%TF.SameCoordinates,Original*%
%TF.FileFunction,Profile,NP*%
%FSLAX46Y46*%
G04 Gerber Fmt 4.6, Leading zero omitted, Abs format (unit mm)*
G04 Created by KiCad (PCBNEW (6.0.6-0)) date 2022-06-29 08:56:10*
%MOMM*%
%LPD*%
G01*
G04 APERTURE LIST*
%TA.AperFunction,Profile*%
%ADD10C,0.050000*%
%TD*%
G04 APERTURE END LIST*
D10*
X31250000Y-20000000D02*
G75*
G03*
X31000000Y-20250000I0J-250000D01*
G01*
X132300000Y-20250000D02*
G75*
G03*
X132050000Y-20000000I-250000J0D01*
G01*
X132050000Y-148500000D02*
G75*
G03*
X132300000Y-148250000I0J250000D01*
G01*
X31000000Y-148250000D02*
G75*
G03*
X31250000Y-148500000I250000J0D01*
G01*
X115250000Y-95500000D02*
G75*
G03*
X115250000Y-95500000I-3600000J0D01*
G01*
X85250000Y-95500000D02*
G75*
G03*
X85250000Y-95500000I-3600000J0D01*
G01*
X55250000Y-95500000D02*
G75*
G03*
X55250000Y-95500000I-3600000J0D01*
G01*
X123250000Y-70500000D02*
G75*
G03*
X123250000Y-70500000I-3600000J0D01*
G01*
X98000000Y-70500000D02*
G75*
G03*
X98000000Y-70500000I-3600000J0D01*
G01*
X72500000Y-70500000D02*
G75*
G03*
X72500000Y-70500000I-3600000J0D01*
G01*
X47250000Y-70500000D02*
G75*
G03*
X47250000Y-70500000I-3600000J0D01*
G01*
X122900000Y-50500000D02*
G75*
G03*
X122900000Y-50500000I-3250000J0D01*
G01*
X103900000Y-50500000D02*
G75*
G03*
X103900000Y-50500000I-3250000J0D01*
G01*
X84900000Y-50500000D02*
G75*
G03*
X84900000Y-50500000I-3250000J0D01*
G01*
X65900000Y-50500000D02*
G75*
G03*
X65900000Y-50500000I-3250000J0D01*
G01*
X46900000Y-50500000D02*
G75*
G03*
X46900000Y-50500000I-3250000J0D01*
G01*
X122650000Y-37500000D02*
G75*
G03*
X122650000Y-37500000I-3000000J0D01*
G01*
X97400000Y-37500000D02*
G75*
G03*
X97400000Y-37500000I-3000000J0D01*
G01*
X71900000Y-37500000D02*
G75*
G03*
X71900000Y-37500000I-3000000J0D01*
G01*
X46650000Y-37500000D02*
G75*
G03*
X46650000Y-37500000I-3000000J0D01*
G01*
X132300000Y-148250000D02*
X132300000Y-20250000D01*
X31250000Y-148500000D02*
X132050000Y-148500000D01*
X31000000Y-20250000D02*
X31000000Y-148250000D01*
X132050000Y-20000000D02*
X31250000Y-20000000D01*
M02*
