  0
SECTION
  2
HEADER
  9
$MEASUREMENT
  70
  1
  9
$INSUNITS
  70
  4
  0
ENDSEC
  0
SECTION
  2
TABLES
  0
TABLE
  2
LTYPE
 70
     1
  0
LTYPE
  2
CONTINUOUS
 70
    64
  3
Ausgezogene Linie
 72
    65
 73
     0
 40
0.0
  0
ENDTAB
  0
TABLE
  2
LAYER
 70
     3
  0
LAYER
  2
Contour
 70
    64
 62
     7
  6
CONTINUOUS
  0
LAYER
  2
Engraving
 70
    64
 62
     7
  6
CONTINUOUS
  0
LAYER
  2
Reference_points
 70
    64
 62
     1
  6
CONTINUOUS
  0
ENDTAB
  0
TABLE
  2
STYLE
 70
     1
  0
STYLE
  2
TXT
 70
    64
 40
0.0
 41
1.0
 50
0.0
 71
     0
 42
3.500000
  3
TXT
  0
ENDTAB
  0
ENDSEC
  0
SECTION
  2
BLOCKS
  0
ENDSEC
  0
SECTION
  2
ENTITIES
  0
LINE
  8
Contour
 62
   7
 39
0.100
  6
CONTINUOUS
 10
101.30000
 20
128.50000
 30
 0
 11
101.30000
 21
0.00000
  0
LINE
  8
Contour
 62
   7
 39
0.100
  6
CONTINUOUS
 10
101.30000
 20
0.00000
 30
 0
 11
0.00000
 21
0.00000
  0
LINE
  8
Contour
 62
   7
 39
0.100
  6
CONTINUOUS
 10
0.00000
 20
0.00000
 30
 0
 11
0.00000
 21
128.50000
  0
LINE
  8
Contour
 62
   7
 39
0.100
  6
CONTINUOUS
 10
0.00000
 20
128.50000
 30
 0
 11
101.30000
 21
128.50000
  0
CIRCLE
  8
Contour
 62
   7
 39
0.100
  6
CONTINUOUS
 10
12.65000
 20
111.00000
 30
 0
 40
3.00000
  0
CIRCLE
  8
Contour
 62
   7
 39
0.100
  6
CONTINUOUS
 10
12.65000
 20
98.00000
 30
 0
 40
3.25000
  0
CIRCLE
  8
Contour
 62
   7
 39
0.100
  6
CONTINUOUS
 10
12.65000
 20
78.00000
 30
 0
 40
3.60000
  0
CIRCLE
  8
Contour
 62
   7
 39
0.100
  6
CONTINUOUS
 10
20.65000
 20
53.00000
 30
 0
 40
3.60000
  0
CIRCLE
  8
Contour
 62
   7
 39
0.100
  6
CONTINUOUS
 10
80.65000
 20
53.00000
 30
 0
 40
3.60000
  0
CIRCLE
  8
Contour
 62
   7
 39
0.100
  6
CONTINUOUS
 10
50.65000
 20
53.00000
 30
 0
 40
3.60000
  0
CIRCLE
  8
Contour
 62
   7
 39
0.100
  6
CONTINUOUS
 10
88.65000
 20
111.00000
 30
 0
 40
3.00000
  0
CIRCLE
  8
Contour
 62
   7
 39
0.100
  6
CONTINUOUS
 10
88.65000
 20
98.00000
 30
 0
 40
3.25000
  0
CIRCLE
  8
Contour
 62
   7
 39
0.100
  6
CONTINUOUS
 10
88.65000
 20
78.00000
 30
 0
 40
3.60000
  0
CIRCLE
  8
Contour
 62
   7
 39
0.100
  6
CONTINUOUS
 10
50.65000
 20
98.00000
 30
 0
 40
3.25000
  0
CIRCLE
  8
Contour
 62
   7
 39
0.100
  6
CONTINUOUS
 10
37.90000
 20
111.00000
 30
 0
 40
3.00000
  0
CIRCLE
  8
Contour
 62
   7
 39
0.100
  6
CONTINUOUS
 10
63.40000
 20
111.00000
 30
 0
 40
3.00000
  0
CIRCLE
  8
Contour
 62
   7
 39
0.100
  6
CONTINUOUS
 10
37.90000
 20
78.00000
 30
 0
 40
3.60000
  0
CIRCLE
  8
Contour
 62
   7
 39
0.100
  6
CONTINUOUS
 10
63.40000
 20
78.00000
 30
 0
 40
3.60000
  0
CIRCLE
  8
Contour
 62
   7
 39
0.100
  6
CONTINUOUS
 10
31.65000
 20
98.00000
 30
 0
 40
3.25000
  0
CIRCLE
  8
Contour
 62
   7
 39
0.100
  6
CONTINUOUS
 10
69.65000
 20
98.00000
 30
 0
 40
3.25000
  0
ARC
  8
Contour
 62
   7
 39
0.100
  6
CONTINUOUS
 10
7.50000
 20
125.50000
 30
 0
 40
2.99996
 50
170.40580
 51
189.59420
  0
ARC
  8
Contour
 62
   7
 39
0.100
  6
CONTINUOUS
 10
5.72522
 20
125.20000
 30
 0
 40
1.20000
 50
189.59407
 51
269.98969
  0
LINE
  8
Contour
 62
   7
 39
0.100
  6
CONTINUOUS
 10
5.72500
 20
124.00000
 30
 0
 11
9.27500
 21
124.00000
  0
ARC
  8
Contour
 62
   7
 39
0.100
  6
CONTINUOUS
 10
9.27478
 20
125.20000
 30
 0
 40
1.20000
 50
270.01031
 51
350.40593
  0
ARC
  8
Contour
 62
   7
 39
0.100
  6
CONTINUOUS
 10
7.50000
 20
125.50000
 30
 0
 40
2.99996
 50
350.40580
 51
369.59420
  0
ARC
  8
Contour
 62
   7
 39
0.100
  6
CONTINUOUS
 10
9.27478
 20
125.80000
 30
 0
 40
1.20000
 50
9.59407
 51
89.98969
  0
LINE
  8
Contour
 62
   7
 39
0.100
  6
CONTINUOUS
 10
9.27500
 20
127.00000
 30
 0
 11
5.72500
 21
127.00000
  0
ARC
  8
Contour
 62
   7
 39
0.100
  6
CONTINUOUS
 10
5.72522
 20
125.80000
 30
 0
 40
1.20000
 50
90.01031
 51
170.40593
  0
ARC
  8
Contour
 62
   7
 39
0.100
  6
CONTINUOUS
 10
93.80000
 20
125.50000
 30
 0
 40
2.99996
 50
170.40580
 51
189.59420
  0
ARC
  8
Contour
 62
   7
 39
0.100
  6
CONTINUOUS
 10
92.02522
 20
125.20000
 30
 0
 40
1.20000
 50
189.59407
 51
269.98969
  0
LINE
  8
Contour
 62
   7
 39
0.100
  6
CONTINUOUS
 10
92.02500
 20
124.00000
 30
 0
 11
95.57500
 21
124.00000
  0
ARC
  8
Contour
 62
   7
 39
0.100
  6
CONTINUOUS
 10
95.57478
 20
125.20000
 30
 0
 40
1.20000
 50
270.01031
 51
350.40593
  0
ARC
  8
Contour
 62
   7
 39
0.100
  6
CONTINUOUS
 10
93.80000
 20
125.50000
 30
 0
 40
2.99996
 50
350.40580
 51
369.59420
  0
ARC
  8
Contour
 62
   7
 39
0.100
  6
CONTINUOUS
 10
95.57478
 20
125.80000
 30
 0
 40
1.20000
 50
9.59407
 51
89.98969
  0
LINE
  8
Contour
 62
   7
 39
0.100
  6
CONTINUOUS
 10
95.57500
 20
127.00000
 30
 0
 11
92.02500
 21
127.00000
  0
ARC
  8
Contour
 62
   7
 39
0.100
  6
CONTINUOUS
 10
92.02522
 20
125.80000
 30
 0
 40
1.20000
 50
90.01031
 51
170.40593
  0
ARC
  8
Contour
 62
   7
 39
0.100
  6
CONTINUOUS
 10
93.80000
 20
3.00000
 30
 0
 40
2.99996
 50
170.40580
 51
189.59420
  0
ARC
  8
Contour
 62
   7
 39
0.100
  6
CONTINUOUS
 10
92.02522
 20
2.70000
 30
 0
 40
1.20000
 50
189.59407
 51
269.98969
  0
LINE
  8
Contour
 62
   7
 39
0.100
  6
CONTINUOUS
 10
92.02500
 20
1.50000
 30
 0
 11
95.57500
 21
1.50000
  0
ARC
  8
Contour
 62
   7
 39
0.100
  6
CONTINUOUS
 10
95.57478
 20
2.70000
 30
 0
 40
1.20000
 50
270.01031
 51
350.40593
  0
ARC
  8
Contour
 62
   7
 39
0.100
  6
CONTINUOUS
 10
93.80000
 20
3.00000
 30
 0
 40
2.99996
 50
350.40580
 51
369.59420
  0
ARC
  8
Contour
 62
   7
 39
0.100
  6
CONTINUOUS
 10
95.57478
 20
3.30000
 30
 0
 40
1.20000
 50
9.59407
 51
89.98969
  0
LINE
  8
Contour
 62
   7
 39
0.100
  6
CONTINUOUS
 10
95.57500
 20
4.50000
 30
 0
 11
92.02500
 21
4.50000
  0
ARC
  8
Contour
 62
   7
 39
0.100
  6
CONTINUOUS
 10
92.02522
 20
3.30000
 30
 0
 40
1.20000
 50
90.01031
 51
170.40593
  0
ARC
  8
Contour
 62
   7
 39
0.100
  6
CONTINUOUS
 10
7.50000
 20
3.00000
 30
 0
 40
2.99996
 50
170.40580
 51
189.59420
  0
ARC
  8
Contour
 62
   7
 39
0.100
  6
CONTINUOUS
 10
5.72522
 20
2.70000
 30
 0
 40
1.20000
 50
189.59407
 51
269.98969
  0
LINE
  8
Contour
 62
   7
 39
0.100
  6
CONTINUOUS
 10
5.72500
 20
1.50000
 30
 0
 11
9.27500
 21
1.50000
  0
ARC
  8
Contour
 62
   7
 39
0.100
  6
CONTINUOUS
 10
9.27478
 20
2.70000
 30
 0
 40
1.20000
 50
270.01031
 51
350.40593
  0
ARC
  8
Contour
 62
   7
 39
0.100
  6
CONTINUOUS
 10
7.50000
 20
3.00000
 30
 0
 40
2.99996
 50
350.40580
 51
369.59420
  0
ARC
  8
Contour
 62
   7
 39
0.100
  6
CONTINUOUS
 10
9.27478
 20
3.30000
 30
 0
 40
1.20000
 50
9.59407
 51
89.98969
  0
LINE
  8
Contour
 62
   7
 39
0.100
  6
CONTINUOUS
 10
9.27500
 20
4.50000
 30
 0
 11
5.72500
 21
4.50000
  0
ARC
  8
Contour
 62
   7
 39
0.100
  6
CONTINUOUS
 10
5.72522
 20
3.30000
 30
 0
 40
1.20000
 50
90.01031
 51
170.40593
  0
LINE
  8
Reference_points
 62
   1
 39
0.100
  6
CONTINUOUS
 10
-0.51900
 20
0.00000
 30
 0
 11
0.51900
 21
0.00000
  0
LINE
  8
Reference_points
 62
   1
 39
0.100
  6
CONTINUOUS
 10
0.00000
 20
-0.51900
 30
 0
 11
0.00000
 21
0.51900
  0
LINE
  8
Reference_points
 62
   1
 39
0.100
  6
CONTINUOUS
 10
12.13100
 20
111.00000
 30
 0
 11
13.16900
 21
111.00000
  0
LINE
  8
Reference_points
 62
   1
 39
0.100
  6
CONTINUOUS
 10
12.65000
 20
110.48100
 30
 0
 11
12.65000
 21
111.51900
  0
LINE
  8
Reference_points
 62
   1
 39
0.100
  6
CONTINUOUS
 10
12.13100
 20
98.00000
 30
 0
 11
13.16900
 21
98.00000
  0
LINE
  8
Reference_points
 62
   1
 39
0.100
  6
CONTINUOUS
 10
12.65000
 20
97.48100
 30
 0
 11
12.65000
 21
98.51900
  0
LINE
  8
Reference_points
 62
   1
 39
0.100
  6
CONTINUOUS
 10
12.13100
 20
78.00000
 30
 0
 11
13.16900
 21
78.00000
  0
LINE
  8
Reference_points
 62
   1
 39
0.100
  6
CONTINUOUS
 10
12.65000
 20
77.48100
 30
 0
 11
12.65000
 21
78.51900
  0
LINE
  8
Reference_points
 62
   1
 39
0.100
  6
CONTINUOUS
 10
20.13100
 20
53.00000
 30
 0
 11
21.16900
 21
53.00000
  0
LINE
  8
Reference_points
 62
   1
 39
0.100
  6
CONTINUOUS
 10
20.65000
 20
52.48100
 30
 0
 11
20.65000
 21
53.51900
  0
LINE
  8
Reference_points
 62
   1
 39
0.100
  6
CONTINUOUS
 10
80.13100
 20
53.00000
 30
 0
 11
81.16900
 21
53.00000
  0
LINE
  8
Reference_points
 62
   1
 39
0.100
  6
CONTINUOUS
 10
80.65000
 20
52.48100
 30
 0
 11
80.65000
 21
53.51900
  0
LINE
  8
Reference_points
 62
   1
 39
0.100
  6
CONTINUOUS
 10
50.13100
 20
53.00000
 30
 0
 11
51.16900
 21
53.00000
  0
LINE
  8
Reference_points
 62
   1
 39
0.100
  6
CONTINUOUS
 10
50.65000
 20
52.48100
 30
 0
 11
50.65000
 21
53.51900
  0
LINE
  8
Reference_points
 62
   1
 39
0.100
  6
CONTINUOUS
 10
88.13100
 20
111.00000
 30
 0
 11
89.16900
 21
111.00000
  0
LINE
  8
Reference_points
 62
   1
 39
0.100
  6
CONTINUOUS
 10
88.65000
 20
110.48100
 30
 0
 11
88.65000
 21
111.51900
  0
LINE
  8
Reference_points
 62
   1
 39
0.100
  6
CONTINUOUS
 10
88.13100
 20
98.00000
 30
 0
 11
89.16900
 21
98.00000
  0
LINE
  8
Reference_points
 62
   1
 39
0.100
  6
CONTINUOUS
 10
88.65000
 20
97.48100
 30
 0
 11
88.65000
 21
98.51900
  0
LINE
  8
Reference_points
 62
   1
 39
0.100
  6
CONTINUOUS
 10
88.13100
 20
78.00000
 30
 0
 11
89.16900
 21
78.00000
  0
LINE
  8
Reference_points
 62
   1
 39
0.100
  6
CONTINUOUS
 10
88.65000
 20
77.48100
 30
 0
 11
88.65000
 21
78.51900
  0
LINE
  8
Reference_points
 62
   1
 39
0.100
  6
CONTINUOUS
 10
50.13100
 20
98.00000
 30
 0
 11
51.16900
 21
98.00000
  0
LINE
  8
Reference_points
 62
   1
 39
0.100
  6
CONTINUOUS
 10
50.65000
 20
97.48100
 30
 0
 11
50.65000
 21
98.51900
  0
LINE
  8
Reference_points
 62
   1
 39
0.100
  6
CONTINUOUS
 10
37.38100
 20
111.00000
 30
 0
 11
38.41900
 21
111.00000
  0
LINE
  8
Reference_points
 62
   1
 39
0.100
  6
CONTINUOUS
 10
37.90000
 20
110.48100
 30
 0
 11
37.90000
 21
111.51900
  0
LINE
  8
Reference_points
 62
   1
 39
0.100
  6
CONTINUOUS
 10
62.88100
 20
111.00000
 30
 0
 11
63.91900
 21
111.00000
  0
LINE
  8
Reference_points
 62
   1
 39
0.100
  6
CONTINUOUS
 10
63.40000
 20
110.48100
 30
 0
 11
63.40000
 21
111.51900
  0
LINE
  8
Reference_points
 62
   1
 39
0.100
  6
CONTINUOUS
 10
37.38100
 20
78.00000
 30
 0
 11
38.41900
 21
78.00000
  0
LINE
  8
Reference_points
 62
   1
 39
0.100
  6
CONTINUOUS
 10
37.90000
 20
77.48100
 30
 0
 11
37.90000
 21
78.51900
  0
LINE
  8
Reference_points
 62
   1
 39
0.100
  6
CONTINUOUS
 10
62.88100
 20
78.00000
 30
 0
 11
63.91900
 21
78.00000
  0
LINE
  8
Reference_points
 62
   1
 39
0.100
  6
CONTINUOUS
 10
63.40000
 20
77.48100
 30
 0
 11
63.40000
 21
78.51900
  0
LINE
  8
Reference_points
 62
   1
 39
0.100
  6
CONTINUOUS
 10
31.13100
 20
98.00000
 30
 0
 11
32.16900
 21
98.00000
  0
LINE
  8
Reference_points
 62
   1
 39
0.100
  6
CONTINUOUS
 10
31.65000
 20
97.48100
 30
 0
 11
31.65000
 21
98.51900
  0
LINE
  8
Reference_points
 62
   1
 39
0.100
  6
CONTINUOUS
 10
69.13100
 20
98.00000
 30
 0
 11
70.16900
 21
98.00000
  0
LINE
  8
Reference_points
 62
   1
 39
0.100
  6
CONTINUOUS
 10
69.65000
 20
97.48100
 30
 0
 11
69.65000
 21
98.51900
  0
LINE
  8
Reference_points
 62
   1
 39
0.100
  6
CONTINUOUS
 10
6.98100
 20
125.50000
 30
 0
 11
8.01900
 21
125.50000
  0
LINE
  8
Reference_points
 62
   1
 39
0.100
  6
CONTINUOUS
 10
7.50000
 20
124.98100
 30
 0
 11
7.50000
 21
126.01900
  0
LINE
  8
Reference_points
 62
   1
 39
0.100
  6
CONTINUOUS
 10
93.28100
 20
125.50000
 30
 0
 11
94.31900
 21
125.50000
  0
LINE
  8
Reference_points
 62
   1
 39
0.100
  6
CONTINUOUS
 10
93.80000
 20
124.98100
 30
 0
 11
93.80000
 21
126.01900
  0
LINE
  8
Reference_points
 62
   1
 39
0.100
  6
CONTINUOUS
 10
93.28100
 20
3.00000
 30
 0
 11
94.31900
 21
3.00000
  0
LINE
  8
Reference_points
 62
   1
 39
0.100
  6
CONTINUOUS
 10
93.80000
 20
2.48100
 30
 0
 11
93.80000
 21
3.51900
  0
LINE
  8
Reference_points
 62
   1
 39
0.100
  6
CONTINUOUS
 10
6.98100
 20
3.00000
 30
 0
 11
8.01900
 21
3.00000
  0
LINE
  8
Reference_points
 62
   1
 39
0.100
  6
CONTINUOUS
 10
7.50000
 20
2.48100
 30
 0
 11
7.50000
 21
3.51900
  0
ENDSEC
  0
EOF
